<?xml version="1.0" encoding="UTF-8"?>
<svg xmlns="http://www.w3.org/2000/svg" xmlns:xlink="http://www.w3.org/1999/xlink" width="365pt" height="72.42pt" viewBox="0 0 365 72.42" version="1.1">
<defs>
<clipPath id="clip1">
  <path d="M 185 0 L 365 0 L 365 72.421875 L 185 72.421875 Z M 185 0 "/>
</clipPath>
<clipPath id="clip2">
  <path d="M 0 18 L 88 18 L 88 72.421875 L 0 72.421875 Z M 0 18 "/>
</clipPath>
<clipPath id="clip3">
  <path d="M 92 18 L 180 18 L 180 72.421875 L 92 72.421875 Z M 92 18 "/>
</clipPath>
<clipPath id="clip4">
  <path d="M 185 18 L 204 18 L 204 72.421875 L 185 72.421875 Z M 185 18 "/>
</clipPath>
<clipPath id="clip5">
  <path d="M 206 18 L 275 18 L 275 72.421875 L 206 72.421875 Z M 206 18 "/>
</clipPath>
<clipPath id="clip6">
  <path d="M 277 18 L 346 18 L 346 72.421875 L 277 72.421875 Z M 277 18 "/>
</clipPath>
</defs>
<g id="surface1">
<path style=" stroke:none;fill-rule:nonzero;fill:rgb(21.598816%,21.598816%,21.598816%);fill-opacity:1;" d="M 0 0.0742188 C 59.796875 0.0742188 119.589844 0.0742188 179.386719 0.0742188 C 179.28125 0.386719 179.386719 15.023438 179.386719 15.023438 C 125.230469 15.34375 61.792969 15.101563 0 15.023438 C 0 10.042969 0 5.058594 0 0.0742188 "/>
<g clip-path="url(#clip1)" clip-rule="nonzero">
<path style=" stroke:none;fill-rule:nonzero;fill:rgb(21.598816%,21.598816%,21.598816%);fill-opacity:1;" d="M 365 0.0742188 C 365 23.746094 364.835938 48.671875 364.835938 72.339844 L 348.808594 72.261719 L 348.808594 15.117188 C 302.703125 15.179688 185.613281 15.023438 185.613281 15.023438 L 185.535156 0.00390625 C 244.914063 0.00390625 305.621094 0.0742188 365 0.0742188 "/>
</g>
<g clip-path="url(#clip2)" clip-rule="nonzero">
<path style=" stroke:none;fill-rule:nonzero;fill:rgb(21.598816%,21.598816%,21.598816%);fill-opacity:1;" d="M 0 18.761719 C 29.066406 18.761719 58.136719 18.761719 87.203125 18.761719 L 87.203125 72.328125 C 82.21875 72.328125 77.234375 72.328125 72.253906 72.328125 L 72.253906 36.203125 C 48.167969 36.203125 24.085938 36.203125 0 36.203125 C 0 30.386719 0 24.574219 0 18.761719 "/>
</g>
<g clip-path="url(#clip3)" clip-rule="nonzero">
<path style=" stroke:none;fill-rule:nonzero;fill:rgb(21.598816%,21.598816%,21.598816%);fill-opacity:1;" d="M 92.183594 72.328125 L 92.183594 18.761719 C 121.25 18.761719 150.320313 18.761719 179.386719 18.761719 L 179.179688 36.097656 C 155.507813 36.097656 130.800781 36.203125 107.132813 36.203125 C 107.132813 48.242188 107.132813 60.285156 107.132813 72.328125 "/>
</g>
<g clip-path="url(#clip4)" clip-rule="nonzero">
<path style=" stroke:none;fill-rule:nonzero;fill:rgb(21.598816%,21.598816%,21.598816%);fill-opacity:1;" d="M 185.695313 72.421875 L 185.613281 18.761719 L 203.054688 18.679688 L 203.136719 72.417969 "/>
</g>
<g clip-path="url(#clip5)" clip-rule="nonzero">
<path style=" stroke:none;fill-rule:nonzero;fill:rgb(21.598816%,21.598816%,21.598816%);fill-opacity:1;" d="M 206.792969 72.328125 C 206.5 62.671875 206.75 32.066406 206.792969 18.761719 C 229.214844 18.761719 251.636719 18.761719 274.0625 18.761719 C 274.0625 36.617188 274.0625 54.472656 274.0625 72.328125 L 259.113281 72.328125 C 258.699219 72.328125 258.28125 72.328125 257.867188 72.328125 C 257.867188 60.285156 257.867188 48.242188 257.867188 36.203125 L 221.574219 36.132813 L 221.742188 72.328125 "/>
</g>
<g clip-path="url(#clip6)" clip-rule="nonzero">
<path style=" stroke:none;fill-rule:nonzero;fill:rgb(21.598816%,21.598816%,21.598816%);fill-opacity:1;" d="M 328.792969 72.34375 L 328.875 36.203125 L 295.238281 36.203125 L 295.238281 72.257813 C 294.824219 72.257813 291.917969 72.328125 291.503906 72.328125 L 279.042969 72.328125 C 278.628906 72.328125 278.214844 72.328125 277.800781 72.328125 C 277.800781 54.472656 277.800781 36.617188 277.800781 18.761719 C 300.222656 18.761719 322.644531 18.761719 345.066406 18.761719 C 345.066406 36.617188 345.066406 54.472656 345.066406 72.328125 "/>
</g>
</g>
</svg>