<svg id="Layer_1" data-name="Layer 1" xmlns="http://www.w3.org/2000/svg" viewBox="0 0 128 128"><defs><style>.cls-1{fill:#303640;}.cls-2{fill:#fdfefe;}.cls-3{fill:#3d474c;}.cls-4{fill:#01133a;}.cls-5{fill:#568799;}.cls-6{fill:#333e45;}.cls-7{fill:#beecf7;}.cls-8{fill:#14749c;}.cls-9{fill:#235064;}.cls-10{fill:#1a2b35;}.cls-11{fill:#1580b0;}.cls-12{fill:#011635;}.cls-13{fill:#064266;}.cls-14{fill:#102b3b;}.cls-15{fill:#0a4b6b;}.cls-16{fill:#011d40;}.cls-17{fill:#286f95;}.cls-18{fill:#0c2c40;}.cls-19{fill:#011e38;}.cls-20{fill:#227c9d;}.cls-21{fill:#3a5a65;}.cls-22{fill:#1d788c;}.cls-23{fill:#1e2e38;}.cls-24{fill:#023f70;}.cls-25{fill:#21749c;}.cls-26{fill:#cbdde5;}.cls-27{fill:#14475f;}.cls-28{fill:#5e90a1;}.cls-29{fill:#044d7c;}.cls-30{fill:#4ec5f3;}.cls-31{fill:#02253c;}.cls-32{fill:#012f5e;}.cls-33{fill:#62e0f8;}.cls-34{fill:#5fd9f8;}.cls-35{fill:#212f38;}.cls-36{fill:#18779c;}.cls-37{fill:#ebebec;}.cls-38{fill:#c4fefe;}.cls-39{fill:#156c8a;}.cls-40{fill:#25a6e1;}.cls-41{fill:#6590a8;}.cls-42{fill:#2791bd;}.cls-43{fill:#79fcfe;}.cls-44{fill:#5d8da8;}.cls-45{fill:#435560;}.cls-46{fill:#56daf5;}.cls-47{fill:#034c7d;}.cls-48{fill:#37424c;}.cls-49{fill:#040818;}.cls-50{fill:#075d87;}.cls-51{fill:#3a5769;}.cls-52{fill:#425d6b;}.cls-53{fill:#457386;}.cls-54{fill:#d4e3ea;}.cls-55{fill:#4f8093;}.cls-56{fill:#d9fcfe;}.cls-57{fill:#d8f4f7;}.cls-58{fill:#497385;}.cls-59{fill:#496977;}.cls-60{fill:#50879d;}.cls-61{fill:#d7e7e9;}.cls-62{fill:#5e99b1;}.cls-63{fill:#e6fefe;}.cls-64{fill:#e8fefe;}.cls-65{fill:#e6fdfe;}.cls-66{fill:#0f4d73;}.cls-67{fill:#467e94;}.cls-68{fill:#2e5464;}.cls-69{fill:#2c5b6f;}.cls-70{fill:#3b5e6a;}.cls-71{fill:#cddee5;}.cls-72{fill:#003a5f;}.cls-73{fill:#1a799a;}.cls-74{fill:#237d9e;}.cls-75{fill:#1a7398;}.cls-76{fill:#1e82aa;}.cls-77{fill:#23849d;}.cls-78{fill:#0b222f;}.cls-79{fill:#4c7c8e;}.cls-80{fill:#215b76;}.cls-81{fill:#122734;}.cls-82{fill:#c6d9e2;}.cls-83{fill:#314653;}.cls-84{fill:#97a9b5;}.cls-85{fill:#3b4f5b;}.cls-86{fill:#2699cc;}.cls-87{fill:#2b5f7c;}.cls-88{fill:#003a64;}.cls-89{fill:#002348;}.cls-90{fill:#4e6877;}.cls-91{fill:#47697a;}.cls-92{fill:#0f4c69;}.cls-93{fill:#185470;}.cls-94{fill:#055278;}.cls-95{fill:#185b7b;}.cls-96{fill:#1d577b;}.cls-97{fill:#367899;}.cls-98{fill:#2e7c9f;}.cls-99{fill:#3581a5;}.cls-100{fill:#40667b;}.cls-101{fill:#345d75;}.cls-102{fill:#297e9f;}.cls-103{fill:#186e94;}.cls-104{fill:#3b5f6d;}.cls-105{fill:#237d8e;}.cls-106{fill:#288b91;}.cls-107{fill:#002f59;}.cls-108{fill:#00335e;}.cls-109{fill:#001f4f;}.cls-110{fill:#004674;}.cls-111{fill:#29799e;}.cls-112{fill:#34b3e8;}.cls-113{fill:#56d3fe;}.cls-114{fill:#1485bc;}.cls-115{fill:#68e6fe;}.cls-116{fill:#57d8fe;}.cls-117{fill:#4fcafe;}.cls-118{fill:#ddedf5;}.cls-119{fill:#1c6b86;}.cls-120{fill:#4dd3fd;}.cls-121{fill:#64e8fe;}.cls-122{fill:#61e3fe;}.cls-123{fill:#50cefe;}.cls-124{fill:#49cdfe;}.cls-125{fill:#4bcbfe;}.cls-126{fill:#385766;}.cls-127{fill:#628d9f;}.cls-128{fill:#567888;}.cls-129{fill:#587f91;}.cls-130{fill:#628693;}.cls-131{fill:#466879;}.cls-132{fill:#cefcfe;}.cls-133{fill:#416373;}.cls-134{fill:#6fb2cc;}.cls-135{fill:#234f62;}.cls-136{fill:#144e68;}.cls-137{fill:#26627c;}.cls-138{fill:#003f6a;}.cls-139{fill:#2b83a2;}.cls-140{fill:#288bba;}.cls-141{fill:#a5fcfe;}.cls-142{fill:#2a86a1;}.cls-143{fill:#227499;}.cls-144{fill:#4d6774;}.cls-145{fill:#48baeb;}.cls-146{fill:#2190c2;}.cls-147{fill:#3e6b83;}.cls-148{fill:#4f798d;}.cls-149{fill:#023e61;}.cls-150{fill:#11455e;}.cls-151{fill:#4f8ba7;}.cls-152{fill:#4885a5;}.cls-153{fill:#5086a0;}.cls-154{fill:#5090af;}.cls-155{fill:#2c6f91;}.cls-156{fill:#47758b;}.cls-157{fill:#2c8d91;}.cls-158{fill:#5bd7fe;}.cls-159{fill:#59dafe;}.cls-160{fill:#001e4a;}.cls-161{fill:#359192;}.cls-162{fill:#277d8d;}.cls-163{fill:#2aa4da;}.cls-164{fill:#6ae6fe;}.cls-165{fill:#277286;}.cls-166{fill:#267e97;}.cls-167{fill:#2a728b;}.cls-168{fill:#23718a;}.cls-169{fill:#398ca4;}.cls-170{fill:#3db8ee;}.cls-171{fill:#79f4fe;}.cls-172{fill:#2ba3dd;}.cls-173{fill:#6ae7fe;}.cls-174{fill:#68e5fe;}.cls-175{fill:#5c91a8;}.cls-176{fill:#528399;}.cls-177{fill:#7ca9be;}.cls-178{fill:#6d97a9;}.cls-179{fill:#6b91a2;}.cls-180{fill:#739daa;}.cls-181{fill:#558194;}.cls-182{fill:#53879f;}.cls-183{fill:#d9fefe;}.cls-184{fill:#a5eafe;}.cls-185{fill:#8ad5f2;}.cls-186{fill:#7ec3df;}.cls-187{fill:#9ae4fb;}.cls-188{fill:#e5fefe;}.cls-189{fill:#5793ae;}.cls-190{fill:#ace0ed;}.cls-191{fill:#cefefe;}.cls-192{fill:#b7f3fe;}.cls-193{fill:#183f4f;}.cls-194{fill:#acfdfe;}.cls-195{fill:#81e0fe;}.cls-196{fill:#54aece;}.cls-197{fill:#78d1f8;}.cls-198{fill:#429cc3;}.cls-199{fill:#3fa7d5;}.cls-200{fill:#2f799c;}.cls-201{fill:#358ba9;}.cls-202{fill:#43bbee;}.cls-203{fill:#6496ae;}.cls-204{fill:#719aad;}.cls-205{fill:#a1f4fa;}.cls-206{fill:#8fe7fe;}.cls-207{fill:#62d7fe;}.cls-208{fill:#77e1fe;}.cls-209{fill:#80f1fe;}.cls-210{fill:#87e4fe;}.cls-211{fill:#023853;}.cls-212{fill:#035;}.cls-213{fill:#a8f4fe;}.cls-214{fill:#adf3fb;}.cls-215{fill:#113e51;}.cls-216{fill:#43839d;}.cls-217{fill:#387390;}.cls-218{fill:#3a8d90;}.cls-219{fill:#438ca9;}.cls-220{fill:#6996ab;}.cls-221{fill:#6de4f8;}.cls-222{fill:#35b6eb;}.cls-223{fill:#338194;}.cls-224{fill:#357a8a;}.cls-225{fill:#357a8e;}.cls-226{fill:#348195;}.cls-227{fill:#287892;}.cls-228{fill:#68e1fe;}.cls-229{fill:#51c9fc;}.cls-230{fill:#67a0b6;}.cls-231{fill:#4d8297;}.cls-232{fill:#538daa;}.cls-233{fill:#437791;}.cls-234{fill:#6e9eb3;}.cls-235{fill:#6aa5bc;}.cls-236{fill:#4c8aa2;}.cls-237{fill:#cbfefe;}.cls-238{fill:#c7f5f8;}.cls-239{fill:#a7f0fd;}.cls-240{fill:#b8f3fd;}.cls-241{fill:#79c4e1;}.cls-242{fill:#4a82a0;}.cls-243{fill:#5a9bb7;}.cls-244{fill:#c9fefe;}.cls-245{fill:#67c4e5;}.cls-246{fill:#affefe;}.cls-247{fill:#95e9fe;}.cls-248{fill:#3d8eb6;}.cls-249{fill:#6ac6ee;}.cls-250{fill:#2f7f93;}.cls-251{fill:#8feefc;}.cls-252{fill:#7ad9fe;}.cls-253{fill:#387d98;}.cls-254{fill:#4698b9;}.cls-255{fill:#86f0fe;}.cls-256{fill:#5bc5ee;}.cls-257{fill:#b6fdfe;}.cls-258{fill:#76d1f7;}.cls-259{fill:#9afefe;}.cls-260{fill:#6bddfe;}.cls-261{fill:#acfbfe;}.cls-262{fill:#ccfefe;}.cls-263{fill:#b2fdfe;}.cls-264{fill:#c6fefe;}.cls-265{fill:#96e4fe;}.cls-266{fill:#4c94a7;}.cls-267{fill:#428287;}.cls-268{fill:#3d8590;}.cls-269{fill:#3a7a95;}.cls-270{fill:#75e9fe;}.cls-271{fill:#47869d;}.cls-272{fill:#47889e;}.cls-273{fill:#427c90;}.cls-274{fill:#478bae;}.cls-275{fill:#73cdf0;}.cls-276{fill:#5cafd2;}.cls-277{fill:#60b0ce;}.cls-278{fill:#529dbd;}.cls-279{fill:#5fabc7;}.cls-280{fill:#62b3d3;}.cls-281{fill:#489ec2;}.cls-282{fill:#4ca6cd;}.cls-283{fill:#9cf3fe;}.cls-284{fill:#56aed7;}.cls-285{fill:#4490b6;}.cls-286{fill:#4596bb;}.cls-287{fill:#66d4fe;}.cls-288{fill:#3d7e9f;}.cls-289{fill:#86e5fe;}.cls-290{fill:#b1fefe;}.cls-291{fill:#88f7fe;}.cls-292{fill:#b0fafe;}.cls-293{fill:#8ce5fe;}.cls-294{fill:#91e4fe;}.cls-295{fill:#c1fefe;}.cls-296{fill:#78cbed;}.cls-297{fill:#7ac2dc;}.cls-298{fill:#c3fefe;}.cls-299{fill:#64bfe1;}.cls-300{fill:#7fcbe8;}.cls-301{fill:#9ceafa;}.cls-302{fill:#96fcfe;}</style></defs><path class="cls-1" d="M51.7,122.9c-3.37.13-5.24-1.13-6.55-3.62-4.47-8.55-9.06-17-13.58-25.55-1.32-2.48-1.37-5,1.06-6.69s2.53-4,2.24-6.6Q32,54.75,29.15,29.06c-.51-4.6,1.45-6.64,6.22-7,6.77-.56,13.52-1.38,20.3-1.79,3.11-.19,4.54-1.28,4.48-4.47,0-1.46.65-2.92.78-4.4.62-7.19.6-6.95,7.59-7.15C72.6,4.11,73.8,6,74,9.51c.54,10.4.58,10.39,10.65,13.23q5.76,1.62,11.49,3.34c3.5,1.06,5.08,3.25,4.6,7.1-2.43,19.74-4.65,39.51-7.16,59.24-.39,3,1.67,4.1,3.14,5.74,3.42,3.83,3.21,7.24-1.47,9-13.94,5.41-28.07,10.37-42.13,15.48A5.1,5.1,0,0,1,51.7,122.9Z"/><path class="cls-2" d="M38.17,88C37.44,72.18,35,56.53,33.63,40.78c-.23-2.63-.53-5.25-.8-7.87-.4-1.28-.68-2.63.8-3.36a2.64,2.64,0,0,1,3.08.77,16.24,16.24,0,0,0,4.77,3.22c2.06,1.8,4.6,3,6.58,4.87a6,6,0,0,1,1.34,2.75,24.43,24.43,0,0,1-.07,5.27c-.09.31-.16.73-.4.84-3.69,1.57,1,1.14.47,2,1.8,2.4.84,5.19,1.11,7.81v8.71a54.84,54.84,0,0,1-1,10.29c-3.75,3.18,1.64,3.79,1.67,5.91.66,2.33.2,4.73.36,7.09,0,3.06-.25,6.13.63,9.13a3,3,0,0,1-.83,2c-4.07,1.4-4.44-3.1-6.88-4.3a9.39,9.39,0,0,0-5.83-4.62C37.74,90.26,37.26,89.21,38.17,88Z"/><path class="cls-3" d="M38.17,88l.89,3c2.72.85,3.53,3,3.92,5.54-.65,1.91-.55,4.7-4,3.49-2.41-1.21-3.29-3.59-4.38-5.8C32.35,89.5,32.67,89,38.17,88Z"/><path class="cls-4" d="M92.09,98.78c1.46,1.17,4,1.6,3.54,4.16-.4,2.19-2.73,2.12-4.34,2.72A50.82,50.82,0,0,1,86.06,107c-3.31-.08-2.83-2.13-2.22-4.25,1.2-1.93,3.38-2.35,5.18-3.34C90,99.18,91.06,99,92.09,98.78Z"/><path class="cls-5" d="M41.05,35a41.8,41.8,0,0,1-5.53-3.73c-3.16-2.92-2.22.4-2.69,1.61-1.45-1.84-.65-3.9-.57-5.88,3.57-2,5.54,2.4,8.67,2.16a5.3,5.3,0,0,1,1.32,0,5.77,5.77,0,0,1,2.46.9,12.36,12.36,0,0,1,1.49,1.31c.79,1,2.17,1.7,2.18,3.27a2,2,0,0,1-.75,1.12C45.29,36.88,43.23,35.4,41.05,35Z"/><path class="cls-6" d="M39,100c2.17-.22,1.95-2.43,3-3.59a.93.93,0,0,1,1.12-.65,28.56,28.56,0,0,1,3.78,5.52,2.44,2.44,0,0,1-1,2.72c-1,1-.93,3-2.71,3.09s-2-1.89-2.59-3.08A33.33,33.33,0,0,1,39,100Z"/><path class="cls-7" d="M67,23.71c2.84-1.91,1.41-5.13,2.35-7.62.54-.56,1-.63,1.5.1.12,1.91.23,3.82.35,5.73,1.67,1.69,1.63,3.7,1.09,5.81-.81,1.74-1.79,3.17-4,2.05C66.38,28.05,65.27,26.16,67,23.71Z"/><path class="cls-8" d="M92.79,71a6,6,0,0,1-.73,4.1c-1.25.3-2.36,1.18-3.74,1a7,7,0,0,1-2,.06A3.07,3.07,0,0,1,84.48,75a3.66,3.66,0,0,1,0-3.46c.41-1.11,1-2.17,1.46-3.24a3.21,3.21,0,0,1,1.72-1.22C90.85,66.46,91.37,69.32,92.79,71Z"/><path class="cls-9" d="M45,24.07h6c1.77.05,3.6-.31,5.22.76a2.77,2.77,0,0,1,.62,2.23,3.15,3.15,0,0,1-2.1,2.26,9.23,9.23,0,0,1-1.56.19c-.51,0-1,0-1.53,0-1.44-.07-2.94.19-4.28-.6a13.36,13.36,0,0,0-3.09-2.28,2.32,2.32,0,0,1-.63-1.17C43.75,24.64,44.5,24.47,45,24.07Z"/><path class="cls-10" d="M48,116a6,6,0,0,1-2-4c.71-1.54.64-3.56,2.64-4.32a3.06,3.06,0,0,1,1.8.82c.77.76,1.28,1.73,2.11,2.43a5.07,5.07,0,0,1,1,1.56,8.4,8.4,0,0,1,.39,1.2,3.81,3.81,0,0,1,.15,2.6,3.62,3.62,0,0,1-1.14.92A4.44,4.44,0,0,1,48,116Z"/><path class="cls-11" d="M92.79,71c-2.85,1-2.39-3.38-4.87-3a2.55,2.55,0,0,1-.66-1.23c-.07-1.61,1-2.61,2-3.62,1.51-.81,2.31-3.16,4.67-2.19Z"/><path class="cls-12" d="M82.88,108.85,72,112.06c-1.1-2.29.71-3.84,1.42-5.68A5.08,5.08,0,0,1,77,104.87C79,106.07,82.48,105.23,82.88,108.85Z"/><path class="cls-13" d="M70.94,28c.07-2,.15-4.05.22-6.08L75,23.09c1.22.59,2.21,2.08,3.87,1A2,2,0,0,1,81,26c-.1.2-.2.41-.29.61a3.61,3.61,0,0,1-1.1.76,9.57,9.57,0,0,0-4.31,1.42C73.75,29.12,72.21,29.35,70.94,28Z"/><path class="cls-14" d="M63,115.92l-9,3a2.11,2.11,0,0,1,0-3h0a8,8,0,0,0,2.36-3.77,3.4,3.4,0,0,1,1.7-1.29,3.9,3.9,0,0,1,2.27,0C62.35,112,63.73,113.4,63,115.92Z"/><path class="cls-15" d="M67,23.71l1.76,5.43c0,1.79,3.09,1.33,2.62,3.5a2.57,2.57,0,0,1-1.45,1.54A5,5,0,0,1,66.32,34c-1.84-.89-1.45-3.44-3.27-4.35a3.67,3.67,0,0,1-.78-3.3A3.27,3.27,0,0,1,63,25.19,8.57,8.57,0,0,1,66.15,24,2.39,2.39,0,0,0,67,23.71Z"/><path class="cls-16" d="M82.88,108.85l-6-2.92a1.78,1.78,0,0,1,.67-2,10.51,10.51,0,0,1,6.29-1.8,2.2,2.2,0,0,1,1.12.92c-.88,1.64-.24,2.87,1.06,3.93Z"/><path class="cls-17" d="M89.82,96c.09.32.17.64.26,1a1.65,1.65,0,0,1,.18,1.4c-1.54,1.79-3.69,2.43-5.81,3.14s-4,1.33-5.57-.76a2.27,2.27,0,0,1-.3-1.47,4.52,4.52,0,0,1,1.84-2.31,7.6,7.6,0,0,1,2.63-1.29c1.9.09,3.68-1.19,5.64-.56A6.07,6.07,0,0,1,89.82,96Z"/><path class="cls-18" d="M63,115.92l-3.1-4a1.86,1.86,0,0,1,.84-2c1.41-.75,2.85-1.37,4.48-.66,1.9,1.08,2.35,2.72,1.82,4.73A6.2,6.2,0,0,1,63,115.92Z"/><path class="cls-19" d="M74,107.06c.24,2-1.17,3.4-2,5a4.13,4.13,0,0,1-3,1,3.3,3.3,0,0,1-1.79-4.13,4.18,4.18,0,0,1,3.09-2.49C71.66,106,73,105.75,74,107.06Z"/><path class="cls-20" d="M91.05,80.13,91,84c-1.13,1.21-2.27,2.38-4.18,1.8a4,4,0,0,1-2.62-3.87c.88-2.93,3.25-3.4,5.83-3.52C90.87,78.68,91.49,79.11,91.05,80.13Z"/><path class="cls-21" d="M44,25.05c0,.33,0,.66,0,1l-.3.58c-1,.94-2.36,1.05-3.42,1.84a3.92,3.92,0,0,1-2.62.41c-2.09-.39-3.4-2.37-5.51-2.7,2-2.05,4.55-.81,6.83-1.14A5.79,5.79,0,0,1,44,25.05Z"/><path class="cls-22" d="M90.93,86c0,2.05.34,4.15-.86,6a2.57,2.57,0,0,1-2.74.61,2.38,2.38,0,0,1-1-1.06c-.33-1.45.15-2.92-.1-4.37a2.86,2.86,0,0,1,.61-1.32C88.21,85.47,89.6,84.72,90.93,86Z"/><path class="cls-23" d="M54,116c0,1,0,2,0,3l-2,1c-1.83.29-3-.71-4-2v-2Z"/><path class="cls-24" d="M94.08,28.92A3.68,3.68,0,0,1,97,30c-.46,2.61-3,2.3-4.6,3.2a6.17,6.17,0,0,1-1.48.23,4.34,4.34,0,0,1-2.88-.76,2.48,2.48,0,0,1-.73-1.32,3.69,3.69,0,0,1,1-2.77A2.8,2.8,0,0,1,91,28h0C91.8,29,92.92,29,94.08,28.92Z"/><path class="cls-25" d="M87,91.94l3.09.07L89.82,96l-.91,0c-1.44-1.39-2.79,1-4.23.12a3.08,3.08,0,0,1,.39-4.36A1.53,1.53,0,0,1,87,91.94Z"/><path class="cls-26" d="M45.88,104v-2.59a2.2,2.2,0,0,1-.24-2.17c2.45-1.45,2.82,1.15,4,2.08.43,2.21,1.21,4.52-1.48,6a.82.82,0,0,1-1.09-.57C47.56,105.39,46.27,104.88,45.88,104Z"/><path class="cls-27" d="M56,25.05c-1.7-.13-3.53.38-5-1h0a5.77,5.77,0,0,1,5,0c1.89-1.07,4-1,6-1a1.87,1.87,0,0,1,.1,2.35c-1.13,1.16-2.54,1.1-4,.93A4.69,4.69,0,0,1,56,25.05Z"/><path class="cls-28" d="M32.17,26.17c2.34-.61,3.71,1.67,5.75,1.94,1.81.2,3.53.56,4,2.7C37.79,32,35.74,27.66,32.26,27A1.59,1.59,0,0,1,32.17,26.17Z"/><path class="cls-29" d="M91,28,89,29.05c-1.38,1.35-2.88.61-4.35.25-1.29-1-3.86-.54-3.59-3.24V26A25.22,25.22,0,0,1,91,28Z"/><path class="cls-30" d="M93.93,61c-1.42.77-2,2.66-3.82,2.88l-.6-.32A3,3,0,0,1,88.86,61a4.54,4.54,0,0,1,1.9-2.73,2.47,2.47,0,0,1,1.87-.52l.5.43C93.6,59,94.38,59.83,93.93,61Z"/><path class="cls-31" d="M68,109.06c.34,1.33.67,2.67,1,4L67,114c-.67-1.32-1.35-2.64-2-4a1.79,1.79,0,0,1,1.15-1.6A1.69,1.69,0,0,1,68,109.06Z"/><path class="cls-32" d="M91.94,32,97,30c1.34,1.51.91,3,0,4.49l-1.22,0C94,34.33,92.34,34.15,91.94,32Z"/><path class="cls-33" d="M94.92,43c2,2.87.74,5.4-.81,7.91a1.17,1.17,0,0,1-1.34,0,3,3,0,0,1-.7-1.29A24.47,24.47,0,0,1,93,43.79,1.63,1.63,0,0,1,94.92,43Z"/><path class="cls-34" d="M93,51l1.13,0c1.67,2.68,1.09,5-1,7.22l-.2-.3a3.14,3.14,0,0,1-1.06-1.14c-.46-1.82-.69-3.62.45-5.3Z"/><path class="cls-35" d="M47.12,106.68a1.45,1.45,0,0,0,.92,0,1.07,1.07,0,0,1,1-.06,1.2,1.2,0,0,1,.23,1l-.45.29c-1,1.29-1,3.32-2.81,4C44.44,109.79,46.78,108.44,47.12,106.68Z"/><path class="cls-36" d="M91.05,80.13,90,79a1.79,1.79,0,0,1-2.21.1,2.67,2.67,0,0,1,1.09-3.52c1-.23,2.11-.49,3,.38C91.93,77.41,92.3,78.93,91.05,80.13Z"/><path class="cls-37" d="M61.81,25l.24-2c2.27-1-.48-3.94,1.94-4.85.49,2.67,1.58,5.34-.22,7.94a1.49,1.49,0,0,1-.75.27C62.16,26.34,61.71,25.92,61.81,25Z"/><path class="cls-38" d="M63.77,26.14q.1-4,.22-7.94c2.31,1.36,0,4.44,2.16,5.84C66,25.52,65.51,26.51,63.77,26.14Z"/><path class="cls-39" d="M90.93,86c-1.4,0-2.84-.18-4,1a1.69,1.69,0,0,1-2.12.19,2,2,0,0,1-.34-1.47c.54-1.18,1.33-1.52,2.45-.72L91,84C91,84.64,91,85.31,90.93,86Z"/><path class="cls-40" d="M94.92,43l-1.08.78a3.54,3.54,0,0,1-1.78,1.48,5,5,0,0,1-3.77-.46,1.87,1.87,0,0,1-.71-1.3,2.22,2.22,0,0,1,1.3-1.68,10.46,10.46,0,0,1,1.36-.36,10,10,0,0,1,2.69-.66,3,3,0,0,1,1.89.75c.1.2.21.4.31.61A1.55,1.55,0,0,1,94.92,43Z"/><path class="cls-41" d="M64.22,7c1.06,1.72.67,3,.62,4.8C63.08,10.24,63.05,9,64.22,7Z"/><path class="cls-42" d="M91.9,76,89,76c-1.67,0-1.82-.79-1-2,1.18,1,3-.46,4,1.07A2.35,2.35,0,0,1,91.9,76Z"/><path class="cls-43" d="M96.06,40.47a1.3,1.3,0,0,1-.93,1.7L95,41.79c-2-2.11-1.88-4.35-.42-6.67a1.32,1.32,0,0,1,1.66,0A10.29,10.29,0,0,1,96.06,40.47Z"/><path class="cls-44" d="M70.81,16.19l-1.5-.1c0-1.23-.18-2.49.9-3.56C71.5,13.76,70.75,15,70.81,16.19Z"/><path class="cls-45" d="M44,25.05l-5,0c1.82-1.53,4-.83,6-1Z"/><path class="cls-46" d="M96.06,40.47l-.32-5.54A1.08,1.08,0,0,1,96,33.75c.5-.18.77,0,.83.52l.16.24C97,36.54,97.21,38.61,96.06,40.47Z"/><path class="cls-47" d="M94.08,28.92c-1.55,1.42-2.6,1.16-3.09-.94A4.22,4.22,0,0,1,94.08,28.92Z"/><path class="cls-48" d="M48,117.93l4,2C49.66,121.25,48.64,120,48,117.93Z"/><path class="cls-49" d="M89.74,97.9c.11-.33.23-.65.34-1l2,1.87c-.56.75-.85,2.09-2.25,1A1.71,1.71,0,0,1,89.74,97.9Z"/><path class="cls-50" d="M78.89,24.12c-1.79,1.53-2.91.55-3.87-1Z"/><path class="cls-51" d="M56,24l-5,0C52.67,22.8,54.33,22.64,56,24Z"/><path class="cls-52" d="M50.89,99.91l0-1.92c-.66-1.46-.23-3-.43-4.54a2.75,2.75,0,0,1,1.36-1.81,2,2,0,0,1,1.53.17,3.15,3.15,0,0,1,1.07,2c.08.77.09,1.55.1,2.32,0,1.54,0,3.08,0,4.62a8,8,0,0,1-.19,1.55c-1,1.83-.24,4.31-2.13,5.83a1.57,1.57,0,0,1-1.53-.28c-.9-1.22-.49-2.67-.71-4A5.77,5.77,0,0,1,50.89,99.91Z"/><path class="cls-53" d="M49.15,57c-.56-2.63.35-5.47-1.15-8a7.93,7.93,0,0,0,.51-2.89c0-1.79-.07-3.59.09-5.38.52-.89,1.18-1,2-.34,1.75,2.88.53,6.1,1.08,9.12.16,2.48,1.87,5-.16,7.42A1.69,1.69,0,0,1,49.15,57Z"/><path class="cls-54" d="M42.83,96.36h-.4l-.41,0c-1.09-1.76-2.53-3.32-3-5.44,4-1.7,4.83,1.43,6,4l-.24.52A2.36,2.36,0,0,1,42.83,96.36Z"/><path class="cls-55" d="M41.05,35c2.32-1,4.62-.23,6.93,0,1.2,1.81,2,3.5-1.16,4A19.51,19.51,0,0,1,41.05,35Z"/><path class="cls-56" d="M49.81,82c-2.85-1.39-3.5-4.5-6-7.09l5.16,1a3.36,3.36,0,0,1,2.25,2.4C51.4,79.78,51.36,81.19,49.81,82Z"/><path class="cls-54" d="M50.89,99.91l.06,4c-1.56.24-2.21-.41-1.94-2a6.92,6.92,0,0,0-3-3c-1.68-1-2.26-2.23-1-4l.07-.06C47.92,95.52,48.14,99.2,50.89,99.91Z"/><path class="cls-57" d="M49.83,78c-.29-.69-.59-1.39-.88-2.09-2.86-3,.28-6,.12-9a1.41,1.41,0,0,1,1.59.42c1.41,3.11.93,6.3.42,9.5A2.65,2.65,0,0,1,49.83,78Z"/><path class="cls-58" d="M49.81,67.34a6.66,6.66,0,0,1-.74-.48c0-3.28.06-6.57.08-9.85H50.9A2.49,2.49,0,0,1,52,58.22a4,4,0,0,1,0,2.43C51,62.8,52.5,65.75,49.81,67.34Z"/><path class="cls-59" d="M49.83,78l.34-1c1.57-.09,1.91,1,2.2,2.23,0,3.16.82,6.39-.75,9.44a1,1,0,0,1-1.52.11c-.1-2.26-.19-4.51-.29-6.77C49.82,80.68,49.82,79.33,49.83,78Z"/><path class="cls-60" d="M46.82,39.11C48.18,38,48,36.52,48,35.06l0,0a1.82,1.82,0,0,1,2.09-.4,3,3,0,0,1,1,1.16,3.84,3.84,0,0,1-.41,3.72L50.1,40,49,41c-.31.65-.58.64-.81,0Z"/><path class="cls-61" d="M50.1,88.8c.26.14.51.29.76.44,1.46,1.13.84,2.42.28,3.71l-.27,5C49,95.07,49.82,91.91,50.1,88.8Z"/><path class="cls-62" d="M48.18,41,49,41l-.15,6.27c-.48.2-.74.06-.74-.48Z"/><path class="cls-63" d="M48.1,46.83l.74.48L48,49.05c-.7-.34-2-.65-2-1C46,46.7,47.73,47.89,48.1,46.83Z"/><path class="cls-64" d="M43.62,78.15l-.41,1c-.57-.51-1.16-1-1.67-1.53-.08-.09.19-.5.3-.76Z"/><path class="cls-65" d="M42,70.78a4.75,4.75,0,0,1,1,.92c.31.51.07,1-.55.79-.39-.12-.7-.6-1-1C41.45,71.41,41.77,71.08,42,70.78Z"/><path class="cls-66" d="M89.74,97.9c0,.64.07,1.28.1,1.92-1,2.06-3.16,2.29-4.84,3.28L84,103A2,2,0,0,1,84,100Z"/><path class="cls-67" d="M51.88,28.24l1-.1c1.67,2.49.36,3.69-2,4.18a8.79,8.79,0,0,1-6.63-1.22L42.05,30a1.6,1.6,0,0,1-.57-1.19,2,2,0,0,1,2-1.69,4.41,4.41,0,0,1,1.35.19A8.93,8.93,0,0,0,51.88,28.24Z"/><path class="cls-68" d="M50,35.1,48,35,45,32c2.47-1.12,5.09-.16,7.6-.57a4,4,0,0,1,3,0A2,2,0,0,1,56.45,34a3.08,3.08,0,0,1-1,1C53.65,35.83,51.81,35.32,50,35.1Z"/><path class="cls-69" d="M54,32.05H45l-.69-.94c1.93,0,3.86-.05,5.79,0s3-.83,2.81-2.92l1-.12A2.74,2.74,0,0,1,54,32.05Z"/><path class="cls-70" d="M41.94,29c0,.34.08.68.11,1a5.18,5.18,0,0,0-.09.78l-4-2.7L40,27C41.19,27.18,41.61,28.06,41.94,29Z"/><path class="cls-71" d="M45,95c.34,1.31.69,2.63,1,4-.05.81-.09,1.62-.14,2.43a4.92,4.92,0,0,1-3.05-5C43,95,43.58,94.37,45,95Z"/><path class="cls-72" d="M71,32c-.88-.87-3.21-.6-2.27-2.9C70.51,30.79,70,28,70.94,28a3.63,3.63,0,0,1,4,0,1.4,1.4,0,0,1,1.22-.44,3.47,3.47,0,0,1,1.19.69c1,1.52,4,.9,3.79,3.69a3.16,3.16,0,0,1-2.73,1.48C75.88,33.28,73.12,34.33,71,32Z"/><path class="cls-73" d="M88,67c0,.34,0,.68,0,1l-1,1a5.87,5.87,0,0,1-4.06,1.86,3.23,3.23,0,0,1-2.56-1.72,3.39,3.39,0,0,1,0-2.43A3.59,3.59,0,0,1,82.14,65C84.55,64.29,86.64,64.57,88,67Z"/><path class="cls-74" d="M85,75h2c1.44,2-.1,3.23-1.18,4.58a3.9,3.9,0,0,1-2.17.83,2.46,2.46,0,0,1-1.35-.85,3.92,3.92,0,0,1-.12-4C82.92,74.6,83.81,74.12,85,75Z"/><path class="cls-75" d="M85,75l-2,1a1.37,1.37,0,0,1-1.37-.23A3.14,3.14,0,0,1,81,72.94a3.35,3.35,0,0,1,1.88-2.25c1.44-.45,2.38.24,3.15,1.35Z"/><path class="cls-76" d="M86,72l-3-1a.64.64,0,0,1-.25-.69c.07-.23.14-.35.22-.35,1.12-1.16,2.59-.94,4-1Z"/><path class="cls-77" d="M85,79c.68-1.32,2-2.35,2-4L88,74c.32.67.63,1.35,1,2C88.64,77,88.3,78,88,79A2.09,2.09,0,0,1,85,79Z"/><path class="cls-78" d="M54,32.05l-.12-4L56,27c1.48-1.24,3-.92,4.54-.1a2.92,2.92,0,0,1,1,1.27C61.49,33,57.83,31.83,55,32.07Z"/><path class="cls-21" d="M44,26c3.85,0,3.85,0,3,1.93a2.33,2.33,0,0,1-3,.08l0-.13A1.18,1.18,0,0,1,44,26.05Z"/><path class="cls-79" d="M44,28.05,47,28l4.86.27A8.16,8.16,0,0,1,44,28.05Z"/><path class="cls-80" d="M60,27.86A6.78,6.78,0,0,0,56,27c0-.65,0-1.29,0-1.94h2C58.78,25.91,61.46,25.42,60,27.86Z"/><path class="cls-81" d="M56.87,112.88c2,3.76-1.11,2.79-2.85,3.07.3-.94-3.17-.28-.88-2.07.57-.64,1-1.44,2-1.64A1.94,1.94,0,0,1,56.87,112.88Z"/><path class="cls-82" d="M49,102c.65.65,1.3,1.31,1.94,2l.23,3.88c.13,1-.29,1.45-1.31,1.23l-1-1.14.35.07a.69.69,0,0,0-.25-1,1.43,1.43,0,0,1-.89-.3C49.52,105.35,47.56,103.31,49,102Z"/><path class="cls-83" d="M51.87,108.15c.51-2-.36-4.24,1-6.11a2.68,2.68,0,0,1,1.45,2,39.79,39.79,0,0,1,.11,6A3.39,3.39,0,0,1,53,113l-1-1.18A2.89,2.89,0,0,1,51.87,108.15Z"/><path class="cls-84" d="M51.87,108.15,52,111.8c-1.29-.47-3.32-.36-2.11-2.75l1.31-1.23Q51.52,108,51.87,108.15Z"/><path class="cls-85" d="M53,113l.09-3.11a1.19,1.19,0,0,1,1.28,0,3.1,3.1,0,0,1,.73,3.22l-2,.82C53.08,113.58,53,113.28,53,113Z"/><path class="cls-86" d="M88,67l-5.79-.94a1.23,1.23,0,0,1-.51-1.16c1.39-1.26,1.84-3.09,2.76-4.64A3.75,3.75,0,0,1,87,59a2.51,2.51,0,0,1,2.36,1.34c.35,1.18-.87,2.66.7,3.61l.06-.08C89.39,64.91,88.67,66,88,67Z"/><path class="cls-87" d="M74,107.06l-3.1.61c-1.5-.5-2.54-1.36-2.45-3.12.55-1.86,2.23-2.52,3.69-3.43a6.92,6.92,0,0,1,5.14,1c.77.8,1.29,1.66.69,2.79l-1,1Z"/><path class="cls-88" d="M76,29c0-.31,0-.62,0-.92.82-1.61,2.9-.82,3.92-2.05H81l4,2c.73,2.13-.38,3.38-2.26,3.05C80.46,30.66,77.87,30.89,76,29Z"/><path class="cls-89" d="M79.92,26.06c-.77,1.71-2.3,2-3.92,2.05L75,28C75.76,25.25,78.08,26.26,79.92,26.06Z"/><path class="cls-90" d="M55.09,113.06A3.67,3.67,0,0,1,54,110c-.35-.91.13-1.49.78-2,1.53-.48,3.05-1.17,4.6-.06,1.08,1.84.27,3-1.34,4l-1.15,1Z"/><path class="cls-91" d="M58,111.9,59,108a1.77,1.77,0,0,1,1.25-.5c1.91.76,3,1.69.76,3.37l-1.13,1Z"/><path class="cls-92" d="M64,29c2.88.21,2.34,2.13,2,4a2.39,2.39,0,0,1-3.22.33,3.16,3.16,0,0,1-.3-4.07A1.08,1.08,0,0,1,64,29Z"/><path class="cls-93" d="M64,29l-1,0c-1.15.61-1.47-.53-2.11-1a3.05,3.05,0,0,1-.94-.21c-.09-1.33-1.26-1.9-2-2.8l3.8,0c.4.46.8.93,1.21,1.39C63.35,27.28,63.68,28.16,64,29Z"/><path class="cls-94" d="M71,32h8a1.07,1.07,0,0,1,0,1.43,3.18,3.18,0,0,1-1.32.84c-2.54.11-5,2.22-7.62.16A1.11,1.11,0,0,1,70,33Z"/><path class="cls-95" d="M70,33c0,.33,0,.65,0,1-1,1.86-3.07,1.71-4.72,2.35a6.12,6.12,0,0,1-2.37-.21,3.53,3.53,0,0,1-2.15-2.23c.36-1.31,1.08-1.69,2.27-.88l3,0Z"/><path class="cls-96" d="M78,105l-1-2.07c-.53-1.84.61-2.48,2.06-2.9a4.62,4.62,0,0,0,5,0c0,1,0,2,0,2.94Z"/><path class="cls-97" d="M79,100c-.07,1.4-1.29,2-2.06,2.9L72,102l-.34-.53a1.88,1.88,0,0,1,.36-1.19,6.64,6.64,0,0,1,2.74-1.59,10,10,0,0,1,1.89-.28,3.29,3.29,0,0,1,1.89.1L79,99Z"/><path class="cls-98" d="M83,97l-2,1c-1.66-.52-2.1-1.7-1.8-3.29a2.84,2.84,0,0,1,2.55-1.88c1.55.08,2.62.68,2.67,2.41C84.33,96.15,83.64,96.56,83,97Z"/><path class="cls-97" d="M80,95c.35,1,.7,2,1,3.05l-2,1-.09-.07a7.06,7.06,0,0,1-2.26-2.59A2.09,2.09,0,0,1,76.85,95,2,2,0,0,1,80,95Z"/><path class="cls-99" d="M83,97l1-1c.33-.66.67-.66,1,0,1.31-.55,2.61-1.48,3.92,0Z"/><path class="cls-100" d="M61,110.88c.87-1.38-.32-2-1-2.89.95-2.39,3-2.62,5.21-2.73a2.2,2.2,0,0,1,1.28.87,2.62,2.62,0,0,1-.45,2.94L65,110Z"/><path class="cls-101" d="M66.06,109.07,66,106a2.17,2.17,0,0,1,1.91-1.58,1.55,1.55,0,0,1,1.13.56c.62.91,1.24,1.81,1.85,2.72L68,109.05Z"/><path class="cls-102" d="M87,85l-2,1c-1.4,1.13-3.18,2.62-4.4.39-1.4-2.56.43-4.13,2.84-5A2.3,2.3,0,0,1,85,82Z"/><path class="cls-103" d="M85,82H84a1.29,1.29,0,0,1,0-2l1-1,3,0,2,0Z"/><path class="cls-104" d="M44,26.05l.06,1.87L41.94,29,40,27C41.14,25.87,42.6,26.07,44,26.05Z"/><path class="cls-105" d="M85,87h2L87,87c1.09,1.32-.29,2.64,0,4,0,.32,0,.63,0,1l-2,0-.61-.35a5.13,5.13,0,0,1-1-4C83.73,87,84.13,86.47,85,87Z"/><path class="cls-106" d="M87,91c-1.38-1.33,0-2.65,0-4A2.6,2.6,0,0,1,87,91Z"/><path class="cls-107" d="M78,33.06,79,33c1.74-.66,3.45-1.42,5.25-1.92A3.67,3.67,0,0,1,88,32l3,0c.69.57,1.61,1,1.42,2.15a3,3,0,0,1-.77,1.16l-.61.36a3.53,3.53,0,0,1-1.33.16c-1.22-.49-2.51-1.19-3,.94a3.65,3.65,0,0,1-2,.67c-1.51.09-3,.06-4.53.06-1.76-.12-3.86.29-4.57-2C75,33.66,77.18,33.89,78,33.06Z"/><path class="cls-108" d="M76,29c3.11.58,6.37,2.53,9-1l4,1c-.32.66-.65,1.33-1,2-1.46,1-3.23.12-4.75.77A2.64,2.64,0,0,1,81,31C79.05,31.05,77.08,31.14,76,29Z"/><path class="cls-109" d="M92,34l-1-2,1,0c1.14,1.81,4.26-.63,4.87,2.28h-.32l-.3-.13C94.77,34.73,93.35,35.41,92,34Z"/><path class="cls-110" d="M83,31.05h5v1l-4,0C82.93,32.43,82.76,31.94,83,31.05Z"/><path class="cls-111" d="M85,96H84a2.13,2.13,0,0,0-2-2,2,2,0,0,1-.61-1.18,2.19,2.19,0,0,1,.52-1.24,2.93,2.93,0,0,1,1.28-.48A2.66,2.66,0,0,1,85,92v0C85.74,93.3,85.12,94.63,85,96Z"/><path class="cls-112" d="M89,60.92,87,60a3.08,3.08,0,0,1-2-1.42,4.11,4.11,0,0,1,1.58-5.24,3.57,3.57,0,0,1,3.23,0c2.22,1.37,1.2,3.92,2.09,5.77l-2.1,2.1C89.42,61.6,89.15,61.49,89,60.92Z"/><path class="cls-113" d="M92,59.05c-2.13-1.11-1.92-3.13-2-5a1.69,1.69,0,0,1,2-.33c1,.91,0,2.39,1,3.3,0,.29,0,.58,0,.87Z"/><path class="cls-114" d="M89,60.92c.28.07.57.14.85.23.06.94.13,1.87.2,2.8-1.14-.19-2.77.67-3.19-.94C86.74,62.54,88.24,61.63,89,60.92Z"/><path class="cls-115" d="M93,50.06c0,.3,0,.6,0,.89v0c-.44.65-.76,1.45-1.76,1.4A3.14,3.14,0,0,1,88.8,50.3c-.14-2.46-1.27-5.45,2.94-5.66C93.86,46.06,92.39,48.29,93,50.06Z"/><path class="cls-116" d="M93,50.06c-1.41-1.5-.84-3.39-1-5.14-.66-.3-.66-.59,0-.88l1.87-.25A10.5,10.5,0,0,1,93,50.06Z"/><path class="cls-117" d="M91.88,52,93,51c0,2,0,4,0,6a3.77,3.77,0,0,1-1-3A1.41,1.41,0,0,1,91.88,52Z"/><path class="cls-118" d="M48.93,107a3.59,3.59,0,0,1,.4.64c0,.08-.09.24-.15.36Z"/><path class="cls-119" d="M85,87l-1,1a2.54,2.54,0,0,1-1,1,3.39,3.39,0,0,1-2.18.07A3.78,3.78,0,0,1,79,87.67,19.08,19.08,0,0,1,77.78,85a5.58,5.58,0,0,1,0-2.23,4.5,4.5,0,0,1,1.66-2.44,3.43,3.43,0,0,1,2.82-.47L83,80h1v2c-.89,1.24-3.15,2-2.51,3.71C82,87,83.78,85.7,85,86Z"/><path class="cls-120" d="M95.15,35c-.06,2.25-.11,4.51-.16,6.76L93,42c-2-1.34-1.19-3.85-2.32-5.55A1.36,1.36,0,0,1,91,35.22l-.09-.33A4.93,4.93,0,0,1,95.15,35Z"/><path class="cls-121" d="M91,36.08c4.47.72.8,4.12,1.95,5.93L91,42.9C89.1,40.64,88.9,38.37,91,36.08Z"/><path class="cls-122" d="M89.91,42.88,88,43a2.84,2.84,0,0,1-1.13-1.27c-.57-2.41-.48-4.6,2-6a1.44,1.44,0,0,1,1.5.55C90.33,38.47,91,40.73,89.91,42.88Z"/><path class="cls-123" d="M92,44c0,.29,0,.59,0,.88-3.14,1.25-1.6,4-1.93,6.12l-.61.3a1.9,1.9,0,0,1-1.19-.56,4.35,4.35,0,0,1-.77-2.54c-.06-1.11-.73-2.05-.95-3.13a2.22,2.22,0,0,1,.35-1.26A.87.87,0,0,1,88,44Z"/><path class="cls-124" d="M89.91,42.88l0-7c-.21-.2-.26-.39-.16-.55s.18-.23.26-.23l1,.09c0,.29,0,.57,0,.86q0,3.42,0,6.82Z"/><path class="cls-125" d="M88,44,87,44a1.21,1.21,0,0,1-1.55-.24,4.71,4.71,0,0,1,.09-5.6c3.75-.61.85,3.07,2.47,3.84,0,.32,0,.64,0,.95S88,43.66,88,44Z"/><path class="cls-32" d="M95.15,35l-4.21-.14L92,34l4.19.15a7.44,7.44,0,0,0-.44.78l-.32-.06Z"/><path class="cls-126" d="M51.14,93c-.09-1.24-.19-2.48-.28-3.71.06-3.42.11-6.83.17-10.24a1.18,1.18,0,0,1,1.57.24c1.43,2.15.72,4.58.91,6.89-.08,2.06.28,4.22-1.49,5.83Z"/><path class="cls-127" d="M53.11,93.93,53,92c-.83-.75-.44-1.72-.47-2.62,2.3-2.3,3.46.5,5.1,1.16.65,2.69-.84,3.7-3.18,4A2.23,2.23,0,0,1,53.11,93.93Z"/><path class="cls-128" d="M53.11,103.91c-.07-.62-.14-1.24-.22-1.87,0-.34,0-.69.08-1,.64-.79,1-1.82,2.08-2.22a3.94,3.94,0,0,1,3.74.49,1.9,1.9,0,0,1,.65,1.35,3.57,3.57,0,0,1-1.72,2.4,22.38,22.38,0,0,1-3.34,1.43A1.85,1.85,0,0,1,53.11,103.91Z"/><path class="cls-129" d="M53.11,93.93,54,94c1.8-.24,3.5-1.43,5.43-.65a1.47,1.47,0,0,1,.53,2,5.06,5.06,0,0,1-4.88,1.94,4.69,4.69,0,0,1-2-1.24Z"/><path class="cls-130" d="M53.09,96l2,0a3.16,3.16,0,0,1,0,3.93L53,101Z"/><path class="cls-131" d="M53.11,89c0,1,0,2-.07,2.94H52l.09-6.09A1.42,1.42,0,0,1,53.7,87,2.53,2.53,0,0,1,53.11,89Z"/><path class="cls-132" d="M51.18,57.78A3.09,3.09,0,0,0,50.9,57c.94-2.4-1.26-4.44-.77-6.78a4.08,4.08,0,0,1,1-1.14c1.19-.77,2.38-1,3.56,0a3.31,3.31,0,0,1,.68,1.44,22,22,0,0,1-.14,6.53,3.18,3.18,0,0,1-1,1.34A2.23,2.23,0,0,1,51.18,57.78Z"/><path class="cls-62" d="M51,50a8.46,8.46,0,0,0-.9.23L50.1,40l-.05,0a1.55,1.55,0,0,1,1.46.3,3.17,3.17,0,0,1,.79,1.33,22.81,22.81,0,0,1,.21,4A5.21,5.21,0,0,1,51,50Z"/><path class="cls-133" d="M51.89,79,51,79c-.29-.66-.58-1.32-.86-2l-.36-9.68c.66-2.37-.34-5,.92-7.27l.75.36c1.44,1.63.88,3.63,1,5.5a29.73,29.73,0,0,0,.78,7.91,5.69,5.69,0,0,1,.13,3.27A2.76,2.76,0,0,1,51.89,79Z"/><path class="cls-134" d="M51.18,57.78,54,58c.83-.41,1.13.09,1.34.77a2.29,2.29,0,0,1-.64,1.12,4.31,4.31,0,0,1-2.45.77,2.37,2.37,0,0,1-1.1-.62l-.38,0Z"/><path class="cls-69" d="M50,35.1c1.21-2.56,3.34-.77,5-1.07.9.86,2.56-.34,3.23,1.17-.1,1.59-1.21,2-2.53,2.23-2,.2-3.92.07-5.5-1.4C50.12,35.72,50,35.41,50,35.1Z"/><path class="cls-135" d="M50.21,36c1.62-.9,3.21.2,4.82,0a2.12,2.12,0,0,1-.32,2.52,7,7,0,0,1-2.89,1.63l-.66,0L50.05,40C50.1,38.64,50.16,37.33,50.21,36Z"/><path class="cls-136" d="M63,33l-2,1c-1.66,1.55-3.32.62-5,0l-1-1.93c1.5-2,5.33-.61,5.89-4l2.11,1C63,30.39,63,31.71,63,33Z"/><path class="cls-137" d="M56,34l5,0L63,35c-1.61,1.7-3.26,1.77-4.93.09a3.76,3.76,0,0,1-3-1Z"/><path class="cls-138" d="M83,31.05l1,1c-1.49,1.36-3.31.89-5,1,0-.32,0-.63,0-1l2-1Z"/><path class="cls-139" d="M81,67.24V68.9c.79,1.68.13,3.15-.65,4.61-1.3,1-2.6,2.08-4.43,1.84-1.19-.55-1.43-1.83-2.11-2.78a8.22,8.22,0,0,1-1.6-4.71,2.83,2.83,0,0,1,.56-1.38,9.13,9.13,0,0,1,3.33-1.76,6.59,6.59,0,0,1,3.09.13A2.81,2.81,0,0,1,81,67.24Z"/><path class="cls-140" d="M80,73c-1.2-1.75-.18-3,1-4.1L83,70l0,1c-.34.69-.68,1.38-1,2.06-.41.49-.74,1.17-1.5,1C80,74,79.79,73.53,80,73Z"/><path class="cls-141" d="M81,67.24l-1.92-1.47A2.69,2.69,0,0,1,78.54,62a2.25,2.25,0,0,1,2.34-.52A2.62,2.62,0,0,1,82.1,65c0,.34.05.68.07,1C81.78,66.45,81.39,66.85,81,67.24Z"/><path class="cls-142" d="M82,76,83,76v4h0c-3.19,0-3.44-.52-1.78-3.74Z"/><path class="cls-143" d="M80,73c.65.72,1.34.25,2,.08V76l0,0c-1.39.89-2.49,2.31-4.35,2.32A5.12,5.12,0,0,1,75.39,78c-1.19-.7-2-1.57-1.53-3.1a1.58,1.58,0,0,1,2.07.07C77.09,73.91,78.2,72.78,80,73Z"/><path class="cls-144" d="M53.11,103.91c.28,0,.57.06.85.07a2.52,2.52,0,0,1,1.49,2.26A3.49,3.49,0,0,1,55,109l-1,1c-.3,0-.6-.07-.9-.12Z"/><path class="cls-145" d="M82.1,65l-1.18-3A2.53,2.53,0,0,1,83,60.24a2,2,0,0,1,1.91.81C85,63.1,84.91,65,82.1,65Z"/><path class="cls-146" d="M84.92,61.05,83,61.1c-1,.34-1.17-.25-1.12-1.05A2.63,2.63,0,0,1,86,58.91L87,60Z"/><path class="cls-147" d="M69.05,105l-1,0c-1.82.39-2.36-.59-2.33-2.17A4,4,0,0,1,69,100.68,3.8,3.8,0,0,1,72,101.89l0,.15C71.85,103.85,69.94,103.9,69.05,105Z"/><path class="cls-148" d="M55,109l-.94-2.06c.81-.74,1.28-1.86,2.43-2.24,1.31-.28,2.41-1.22,3.81-1.21a5.41,5.41,0,0,1,2.71-.07A2.72,2.72,0,0,1,65,106c-1.42,1.26-3.23,1.56-5,2l-1,0Z"/><path class="cls-149" d="M78,33.06c-2.83,3.72.75,2.72,2.34,3.18a2.25,2.25,0,0,1-.46,1.29,3.78,3.78,0,0,1-1.17.75,8.17,8.17,0,0,1-2.09.18,4.34,4.34,0,0,1-2-.48c-.38-.3-.64-.78-1.07-1-.6-.27-1,.36-.37.07s.17,1,.22.36a1.88,1.88,0,0,1-.32,1,3.15,3.15,0,0,1-1.06.75,6.62,6.62,0,0,1-1.39.23,13.08,13.08,0,0,1-3.75-.26,4.61,4.61,0,0,1-2.35-2A2.16,2.16,0,0,1,65,35a9.94,9.94,0,0,1,5-1Z"/><path class="cls-150" d="M65,35v2c-1,.75.37.8.38,1.28A1.94,1.94,0,0,1,65,39.52a3.41,3.41,0,0,1-1.19.76,11.5,11.5,0,0,1-3.7.1c-1.66-.62-3.42-.79-5.1-1.26A2.52,2.52,0,0,1,54,38c.34-.65.67-1.3,1-2a4,4,0,0,0,3-1L63,35Z"/><path class="cls-151" d="M75,100a3.48,3.48,0,0,1-3,1c-2.18.1-2.09-1.44-2.1-2.91a3.28,3.28,0,0,1,.84-1.51,3.16,3.16,0,0,1,3.34-.3C75.42,97.25,76.06,98.41,75,100Z"/><path class="cls-152" d="M75,100,74,96.9a1,1,0,0,1,.22-1.35,2.13,2.13,0,0,1,2.82.36L77,96c1.12,1.26.87,2.54.05,3.82Z"/><path class="cls-153" d="M71,98a3.63,3.63,0,0,0,1,3l-.06.9L69,102c-1.35-1.2-1.32-2.55-.42-4A1.75,1.75,0,0,1,71,98Z"/><path class="cls-154" d="M77,99.86c0-1.27,0-2.55-.05-3.83,1.77.21,2,1.47,1.93,2.89Z"/><path class="cls-155" d="M77,95.91l-3,0c-1.07.49-1.11-.2-1.11-1,.83-1.57,2.54-2,3.8-3.09a5.35,5.35,0,0,1,2.13-.37,7.65,7.65,0,0,1,1.44.16A5.35,5.35,0,0,1,82,93v1l-2,1A3.66,3.66,0,0,0,77,95.91Z"/><path class="cls-156" d="M65,106,63,104l.12-.68a2.53,2.53,0,0,1,2-1.73c.72.19,1.29.47.87,1.38l2,2-2,1Z"/><path class="cls-157" d="M83,88l1-.07c1.18,1.13,1,2.6,1,4H83A2.76,2.76,0,0,1,83,88Z"/><path class="cls-158" d="M79.9,36.94a3.92,3.92,0,0,0,.44-.7L85,36.16a2,2,0,0,1,.49,2.1c-.84,1.88,0,4.08-1.11,5.91a2.3,2.3,0,0,1-2.08.44c-2.87-1.63-1.14-4.78-2.3-7C80,37.4,79.93,37.17,79.9,36.94Z"/><path class="cls-159" d="M85,38V36.16l2-.38a1.49,1.49,0,0,1,2,.41C87.8,38,88,40,88,42l-2-4C85.66,38.52,85.32,38.52,85,38Z"/><path class="cls-160" d="M89,36.19l-2-.41c-.64-.44-1.85-.94-1.81-1.31.09-.94,1.14-.91,1.92-.77a4.42,4.42,0,0,1,3,1.43,6.93,6.93,0,0,0-.1.78A5.18,5.18,0,0,0,89,36.19Z"/><path class="cls-161" d="M82,93H80c-1.17-1.74-1.53-3.33.84-4.4,2.27.45,1.83,1.9,1.24,3.4Z"/><path class="cls-162" d="M82,92A3.81,3.81,0,0,0,81,89c-.29-.22-.38-.44-.27-.64s.2-.31.3-.31h2c0,1.32,0,2.64,0,4Z"/><path class="cls-163" d="M86,58.91,85,59c-1.93-1.46-1.64-3.36-1.07-5.32a2.36,2.36,0,0,1,1.94-1.27l.77.18a.93.93,0,0,1,.45,1.3A8.24,8.24,0,0,0,86,58.91Z"/><path class="cls-164" d="M87.05,53.88a5,5,0,0,1,0-.86c.46-1.29,2-1.11,2.74-2H90l1.85.94.06,2-2,0Z"/><path class="cls-165" d="M81,88,81,89c-1.2,1.12-1,2.6-1,4H79c-1-1.63-3.62-.88-4.41-2.89a2.73,2.73,0,0,1,.75-2.6,5.29,5.29,0,0,1,3.26-1.15,2.9,2.9,0,0,1,1.26.51Z"/><path class="cls-166" d="M78,77l4-1c-.63,1.59-1.76,3.29,1,4a3.72,3.72,0,0,1-3,1c-2.36.37-2.13-1.51-2.5-2.88A2.2,2.2,0,0,1,78,77Z"/><path class="cls-167" d="M79,83l0,2a2.87,2.87,0,0,1-2.11,1.72,7.4,7.4,0,0,1-3.48-.79,3,3,0,0,1-1-1.07,2.64,2.64,0,0,1,.18-2.16,4,4,0,0,1,3.3-1.56A4.26,4.26,0,0,1,79,83Z"/><path class="cls-168" d="M79,83a3.6,3.6,0,0,1-3-1,3.4,3.4,0,0,1,.08-1.79,5.28,5.28,0,0,1,1.33-2L78,78c2.1.06.72,2.44,2,3Z"/><path class="cls-169" d="M76.94,85.94l2.06-1,.87,1.9A8.68,8.68,0,0,1,79,87C77.79,87.64,76.87,87.76,76.94,85.94Z"/><path class="cls-170" d="M89.83,51c-.11,1.77-1.33,2-2.74,2l-.18,0a1.8,1.8,0,0,1-.12-2.16,1.68,1.68,0,0,1,2.14.08Q89.38,51,89.83,51Z"/><path class="cls-171" d="M86.94,45c1.84.22,2,1.53,2,3a1.66,1.66,0,0,1-2,.32,2.28,2.28,0,0,1-.45-2.77Z"/><path class="cls-172" d="M82,44l2,0a1.43,1.43,0,0,1,1.87-.09L87,44c0,.32,0,.64,0,1l.06.07a3.93,3.93,0,0,1-3.57,1.41,4,4,0,0,1-2.22-.75,1.6,1.6,0,0,1-.51-1.4A.84.84,0,0,1,82,44Z"/><path class="cls-173" d="M87,48h1.92c0,1,0,2,0,3L87,51a1.94,1.94,0,0,1-.76-1.87A2.14,2.14,0,0,1,87,48Z"/><path class="cls-174" d="M85.87,43.83,84,43.92A10.5,10.5,0,0,1,85,38h1C86,40,85.92,41.9,85.87,43.83Z"/><path class="cls-175" d="M51.89,79l.28-2c2.64-.08,2.41,2.39,3.39,3.79.93,2.73,1.88,5.47-2.47,6-.32-.35-.65-.69-1-1C52,83.59,52,81.3,51.89,79Z"/><path class="cls-176" d="M53.09,86.9c2.64-1.57,1.95-3.69,1-5.86,1.29-2.69,3.13-2.52,5.24-1a2.44,2.44,0,0,1,.25,2c-.34,1.09-2.1,1.64-1.24,3.22A6.45,6.45,0,0,1,59,87.76a3.47,3.47,0,0,1-.37,1.3,1.88,1.88,0,0,1-1.73.87c-2,2.63-2.3-1.56-3.78-.91C53.1,88.31,53.1,87.6,53.09,86.9Z"/><path class="cls-177" d="M56.89,89.93,58,89c1.91.58,2.33,1.93,1.9,3.72a3.6,3.6,0,0,1-1,1.19L54,94C55.31,92.89,57.45,92.38,56.89,89.93Z"/><path class="cls-178" d="M55,99.94a3.29,3.29,0,0,1,0-3.93L60,94.92l.6.44a3.33,3.33,0,0,1,.25,3.55A2.38,2.38,0,0,1,59,100Z"/><path class="cls-179" d="M61,104.88,57,106c-1.43-1.34-1-2.69,0-4l2-1a1.39,1.39,0,0,1,1.49-.16C62.16,101.92,62.08,103.34,61,104.88Z"/><path class="cls-180" d="M57,101.93c0,1.35,0,2.7,0,4l-2.94.91L54,104A3.53,3.53,0,0,1,57,101.93Z"/><path class="cls-181" d="M60.06,101,59,100.91c0-.29,0-.58,0-.87l1-1.14a3.64,3.64,0,0,1,3.39-1.25,3.29,3.29,0,0,1,1.37.59l.48.56a2.1,2.1,0,0,1-.07,1.42c-1,1.28-2.43,1.25-3.86,1.24A2.45,2.45,0,0,1,60.06,101Z"/><path class="cls-182" d="M58.91,93.89c0-.31.08-.61.11-.92,1.89-1.92,3.86-3,6.15-.56a2.11,2.11,0,0,1,.18,1.52,3.06,3.06,0,0,1-2.51,1.53A3.26,3.26,0,0,1,60,95v-.11Z"/><path class="cls-183" d="M51,50l0-5c1-1.32-.31-4.16,2.72-4.16,2.58,1.95,1.64,4.53,1.27,7A2.54,2.54,0,0,1,53.86,49Z"/><path class="cls-184" d="M54.19,57.17,54.12,50a1.29,1.29,0,0,1,1.53.31,6.23,6.23,0,0,1,.07,6.45A1.48,1.48,0,0,1,54.19,57.17Z"/><path class="cls-185" d="M55.1,50.13l-1-.18a8.48,8.48,0,0,0-.25-1c.08-.31.17-.62.26-.93a2.7,2.7,0,0,1,1.24-.75,1.93,1.93,0,0,1,2.21,1.52,2.35,2.35,0,0,1-.41,1.38A1.71,1.71,0,0,1,55.1,50.13Z"/><path class="cls-186" d="M54.19,57.17q.44-.11.87-.24a2.26,2.26,0,0,1,2.44-.61,1.75,1.75,0,0,1,.83,1,2.29,2.29,0,0,1-2.22,2.17A1.59,1.59,0,0,1,55,58.88L54,58A6.89,6.89,0,0,1,54.19,57.17Z"/><path class="cls-187" d="M55,48l-.87,0c-.51-2.29.79-4.88-1.17-6.92a1.42,1.42,0,0,1-1.87,0c0-.28.05-.57.08-.85L51,40a5.13,5.13,0,0,1,2.49-.83,2.76,2.76,0,0,1,2.36,1.12C56.75,43,57.23,45.66,55,48Z"/><path class="cls-188" d="M51.08,41.11l1.87,0c-.62,1.28-1.25,2.55-1.87,3.83Z"/><path class="cls-189" d="M59,80,54.08,81c-.64-1.32-1.27-2.65-1.91-4-.12-1-.25-2.11-.37-3.16l.43-.56a3.16,3.16,0,0,1,2-.6c1.62.25,2.86,1.3,4.23,2.08a5.2,5.2,0,0,1,1,4.59Z"/><path class="cls-58" d="M51.8,73.91c-1.37-2.67-.73-5.48-.57-8.25l.69,0a2.61,2.61,0,0,1,1.06.86,4.47,4.47,0,0,1,.49,2c0,.71,0,1.42,0,2.14a4.3,4.3,0,0,1-1.24,3.29Z"/><path class="cls-190" d="M52,66a5,5,0,0,1-.78-.35L51.11,60q.39-.06.78-.15C53.88,61.87,53.84,63.92,52,66Z"/><path class="cls-191" d="M52,66l-.12-6.15A1.94,1.94,0,0,1,54,59.14c2,2.12,1.9,4.39.55,6.78A1.85,1.85,0,0,1,52,66Z"/><path class="cls-192" d="M54,66q0-3.42,0-6.83l1-.26,1,.06c2.32,2.46,2.09,4.83-.29,7.1A1.71,1.71,0,0,1,54,66Z"/><path class="cls-193" d="M53,39.85,51,40a3.5,3.5,0,0,1,3-2l1,0a.79.79,0,0,1,.35.65c0,.27,0,.4-.11.4C54.65,39.73,53.69,39.36,53,39.85Z"/><path class="cls-194" d="M73.13,67.18a1.28,1.28,0,0,0,.16.74c.4,1.64-.06,2.7-1.9,2.83a2.35,2.35,0,0,1-1.94-1.32c-.07-2.13-.23-4.28.76-6.29a2.6,2.6,0,0,1,1.34-.86,3,3,0,0,1,1.57.19C75.31,64,74.41,65.61,73.13,67.18Z"/><path class="cls-195" d="M79,62.13c0,1.21,0,2.43,0,3.64L75.92,66c-2.16-.11-.82-1.46-.83-2.34a4.15,4.15,0,0,1,2.72-2.06A1.59,1.59,0,0,1,79,62.13Z"/><path class="cls-196" d="M71,70.07a2.58,2.58,0,0,0,2.33-2.15c.56,1.35,1.12,2.69,1.67,4l-.5.62a2.82,2.82,0,0,1-3.68-.33A1.76,1.76,0,0,1,71,70.07Z"/><path class="cls-197" d="M76.05,64.15c-.28.58-.83,1.15-.13,1.81a3.48,3.48,0,0,1-2.79,1.22c0-1.38,0-2.76,0-4.14a1.9,1.9,0,0,1,1.17-.6A1.88,1.88,0,0,1,76.05,64.15Z"/><path class="cls-198" d="M75.93,75,74,75.07A1,1,0,0,1,72.81,75c-.58-2,1.29-2.16,2.2-3H75A3.17,3.17,0,0,1,75.93,75Z"/><path class="cls-199" d="M79,62.13l-1-.26a1.39,1.39,0,0,1,0-1.24,3.11,3.11,0,0,1,1-.85,3.16,3.16,0,0,1,2.57-.12l.43.5.93.94L80.92,62Z"/><path class="cls-200" d="M73,74.94l1,.13L76,77c.36,2.23-1.49,2.3-2.81,2.89a5.38,5.38,0,0,1-3-.6c-2.65-1.88-1.61-3.26.61-4.49A4.36,4.36,0,0,1,73,74.94Z"/><path class="cls-201" d="M73,79l3-2,2,0c0,.33,0,.66,0,1h0c-.57.72-.89,1.65-1.75,2.13a2.55,2.55,0,0,1-3.29.14A1.05,1.05,0,0,1,73,79Z"/><path class="cls-202" d="M85,53l0,6-2.9,1.17-.15-.33c-2.22-1.74-1.31-4.06-1.17-6.24a3.34,3.34,0,0,1,1.5-1.93,2.81,2.81,0,0,1,1.56-.3C84.62,51.61,85.23,52,85,53Z"/><path class="cls-203" d="M65,100V99c1-1.65,2.23-2.28,3.93-.93,0,1.32,0,2.65.08,4l-3,1-1-.93C64.32,101.38,64.68,100.67,65,100Z"/><path class="cls-204" d="M60.06,101,61,101c2.35-.14,2.5,1.18,2,3L63,104l-2,.84C60.71,103.6,60.38,102.32,60.06,101Z"/><path class="cls-205" d="M72,38a.32.32,0,0,1,.5-.13c5.91-.07,3.54,4,3.43,6.9-1,1.61-2.35,2.31-4.19,1.3A6.29,6.29,0,0,1,72,38Z"/><path class="cls-206" d="M64.71,38.88a4.92,4.92,0,0,0,.51-.69c.5-.81,1.09-.74,1.74-.19l4,.09a.91.91,0,0,1,.34.81c0,.3-.1.45-.18.45-2.64,1.61-.54,5.34-3.13,7a1.79,1.79,0,0,1-1.44-.25C64.7,44,66,41.11,64.71,38.88Z"/><path class="cls-207" d="M81.14,44.17a3.86,3.86,0,0,0-.1.76,1.07,1.07,0,0,1-.29,1.34c-1.46.7-2.46.07-3.29-1.11a3.47,3.47,0,0,1-.36-1.52c.64-2.17-.17-4.75,1.82-6.55l1-.15.23.26C81.83,39.33,80.53,41.89,81.14,44.17Z"/><path class="cls-208" d="M74.94,45c-.5-2.47,1.65-5.84-2.4-7.11l.62-.75A1.11,1.11,0,0,1,75,37l2,.22a2.49,2.49,0,0,1,.58,1.34c-.24,2.2.24,4.54-1.26,6.49A1.13,1.13,0,0,1,74.94,45Z"/><path class="cls-209" d="M77,38l0-.78,1.92-.1c-.11,2.36.69,4.82-.87,7C76.2,42.31,77.31,40,77,38Z"/><path class="cls-210" d="M71,39c0-.31,0-.63,0-.94L72,38,72,46l-.79.28A2.57,2.57,0,0,1,70,45.2C69.22,43,69.09,40.82,71,39Z"/><path class="cls-211" d="M67,38l-1.74.19-2.93-.44c.76-1.15,1.83-.53,2.7-.74Z"/><path class="cls-212" d="M75,37l-1.79.15-3.55-.4C72,35.74,73.52,35.84,75,37Z"/><path class="cls-213" d="M60,39l4.06.1c2.22,1.92,1.31,4.49,1.44,6.85a7.46,7.46,0,0,1-.24,1.55,3.77,3.77,0,0,1-.84,1.31,7,7,0,0,1-2,1.08,7.86,7.86,0,0,1-3,0A2.13,2.13,0,0,1,57.31,48a7.42,7.42,0,0,1-.22-6.5c2.52-1.91,2.67.74,3.6,1.82,0-.06.35.15.32.09.24-.44,0-.7-.28-1a4.58,4.58,0,0,1-1.1-1.05,2.41,2.41,0,0,0-1.37-.92,1.28,1.28,0,0,1-.67-.91,1.2,1.2,0,0,1,.63-1A2,2,0,0,1,60,39Z"/><path class="cls-214" d="M64,47c0-2.66,0-5.31,0-8a.54.54,0,0,1,.7-.17c3.84,1.4,1.71,4.74,2.34,7.19a1,1,0,0,1-.23,1.35A2.25,2.25,0,0,1,64,47Z"/><path class="cls-215" d="M60,39l-1.61.25A2.46,2.46,0,0,1,55,38.89c0-.28,0-.57,0-.85C56.7,38.13,58.49,37.63,60,39Z"/><path class="cls-216" d="M68.93,98,65,99l0,0a2.66,2.66,0,0,1,0-2.76c1-1.5,2.59-2.08,4-3a2.85,2.85,0,0,1,3.13,1.12c.83,1.38-.54,1.9-1.1,2.74,0,.31,0,.61,0,.92Z"/><path class="cls-217" d="M71,97.05c-.73-1.19.77-1.32,1-2l.5-.27.47.32L74,96c0,.32,0,.63,0,.94Z"/><path class="cls-218" d="M75,90c1.6.66,5.12-1.24,4,3H77a4.93,4.93,0,0,1-2.94,1,5.47,5.47,0,0,1-3-.55,2.39,2.39,0,0,1-.84-2.71,2.82,2.82,0,0,1,3-1.71A2.71,2.71,0,0,1,75,90Z"/><path class="cls-219" d="M74,93l3,0c-.83,1.65-2.32,2-4,2.07l0-.14C72.38,93.79,73.42,93.52,74,93Z"/><path class="cls-220" d="M63,103.91l-2-3c1.12-1.18,2.61-.91,4-1,.73.69.2,1.4,0,2.11A2,2,0,0,1,63,103.91Z"/><path class="cls-221" d="M81.14,44.17c-1.88-2.1-1-4.6-1-7,1.42-.08,2.59,0,2.27,2-.25,1.57-.3,3.16-.43,4.75C81.69,44,81.42,44.11,81.14,44.17Z"/><path class="cls-222" d="M85,53l-1-1a2.47,2.47,0,0,1-.55-2.38C84.36,48,85.58,48,87,49c0,.65,0,1.31,0,2s0,1.37-.07,2Z"/><path class="cls-223" d="M76.94,85.94l2,1a3.65,3.65,0,0,1-3,1c-2.36.11-2.59-1.2-2-3C75.54,83.5,76,85.46,76.94,85.94Z"/><path class="cls-224" d="M74,85l2,3c-.33.65-.66,1.31-1,2L73,90a3.41,3.41,0,0,1-1.06-3.79A2.76,2.76,0,0,1,73,85Z"/><path class="cls-225" d="M73,85v1a2.2,2.2,0,0,1-1.4.56c-2.74-.77-4.85-2-4.11-5.42a2.4,2.4,0,0,1,1.15-1,3.28,3.28,0,0,1,2.87.42A4,4,0,0,1,73,83Z"/><path class="cls-226" d="M73,83l-2-1c.51-.8.09-2.52,2-2L76,79a2.24,2.24,0,0,1,1,2l-1,1Z"/><path class="cls-227" d="M77,81c-.32-.66-.65-1.31-1-2l2-1A3.57,3.57,0,0,1,77,81Z"/><path class="cls-228" d="M87,49a3.25,3.25,0,0,0-3,1c-3.15-1.07-2.34-2.9-.92-4.84L87,45.06V48Z"/><path class="cls-229" d="M83.06,45.17c0,1.67-.5,3.44.92,4.84,0,.67,0,1.33,0,2l-1.25,0a1.6,1.6,0,0,1-1.7-.82,6.43,6.43,0,0,1-.18-4.57c.06-.22.11-.43.16-.64s0-.71,0-1.07Z"/><path class="cls-230" d="M65,93c-2-1.44-4,.19-6,0-.34-1.33-.67-2.66-1-4,0-.34,0-.68,0-1,2.36-2.2,5-1.57,7.74-.9A3.45,3.45,0,0,1,67,88.38a4.14,4.14,0,0,1-.39,4.33A1.26,1.26,0,0,1,65,93Z"/><path class="cls-231" d="M66,88l-8,0L57,86A2.55,2.55,0,0,1,57.88,85a4.1,4.1,0,0,1,1.33-.4c.46,0,.93-.07,1.4-.07a10.83,10.83,0,0,1,2.84.17c1.27.66,2.83.83,3.72,2.15C67.25,87.7,67,88.24,66,88Z"/><path class="cls-232" d="M58,86l-1,0c-1.72-2.49-1.08-3.85,1.95-4a2.1,2.1,0,0,1,.7,2.62C59.3,85.31,58.55,85.53,58,86Z"/><path class="cls-233" d="M58.92,85.07c0-1,0-2,0-3.07,0-.68,0-1.36,0-2h0a1.64,1.64,0,0,1,1.34-.42c1.94.85,1.08,2.51,1.13,3.91A3.85,3.85,0,0,1,60,86H59c-.25-.19-.34-.39-.26-.59S58.84,85.07,58.92,85.07Z"/><path class="cls-234" d="M60,95l2.06-1c2,1,3.76,2.13,2,4.73l-4,.11C60,97.61,60,96.32,60,95Z"/><path class="cls-235" d="M64,98.79c.18-1.92-1-3.26-2-4.73H65c1.3.66.37,2.07,1,3l-1,1.91A5.27,5.27,0,0,1,64,98.79Z"/><path class="cls-236" d="M65.94,97a4,4,0,0,1-1-3c0-.34,0-.69,0-1,.31,0,.62,0,.93-.05a2.38,2.38,0,0,1,2.92-.36A1,1,0,0,1,69,94C68.86,95.89,66.84,95.88,65.94,97Z"/><path class="cls-237" d="M58,57l-2.95-.07c0-2.27,0-4.53,0-6.8l1.83-.26C60.89,51.71,59.77,54.31,58,57Z"/><path class="cls-238" d="M58.05,41.09,58,49c-.33.43-.65.45-1,0l-2-1,.09-7.89c.82-1,1.76-.66,2.72-.27l.29.36c.33.2.43.4.31.58S58.17,41.09,58.05,41.09Z"/><path class="cls-239" d="M57,49c.32,0,.64,0,1,0l2-1a7.25,7.25,0,0,1,1.49,3.8c.15,1.46,1.56,2.63,1,4.26a3.35,3.35,0,0,1-2,1.71,3.21,3.21,0,0,1-1.38,0A3.47,3.47,0,0,1,58,57L58,57c-.24-2.39.74-5-1.08-7.13C57,49.58,57,49.29,57,49Z"/><path class="cls-240" d="M58,57l.93,0a4.34,4.34,0,0,1,1.59,3.71,9.09,9.09,0,0,1-.55,4.13,4.08,4.08,0,0,1-3.52,1.89A2.15,2.15,0,0,1,55,65.91c1.31-2.18,1-4.6,1-7Z"/><path class="cls-135" d="M57.8,39.87l-2.72.27L53,39.85l2-1,3.33.31A5.86,5.86,0,0,1,57.8,39.87Z"/><path class="cls-241" d="M55.78,65.92l2.93-1,.73.28a3.09,3.09,0,0,1,.83,1.3,17.1,17.1,0,0,1,0,5.39,3.37,3.37,0,0,1-.7,1.32,2.62,2.62,0,0,1-2,.72c-1.22,0-2.45-1.19-3.66,0l-1.73,0c-.06-1.35-.11-2.7-.16-4,.74-.68,1.4-1.45,2.14-2.14A4.28,4.28,0,0,0,55.78,65.92Z"/><path class="cls-242" d="M57.05,73.05l1.7-.21c3.39.68,3.77,2.83,1.26,7.13l-1,0A9.23,9.23,0,0,1,58,75C57.32,74.54,56.41,74.18,57.05,73.05Z"/><path class="cls-243" d="M57.05,73.05c.32.65.64,1.3,1,2-1.69,1-2.59-1.06-4-1C54.67,72.55,55.31,71,57.05,73.05Z"/><path class="cls-190" d="M55.78,65.92c.91,1.3.82,2.36-.74,3.07A3.34,3.34,0,0,1,52.13,68L52,66l2,0,1-.06C55.26,65.92,55.52,65.93,55.78,65.92Z"/><path class="cls-244" d="M52.13,68A3.32,3.32,0,0,1,55,69c-.77,1-1.86.94-2.94.9Z"/><path class="cls-245" d="M71.08,63c-.18,2,.67,4.23-.94,6a1.75,1.75,0,0,1-1.8.5c-1-1.52-2.29.18-3.41-.21a2.87,2.87,0,0,1-1.52-2.27,2.93,2.93,0,0,1,.76-2c1.61-1.45,3.69-1.87,5.64-2.56A2.09,2.09,0,0,1,71.08,63Z"/><path class="cls-246" d="M73.86,63l-.78.09L72,63a5.25,5.25,0,0,1-.21-7c4.41-1,3.77,2,3.63,4.6A3.86,3.86,0,0,1,73.86,63Z"/><path class="cls-247" d="M72.14,56.12Q72.05,59.55,72,63h-.87l-1.17.09-.64-.52a6.81,6.81,0,0,1,0-6.37,2.08,2.08,0,0,1,2.24-.6Z"/><path class="cls-248" d="M68.05,68.93l2.09.1.82,1L71,72a2.76,2.76,0,0,1-1,1,6.18,6.18,0,0,1-4.3,0,3,3,0,0,1-1.1-1,2.19,2.19,0,0,1,.19-2.09C65.81,69.47,66.71,68.43,68.05,68.93Z"/><path class="cls-249" d="M73.86,63l.19-1.85a2.5,2.5,0,0,1,3.15-.92,1.89,1.89,0,0,1,.86,1.08,3.12,3.12,0,0,1,0,.61l-2,2.27Z"/><path class="cls-250" d="M70.12,72q.43,0,.87-.06l4,0c-.66,1-1.32,2-2,3l-1,1c-.82-.79-2.28-.78-2.62-2.15A1.71,1.71,0,0,1,70.12,72Z"/><path class="cls-251" d="M81.67,53.06l.24,6.77L79,60.92C77.1,59.23,77.52,57,77.6,54.84a3.93,3.93,0,0,1,.52-1.52C79.21,52.08,80.41,52.15,81.67,53.06Z"/><path class="cls-252" d="M78.9,54c0,2.32.07,4.64.11,7l-1,.34-.12-.41c-2-1.94-2.07-4.07-.62-6.34A1.77,1.77,0,0,1,78.9,54Z"/><path class="cls-253" d="M70.15,74,72,76c-.67.31-1.63.45-1.95,1-.47.76.43.9,1,1.06.62,1.86-1.33,2-2,2.92l-1,0a1.74,1.74,0,0,1-1.38.5,2.6,2.6,0,0,1-1.74-1.39,7.13,7.13,0,0,1-.31-3,3.55,3.55,0,0,1,.74-2.1C66.7,73.58,68.43,73.82,70.15,74Z"/><path class="cls-254" d="M69,81c0-1.43,1.25-2,2-2.92L73,79l0,1-2,2Z"/><path class="cls-255" d="M81.67,53.06A2.49,2.49,0,0,1,79,53a2,2,0,0,1-.59-1.91,2.37,2.37,0,0,1,1.43-1.44C81,49.41,81.44,50.24,82,51l.76,1Z"/><path class="cls-256" d="M74.94,45l1.14-.08a.93.93,0,0,1,1.21.3,2.52,2.52,0,0,1-1.14,2.53,3.82,3.82,0,0,1-2.15.59,3.08,3.08,0,0,1-2-.89,1.07,1.07,0,0,1,.07-1.32L72,46Z"/><path class="cls-257" d="M71,39l-.09,6.91A1.87,1.87,0,0,1,68,46C68.79,43.58,65.87,39.59,71,39Z"/><path class="cls-258" d="M68,46l2.88-.05L72,46.1c0,.32,0,.63,0,.94a1,1,0,0,1,.31.84c0,.31-.09.46-.16.46a3.47,3.47,0,0,1-1.17.88,4.7,4.7,0,0,1-2.92,0,3.5,3.5,0,0,1-1.2-.85,1.36,1.36,0,0,1,0-1.38,7.63,7.63,0,0,1,.2-1Z"/><path class="cls-259" d="M77,45a6.5,6.5,0,0,1-.9-.12c.11-2.34-.78-4.79.89-6.92,1.62,1.81.76,4.06,1.07,6.1l0,1-.52.32Z"/><path class="cls-260" d="M80,50l-1,1a4.11,4.11,0,0,1-2.06-3.13,6.21,6.21,0,0,1,1-2.92L78,45l3,1,0,0A4.06,4.06,0,0,1,80,50Z"/><path class="cls-261" d="M66.85,47a7.79,7.79,0,0,1,.2,1c1.7,1.75,1.57,3.85,1.14,6a3,3,0,0,1-.94,1.22,1.81,1.81,0,0,1-1.46,0c-1.76-1.59-1.17-4.09-2.29-5.94A1.7,1.7,0,0,1,64,48V47Z"/><path class="cls-262" d="M61.94,47H60a7.61,7.61,0,0,1,0-5.94l2,0A7.62,7.62,0,0,1,61.94,47Z"/><path class="cls-263" d="M62,55.8c.1-1.49-2.34-1.15-2-2.8,1.39-1,.54-3,2-4l1-1c1.59,2.45,2.15,5,.63,7.67A1,1,0,0,1,62,55.8Z"/><path class="cls-264" d="M62,49c-.08,1.61.31,3.46-2,4,0-1.66,0-3.32,0-5Z"/><path class="cls-263" d="M60,41.07V47c-1.79-1.6-.24-4.31-2-5.92a8.12,8.12,0,0,1,0-.86Z"/><path class="cls-265" d="M62.94,55.84,63,48h1c0,.34,0,.68,0,1,1.42,2.15,1.19,4.4.42,6.68A1,1,0,0,1,62.94,55.84Z"/><path class="cls-214" d="M61.94,47c0-2,0-4,.07-6C63.76,43,63.18,45,61.94,47Z"/><path class="cls-266" d="M69,94V93a1.38,1.38,0,0,1,2-.07L74,93c-.32.64-.64,1.28-1,1.91L72,95Z"/><path class="cls-267" d="M71,92.93,69,93l-3.07,0c.09-1.3.17-2.61.26-3.91a3.13,3.13,0,0,1,2.68-1A2.68,2.68,0,0,1,71,90Z"/><path class="cls-268" d="M71,90l-2-1a1.61,1.61,0,0,1,.08-1.92c.84-.73,1.56-1.76,2.93-1.11h1c0,1.34,0,2.69,0,4C72.3,90.69,71.65,90.21,71,90Z"/><path class="cls-269" d="M72,86l-2,2c-.76-.57-1.73-.7-2.49-1.26s-1.74-.87-2.12-1.87A3.57,3.57,0,0,1,67,81h1C68.14,83.61,70.54,84.41,72,86Z"/><path class="cls-270" d="M80,50l1-4c1.43,1.45.91,3.28,1,5Z"/><path class="cls-271" d="M68,86a2.14,2.14,0,0,1,2,2l-1,1-2.81,0L66,88l1-1C67,86.35,67.61,86.26,68,86Z"/><path class="cls-272" d="M67,81l-1,4c-.66,1.3-1.53,2-3,1l-3,0,0-3c1.25-.81,1.78-2.25,2.85-3.22A3.56,3.56,0,0,0,66,80Z"/><path class="cls-273" d="M63,86l3-1,2,1c-.34.33-.67.67-1,1C65.6,86.92,64.13,87.17,63,86Z"/><path class="cls-230" d="M58.92,85.07a6.77,6.77,0,0,1,0,.9l-1,0Z"/><path class="cls-274" d="M63,80c.08,2.07-.9,3.08-3,3-.11-1,.77-2,0-3-.87-2.29,1.9-5.23-1.26-7.12l.33-.79a8.36,8.36,0,0,1,1.06-1,3.85,3.85,0,0,1,2.11-.43,3,3,0,0,1,1.84,1A15.44,15.44,0,0,1,64,79,5.62,5.62,0,0,1,63,80Z"/><path class="cls-275" d="M58.94,61l-.06-4a5.64,5.64,0,0,1,.92-.11c1.22.44,2.55-.78,3.72.28a3,3,0,0,1,.38,2,4.14,4.14,0,0,1-1.59,2.39,2.88,2.88,0,0,1-2.15.27A5.36,5.36,0,0,1,58.94,61Z"/><path class="cls-276" d="M63.13,57.14c-1.14.35-2.3.94-3.33-.26L62,55.8a1.49,1.49,0,0,0,.91,0l1.16,0a1,1,0,0,1,1.15.3,1.34,1.34,0,0,1-.3,1.2A1.57,1.57,0,0,1,63.13,57.14Z"/><path class="cls-277" d="M58.94,61H60a13.64,13.64,0,0,1,2.29,2.51,2,2,0,0,1-.08,1.36,1.88,1.88,0,0,1-3,.12l-.45-.09C58.79,63.62,58.87,62.31,58.94,61Z"/><path class="cls-278" d="M59.16,65A3.64,3.64,0,0,0,62,64.1a2.24,2.24,0,0,1,1.14-.89,2.35,2.35,0,0,1,2,.55,1.54,1.54,0,0,1-.21,2L63.89,67a2.05,2.05,0,0,1-1.63.9,3.63,3.63,0,0,1-2.32-1,9.47,9.47,0,0,1-.86-.93A3.39,3.39,0,0,1,59.16,65Z"/><path class="cls-279" d="M59.08,66l1,.1c1.46,2,1.74,4-.07,5.92l-.93.08Z"/><path class="cls-280" d="M62.1,66.91l1.79,0L65,69c.35.21.49.44.4.7s-.19.4-.29.4L64.93,72a.6.6,0,0,1-1,0l-2-.12C59.54,70.16,60.57,68.53,62.1,66.91Z"/><path class="cls-281" d="M65,65.75,65,64c-.32-.89.15-1.45.8-1.93A3.7,3.7,0,0,1,68,61.73a5.21,5.21,0,0,1,2,1.09l-.1.26C69,65.21,66.73,65,65,65.75Z"/><path class="cls-282" d="M65.11,70.1,65,69c1,1,1.93-4.58,3-.07Z"/><path class="cls-283" d="M78.05,54c0,2.29-.07,4.59-.11,6.88l-3.89.25c-.45-1.73.86-4.13-1.91-5l-.24-.19a1.56,1.56,0,0,1-.09-1.25,2.73,2.73,0,0,1,2-1.5,16.42,16.42,0,0,1,3.76.36Z"/><path class="cls-257" d="M70,62.82l-1.94-.07c-1.86-1.48-1.6-3.48-1.32-5.48a3.14,3.14,0,0,1,.9-1.42,1.73,1.73,0,0,1,2.3.29Z"/><path class="cls-284" d="M70,56.14l-1.82,0c-.95.2-1.32-.17-1.1-1.12L67,55l1-.85a3,3,0,0,1,3.71.31L72,55a2.61,2.61,0,0,1-.1.92Z"/><path class="cls-285" d="M64,72c.32,0,.64,0,1,0L66,72a2,2,0,0,1,0,3V77c-1,.6-1.08,2.72-3,2C62.81,76.6,61.69,74.07,64,72Z"/><path class="cls-286" d="M66,75c0-1,0-2,0-3,1.39-.77,2.76-.13,4.13,0l0,1.94C69.11,75.78,67.71,76,66,75Z"/><path class="cls-287" d="M78,48a3.69,3.69,0,0,1,1,3c0,.66,0,1.32,0,2,0,.32,0,.64,0,1l-.42,0h-.43l0,0a4,4,0,0,1-1-1.12,4.86,4.86,0,0,1-.37-2.26A2.75,2.75,0,0,1,78,48Z"/><path class="cls-288" d="M63,79c1-.73,1.58-2,3-2l0,3c-1,1.29-2,1.27-3,0C63,79.65,63,79.33,63,79Z"/><path class="cls-289" d="M78,53c0,.33,0,.66,0,1-1.35.6-2.71,1.54-4.06,0-2.1-2.28-1.57-4.57,0-6.86L76,47l.54.39C77.6,49.1,76.2,51.45,78,53Z"/><path class="cls-290" d="M73.92,47.12c0,2.29,0,4.58,0,6.86-.65.34-1.3.68-1.94,1l0,0a5.28,5.28,0,0,1-.07-7.1c0-.3.07-.61.11-.91Z"/><path class="cls-291" d="M78,48c0,1-.09,2-.13,3-2.64-.33-.61-2.84-1.8-3.85L76,47c.33-.66.66-1.33,1-2l.91,0C77.94,46,78,47,78,48Z"/><path class="cls-292" d="M70.91,54.83,68,54.9a9.65,9.65,0,0,1,0-6.84L71,48A9.41,9.41,0,0,1,70.91,54.83Z"/><path class="cls-293" d="M70.91,54.83c0-2.27,0-4.54.07-6.81l.91-.07c0,2.37,0,4.73.07,7.1Z"/><path class="cls-294" d="M68,48.06q0,3.42,0,6.84L67,55l.09-7Z"/><path class="cls-295" d="M65,56a4.51,4.51,0,0,1-.88-.21c0-2.26,0-4.51-.08-6.77,3.18,1.14,1.54,3.88,2,5.93A1.07,1.07,0,0,1,65,56Z"/><path class="cls-296" d="M65,56l1-1L67,55l1.1,1.12c0,.28-.11.55-.16.82a2.15,2.15,0,0,1-1.92.73,2,2,0,0,1-1.11-.84C65,56.58,65,56.29,65,56Z"/><path class="cls-297" d="M62.1,66.91c-.35,1.66-1.29,3.29-.17,5L60,72c0-2,0-4,.07-5.92Z"/><path class="cls-298" d="M64.94,56.87l1,.23a4.38,4.38,0,0,1,0,5.78L65,64l-1.79-.13c-1.24-1.54-.06-3.22-.28-4.82.07-.64.15-1.28.23-1.93Z"/><path class="cls-299" d="M62.9,59.07a4.46,4.46,0,0,1,.28,4.82l-1.16.2,0-.2A2,2,0,0,1,62,61Z"/><path class="cls-300" d="M62,61v2.88c-1.88-.11-1.93-1.5-2-2.87Z"/><path class="cls-301" d="M65.92,62.88c0-1.93,0-3.85,0-5.78L68,57c0,1.92.07,3.85.1,5.77Z"/><path class="cls-302" d="M76.1,47.14,77.9,51,78,53C74.8,51.85,76.37,49.2,76.1,47.14Z"/></svg>