<svg id="Layer_1" data-name="Layer 1" xmlns="http://www.w3.org/2000/svg" viewBox="0 0 128 128"><defs><style>.cls-1{fill:#313740;}.cls-2{fill:#fcf52b;}.cls-3{fill:#9bb46b;}.cls-4{fill:#bee478;}.cls-5{fill:#846e13;}.cls-6{fill:#dddb2d;}.cls-7{fill:#ae7529;}.cls-8{fill:#907c13;}.cls-9{fill:#c45827;}.cls-10{fill:#6a5018;}.cls-11{fill:#cd742d;}.cls-12{fill:#aad47e;}.cls-13{fill:#ce7513;}.cls-14{fill:#69452f;}.cls-15{fill:#a6711a;}.cls-16{fill:#66482a;}.cls-17{fill:#5d400d;}.cls-18{fill:#b36515;}.cls-19{fill:#98c572;}.cls-20{fill:#aed77e;}.cls-21{fill:#b3a61a;}.cls-22{fill:#f58c11;}.cls-23{fill:#3a653a;}.cls-24{fill:#83a46e;}.cls-25{fill:#775c19;}.cls-26{fill:#5a7a63;}.cls-27{fill:#456f48;}.cls-28{fill:#895c22;}.cls-29{fill:#6c9554;}.cls-30{fill:#b7ad1e;}.cls-31{fill:#acdb75;}.cls-32{fill:#9bcb73;}.cls-33{fill:#9d510d;}.cls-34{fill:#c4e987;}.cls-35{fill:#3b3e12;}.cls-36{fill:#493c1f;}.cls-37{fill:#77a45d;}.cls-38{fill:#667f53;}.cls-39{fill:#4e5642;}.cls-40{fill:#c89e1c;}.cls-41{fill:#afd78c;}.cls-42{fill:#daf99b;}.cls-43{fill:#958210;}.cls-44{fill:#e9de2a;}.cls-45{fill:#555d52;}.cls-46{fill:#4b5552;}.cls-47{fill:#d68b25;}.cls-48{fill:#7d4714;}.cls-49{fill:#92b66a;}.cls-50{fill:#61530d;}.cls-51{fill:#b2dd85;}.cls-52{fill:#a9c674;}.cls-53{fill:#5a8a4b;}.cls-54{fill:#8c6d2a;}.cls-55{fill:#5d512e;}.cls-56{fill:#31381f;}.cls-57{fill:#fefc1e;}.cls-58{fill:#092e14;}.cls-59{fill:#23371e;}.cls-60{fill:#27401f;}.cls-61{fill:#503a12;}.cls-62{fill:#a4b463;}.cls-63{fill:#5a7842;}.cls-64{fill:#e7da28;}.cls-65{fill:#f3e232;}.cls-66{fill:#8aaa65;}.cls-67{fill:#809c60;}.cls-68{fill:#8eb96f;}.cls-69{fill:#86a45f;}.cls-70{fill:#93b368;}.cls-71{fill:#8fb068;}.cls-72{fill:#bedc7b;}.cls-73{fill:#c0ea80;}.cls-74{fill:#b1e077;}.cls-75{fill:#a3cf70;}.cls-76{fill:#5c9150;}.cls-77{fill:#8cb15f;}.cls-78{fill:#c6ee7e;}.cls-79{fill:#9b8216;}.cls-80{fill:#b58f1b;}.cls-81{fill:#5d4f0c;}.cls-82{fill:#ac9a15;}.cls-83{fill:#a87826;}.cls-84{fill:#8e701e;}.cls-85{fill:#a98d17;}.cls-86{fill:#c2ae20;}.cls-87{fill:#feae12;}.cls-88{fill:#e97d0e;}.cls-89{fill:#d46b26;}.cls-90{fill:#fcb018;}.cls-91{fill:#935d20;}.cls-92{fill:#f59b17;}.cls-93{fill:#a77527;}.cls-94{fill:#92c371;}.cls-95{fill:#bce483;}.cls-96{fill:#da7e15;}.cls-97{fill:#cc7b19;}.cls-98{fill:#e98b14;}.cls-99{fill:#133518;}.cls-100{fill:#0b3516;}.cls-101{fill:#996414;}.cls-102{fill:#754910;}.cls-103{fill:#7f5415;}.cls-104{fill:#744a13;}.cls-105{fill:#875211;}.cls-106{fill:#884a10;}.cls-107{fill:#ad6718;}.cls-108{fill:#c5ec7f;}.cls-109{fill:#bcea7e;}.cls-110{fill:#78a15f;}.cls-111{fill:#fc9512;}.cls-112{fill:#96ae62;}.cls-113{fill:#82a259;}.cls-114{fill:#9bbe6e;}.cls-115{fill:#b1dd7b;}.cls-116{fill:#7d9f58;}.cls-117{fill:#789a59;}.cls-118{fill:#8bac64;}.cls-119{fill:#688b51;}.cls-120{fill:#8db062;}.cls-121{fill:#add174;}.cls-122{fill:#8ab265;}.cls-123{fill:#c0dc7e;}.cls-124{fill:#c9f688;}.cls-125{fill:#5d914f;}.cls-126{fill:#906d15;}.cls-127{fill:#8f6612;}.cls-128{fill:#05220e;}.cls-129{fill:#17361a;}.cls-130{fill:#abd075;}.cls-131{fill:#bfe880;}.cls-132{fill:#517041;}.cls-133{fill:#64844c;}.cls-134{fill:#30582f;}.cls-135{fill:#354d26;}.cls-136{fill:#748544;}.cls-137{fill:#61773d;}.cls-138{fill:#5f7840;}.cls-139{fill:#64400d;}.cls-140{fill:#cfe784;}.cls-141{fill:#95b463;}.cls-142{fill:#a7d271;}.cls-143{fill:#7d691b;}.cls-144{fill:#cdb625;}.cls-145{fill:#fac31e;}.cls-146{fill:#f2cd2e;}.cls-147{fill:#5a7e50;}.cls-148{fill:#446b47;}.cls-149{fill:#5a834d;}.cls-150{fill:#55824f;}.cls-151{fill:#5d8350;}.cls-152{fill:#8bb169;}.cls-153{fill:#709858;}.cls-154{fill:#82a35e;}.cls-155{fill:#537a4a;}.cls-156{fill:#678952;}.cls-157{fill:#708e56;}.cls-158{fill:#859f5f;}.cls-159{fill:#8ba662;}.cls-160{fill:#a1c56e;}.cls-161{fill:#8bb261;}.cls-162{fill:#92c065;}.cls-163{fill:#aad271;}.cls-164{fill:#82a459;}.cls-165{fill:#badd76;}.cls-166{fill:#a08417;}.cls-167{fill:#b8991c;}.cls-168{fill:#b5901a;}.cls-169{fill:#8f7211;}.cls-170{fill:#735d0f;}.cls-171{fill:#cc852d;}.cls-172{fill:#cfb127;}.cls-173{fill:#ba9b20;}.cls-174{fill:#fdb01a;}.cls-175{fill:#feca19;}.cls-176{fill:#fecc12;}.cls-177{fill:#e38619;}.cls-178{fill:#feaf14;}.cls-179{fill:#feab13;}.cls-180{fill:#febe0f;}.cls-181{fill:#ce7d19;}.cls-182{fill:#975b14;}.cls-183{fill:#d0901a;}.cls-184{fill:#4b3b0b;}.cls-185{fill:#8d5311;}.cls-186{fill:#b47719;}.cls-187{fill:#ac6d18;}.cls-188{fill:#694c0c;}.cls-189{fill:#ba7419;}.cls-190{fill:#b6d074;}.cls-191{fill:#80a160;}.cls-192{fill:#5c7e4b;}.cls-193{fill:#6d9553;}.cls-194{fill:#708d52;}.cls-195{fill:#96b764;}.cls-196{fill:#91b466;}.cls-197{fill:#8dac61;}.cls-198{fill:#a0bf6e;}.cls-199{fill:#507a48;}.cls-200{fill:#59834d;}.cls-201{fill:#8eb26a;}.cls-202{fill:#a9c56e;}.cls-203{fill:#7fa25a;}.cls-204{fill:#a6c56b;}.cls-205{fill:#8d6614;}.cls-206{fill:#f2b121;}.cls-207{fill:#bb871c;}.cls-208{fill:#926f17;}.cls-209{fill:#6b864f;}.cls-210{fill:#5d7943;}.cls-211{fill:#839c58;}.cls-212{fill:#8da55c;}.cls-213{fill:#f9a514;}.cls-214{fill:#456030;}.cls-215{fill:#fea613;}.cls-216{fill:#fab213;}.cls-217{fill:#697c3d;}.cls-218{fill:#5a753e;}.cls-219{fill:#5c7640;}.cls-220{fill:#c5eb7b;}.cls-221{fill:#e8b827;}.cls-222{fill:#627f42;}.cls-223{fill:#f8ce24;}.cls-224{fill:#84a161;}.cls-225{fill:#31643b;}.cls-226{fill:#829c5c;}.cls-227{fill:#8ea35e;}.cls-228{fill:#879b5a;}.cls-229{fill:#d2ed80;}.cls-230{fill:#85a960;}.cls-231{fill:#a8b96a;}.cls-232{fill:#7e9b5c;}.cls-233{fill:#57784a;}.cls-234{fill:#758752;}.cls-235{fill:#5a7a48;}.cls-236{fill:#deb228;}.cls-237{fill:#906e12;}.cls-238{fill:#c8a625;}.cls-239{fill:#d0821b;}.cls-240{fill:#ec9b1d;}.cls-241{fill:#ef9019;}.cls-242{fill:#feb41b;}.cls-243{fill:#b16f18;}.cls-244{fill:#a66617;}.cls-245{fill:#8b5d12;}.cls-246{fill:#9a6a16;}.cls-247{fill:#d38d1e;}.cls-248{fill:#f1a723;}.cls-249{fill:#e8a01f;}.cls-250{fill:#b78519;}.cls-251{fill:#5c7e4c;}.cls-252{fill:#869b4e;}.cls-253{fill:#9eb264;}.cls-254{fill:#456b3c;}.cls-255{fill:#7a9055;}.cls-256{fill:#9bb164;}.cls-257{fill:#677742;}.cls-258{fill:#feba23;}.cls-259{fill:#fed11e;}.cls-260{fill:#e6ac1a;}.cls-261{fill:#d29111;}.cls-262{fill:#435e32;}.cls-263{fill:#738a4a;}.cls-264{fill:#ce971d;}.cls-265{fill:#876810;}.cls-266{fill:#b17f10;}.cls-267{fill:#6d834a;}.cls-268{fill:#768f55;}.cls-269{fill:#6c8244;}.cls-270{fill:#bbcd74;}.cls-271{fill:#738a50;}.cls-272{fill:#265533;}.cls-273{fill:#c17816;}.cls-274{fill:#fece22;}.cls-275{fill:#fdb023;}.cls-276{fill:#b87d1b;}.cls-277{fill:#a37316;}.cls-278{fill:#3f5f35;}.cls-279{fill:#fed027;}.cls-280{fill:#d2931a;}.cls-281{fill:#b67f16;}</style></defs><path class="cls-1" d="M87,63.47c.08,6.08-1.23,11.74-.36,17.65a12.37,12.37,0,0,0,3.62,7.65c7.83,7.88,6.84,14.13-3,19-5.3,2.62-9.56,7.21-15.76,8.15-6.7,1-13.45,2.45-20.17,1C42.56,115,32,100.78,32.13,91.81c0-2.61.87-5.19,2.82-6.71,3.35-2.61,3.29-5.79,2.79-9.39a129.93,129.93,0,0,1,2-47.32c1-4.17,1.47-8.37,3.22-12.37,1.5-3.4,3.73-5.56,7.37-5.76S55,13.33,55.8,15.85c2.88,8.81,5.48,17.71,8,26.64.59,2.11,1,3.16,3.58,2.63C79.09,42.67,88.22,52.93,87,63.47Z"/><path class="cls-2" d="M63.64,50.44,65,50.07c1.13.48,1.57-.13,1.76-1.12.48-1,1.29-1,2.22-.79,1.07.51,2.11,1.06,2.38,2.37.06,2.21,2.12,3.76,2,6a4.41,4.41,0,0,1-.26,1.49c-2.37,2.91-6.22,4.88-5.9,9.51a1.55,1.55,0,0,1-1.6,1.54c-2-.08-1.91-1.88-2.37-3.19-.35-3.71-1.9-7.09-3-10.61-.11-1.2-1-2.22-.86-3.48C60.15,49.35,62.14,50.66,63.64,50.44Z"/><path class="cls-3" d="M63.64,50.44l-3.18,1.4c-.3.88-.05,1.87-.47,2.73a2.53,2.53,0,0,1-1,.9,2.68,2.68,0,0,1-2.48-.8,11.44,11.44,0,0,1-1.73-2.74,4.79,4.79,0,0,1-.17-2c.09-1.66,1.72-2.67,1.84-4.31a7.94,7.94,0,0,1,.44-1.27c1.06-1.08,1.5-2.76,3.15-3.27C62.11,43.86,59.22,48.56,63.64,50.44Z"/><path class="cls-4" d="M42.73,35.41c.06-1.89-1.09-4,1.1-5.5a4.11,4.11,0,0,1,2.36-2.16,3.68,3.68,0,0,1,3.19.43,8.78,8.78,0,0,1,2,5.28,3.58,3.58,0,0,1-1,2.13,6.76,6.76,0,0,1-1.76,1.48,4.1,4.1,0,0,1-1.43.34,4.88,4.88,0,0,1-1.41-.26A27.06,27.06,0,0,1,42.73,35.41Z"/><path class="cls-5" d="M82.88,71c-1.06,3.12-1.4,6.16,1,8.9-1.46.78-1.85,2.81-3.7,3.14a3.83,3.83,0,0,1-1.46-.2c-1.78-1-2.22-2.64-2-4.54,1.09-2.43.26-5.55,2.68-7.51A2.56,2.56,0,0,1,82.88,71Z"/><path class="cls-6" d="M73,49c2.64-.33,5.12-.29,6.2,2.82.44,2.2,2.58,4.29.44,6.67A6.78,6.78,0,0,1,79,59.76a2.5,2.5,0,0,1-1.26.67c-2.76-.4-2.08-3.59-3.89-4.77a13.25,13.25,0,0,1-1.58-4A3.69,3.69,0,0,1,73,49Z"/><path class="cls-7" d="M36.21,95.9c-1.89-4.14-1.37-7.57,2.93-9.88,1-.94,1.71-.49,2.38.39a5.85,5.85,0,0,1-.12,2.88,20.3,20.3,0,0,0-.9,3.53C39.88,95,38.87,96.59,36.21,95.9Z"/><path class="cls-8" d="M82.88,71,80,72a2.11,2.11,0,0,1-2.1.46,2.6,2.6,0,0,1-1.26-1.78,5.14,5.14,0,0,1,1.52-4.72c.26-.42.54-.83.81-1.24.83-1.28,1.56-2.71,3.51-2.15A1.69,1.69,0,0,1,83,65.16Z"/><path class="cls-9" d="M59.05,113c-2.16,1.67-4.55,1.19-6.93.73-2.19-1.38-6.15-1.85-3.11-6,1.52-.71,2.72.64,4.13.67a13.46,13.46,0,0,1,2.69.82c1.38.49,2.74,1,3.53,2.37A1.54,1.54,0,0,1,59.05,113Z"/><path class="cls-10" d="M50,107.87c-2.15,3,1.19,4,2.16,5.84-4.49-.51-7.53-3.19-10-6.66a2.66,2.66,0,0,1,1.57-1.3c1.82.08,3.65.35,5.39-.45a2.25,2.25,0,0,1,1.2.67A1.48,1.48,0,0,1,50,107.87Z"/><path class="cls-11" d="M36.21,95.9,39.07,92c1.56-.7,2.29.44,3.11,1.4a28.29,28.29,0,0,1,1.68,3.46,3,3,0,0,1-.3,1.55A5.79,5.79,0,0,1,41,100.25c-1.46.36-2.53-.55-3.7-1.14Z"/><path class="cls-12" d="M46,20c.35-1.51-.84-3.36,1-4.55a10.61,10.61,0,0,0,1.37.36,5,5,0,0,1,3,2c1.39,1.76,1,3.45-.2,5.11a3.15,3.15,0,0,1-2.87,1.32A3.87,3.87,0,0,1,46.23,23,2.56,2.56,0,0,1,46,20Z"/><path class="cls-13" d="M64.84,113H64.4l-.41-.18c-1.53-.89-3.39-1.57-2.66-4A2.89,2.89,0,0,1,63,107.43c1.71-.29,2.75-2.05,4.57-2.11a2.43,2.43,0,0,1,1.36.73c1,1.92,2.23,3.8.62,6C68.16,113.31,66.41,112.73,64.84,113Z"/><path class="cls-14" d="M91.08,95.88c1.78,3,.69,5.15-1.9,6.92-1.52-.5-2.07-1.78-2.53-3.15a9.08,9.08,0,0,1-.05-1.73C87.19,95.24,88.64,94.47,91.08,95.88Z"/><path class="cls-15" d="M41.09,99.24l2-1.38a1.54,1.54,0,0,1,1.54-.1c1.6,2.09,4,4,1.83,7-2,1.16-3.81,0-5.64-.66L40,102.93C40.19,101.65,40,100.26,41.09,99.24Z"/><path class="cls-16" d="M91.08,95.88a3.11,3.11,0,0,0-3.21,3.25c-3.6-.67-3.88-1.4-2.71-7a2.08,2.08,0,0,1,1.39-.72,1.6,1.6,0,0,1,1.34.73Z"/><path class="cls-17" d="M80.94,106.17l-1.84.8a1.81,1.81,0,0,1-2.25-.54,4.77,4.77,0,0,1-.76-5.45c1.26-1.62,2.79-1.31,4.37-.62a3.68,3.68,0,0,1,2,1.09,3.43,3.43,0,0,1,.55,1.34,3.69,3.69,0,0,1-1,2.53A2.71,2.71,0,0,1,80.94,106.17Z"/><path class="cls-18" d="M69,111.93l-1.15-6c-1-.93-2.82-1.32-2.4-3.31.74-1.58,2-1.3,3.28-.9a5.33,5.33,0,0,1,2.51,2.82,54.64,54.64,0,0,1,.53,6c-.45.89-1.28,1.5-1.75,2.37l-1,.74A1,1,0,0,1,69,111.93Z"/><path class="cls-19" d="M50,22.06a3.39,3.39,0,0,0,.08-3.82c.62-1.42,1.91-1.1,3-1.18,1.65,1.82.79,4,.81,6a2.81,2.81,0,0,1-1.19.82C51.26,24.14,50.49,23.3,50,22.06Z"/><path class="cls-20" d="M55.17,28c2.11,1.16,2.29,3,1.82,5.09a2.55,2.55,0,0,1-1.91,1.19A3.22,3.22,0,0,1,52.33,33a3.56,3.56,0,0,1-.64-1.38,6.65,6.65,0,0,1,.05-2.27,3.71,3.71,0,0,1,.75-1.27,3.28,3.28,0,0,1,1.33-.6A2.45,2.45,0,0,1,55.17,28Z"/><path class="cls-21" d="M78,59a4.79,4.79,0,0,1,0-1c1.62-.88,2.16-2.58,3-4,2.88,1.26,1,4.14,2.07,6a2.22,2.22,0,0,1-1.79,1.87,3.29,3.29,0,0,1-1.35-.2C78.81,61.12,78.9,59.68,78,59Z"/><path class="cls-22" d="M61.91,108.9c.17,1.6,1.25,2.71,2.08,3.95l-4.94.13a7.47,7.47,0,0,0-.12-1c-1.32-1.35-.83-2.81-.27-4.27a2.86,2.86,0,0,1,1.06-1.07C61.45,106.43,61.94,107.41,61.91,108.9Z"/><path class="cls-23" d="M40.17,59.05c-1-2.17.44-4,.8-6a1.45,1.45,0,0,1,1.51-.16,4.89,4.89,0,0,1,1.93,3.46c.05,1.91-.57,3.29-2.75,3.42A2.78,2.78,0,0,1,40.17,59.05Z"/><path class="cls-24" d="M47,29.14l-3.19.77c.07-2-.66-4,.14-5.91.93-.67,1.87-1.27,3.1-.78.41.18.81.38,1.21.6A2.56,2.56,0,0,1,48.89,25C49.23,26.82,47,27.49,47,29.14Z"/><path class="cls-25" d="M41.09,99.24c.89,1.6,1.09,3-1.08,3.69a6.31,6.31,0,0,1-2.72-3.82Z"/><path class="cls-26" d="M40.87,45.19A6.93,6.93,0,0,1,41,38a2,2,0,0,1,2.62.58A3.16,3.16,0,0,1,44.12,40a10.45,10.45,0,0,1-.45,2.21C43.37,43.75,42.81,45.12,40.87,45.19Z"/><path class="cls-27" d="M42.28,53.07l-1.31,0A3.82,3.82,0,0,1,41.12,48a2.09,2.09,0,0,1,1.12-.6,2.78,2.78,0,0,1,1.25.36,3.12,3.12,0,0,1,.8,1,5.81,5.81,0,0,1,.17,1.31,9.87,9.87,0,0,1-.2,2,2.76,2.76,0,0,1-.77,1A1.19,1.19,0,0,1,42.28,53.07Z"/><path class="cls-28" d="M40.83,104.14l6.39-.48.28.66c-.08,2.33-1.73,2.57-3.51,2.64l-1.92.08C41.66,106.08,41.25,105.11,40.83,104.14Z"/><path class="cls-29" d="M40.87,45.19l1.26-4.28.68-.25h.73a3.47,3.47,0,0,1,1.4.4,3,3,0,0,1,.93,1.17c.09,1.49.65,3.05-.61,4.35a3,3,0,0,1-2.91.29A4.09,4.09,0,0,1,41.13,46C41,45.73,41,45.46,40.87,45.19Z"/><path class="cls-30" d="M81,54c-.1,2-.77,3.61-3,4,1.33-1.88.29-4.22,1.19-6.19C79.8,52.53,80.41,53.24,81,54Z"/><path class="cls-31" d="M55,33.05l2,0c1.4,1.44.59,3.31,1,5a1.55,1.55,0,0,1-1.12.42,4.26,4.26,0,0,1-2.27-1.15,3.41,3.41,0,0,1-.7-1.17A2.78,2.78,0,0,1,55,33.05Z"/><path class="cls-32" d="M55.17,28l-1.3.22c-.29.29-.58.58-.88.86l0,0a2,2,0,0,1-1.37.61,2.13,2.13,0,0,1-1.35-.71,3.47,3.47,0,0,1-.46-3,2.84,2.84,0,0,1,1.7-1.57c1.53-.28,2.4.72,3.29,1.7Z"/><path class="cls-33" d="M70,112.87l.91-2c.41-1.08.42-2.46,2-2.7,1.43.14,2.94,0,4.06,1.24a1,1,0,0,1-.07,1.28Z"/><path class="cls-34" d="M47,23.93,44,24c.32-1.52-1.16-3.95,2-4l1,2.13A1.1,1.1,0,0,1,47,23.93Z"/><path class="cls-35" d="M82.05,85.88l1,.19a16.81,16.81,0,0,1,1.5,3.55,5.94,5.94,0,0,0,.78,1.08c.06.22.11.44.17.67l-.21.67c-.13.2-.27.39-.41.59a3.31,3.31,0,0,1-1.32.6,3.36,3.36,0,0,1-2.16-.5,5.91,5.91,0,0,1-1.61-2.55,5.13,5.13,0,0,1,.72-2.86A2.27,2.27,0,0,1,82.05,85.88Z"/><path class="cls-36" d="M84.93,105l-2,.88c-1,.42-1.23-.22-1.41-1,0-.72-.1-1.45.51-2v0c.49-1.3,1.3-2,2.78-1.62a2.43,2.43,0,0,1,1,1A2.52,2.52,0,0,1,84.93,105Z"/><path class="cls-37" d="M56.9,37.75,58,38c1.4,0,1.85.83,1.83,2.08a2.92,2.92,0,0,1-1.27,1.78,2.52,2.52,0,0,1-3.57-1.76,3,3,0,0,1,.17-1.47l.42-.61A1.67,1.67,0,0,1,56.9,37.75Z"/><path class="cls-38" d="M40.17,59.05l1.14.16c1.3.68,3,.87,3.46,2.61a3,3,0,0,1-.13,1.52,2.74,2.74,0,0,1-2.5,1.54c-1.54-.15-2-1.28-2.35-2.55A1.42,1.42,0,0,1,39.91,61Z"/><path class="cls-39" d="M40.91,84.69l.09-8.6c-.51-1,.1-1.37.89-1.65a2.13,2.13,0,0,1,1.48.44c1,1.23.39,2.6.35,3.92-.54,2.08.85,4.57-1.36,6.29A1.06,1.06,0,0,1,40.91,84.69Z"/><path class="cls-40" d="M80.06,82c1.35-.52,2.06-2.23,3.79-2-.67,1.65-1.35,3.29-2,4.94-1.13.54-1.83,0-2.38-.94A1.78,1.78,0,0,1,80.06,82Z"/><path class="cls-41" d="M47.14,16.2c0-.25-.09-.5-.14-.75,2-1.91,3.88-3.34,5.41.41C50.77,17.75,48.94,16.72,47.14,16.2Z"/><path class="cls-42" d="M47.14,16.2l5.27-.34c.23.4.47.8.71,1.2l-3,1.18Z"/><path class="cls-43" d="M80.87,61l2.21-1c1.4,1.75,1,3.47,0,5.18L82.27,63C81.33,62.68,80.49,62.26,80.87,61Z"/><path class="cls-44" d="M73,49l1,2c-1.33,1.55-2.64.86-4,0-.34-1-.69-1.89-1-2.84A4.6,4.6,0,0,1,73,49Z"/><path class="cls-45" d="M42,75l-1,1.08c-1.41-2.22-.82-4.7-.94-7.08l.67-.31a2.54,2.54,0,0,1,2,.86,3.58,3.58,0,0,1,.55,1.36A6.88,6.88,0,0,1,42,75Z"/><path class="cls-46" d="M39.91,61,40,62.06c.84,2.32,2.42,4.63,0,7h0A8.39,8.39,0,0,1,39.91,61Z"/><path class="cls-47" d="M69,111.93l0,1.68a4.42,4.42,0,0,1-4.2-.58A5.87,5.87,0,0,1,69,111.93Z"/><path class="cls-48" d="M76.91,110.71l0-.75c-.29-.34-.6-.66-.91-1a2,2,0,0,1-.43-2.45,1.85,1.85,0,0,1,2.39-.63L79.1,107A5.09,5.09,0,0,1,76.91,110.71Z"/><path class="cls-49" d="M42.83,39.17,41,38c.3-1.09-.2-2.72,1.81-2.63a2.39,2.39,0,0,1,1.62,2.34A2.41,2.41,0,0,1,43.56,39Z"/><path class="cls-50" d="M80,83.94l1.84.92c.08.34.15.68.23,1l-.27,2.19c-2.59.36-3.86-.48-3-3.27A2.68,2.68,0,0,1,80,83.94Z"/><path class="cls-51" d="M54.83,26l-3.08-.86c-.31-1.19.61-1.57,1.37-2.06a3.66,3.66,0,0,0,.81,0A2.86,2.86,0,0,1,54.83,26Z"/><path class="cls-52" d="M59,40.88l.82-.76.24,1c-.14,1.56,0,3.27-2,3.91a2.11,2.11,0,0,1-.29-2.5C58.1,41.92,58.57,41.43,59,40.88Z"/><path class="cls-53" d="M44,38.08c-.42-.91-.83-1.81-1.24-2.72l0,0c1.14-.22,2.3-.5,3.21.56,0,.19.06.37.08.55a1.49,1.49,0,0,1-1.53,1.83Z"/><path class="cls-54" d="M40.91,84.69l1.17.08c1.35,0,1.55.83,1.37,1.92a1.52,1.52,0,0,1-1.84.69L41,86.93,39.14,86Z"/><path class="cls-55" d="M84,89.88l-.9-3.81a3.65,3.65,0,0,1,1.85,3.82l-.48.49C84.26,90.22,84.11,90.05,84,89.88Z"/><path class="cls-56" d="M87.93,103.86l-.8.08c-1.06-.11-1.47-.9-1.82-1.74l-.33-.29c-.31-.91.22-1.31,1-1.58a2.5,2.5,0,0,1,1.39.32C88.09,101.62,89,102.56,87.93,103.86Z"/><path class="cls-57" d="M66.77,49c.42.53.82,1.22,0,1.55-.45.18-1.15-.26-1.74-.43Z"/><path class="cls-58" d="M85.31,102.2l1.81,1.74L84.93,105C85.06,104.07,85.19,103.14,85.31,102.2Z"/><path class="cls-59" d="M87.93,103.86l-1-2.92a1.05,1.05,0,0,1,1-1c.4,1,.81,1.92,1.22,2.87Z"/><path class="cls-60" d="M87.89,92.13l-1-.28c-.51-.57-1.51-.09-1.9-.91v0c-.28-.22-.37-.43-.28-.65S84.86,90,85,90l-.06-.1C86.36,90,87.59,90.46,87.89,92.13Z"/><path class="cls-61" d="M81.91,104.82l1,1.07a1.31,1.31,0,0,1-2,.28c0-.43,0-.86,0-1.3C81.26,104.23,81.57,104.22,81.91,104.82Z"/><path class="cls-62" d="M42,47.83a3.33,3.33,0,0,1-.88.16,2.27,2.27,0,0,1,0-.86.61.61,0,0,1,.92-.36A.79.79,0,0,1,42,47.83Z"/><path class="cls-63" d="M42,47a6.28,6.28,0,0,0-.87.12l0-1.14A8.12,8.12,0,0,0,42,46c.28.21.38.42.3.64S42.12,47,42,47Z"/><path class="cls-64" d="M80,66a3.44,3.44,0,0,1-.22.82c-1.45,1.31-3.11.52-4.7.45a3.87,3.87,0,0,1-1.21-.74c-.94-1.6-3.3-2-3.5-4.25.24-1.86,3.11-2.91,1.66-5.31,0-.33-.05-.65-.06-1,.68-1.27,1.79-1.26,3-1,2.51.79,1.68,3.4,2.72,5,1.09.17,1.46,1.12,2,1.86A8.72,8.72,0,0,1,80,66Z"/><path class="cls-65" d="M72,57c3.48,2.42,2.41,3.94-1,5a1.34,1.34,0,0,0-.88.48c-.36.94.19,1.94-.18,2.88l-.41,1.36c-.66,2-1.24,4.12-3.85,4.45A3,3,0,0,1,63,69.45a4.66,4.66,0,0,1,.33-4.16,1.59,1.59,0,0,1,1.53-.55l.43,2.32C64.19,61.39,68.26,59.29,72,57Z"/><path class="cls-66" d="M64.81,64.74a8.08,8.08,0,0,1-.79.37c-1.31.7-2.1-.15-2.92-1-.49-.46-1-.89-1.48-1.36-.76-.85-1.81-1.36-2.56-2.22a4,4,0,0,1-.5-2c0-.47,0-.93.06-1.4a3.35,3.35,0,0,1,.53-1.28c.5-.54,1.24-.6,1.85-.91l0,0A3.32,3.32,0,0,1,62,53.91Q63.41,59.33,64.81,64.74Z"/><path class="cls-65" d="M75,55l-3,1c-2.67-.89-2.21-3-2-5,1.33-.56,2.64-.19,4,0A6,6,0,0,1,75,55Z"/><path class="cls-67" d="M62,53.91C61.52,55.71,60.16,55.1,59,55a3.68,3.68,0,0,1,1.48-3.16Z"/><path class="cls-68" d="M58,46l-2,4a2.68,2.68,0,0,1-3,.56,2.83,2.83,0,0,1-1.21-2.07,3.8,3.8,0,0,1,.26-1.6c.74-1.26,2-1.63,3.28-2a3,3,0,0,1,1.5.22A9.91,9.91,0,0,1,58,46Z"/><path class="cls-69" d="M59,55l-.93,1c-.35.33-.71.65-1.08,1a4,4,0,0,1-2.09.5,5.45,5.45,0,0,1-2.19-.35,3.53,3.53,0,0,1-1.48-1.71,3.17,3.17,0,0,1,0-1.53,3.14,3.14,0,0,1,1.44-1.72,2.91,2.91,0,0,1,2.15-.07A9,9,0,0,1,56.9,53.9Z"/><path class="cls-70" d="M58,46l-1.08,0c-.59-.59-1.34-.42-2.05-.42-2.26-1.38-1.5-2.72.05-4.06A4.62,4.62,0,0,1,59,43.08L58,45C58,45.35,58,45.69,58,46Z"/><path class="cls-71" d="M55.27,52.94l-2,0c-1.56-.32-2-1.26-1.56-2.74A1,1,0,0,1,53,50L56,50l0,1.89A1.51,1.51,0,0,1,55.27,52.94Z"/><path class="cls-72" d="M55.27,52.94l.72-1c1.17.27,1.33,1,.91,2Z"/><path class="cls-73" d="M55,33.05l.06,4.07c-.09.2-.18.4-.26.6a4,4,0,0,1-1.63,1.06,2.76,2.76,0,0,1-2,.14c-1.78-.7-1.68-2.48-2.2-3.9l1-1c.57-.65.71-1.64,1.56-2.09a1.69,1.69,0,0,1,1.27,0Z"/><path class="cls-74" d="M51.05,26v3a1.32,1.32,0,0,1-1.93,0L47,29.14c-2.39-2-.2-3,.9-4.23C49.38,24.1,50.36,24.63,51.05,26Z"/><path class="cls-75" d="M49.11,29.08l1.93,0,1,0c.49.48.18,1,.07,1.49A7.63,7.63,0,0,0,52,31.65l0,.53L50.06,34C49.74,32.38,49.42,30.73,49.11,29.08Z"/><path class="cls-76" d="M49,35c1.72.29,2,2,3,3,.29.91-.21,1.39-1,1.74a2.79,2.79,0,0,1-1.49,0C48.22,38.84,47.16,37.82,48,36Z"/><path class="cls-77" d="M48,36,50,39.09a1,1,0,0,1-.2,1.41,2.51,2.51,0,0,1-3-.11,2.84,2.84,0,0,1-.6-3,4,4,0,0,1,.9-1.32Z"/><path class="cls-78" d="M47.1,36.07c-.07.31-.15.62-.23.93a.78.78,0,0,1-1.08.14A1.26,1.26,0,0,1,45.87,36l.07,0Z"/><path class="cls-79" d="M78,72,80,72c-1.21,2.14.31,5-1.92,6.9a1.33,1.33,0,0,1-1.28.45,3.51,3.51,0,0,1-1.86-2.18A3.42,3.42,0,0,1,75,75.69c.38-.88,1.11-1.56,1.52-2.43A2.23,2.23,0,0,1,78,72Z"/><path class="cls-80" d="M77.08,78.91c.33,0,.65,0,1,0L79,82c-.24,2.25-1.64,1.29-2.8,1a2.91,2.91,0,0,1-1.33-1.92,2.75,2.75,0,0,1,.75-2.2A1.12,1.12,0,0,1,77.08,78.91Z"/><path class="cls-81" d="M77,82.19l2-.2,1,0c0,.66,0,1.31-.08,2,0,.32,0,.65,0,1-1.26.44-2.55,1.39-3.67-.25A2,2,0,0,1,77,82.19Z"/><path class="cls-82" d="M78.94,62l-1.25-2L78,59c1.29,0,2.49.2,2,2C80.23,62,79.85,62.26,78.94,62Z"/><path class="cls-83" d="M41,94l-1.93-2c-1-1.45-.16-2.28,1-3a2.87,2.87,0,0,1,2.19,1.86A3.59,3.59,0,0,1,42.1,93,2.32,2.32,0,0,1,41,94Z"/><path class="cls-84" d="M41.15,91.06c-.37-.71-.75-1.41-1.12-2.11.34-.67.67-1.35,1-2l.09.1c.69.82,1.95,1,2.35,2.18C43.65,91,43.13,92,41.15,91.06Z"/><path class="cls-85" d="M78,72,78,74a4.06,4.06,0,0,1-2.45.65,3.2,3.2,0,0,1-2.72-.11c-1.21-.79-1.22-2.12-1.51-3.33-.58-2.31-1.17-4.61,1.19-6.36,1.27-.55,1.92.23,2.49,1.17l0,.07c1.48.88,1.86,2.62,3,3.8Z"/><path class="cls-86" d="M77.87,69.88c-2.23-.3-2.85-1.84-3-3.8,1.79-.79,3.29.21,4.88.76C80.1,68.45,78,68.51,77.87,69.88Z"/><path class="cls-86" d="M78.94,62c.35-.34.7-.68,1-1h.89c.47.67.93,1.35,1.4,2L80,66C79.66,64.69,79.3,63.37,78.94,62Z"/><path class="cls-87" d="M54.9,110.79l-1.74-1c-1.25-.58-2.58-1.11-2.46-2.87.43-1.3,1.47-2.27,1.94-3.55.32-.64.72-1.22,1.09-1.83a2.17,2.17,0,0,1,2.61-.85c1.31,1,1.37,2.62,2,4,.41,1.94-.62,3.32-1.81,4.63A12.47,12.47,0,0,1,54.9,110.79Z"/><path class="cls-88" d="M54.9,110.79l.13-1.85c1.54-.89,3-2.08,5-1-.35,1.38-.71,2.76-1.07,4.14Z"/><path class="cls-89" d="M51.32,106.85l1.84,3c-1.73.46-3.17.43-3.2-1.93,0-.61.08-1.23.13-1.84l.61-.22A1.2,1.2,0,0,1,51.32,106.85Z"/><path class="cls-90" d="M47.22,103.66c-1.59-1.58-3.41-3-3.28-5.6,1.73-3.89,2.72-3.91,6-.14.56,1.92.77,3.92,1.3,5.86A2.53,2.53,0,0,1,50,105.61l.05.42-1-.17c-1.16-.19-1.58-1-1.82-2Z"/><path class="cls-91" d="M47.23,103.82l1.82,2c-1.33,2-3,2.51-5.06,1.1Z"/><path class="cls-92" d="M49,99c-1.42-1.78-2.86-3.45-5.07-.92l-.84-.2-.3-1a2.41,2.41,0,0,1-.28-1.39A3.85,3.85,0,0,1,45,92.89c1.89.58,4-.26,5.8.71A4.69,4.69,0,0,1,52,97.18C51.5,98.56,50.69,99.51,49,99Z"/><path class="cls-93" d="M43.1,95.84l-.3,1c-1.42-.4-1.67-1.57-1.8-2.8,0-.37,0-.73,0-1.1a1.35,1.35,0,0,1,1.36-.24A2,2,0,0,1,43.1,95.84Z"/><path class="cls-94" d="M51.05,26l-3.13-1.1.09-.79c-.32-.23-.43-.47-.32-.71s.22-.35.32-.35l2-1,3.13,1.05c-.45.69-.91,1.37-1.37,2.06Z"/><path class="cls-95" d="M48,23.06v1.06l-1-.19v-1.8Z"/><path class="cls-96" d="M61.91,108.9,60,107c-1.77.38-2.22-.82-2.55-2.15a3.47,3.47,0,0,1,.77-3.66,5,5,0,0,1,2.93-1.07,2.76,2.76,0,0,1,2.27,1.83,14,14,0,0,0,1.69,3.14,4,4,0,0,1,.53,2.71A1.87,1.87,0,0,1,64,108.92Z"/><path class="cls-97" d="M65,107.91l-1-2a3.67,3.67,0,0,1-.87-3.14,2.38,2.38,0,0,1,.76-1.09c1.12-.3,1.69.34,2.1,1.25.8.88,1.76,1.66,1.86,3l-.93,0C66.16,106.48,66.92,108.52,65,107.91Z"/><path class="cls-98" d="M65,107.91l1.93-2c-.31,1.65.1,4-2.94,3C64.33,108.58,64.67,108.25,65,107.91Z"/><path class="cls-99" d="M88,99.93l-1,1q-.49,0-1,0c-1-.48-2.3-.44-3.16-1.34A4.84,4.84,0,0,1,81.62,97a4.72,4.72,0,0,1,.17-1.4A18.87,18.87,0,0,1,85,92v0c.42-.51.8-.49,1.15.07.41,2.42-1.14,5.34,1.78,7.13C87.89,99.4,87.92,99.67,88,99.93Z"/><path class="cls-100" d="M86.09,92l-1.15-.07c0-.33,0-.66,0-1l1.9.91C86.6,91.91,86.35,92,86.09,92Z"/><path class="cls-101" d="M82.92,97,84,98.87c.57,2.63-1.52,2.49-3,2.93l-4-1.13a2.18,2.18,0,0,1-.86-1.1,2.61,2.61,0,0,1,.38-2c1.45-1.64,3.5-.78,5.24-1.24A2.36,2.36,0,0,1,82.92,97Z"/><path class="cls-102" d="M76.87,99.83a4,4,0,0,1,.14.84,10,10,0,0,0,1,5.24l-2,1c-1.67.54-2.44-.38-2.93-1.77a23.25,23.25,0,0,1,.87-5.36C74.89,98.44,75.89,98.26,76.87,99.83Z"/><path class="cls-103" d="M81,101.8l3-2.93,2,2-1,1-3,1Z"/><path class="cls-104" d="M81.91,104.82a5.74,5.74,0,0,1-.93.05l1-2Z"/><path class="cls-105" d="M69.94,104.94l-1.86-2c-1-2,1.07-2.65,1.58-4,1.17-1.2.42-3.33,2.08-4.3a2.33,2.33,0,0,1,1.43,0,3,3,0,0,1,1,1.08c.68,1.69-.44,3.43.12,5.12a9.13,9.13,0,0,1-.7,3.57,2.15,2.15,0,0,1-2.38,1.33A3.83,3.83,0,0,1,69.94,104.94Z"/><path class="cls-106" d="M69.94,104.94H71c1.45.75,3.56,1,2.47,3.56l-.55.5-2,1.9A14.44,14.44,0,0,1,69.94,104.94Z"/><path class="cls-107" d="M71.09,100c-.41,1.6-2,1.94-3,2.93l-2.08,0L64.11,102a1.39,1.39,0,0,1-.39-1.39c1.14-2.12,3.4-1.93,5.26-2.56A2.27,2.27,0,0,1,71.09,100Z"/><path class="cls-108" d="M51,31.15c.35-.68.69-1.37,1-2.06L53,29c0,.71,0,1.43,0,2.14a1.33,1.33,0,0,1-1,.37A2,2,0,0,1,51,31.15Z"/><path class="cls-109" d="M53,29.07l.89-.86Z"/><path class="cls-110" d="M52.09,31.19a3.08,3.08,0,0,1,.91,0c0,.26-.07.53-.11.8-.3.08-.6.15-.91.21l.13-.2c-.33-.17-.44-.34-.34-.52S52,31.19,52.09,31.19Z"/><path class="cls-111" d="M58,105c.67.67,1.34,1.34,2,2,0,.3,0,.61,0,.92a10.67,10.67,0,0,1-5,1c.65-1.31,1.29-2.62,1.94-3.94A.61.61,0,0,1,58,105Z"/><path class="cls-112" d="M43.91,61.64,41.3,59.21c1.54-.5,1.6-1.92,2-3.15A1.93,1.93,0,0,1,45,55.21a4.23,4.23,0,0,1,3,2.69,3.24,3.24,0,0,1-.1,1.42A3.54,3.54,0,0,1,47,60.45C46.15,61.29,45.26,62.07,43.91,61.64Z"/><path class="cls-113" d="M45,56.07H43.26c-.33-1-.66-2-1-3a3.14,3.14,0,0,0,.61-.12,1.74,1.74,0,0,1,2.67.39,2.43,2.43,0,0,1,0,2.21Z"/><path class="cls-114" d="M43,40a3,3,0,0,0-.19-.78l.39-.23a1,1,0,0,1,1.17,0,2.4,2.4,0,0,1,.38,1.22l-.17.62c-.14.17-.27.34-.41.5A1.1,1.1,0,0,1,43,41.14L43,41q-.43-.34-.3-.69C42.83,40.07,42.93,40,43,40Z"/><path class="cls-115" d="M43,40c0,.35,0,.7,0,1a7,7,0,0,1-.91-.09Z"/><path class="cls-116" d="M45,54,42.89,53c0-.32-.06-.65-.1-1a2.29,2.29,0,0,1,1.87-1,3.27,3.27,0,0,1,1.39.46,2.52,2.52,0,0,1,.69,1.27A2.65,2.65,0,0,1,46.33,54,1,1,0,0,1,45,54Z"/><path class="cls-117" d="M43.13,49.06A6.25,6.25,0,0,1,43,48.2l.34-.62A4.24,4.24,0,0,1,46,47a2.79,2.79,0,0,1,1.22.71,2.08,2.08,0,0,1,.17,1.39,2.8,2.8,0,0,1-1,1,3.45,3.45,0,0,1-1.43.15A4.06,4.06,0,0,1,43.13,49.06Z"/><path class="cls-118" d="M42,47c0-.33,0-.65,0-1L44.93,46a1.09,1.09,0,0,1,.38,1c-.54.73-1.5.36-2.14.84L43,48.2l-1-.37Z"/><path class="cls-119" d="M45.12,52l-2.33,0a1.36,1.36,0,0,1,.13-2,9.07,9.07,0,0,1,1.72.2,2,2,0,0,1,.8.81A1.09,1.09,0,0,1,45.12,52Z"/><path class="cls-120" d="M44.2,50.83,42.92,50l.21-.91,2,0,.33.55-.17.62A2.88,2.88,0,0,1,44.2,50.83Z"/><path class="cls-121" d="M45.14,47,44.93,46A4.11,4.11,0,0,1,45,42l.52-.46A2.63,2.63,0,0,1,47,41.48a3,3,0,0,1,2.25,1.7,4.12,4.12,0,0,1-.15,3,3,3,0,0,1-2.56,1.34A1.73,1.73,0,0,1,45.14,47Z"/><path class="cls-122" d="M43,41.14l1.13-.07.28.41-.24.43Z"/><path class="cls-123" d="M44.17,41.91a2.37,2.37,0,0,1,0-.84L44,41a.8.8,0,0,1,1.11-.16A.78.78,0,0,1,45,42l0,0A8,8,0,0,1,44.17,41.91Z"/><path class="cls-124" d="M56.9,37.75a3.74,3.74,0,0,1-.92.33.58.58,0,0,1-.23-.6c0-.21.11-.31.18-.31C56.57,36.84,56.76,37.25,56.9,37.75Z"/><path class="cls-125" d="M55.93,37.17a5.49,5.49,0,0,1,0,.91l.07-.08c-.95.35-1.22,0-1-.94l0,.06A2.71,2.71,0,0,1,55.93,37.17Z"/><path class="cls-106" d="M77,108.87c0,.36,0,.72,0,1.09a6.94,6.94,0,0,1-4-1l0-.09C74.29,106.56,75.63,108.13,77,108.87Z"/><path class="cls-126" d="M77,84.9a3.37,3.37,0,0,1,3,0c-.7,1.79.63,2.42,1.79,3.16l-.73,1.68c.57,1.29.8,2.54-.42,3.63a2.85,2.85,0,0,1-2.95-.27,27.13,27.13,0,0,1-3.82-6A3.39,3.39,0,0,1,74,85.68a1.81,1.81,0,0,1,3-.78Z"/><path class="cls-127" d="M80.21,92.91l.84-3.16L82,91.93a2.77,2.77,0,0,1,.35,3.78c-1.21,1-2,.25-2.75-.65A1.68,1.68,0,0,1,80.21,92.91Z"/><path class="cls-128" d="M85,92a4.48,4.48,0,0,1-1.83,4c-1.22-1.66-.72-3,.88-4A6,6,0,0,0,85,92Z"/><path class="cls-103" d="M84,92c-.75,1.23-1.5,2.46-.88,4-.06.33-.13.67-.2,1l-.63-.09c-.47-.1-.62-.37-.4-.81L82,91.93Z"/><path class="cls-129" d="M85,90v1l-1-1.09Z"/><path class="cls-130" d="M59,43.08l-4-1a.94.94,0,0,1-1.18.11A2.3,2.3,0,0,1,53.35,41c.24-1.25.83-2.08,2.27-1.9A2.89,2.89,0,0,0,59,40.88C59,41.61,59,42.34,59,43.08Z"/><path class="cls-131" d="M55.62,39.08l-1.69,2c-2.74-.54-1.22-2.43-1.23-3.84l2.35-.22,1,.94C55.9,38.36,55.76,38.72,55.62,39.08Z"/><path class="cls-132" d="M41.88,64.14,44,62.91A3.07,3.07,0,0,1,47.34,64a3.35,3.35,0,0,1-.12,2.93,3.56,3.56,0,0,1-1.74,1.44c-1.22.4-2.42,1-3.73.32C39.58,67.1,40.87,65.62,41.88,64.14Z"/><path class="cls-133" d="M46.92,64.14c-1.12,0-2.5.55-2.88-1.23,0-.42-.08-.84-.13-1.27l2-2.62c.65.62,1.58.91,2.14,1.66a3.07,3.07,0,0,1,.27,2,3,3,0,0,1-.72,1.16Z"/><path class="cls-134" d="M41.88,64.14c0,1.3-.83,2.6,0,3.89.74.62.62,1.29.12,2l-2-1,0-7Z"/><path class="cls-135" d="M43.29,86.89l-1.21-2.12c0-2.32,0-4.64,0-7a2.47,2.47,0,0,1,2.18-.42,15.22,15.22,0,0,1,4.2,7.06A6.42,6.42,0,0,1,48.32,86a4.49,4.49,0,0,1-2.52,2.69l-.74.11a2.79,2.79,0,0,1-1.36-.51A2.1,2.1,0,0,1,43.29,86.89Z"/><path class="cls-136" d="M42,75c-.43-1.35-1.5-2.69,0-4a4.83,4.83,0,0,1,2.78-.36,2.69,2.69,0,0,1,2.08,1.9,2.94,2.94,0,0,1-.11,1.5,2.69,2.69,0,0,1-1,1.11A2.56,2.56,0,0,1,43,75Z"/><path class="cls-137" d="M43,75l2-1c1.79.94,2.5,2.22,1.29,4.1a1.89,1.89,0,0,1-2.34,0l-1.93-.25Z"/><path class="cls-138" d="M44.05,72l-2-1c0-.32,0-.64,0-1l-.12-2,3.16-1a2.62,2.62,0,0,1,1.18,2C46.34,70.61,45.19,71.29,44.05,72Z"/><path class="cls-139" d="M77,108.87l-4,0c0-1.67-.94-2.84-2-4l2-1.13c.84-.16,1.3.08,1,1l1.92,2.09Z"/><path class="cls-140" d="M44,39a7.2,7.2,0,0,1-.8-.07l.79-.86h0a.59.59,0,0,1,.24.63C44.17,38.91,44.09,39,44,39Z"/><path class="cls-141" d="M44,39a3.29,3.29,0,0,0,0-.94l.9-.06.61.11a2.16,2.16,0,0,1,.85.87,1.74,1.74,0,0,1-.08,1.21,1.57,1.57,0,0,1-1.14.37,1.45,1.45,0,0,1-1.09-.49Z"/><path class="cls-142" d="M45.87,36l.27,1a.91.91,0,0,1,.23,1,.72.72,0,0,1-1,.16L44.91,38Z"/><path class="cls-143" d="M43.29,86.89l.89.81c-.24,1.22-1.42.82-2.12,1.23-1.26-.18-.88-1.14-.93-1.9Z"/><path class="cls-144" d="M75,66l-2.11-1.13c-.77,1.07-1,2.46-2,3.4C68.57,68.32,69.08,66,68,65l0,0c.52-1.63-.92-4.73,2.9-3.89A6.54,6.54,0,0,0,71,62C72.55,63.14,74.77,63.59,75,66Z"/><path class="cls-145" d="M63.91,68.91,66,70c.15.19.29.39.43.59A2.64,2.64,0,0,1,66.17,72c-2.13,1.55-.65,6.72-5.53,5.53a4.68,4.68,0,0,1-1.79-3.3c.56-2.29,1.45-4.37,3.63-5.62A1.63,1.63,0,0,1,63.91,68.91Z"/><path class="cls-146" d="M66,71l0-1A7.37,7.37,0,0,0,68,65l2.88,3.13C70.85,71.67,69.1,72.45,66,71Z"/><path class="cls-147" d="M63.91,68.91l-.49,0h-.49A2.23,2.23,0,0,1,61,68.09c-.53-1.35-1.24-2.67-.65-4.19A2.84,2.84,0,0,1,61.48,63l.7-.19L64,65.11C64,66.38,64,67.64,63.91,68.91Z"/><path class="cls-146" d="M71,61.1c-2.11.44-2.12,2.45-2.91,3.89C67.48,62.54,66.89,60.08,71,61.1Z"/><path class="cls-148" d="M58,58l.2,1.73a1.59,1.59,0,0,1,0,1.54,3,3,0,0,1-2.06,1.09,4.37,4.37,0,0,1-3-.59A2.16,2.16,0,0,1,52.87,59a3.64,3.64,0,0,1,2.2-1.65,4.29,4.29,0,0,1,1.28-.26A2.48,2.48,0,0,1,58,58Z"/><path class="cls-149" d="M56.05,61H58c1.34-.61,2.21.35,3.17,1l1,.84-.36.34c-1.44.74-2.84,1.6-4.57,1a2.78,2.78,0,0,1-1.6-1.7A1.66,1.66,0,0,1,56.05,61Z"/><path class="cls-150" d="M61.15,62,58,61c.08-.41.15-.82.23-1.23C59.52,60.05,60.69,60.53,61.15,62Z"/><path class="cls-69" d="M58,58l-1.94.07c-.42-.8-.06-1.25.69-1.52A1.38,1.38,0,0,1,58,57Z"/><path class="cls-151" d="M58,57c-.32,0-.64,0-1,0-.36-.18-.49-.38-.41-.62s.19-.36.3-.36l1.14,0C58,56.32,58,56.64,58,57Z"/><path class="cls-152" d="M54,42.06l1,0c-.11,1.18-.6,2.5,1.12,3,.23.24.29.45.19.65s-.2.28-.29.28l-2.9,1c-2.73-.07-2.38-1.87-2.06-3.66A2.37,2.37,0,0,1,54,42.06Z"/><path class="cls-153" d="M52,43.15A6.11,6.11,0,0,0,53.12,47c-.06.31-.12.62-.15.94a1.78,1.78,0,0,1-2,.42,2.78,2.78,0,0,1-1.36-2.46c0-.94-.39-1.88,0-2.81a1.59,1.59,0,0,1,1.87-.48Z"/><path class="cls-154" d="M51.17,48,53,48c0,.67,0,1.34,0,2l-.87.06A1.92,1.92,0,0,1,51,49.57a1.63,1.63,0,0,1-.25-1.18Z"/><path class="cls-155" d="M56,46a4.9,4.9,0,0,1,.1-.93l.8.91Z"/><path class="cls-156" d="M51.12,49.06l1,1c.38,1,.76,1.94,1.15,2.92L52,54.2c-1,1.1-1.92,2.26-3.67,1.65a3,3,0,0,1-1.07-.9c-.29-.63-.4-1.31-.63-2a6.65,6.65,0,0,1-.17-1.94,2.4,2.4,0,0,1,1.34-1.22c.54-.26,1-.62,1.58-.86A3.8,3.8,0,0,1,51.12,49.06Z"/><path class="cls-157" d="M47.1,58.93,47,58c.58-2.85,3-2.55,5-3l1,1A1.86,1.86,0,0,1,53,58.68a9,9,0,0,1-3.38,1.57A3.22,3.22,0,0,1,48.1,60,2.17,2.17,0,0,1,47.1,58.93Z"/><path class="cls-158" d="M52,58l1-2,2.12.09a1.26,1.26,0,0,1,.17,1.13,5.75,5.75,0,0,1-1.31,2l-.81,1.7a1.67,1.67,0,0,1-2.17.22C50,59.65,50.61,58.69,52,58Z"/><path class="cls-159" d="M52,55.05l-5,3c-.34-.3-.68-.6-1-.91l0-.57A1.62,1.62,0,0,1,47.47,55L48,55l4-.8C52,54.48,52,54.76,52,55.05Z"/><path class="cls-160" d="M55,57l.21-.92L56.92,56c0,.33.07.66.11,1l-1,1.09h0C55.14,58.3,54.68,58.05,55,57Z"/><path class="cls-161" d="M54,42.06l-2,1.09.07-.09A3.41,3.41,0,0,1,51,39.17L52,38l.68-.75c.27,1.33.23,2.75,1.23,3.84A7.38,7.38,0,0,1,54,42.06Z"/><path class="cls-162" d="M52.09,31.19a5.21,5.21,0,0,0,0,.79L51,31.15Z"/><path class="cls-163" d="M51,39.17,52,43.06l-1.93.13c-.82.27-1.25-.14-1.53-.85-.06-1,.71-1.6,1.32-2.25l.14-1A4.3,4.3,0,0,1,51,39.17Z"/><path class="cls-164" d="M49.88,40.09l-.77,2c-.33.49-.53,1.11-1.25,1.2l-2-1.18c-.39-.76.08-1.24.56-1.71l.58-.31Z"/><path class="cls-165" d="M46,38.19,46.14,37a6.1,6.1,0,0,0,.74,0c0,1,.11,2,.16,3L47,40c-.26.5-.54.5-.86.07q0-.48-.06-1c-.29-.2-.39-.39-.29-.59S45.93,38.19,46,38.19Z"/><path class="cls-166" d="M74,74c.47-.75.94-1.52,2-1a2.6,2.6,0,0,1,0,2.87L76,77a1.81,1.81,0,0,1-2.51-.92A2,2,0,0,1,74,74Z"/><path class="cls-167" d="M76,75.87A3.07,3.07,0,0,1,76,73l2,1A2.29,2.29,0,0,1,76,75.87Z"/><path class="cls-168" d="M74,75.91,76,77c.36.65.73,1.3,1.1,1.94l-1,0a1.8,1.8,0,0,1-2.88-2A2.12,2.12,0,0,1,74,75.91Z"/><path class="cls-169" d="M74.67,79.07,76.05,79c0,.71-.11,1.41-.16,2.11-.21,2.28-1.42,3-3.53,2.23a3.24,3.24,0,0,1-1.93-2.09,2.62,2.62,0,0,1,.28-1.4C71.79,78.31,73.3,79.09,74.67,79.07Z"/><path class="cls-170" d="M72.93,81.93c1.27.69,2.11-.1,3-.86L77,82.19c0,.9,0,1.81,0,2.71L76,85C74.42,84.5,71.61,85.3,72.93,81.93Z"/><path class="cls-171" d="M42.06,88.93l2.12-1.23-.13.29A3.29,3.29,0,0,1,45,91.83,2.41,2.41,0,0,1,42.08,93l-1-.07c0-.62.06-1.25.1-1.87C42.19,90.67,42.83,90.1,42.06,88.93Z"/><path class="cls-172" d="M66,71c2-.41,3.76-1.11,4.87-2.94.45-1.19.25-2.77,1.94-3.21A13,13,0,0,0,73,71c-.68.67-.29,1.74-.9,2.44-2.21.2-4.13,2-6.53,1.19-1.68-1.44-.55-2.48.52-3.52Z"/><path class="cls-173" d="M71.93,72.93l1-2c.34,1,.68,2,1,3,0,.64.06,1.28.08,1.92-.06.39-.11.79-.17,1.18-1.64.25-2.39-.7-2.8-2.09A2.26,2.26,0,0,1,71.93,72.93Z"/><path class="cls-174" d="M49,99l2-2c.59-1.3.31-3.09,2.09-3.72a3.92,3.92,0,0,1,3,.7,3.06,3.06,0,0,1,1.28,2,7.54,7.54,0,0,1-.29,4,2.32,2.32,0,0,1-1.24,1L54.93,103c-1.48,0-2.24,1.6-3.72,1.57A2.22,2.22,0,0,1,50,103.9C49,102.4,47.87,100.93,49,99Z"/><path class="cls-175" d="M51,103.93c.16-5,2.25-2.09,3.9-.93l-1,.93C52.19,106,51.94,106,51,103.93Z"/><path class="cls-176" d="M51,103.93c1,.82,2,.46,2.95,0,1.16,2.84-.65,3-2.66,2.92L50,105.61c0-.57,0-1.14,0-1.71Z"/><path class="cls-177" d="M55.84,100.93l.17-1c1.2-.81,2-.09,2.66.78a3.11,3.11,0,0,1,.37,1.2l-1,3-1,0C55.92,103.83,56.06,102.33,55.84,100.93Z"/><path class="cls-178" d="M50,94a5,5,0,0,1-5,0,1.91,1.91,0,0,1-.18-2.25c1.4-1.6,3.45-1.41,5.25-1.92a2.48,2.48,0,0,1,2.47,1.82C52.62,93.35,51.65,94,50,94Z"/><path class="cls-179" d="M50,94l2-2a1.39,1.39,0,0,1,1.23-.46c1.69,1,.94,1.76-.23,2.49a4.11,4.11,0,0,1-2,3Z"/><path class="cls-180" d="M45,92l0,2L43.1,95.85l-1-2.85,1.8-1.12A.7.7,0,0,1,45,92Z"/><path class="cls-181" d="M59,101.91l-1,0c-1-2-.91-3.85,1-5.36l.7-.31a2.74,2.74,0,0,1,1.5.13,3.1,3.1,0,0,1,1.41,3.22A2.32,2.32,0,0,1,61,100.93Z"/><path class="cls-182" d="M61,100.93l.76-1.13a1.91,1.91,0,0,1,1.28-.43c.73.24,1.22.65,1,1.51,0,.39,0,.77,0,1.15s-.11.57-.16.86a1.22,1.22,0,0,1-1.91,0Z"/><path class="cls-18" d="M62,102.9H64c0,1,0,2,0,3C62.44,105.5,62,104.36,62,102.9Z"/><path class="cls-183" d="M81.89,96.05a7.61,7.61,0,0,0,.4.81c-1.33,2.6-3.62.6-5.37,1.13l-.55-.6A2.33,2.33,0,0,1,77,94.46a2.54,2.54,0,0,1,3,.48Z"/><path class="cls-184" d="M74,100.76A5.94,5.94,0,0,1,73,96a1.27,1.27,0,0,1,1.08-.53c1.34.4,1.88,1.65,2.74,2.56l.06,0c0,.61,0,1.23,0,1.84l-1.91.5A1.19,1.19,0,0,1,74,100.76Z"/><path class="cls-185" d="M74,100.76l1-.44c0,1.58.18,3.18-1,4.51l-1-1C73.3,102.79,73.63,101.77,74,100.76Z"/><path class="cls-186" d="M72.83,94.8,72,95a7.11,7.11,0,0,1-2,1.34c-3.32.53-3.62-1.35-3.12-3.88.7-1.64,2.47-1.66,3.74-2.43a3,3,0,0,1,5.18,1.7,3.18,3.18,0,0,1-.17,1.4C75.13,94.3,73.93,94.47,72.83,94.8Z"/><path class="cls-187" d="M69.93,95H72c-.18,1.7.08,3.48-1,5l-2.08-1a1.76,1.76,0,0,1-.65-1.8C68.73,96.3,69.54,95.78,69.93,95Z"/><path class="cls-188" d="M72.83,94.8c-.22-1.64.67-2,2.06-1.8a2.1,2.1,0,0,1,.79,1.22c-.08,1-.25,2-1.7,1.72A7.3,7.3,0,0,0,73,96Z"/><path class="cls-189" d="M69,97l0,1.89c-1.17,1.85-3,2-4.93,1.95l-1-1c-1.09-1-1.07-2.59-1.9-3.74a3,3,0,0,1-.08-1.43,7.79,7.79,0,0,1,2.76-3.33,2.51,2.51,0,0,1,2.63.85C67.53,93.71,67.23,95.93,69,97Z"/><path class="cls-190" d="M47.1,58.93a5.7,5.7,0,0,0,.83.09,1.4,1.4,0,0,1,.38,1.88.67.67,0,0,1-1.11-.11L45.88,59Z"/><path class="cls-191" d="M46,57.09l-1-1,.14-.15.69-.18.54.48-.26.67Z"/><path class="cls-192" d="M46,56c-.31,0-.62,0-.92-.08,0-.63,0-1.26-.08-1.89a8.65,8.65,0,0,1,.89.08,1.34,1.34,0,0,1,.64.91A1.4,1.4,0,0,1,46,56Z"/><path class="cls-193" d="M44.06,40.08l1,0c.28.21.37.41.26.6s-.2.28-.3.28A5.47,5.47,0,0,1,44,41C44,40.72,44.05,40.4,44.06,40.08Z"/><path class="cls-194" d="M47.07,50.89,47,53a.62.62,0,0,1-1,.09L46,52c-.56-.46-.47-1.07-.39-1.68a1.4,1.4,0,0,1,.95-.69l.59.18c.09.19.17.38.25.57Z"/><path class="cls-195" d="M46,53.06,47,53,48,54c-.34.46-.49,1.05-1,1.38A.68.68,0,0,1,46,55c0-.31-.06-.62-.11-.93S46,53.41,46,53.06Z"/><path class="cls-196" d="M46,50,46,52c-.29,0-.58,0-.86,0,0-.33-.06-.67-.08-1q-.43-.22-.33-.51t.24-.3l.2-.31A.51.51,0,0,1,46,50Z"/><path class="cls-197" d="M50.94,45.14c.08.94.15,1.88.23,2.82l-.3.17a5.51,5.51,0,0,1-.94.73,4.29,4.29,0,0,1-1.17.25,2.61,2.61,0,0,1-1.52-.89L46,48c-.65-.31-.66-.65,0-1l1.82-1C48.74,45.33,49.61,44.39,50.94,45.14Z"/><path class="cls-198" d="M46,47l0,1-2.84-.16,2-.82Z"/><path class="cls-199" d="M47.24,48.22,49,48c.66,1.09,0,1.7-.81,2.27A.85.85,0,0,1,47,50l0,0c-.74-.36-.73-.71,0-1A6.58,6.58,0,0,0,47.24,48.22Z"/><path class="cls-200" d="M46,50a3.86,3.86,0,0,1-.89-.1,6,6,0,0,1,0-.85H46c.36.21.49.43.37.66S46.11,50,46,50Z"/><path class="cls-201" d="M46,50c0-.33,0-.67,0-1L47.1,49l0,1Z"/><path class="cls-202" d="M45,50.19,45,51a6,6,0,0,1-.84-.17Z"/><path class="cls-203" d="M50.94,45.14,47.8,46l.06-2.74,1.25-1.2,1,1.14Z"/><path class="cls-204" d="M45,40.92a6.41,6.41,0,0,1,0-.88h1L47,40l-1.05,2.1L45,42C45,41.63,45,41.27,45,40.92Z"/><path class="cls-205" d="M74.13,90.29,72,92c-3.31-.34-4.1-2.37-3.58-5.3A4.8,4.8,0,0,1,72,84.72,4.75,4.75,0,0,1,75,86v1C75.9,88.39,75.4,89.44,74.13,90.29Z"/><path class="cls-206" d="M75,93.88a3.74,3.74,0,0,0-.13-.88c0-.35.07-.7.1-1,.76-2.83,2.07-1.07,3.26-.39l2,1.34c-.08.67-.16,1.35-.23,2l-3.3.29C75.71,95.3,75.45,94.48,75,93.88Z"/><path class="cls-207" d="M78.25,91.57c-1.11,0-2.32-.91-3.26.39-.29-.56-.58-1.12-.86-1.68.29-1.09.57-2.2.86-3.3C76.34,88.32,79.23,88.57,78.25,91.57Z"/><path class="cls-208" d="M75,86l-3.17-.07c-1.16-.36-2.32-.72-2.63-2.13A2.46,2.46,0,0,1,71,81l1.94,1c.35,1.68,2,2,3,3Z"/><path class="cls-209" d="M45,69c0-.64,0-1.28.05-1.91L46,66a5.8,5.8,0,0,1,3.14-1.21,3.69,3.69,0,0,1,1.64.59c1.46,1.41,1.91,3,.78,4.81a3.66,3.66,0,0,1-3.2,1.14C46.76,71.29,46,70,45,69Z"/><path class="cls-210" d="M49.19,66,46,66l.88-1.86.14-.21.58-.36.68.11a2.79,2.79,0,0,1,.94,1A1.82,1.82,0,0,1,49.19,66Z"/><path class="cls-211" d="M47.2,60.79a1.34,1.34,0,0,1,.56.05,2.06,2.06,0,0,1,1.69.76,2.66,2.66,0,0,1,.36,1.22A2.36,2.36,0,0,1,49.27,64a1.32,1.32,0,0,1-1.2.18L48,63.81a2.26,2.26,0,0,1-.91-.77Z"/><path class="cls-212" d="M47.08,63l.91.77a4.83,4.83,0,0,1-.93.12A5.29,5.29,0,0,1,47.08,63Z"/><path class="cls-213" d="M47,85.93a3.9,3.9,0,0,0,.22-.76c.76-.93.6-2.19,1.15-3.2,1.4-1.34,2.58-3,4.73-3.2a3.85,3.85,0,0,1,2.68,1.46,3.37,3.37,0,0,1,.52,1.47,4.27,4.27,0,0,1-1,2.8c-.61.76-1.39,1.35-2,2.08-.93,1.14-1.7,2.5-3.48,2.43A3,3,0,0,1,47,85.93Z"/><path class="cls-214" d="M49.22,83c-.19,1.16-.71,2-2,2.13Q45.6,81.61,44,78.06l2.07-.21a2,2,0,0,1,1.36-.33c2,.71,2.08,2.43,2.13,4.14A3.67,3.67,0,0,1,49.22,83Z"/><path class="cls-215" d="M45,92l-1.12-.1c.06-1.3.11-2.6.17-3.89A5.78,5.78,0,0,0,45,87.8c1.78.47,3.71.34,5.39,1.24A1.58,1.58,0,0,1,50,91C48.52,92.09,46.73,91.9,45,92Z"/><path class="cls-216" d="M50,89c-2,.78-3.93,1.67-5.05-1.16l2-1.87,3,2a.61.61,0,0,1,.21.66C50.17,88.85,50.09,89,50,89Z"/><path class="cls-217" d="M47.06,78l-1-.18L45,74l.87,0c1.65-1,2.89-.5,3.85,1C50.07,77.07,50.09,78.91,47.06,78Z"/><path class="cls-218" d="M45,69l3,1a1.93,1.93,0,0,1,.47,2A2,2,0,0,1,46,73l-2-1Z"/><path class="cls-219" d="M46,73l2.33-1.17a1.66,1.66,0,0,1,2.1.14,2.37,2.37,0,0,1,0,2.86A1,1,0,0,1,49.1,75l-3.18-1.06C46,73.63,46,73.31,46,73Z"/><path class="cls-220" d="M46,38.19c0,.3,0,.59,0,.89l-.63-.93Z"/><path class="cls-221" d="M66,71.07,66,74c1.1,1.35.5,2.79.21,4.21a7,7,0,0,1-2.1,2.1,3,3,0,0,1-2.21.32A2.59,2.59,0,0,1,60.36,79a1.92,1.92,0,0,1,.71-2C64,76.08,62.2,71.25,66,71.07Z"/><path class="cls-222" d="M61.93,68l1,1-2.87,5.38a1.9,1.9,0,0,1-1.37-.44c-1.25-1.71-.17-3.34.15-5a2.68,2.68,0,0,1,1.72-1.33A1.9,1.9,0,0,1,61.93,68Z"/><path class="cls-223" d="M59.14,74.1a2.43,2.43,0,0,1,.92.22c.33.91.67,1.82,1,2.74,0,.56-.06,1.12-.09,1.69a1.67,1.67,0,0,1-2.06.62,2.65,2.65,0,0,1-1-1.15,3.77,3.77,0,0,1,.57-3.74Z"/><path class="cls-224" d="M61.93,68,61,68c-2.12.61-2.29-1.06-2.76-2.37a2.83,2.83,0,0,1,.3-1.37c.74-.69,1.51-1.14,2.42-.25A6.36,6.36,0,0,1,61.93,68Z"/><path class="cls-225" d="M61,64a2.1,2.1,0,0,0-2,.9c-.74.49-1.48.58-2-.22-.42-.62-.14-1.16.41-1.58h4.49Z"/><path class="cls-226" d="M51.12,61l2.13,0,2.8.08c0,.32.06.64.1.95-.18.67-.49,1.31-.61,2a3.92,3.92,0,0,1-.74,1.94,2.88,2.88,0,0,1-3.14.9,3.55,3.55,0,0,1-1-.83A4.14,4.14,0,0,1,50,64.16c0-.62.07-1.23.1-1.85a2.32,2.32,0,0,1,.47-1.09Z"/><path class="cls-227" d="M55,57l1.08,1.07c-.08,1.43-.92,1.5-2,1.13Z"/><path class="cls-228" d="M54.14,63.26l2-1.32,1.18,1.2c-.08,1.15.55,1.68,1.62,1.8L59,65c-.23,1.8.32,3.71-.8,5.38a3,3,0,0,1-2.17.64c-1.45-.27-2.19-1.35-2.88-2.49a2.64,2.64,0,0,1,.17-2.18C53.84,65.39,55.25,64.65,54.14,63.26Z"/><path class="cls-229" d="M50.19,48.08a3.07,3.07,0,0,1,.68.05c.08.31.17.62.25.93l-1.06.87C49.43,49.26,49.35,48.64,50.19,48.08Z"/><path class="cls-230" d="M50.19,48.08c0,.61-.09,1.23-.13,1.85l-1.24.92c-.41-.33-1.27-.28-1-1.18L49,48Z"/><path class="cls-231" d="M47.81,49.67l1,1.18-1.75,0c0-.31,0-.61,0-.92A3.7,3.7,0,0,1,47.81,49.67Z"/><path class="cls-159" d="M47,55,48,54c0,.33.08.66.09,1h0A.57.57,0,0,1,47,55Z"/><path class="cls-232" d="M52,58c-.31,1-.61,2-.92,3l-.19.14a1.2,1.2,0,0,1-1.22.18C49,60.64,48.45,60,49.05,59,49.94,58.36,50.57,57,52,58Z"/><path class="cls-233" d="M49.05,59l1.07,1.82A2.26,2.26,0,0,1,49.6,62l-.58.3-1.26-1.45c.05-.61.11-1.21.17-1.82Z"/><path class="cls-234" d="M47,55l1,0L47,56q-.45.62-.9,0h0c0-.32,0-.64,0-1Z"/><path class="cls-235" d="M46.07,56q.45,0,.9,0l-.88.88A8.62,8.62,0,0,1,46.07,56Z"/><path class="cls-236" d="M72,75c.63.71,1.25,1.43,1.87,2.14.26.66.53,1.32.8,2-1,1.11-2.31.64-3.51.73l-.78.08c-1.73-.24-3.12-.86-3.3-2.88C67.81,74.12,69.39,73.3,72,75Z"/><path class="cls-237" d="M71,81,70,83.8c-1.53.9-2.3-.26-3.16-1.18a2.2,2.2,0,0,1,0-2.22,3.2,3.2,0,0,1,4.26-.52l.07-.08C71.1,80.19,71.05,80.58,71,81Z"/><path class="cls-238" d="M72,75c-1.9,0-3.45.61-4,2.71-1,1.24-2,1.16-3.1.13.34-1.27.68-2.54,1-3.8a4.91,4.91,0,0,1,6-1.06C72,73.6,72,74.28,72,75Z"/><path class="cls-239" d="M56,95.9l-1-1c-.86-1-.46-1.87.13-2.76a8.48,8.48,0,0,1,2.66-1.48,4.72,4.72,0,0,1,2.24.07,2.53,2.53,0,0,1,1.45,1.58,9.68,9.68,0,0,1-1.44,4.55l-.21.12C58.13,98.21,57.08,97.07,56,95.9Z"/><path class="cls-240" d="M60,91.93H58a2.64,2.64,0,0,0-2.11,1l-.9,2-2-1c0-.68,0-1.36,0-2a1.92,1.92,0,0,1,.06-2.73,3.09,3.09,0,0,1,1.33-.69c1.23-.22,2.4-.86,3.71-.62a4,4,0,0,1,2.41,2.69A1.82,1.82,0,0,1,60,91.93Z"/><path class="cls-241" d="M56,95.9,59.86,97q-.88,2.46-1.79,4.92l-2.06-2Z"/><path class="cls-242" d="M54,90c-.33.67-.67,1.33-1,2H52l-2-1c0-.66,0-1.33,0-2,0-.33,0-.66,0-1l2.06-3A6.32,6.32,0,0,1,54.6,88.8,1.84,1.84,0,0,1,54,90Z"/><path class="cls-243" d="M60.07,96.89c-.11-1.38-1.51-3,.86-3.88l.67.2c.53.5.91,1,.39,1.77l0,1c-.23.47-.41,1-1.06,1Z"/><path class="cls-244" d="M60.9,97,62,96l1.11,3.86-1.3-.06Z"/><path class="cls-245" d="M75,93.88l1.66,1.35L76.86,98c-1.34-.16-2.51-.58-2.88-2.08Z"/><path class="cls-246" d="M69,87.05c.76,1.77,1.43,3.6,3,4.9a4.16,4.16,0,0,1-4,0l-.79-.16c-1.64-1-1.88-2.44-1.37-4.14a2.85,2.85,0,0,1,1.07-1.16A1.91,1.91,0,0,1,69,87.05Z"/><path class="cls-247" d="M69,97c-2-.65-2.25-2.6-3-4.14l.26-.59A1.29,1.29,0,0,1,68,92v0c.32,1.22-.72,3.34,2,3Z"/><path class="cls-248" d="M60,91.93,60,91a2.86,2.86,0,0,1,3.67-3c2,1.07,3.52,2.36,2.29,4.93l0,0-2-1c-.83.79-1.37,2.45-3,1l-.11.09Z"/><path class="cls-249" d="M61.05,92.92l3-1c-.08,1.4-.47,2.6-2,3C61.68,94.29,61.36,93.6,61.05,92.92Z"/><path class="cls-250" d="M69,87.05l-2-.16a2.28,2.28,0,0,1-1.76-2c0-1.83,1.39-2.28,2.69-2.85l2,1.76,1.83,2.08Z"/><path class="cls-251" d="M54.76,65.23,54,68c0,1.64-.48,2.72-2.4,2.39l-.51-.45-1-3.89a.58.58,0,0,1,.92-.14l3.19-1A.42.42,0,0,1,54.76,65.23Z"/><path class="cls-252" d="M50.05,71.87l-1.72,0L48,70l3,0v0C51.61,71.08,50.94,71.54,50.05,71.87Z"/><path class="cls-253" d="M51,65.91l-.92.14a4.12,4.12,0,0,0-.86-.09q-.06-.48-.15-1l.41-.45a1.11,1.11,0,0,1,1.49.61A4.71,4.71,0,0,1,51,65.91Z"/><path class="cls-254" d="M48.07,64.15A7.16,7.16,0,0,1,49,64l.43.48-.3.57L49,65Z"/><path class="cls-255" d="M51.09,62v1.91a.79.79,0,0,1-.93.43c-.54-.29-.7-.91-1.11-1.31,0-.25,0-.51,0-.76l.07-.42C49.79,61.49,50.47,61.31,51.09,62Z"/><path class="cls-256" d="M49,63.05,50,64c-.29.47-.63.53-1,.13L49,64C49,63.7,49,63.38,49,63.05Z"/><path class="cls-257" d="M49.22,83l-.09-1c-1.21-3,1.6-5.12,1.82-7.82q1.75-3.33,5.22-1.85a3,3,0,0,1,1.18,1.92,7.9,7.9,0,0,1,0,1.46,10.19,10.19,0,0,1-1.47,3.13c-.77,1.08-2.08.5-3,1Z"/><path class="cls-258" d="M54,90c0-.32,0-.65,0-1-1.88-1.68-.27-3.37,0-5l1-2c.93-1,1.73-2.29,3.45-1.79a2.48,2.48,0,0,1,1.06.89,3.79,3.79,0,0,1-.19,2.71A15.92,15.92,0,0,0,57.63,88c-.8.74-1.9,1.07-2.62,1.93H54Z"/><path class="cls-259" d="M54,83.92c1.11,1.68-.14,3.37,0,5-2-.68-2-2.29-1.93-4Z"/><path class="cls-260" d="M52.85,79.87l2.21-1.78a1.63,1.63,0,0,1,1.73-.76,2.43,2.43,0,0,1,1.1.77c1,3-1,2.81-2.87,2.85Z"/><path class="cls-261" d="M55,81c1-.66,2.83-.75,1.89-2.75a1.39,1.39,0,0,1,2-.37,1.69,1.69,0,0,1,.11.83A1.72,1.72,0,0,1,59,81l-4,1Z"/><path class="cls-262" d="M51,75c1.34,2.87-1.78,4.56-1.87,7l-2.07-4c1.5-.46,1.91-1.65,2-3l1-.14A.58.58,0,0,1,51,75Z"/><path class="cls-263" d="M51,75l-.89-.14-.06-3L51,70,54,68,56,70a2.11,2.11,0,0,1,0,3Z"/><path class="cls-264" d="M67.93,82.05a5.39,5.39,0,0,1-2,2.85c-.95.8-2,.53-3,.14a3.65,3.65,0,0,1-2.13-3.21,2.42,2.42,0,0,1,1.29-2l1-1.06c2-.5,3.33,0,3.62,2.26Z"/><path class="cls-265" d="M66.79,81.06c-1.11-.91-2-2.14-3.63-2.26l1.79-1,3.1-.13a5.36,5.36,0,0,1,3,2.22Z"/><path class="cls-266" d="M62.14,79.86,62.07,82a1.62,1.62,0,0,1-1.12.56c-1-.07-1.42-.88-2-1.54h0l.06-2.32,1.91.09Z"/><path class="cls-267" d="M56,73c0-1,0-2,0-3h2c.55-.57.92-1.54,2-1-.29,1.7-.58,3.41-.86,5.11L59.2,74c-.91.78-1.64,2.18-3.15.93Z"/><path class="cls-268" d="M60,69l-2,1c-.59-1.84-1.67-3.79,1-4.95l2,3Z"/><path class="cls-269" d="M56.05,75,59.2,74c-.08,1.26-.17,2.53-.25,3.79l-2,.37.13-.33c-.71-.46-1.76-.75-1-2C56,75.6,56,75.28,56.05,75Z"/><path class="cls-270" d="M54.76,65.23l-.61-.34c0-.55,0-1.09,0-1.63C55.48,63.55,56.45,64,54.76,65.23Z"/><path class="cls-271" d="M49,64.1,50,64l1.11,0-.15,1.23-1.8-.08A5.45,5.45,0,0,1,49,64.1Z"/><path class="cls-272" d="M51.09,62l-2-.15,1-1a5.79,5.79,0,0,0,.8.27A6.07,6.07,0,0,1,51.09,62Z"/><path class="cls-273" d="M55.93,92.93c-.34-2.51.81-1.91,2.11-1Z"/><path class="cls-274" d="M61.9,89A2.67,2.67,0,0,1,60,91l-2.06-2a1.42,1.42,0,0,1-.32-1.28,6,6,0,0,1,1.13-4,2.27,2.27,0,0,1,1.39-.34,3.15,3.15,0,0,1,2,2A5.11,5.11,0,0,1,61.9,89Z"/><path class="cls-275" d="M58,88c0,.35,0,.7,0,1.06L55,89.94a2.8,2.8,0,0,1,2-2A.58.58,0,0,1,58,88Z"/><path class="cls-276" d="M65.94,93c0-2.12-1.75-2.89-3.1-4a2,2,0,0,1,.06-2.35c1.92-1.22,3.14-.41,4,1.37l1,4Z"/><path class="cls-277" d="M66.93,88l-4-1c-.91.2-1.24-.32-1.36-1.09,0-1.68,1.39-1.59,2.47-1.87l2,.84c.35.66.7,1.32,1,2Z"/><path class="cls-249" d="M62,86,62.89,87c0,.66,0,1.31,0,2h-.93c-.35-.95-.7-1.91-1-2.86A.75.75,0,0,1,62,86Z"/><path class="cls-278" d="M56,75.91l1,2-2,.22C52.54,76.09,55.3,76.46,56,75.91Z"/><path class="cls-279" d="M58,88,57,87.93c-1.17-1.92-.15-3.39,1-4.83,1-.32,1.32,0,1,1A5.65,5.65,0,0,1,58,88Z"/><path class="cls-280" d="M59,84.06l-1-1c.32-.7.63-1.41.94-2.11l2,1c.49,1.13-.07,1.74-1.08,2.12Z"/><path class="cls-281" d="M59.89,84.09,61,82h1.09c.65.7,1.3,1.39,1.94,2.09L62,86l-1.14.18Z"/></svg>