<svg id="Layer_1" data-name="Layer 1" xmlns="http://www.w3.org/2000/svg" viewBox="0 0 128 128"><defs><style>.cls-1{fill:#313740;}.cls-2{fill:#61a92d;}.cls-3{fill:#f36701;}.cls-4{fill:#bf4d02;}.cls-5{fill:#7ad03d;}.cls-6{fill:#e76800;}.cls-7{fill:#824101;}.cls-8{fill:#aff44b;}.cls-9{fill:#a44701;}.cls-10{fill:#084013;}.cls-11{fill:#161201;}.cls-12{fill:#b7de3f;}.cls-13{fill:#e9f757;}.cls-14{fill:#f37503;}.cls-15{fill:#538b23;}.cls-16{fill:#cde82f;}.cls-17{fill:#c6e826;}.cls-18{fill:#84a12a;}.cls-19{fill:#f8fb4f;}.cls-20{fill:#e0ef45;}.cls-21{fill:#547e1d;}.cls-22{fill:#924900;}.cls-23{fill:#d0f842;}.cls-24{fill:#9ecb2e;}.cls-25{fill:#6f8a20;}.cls-26{fill:#06320f;}.cls-27{fill:#2d3f4b;}.cls-28{fill:#9fe53f;}.cls-29{fill:#2d1c01;}.cls-30{fill:#183a0f;}.cls-31{fill:#e1fc50;}.cls-32{fill:#c3e231;}.cls-33{fill:#f9fc3b;}.cls-34{fill:#7b4502;}.cls-35{fill:#c26106;}.cls-36{fill:#dd6d01;}.cls-37{fill:#fdfd35;}.cls-38{fill:#b5d41f;}.cls-39{fill:#e97103;}.cls-40{fill:#cd6800;}.cls-41{fill:#bec92d;}.cls-42{fill:#c0db37;}.cls-43{fill:#85db31;}.cls-44{fill:#2b414e;}.cls-45{fill:#cefe36;}.cls-46{fill:#1f5c1a;}.cls-47{fill:#99e63e;}.cls-48{fill:#d0d834;}.cls-49{fill:#66bd31;}.cls-50{fill:#256821;}.cls-51{fill:#75c038;}.cls-52{fill:#508d22;}.cls-53{fill:#e4fd40;}.cls-54{fill:#7ac633;}.cls-55{fill:#275215;}.cls-56{fill:#02260e;}.cls-57{fill:#fc8a00;}.cls-58{fill:#fc7f00;}.cls-59{fill:#ea6b00;}.cls-60{fill:#c46800;}.cls-61{fill:#d47100;}.cls-62{fill:#d86b00;}.cls-63{fill:#7ccc35;}.cls-64{fill:#84e040;}.cls-65{fill:#76c63a;}.cls-66{fill:#e67100;}.cls-67{fill:#9a4e00;}.cls-68{fill:#653400;}.cls-69{fill:#c0fb52;}.cls-70{fill:#9bf240;}.cls-71{fill:#6ab936;}.cls-72{fill:#5b9c30;}.cls-73{fill:#358521;}.cls-74{fill:#002c0f;}.cls-75{fill:#103c12;}.cls-76{fill:#265f18;}.cls-77{fill:#789b1a;}.cls-78{fill:#412200;}.cls-79{fill:#aad13c;}.cls-80{fill:#e8fd5c;}.cls-81{fill:#c0e63c;}.cls-82{fill:#cafe5d;}.cls-83{fill:#f1fe4f;}.cls-84{fill:#fe9300;}.cls-85{fill:#a9e032;}.cls-86{fill:#d2eb24;}.cls-87{fill:#d2ec2c;}.cls-88{fill:#a9d32f;}.cls-89{fill:#cfe91c;}.cls-90{fill:#996a07;}.cls-91{fill:#a1d23b;}.cls-92{fill:#728a21;}.cls-93{fill:#8fb72c;}.cls-94{fill:#e9fe36;}.cls-95{fill:#effe44;}.cls-96{fill:#a3c431;}.cls-97{fill:#b4e037;}.cls-98{fill:#94b730;}.cls-99{fill:#87b732;}.cls-100{fill:#88bb30;}.cls-101{fill:#638221;}.cls-102{fill:#37470c;}.cls-103{fill:#617e1c;}.cls-104{fill:#74a325;}.cls-105{fill:#b4e136;}.cls-106{fill:#fd9900;}.cls-107{fill:#b85e00;}.cls-108{fill:#06371b;}.cls-109{fill:#83d73f;}.cls-110{fill:#7db92d;}.cls-111{fill:#fe9f00;}.cls-112{fill:#fea300;}.cls-113{fill:#f77100;}.cls-114{fill:#feac00;}.cls-115{fill:#fea100;}.cls-116{fill:#e07f00;}.cls-117{fill:#e76d00;}.cls-118{fill:#e26300;}.cls-119{fill:#f27a00;}.cls-120{fill:#ee7400;}.cls-121{fill:#bbfd3d;}.cls-122{fill:#bffc43;}.cls-123{fill:#a1ed50;}.cls-124{fill:#84c233;}.cls-125{fill:#7fd344;}.cls-126{fill:#76c347;}.cls-127{fill:#6ca62f;}.cls-128{fill:#7daa26;}.cls-129{fill:#91c11f;}.cls-130{fill:#8dad19;}.cls-131{fill:#88b32f;}.cls-132{fill:#b0ec3e;}.cls-133{fill:#a5ec44;}.cls-134{fill:#7bc031;}.cls-135{fill:#7cb32e;}.cls-136{fill:#fe8b00;}.cls-137{fill:#fda201;}.cls-138{fill:#afe13f;}.cls-139{fill:#a8de36;}.cls-140{fill:#a0d63a;}.cls-141{fill:#85bd29;}.cls-142{fill:#b5f63e;}.cls-143{fill:#73bd3c;}.cls-144{fill:#79c034;}.cls-145{fill:#fa8600;}.cls-146{fill:#eb7e00;}.cls-147{fill:#bbf73e;}.cls-148{fill:#6b9224;}.cls-149{fill:#8fbd27;}.cls-150{fill:#617c1e;}.cls-151{fill:#7bbc26;}.cls-152{fill:#86aa21;}.cls-153{fill:#7d9d1b;}.cls-154{fill:#6c6b13;}.cls-155{fill:#718017;}.cls-156{fill:#5f7516;}.cls-157{fill:#749921;}</style></defs><path class="cls-1" d="M49.42,34.16c1-3.67.41-6.84.55-10,.34-7.65,5.37-12.53,12.88-13.23,14.34-1.33,20.91,8,18.43,19.1-.57,2.53.68,3.45,3,3,7.58-1.49,10.48,4.86,9.5,10.95s-2.24,12.44-3.51,18.63C89,69,86.62,74.7,80.31,77.94c-3.22,1.65-1.1,3.09.59,4.29,4.78,3.36,9.47,6.77,12.58,11.92C97,100,96.29,104,90.41,107.59a74.24,74.24,0,0,1-29,10.16,17.14,17.14,0,0,1-17.56-8.2,67.13,67.13,0,0,1-5.39-10.11c-2.93-7-1.31-12.39,5.87-14.31,8.15-2.17,10.64-6.27,8.74-14a36.46,36.46,0,0,1-.41-5.46c-.28-3.49-1.78-5-5.56-6.21a27.33,27.33,0,0,1-16.23-13c-2.17-4-2.73-8.26,1.13-11.9,3.45-3.25,9.92-4.46,14-2.51C47,32.58,47.92,33.26,49.42,34.16Z"/><path class="cls-2" d="M90.09,39c.65,5.85-.92,11.42-2.16,17C86,61.81,84.75,67.92,81,73v0c-6.35,1.46-7.06.79-5.7-5.43a16.06,16.06,0,0,1,.49-2.16,3.48,3.48,0,0,1,1.5-1.58c2.44-.52,3.17-2.39,3.81-4.53,1.16-3.89,1.44-8,2.43-11.87C85.89,44.77,85.05,39.61,90.09,39Z"/><path class="cls-3" d="M44.86,105a11.91,11.91,0,0,1-3-6,2.79,2.79,0,0,1,2.1-2c4,.31,4.19,5.39,7.75,6.3,3,1.25,7.41,1.14,6.62,6.37a3.17,3.17,0,0,1-.78,1.41C51.48,112.94,48.23,108.86,44.86,105Z"/><path class="cls-4" d="M72,111.82c-6.28,2.05-12.51,4.85-19.17,1.31C55.73,110.59,60,112,63,109.6c3.67-1,6.92-3.18,10.67-3.95a7.05,7.05,0,0,1,1.52-.08,2.84,2.84,0,0,1,2,1C77.75,110.57,73.77,110.11,72,111.82Z"/><path class="cls-5" d="M90.09,39q-2.59,4.56-5.17,9.14c-1,2.77-.84,5.91-3,8.27-4.71-.2-3-3.84-3.46-6.38a5.54,5.54,0,0,1,.84-3.61A8.3,8.3,0,0,0,83.47,40c.71-3.06,3-2.95,5.39-2.76C89.9,37.37,89.93,38.21,90.09,39Z"/><path class="cls-6" d="M64.05,110.87c-3.41,2.4-7.38,2-11.23,2.26-4-1.35-6.26-4.45-8-8.09,3.47,3.16,7.67,4.8,12.15,5.89,1.19-1.14,2.19-2.57,4.07-2.65,1.73-.71,2.59-3.27,5.08-2.33a2.4,2.4,0,0,1,1.41,1.64C67.53,109.9,65.16,109.72,64.05,110.87Z"/><path class="cls-7" d="M84.09,88.88c2.83,2,4.84,4.74,6.9,7.38A5,5,0,0,1,91,103c-2.48-.41-4-3-6.78-2.8a3.33,3.33,0,0,1-2-2.8c1.35-2.4.23-4.74-.22-7.1C82.37,89.31,82.81,88.47,84.09,88.88Z"/><path class="cls-8" d="M70.14,14.58l2.83.83a7.07,7.07,0,0,1,1.31,5.46c-.58,1.47-1.31,2.78-3.1,3-.91,0-1.81-.16-2.72-.16-1.75-.77-4,.81-5.54-1.18a7.29,7.29,0,0,1,.67-6.65C65.42,13.69,67.94,14.93,70.14,14.58Z"/><path class="cls-9" d="M72,111.82l5-4.88c1-3.73,4.33-4.79,7.31-6.24a3.36,3.36,0,0,1,3.32,2c.54,1.64-.59,2.53-1.56,3.5A48.19,48.19,0,0,1,72,111.82Z"/><path class="cls-10" d="M77.08,36l0,4a4.51,4.51,0,0,1,1.3,3.64,18.23,18.23,0,0,0,0,7.85c0,2,.06,4.09-2.44,4.87A2.25,2.25,0,0,1,73.91,55c-.7-2.32-.31-4.71-.42-7.06,0-3.81,0-7.61,0-11.42,0-.86,0-1.72.1-2.57,1.31-2.61-.51-6.35,3-8.18,2.28,1,1.06,3.37,1.81,5C77.72,32.44,78.43,34.47,77.08,36Z"/><path class="cls-11" d="M74.06,82.91l3.84,1.28c.45,1.8,1.73,3.11,2.65,4.63s2,3.12.49,4.91a4.09,4.09,0,0,1-2.8.67c-2-.19-3.62-1.49-5.56-1.88a4.55,4.55,0,0,1-1.36-.63,2.33,2.33,0,0,1-.6-2.76C72.47,87.4,71.69,84.31,74.06,82.91Z"/><path class="cls-12" d="M44.25,36a1.31,1.31,0,0,1,.8-.17c1.67,2.57,1.69,5.38,1.16,8.26-1.32,1.93-1.14,4.6-3,6.25a1.92,1.92,0,0,1-1.55-.18c-2.29-2.61.24-6.75-2.89-9.1-.68-2,.21-3.41,1.46-4.77A3.12,3.12,0,0,1,44.25,36Z"/><path class="cls-13" d="M54,20.05c1.55-4.24,4.74-6,9.08-5.92.77.48,1.47,1,1.11,2.09a16.57,16.57,0,0,1-1.14,1.64c-2,1.47-3.07,4-5.53,4.93a3.1,3.1,0,0,1-2.4-1.13A3,3,0,0,1,54,20.05Z"/><path class="cls-14" d="M44,98l-2.16,1.08c-1.42-2.6-3.14-5.19-.62-8.09A7.58,7.58,0,0,1,46,89.71a3.47,3.47,0,0,1,1.48.72c1.68,2.35.67,4-1.36,5.44C45.32,96.51,44.39,97,44,98Z"/><path class="cls-15" d="M81,73c2.1-5.76,3.85-11.65,6.92-17C87.14,62.28,86.43,68.6,81,73Z"/><path class="cls-16" d="M56.1,67c-.32-3.32-.65-6.65-1-10A1.6,1.6,0,0,1,57,56.7c.14,2.07,2.12.55,2.87,1.46,2.23,2.66.11,5.56.48,8.32a3.33,3.33,0,0,1-.57,1.42,2.2,2.2,0,0,1-1.31.7C57.34,68.63,56.76,67.76,56.1,67Z"/><path class="cls-17" d="M57.13,81l-.07-3c1-1.14-.18-2.39.19-3.56.58-2.12-.35-4.65,1.72-6.36l.08,0a1.45,1.45,0,0,1,1.67.2,4,4,0,0,1,1.18,3.29c-.92,5,.22,10.12-.85,15.11A2.71,2.71,0,0,1,58.22,88a2.78,2.78,0,0,1-1.37-.73,1.94,1.94,0,0,1-.25-1.43C57.81,84.34,58.74,82.78,57.13,81Z"/><path class="cls-18" d="M46.94,37.33c2.05.89,1.35,4.14,3.92,4.59A2.43,2.43,0,0,1,52.08,43a5.25,5.25,0,0,1-.4,4.78,2.39,2.39,0,0,1-3,.3A11.61,11.61,0,0,1,46,44.33C45.44,41.88,45,39.44,46.94,37.33Z"/><path class="cls-19" d="M32.84,43.18c-1.84-3.68-.53-6,3.15-7.33.88.18,1.83.19,2.45,1,.9,2.16-1.48,3.8-.92,5.91a2.86,2.86,0,0,1-1.19,2.5C34.29,46,34,44,32.84,43.18Z"/><path class="cls-20" d="M36,45V42a2.47,2.47,0,0,1,3.23-.44c2.12,2.45,1.13,5.52,1.63,8.3a2.39,2.39,0,0,1-.93,1.43A7.62,7.62,0,0,1,36.07,49C36.32,47.67,34.47,46.38,36,45Z"/><path class="cls-21" d="M76.81,67.88c.22,1.63-2.38,5.46,2.67,3.43.24-.09,1,1.14,1.54,1.75-1.5,2.08-3.76,2.72-6.08,3.25-2.15-2-1.41-4.43-1.06-6.8A2.55,2.55,0,0,1,76.81,67.88Z"/><path class="cls-22" d="M86.05,106.16c.31-1.07.61-2.14.92-3.21-.43-1.44-3-1.83-2-4,3.1-.32,5,1.23,6,4A8.22,8.22,0,0,1,86.05,106.16Z"/><path class="cls-23" d="M53.75,40l-.57-7c.68-1.71.11-3.51.41-5.25a1.2,1.2,0,0,1,1.88-.63,3.26,3.26,0,0,1,1,2.18c-.52,3.83,2.16,7.63.1,11.47C55.29,41.6,54.44,41.08,53.75,40Z"/><path class="cls-24" d="M46.94,37.33c-.14,2.24-1.26,4.48.06,6.7.81,1.95,2.64,3.65,1.4,6.07a2.33,2.33,0,0,1-2.29.49c-2.28-1.54-1.52-3.74-1.27-5.83l.21-.78c0-2.72,0-5.45,0-8.18C46.46,35.34,46,37.22,46.94,37.33Z"/><path class="cls-25" d="M57,57.51,55.13,57c-2.71-.15-5.48.24-8.08-.85l.18-.64a2.78,2.78,0,0,1,1-.81A10.23,10.23,0,0,0,53.14,53a4.36,4.36,0,0,1,1.31-.42,18.2,18.2,0,0,1,2.86,0,3.25,3.25,0,0,1,2,.82,2.76,2.76,0,0,1,.6,1.38,2.47,2.47,0,0,1-1.49,2.42A2.31,2.31,0,0,1,57,57.51Z"/><path class="cls-26" d="M74.06,82.91c-.33,2.43.7,5.3-2.21,6.91a2.55,2.55,0,0,1-1-2.25,61,61,0,0,0,.6-11c.3-2.29-.78-4.88,1.51-6.72,3,2.45,1.18,5.5,1,8.33Z"/><path class="cls-27" d="M77.9,31l-1-4.78a2.91,2.91,0,0,1-1-2.12c.32-1.33.78-2.56,2.21-3.11,1.24,5,1.64,10-.25,14.95A6.84,6.84,0,0,1,77.9,31Z"/><path class="cls-28" d="M88.86,37.25c-1.57,1-3.64,1.38-3.93,3.7a2,2,0,0,1-2.3.5c-1.82-1.19-1.78-2.66-.61-4.28C84.31,36.28,86.61,35,88.86,37.25Z"/><path class="cls-29" d="M81,93c-.86-3-4.65-5-3.09-8.79l1.24,1c1.15,1.93,3.16,3.34,3.38,5.8.39.84,1.09,1.59.75,2.63C82.19,94.53,81.19,95.13,81,93Z"/><path class="cls-30" d="M74,78.13c-.33-2.7.48-5.52-.88-8.11-1.61-.77-1.56-2.28-1.64-3.73s-.15-2.87.8-4.11a1.8,1.8,0,0,1,1.49-.54c2.66,1.75,1.43,4.3,1.38,6.61,0,.27,0,.54,0,.8q-.14,3.63-.26,7.25C74.64,76.92,74.34,77.52,74,78.13Z"/><path class="cls-31" d="M55,27l-1,1c-.27.69-.57.7-.9,0-.21-2.73-.9-5.52.91-8l2,.05c.12,1.49.29,3,.39,4.46A2.55,2.55,0,0,1,55,27Z"/><path class="cls-32" d="M53.75,40,56,41l.68.37a1.59,1.59,0,0,1,.13,2.12c-1.37,1.19-2.88,1.07-4.44.5a6.11,6.11,0,0,1-1.19-1c-.11-.37-.21-.73-.32-1.09A2.7,2.7,0,0,1,53.75,40Z"/><path class="cls-33" d="M38,37l-2-1.19c.71-1,1.81-.84,2.81-1a6.94,6.94,0,0,1,5.07.18c.12.31.25.62.38.93L41,37A2.1,2.1,0,0,1,38,37Z"/><path class="cls-34" d="M81.89,91a12.13,12.13,0,0,1-2.75-5.83c1.77,1.07,3.69,1.93,5,3.68L83,91A.68.68,0,0,1,81.89,91Z"/><path class="cls-35" d="M48,86.92A3.45,3.45,0,0,1,51,86c.34.28.7.55,1.06.8,1,.82,2.68,1.19,2.25,3.08-.66,1.37-1.89,1.57-3.22,1.56C48.06,91.31,46.21,90.36,48,86.92Z"/><path class="cls-36" d="M48,86.92c.42,1.7,1,3.27,3.19,3.17a1.27,1.27,0,0,1-.35,1.45,2.66,2.66,0,0,1-3.64-.42L46,91c-2-1-1.11-2.13-.08-3.24Z"/><path class="cls-37" d="M36,45c.18,1.33,1,2.64.07,4a7.62,7.62,0,0,1-3.23-5.83Z"/><path class="cls-38" d="M57.13,81c.5-.31,1.31-1.07,1.54-.3.58,2,.76,4.07-1.46,5.39a1.44,1.44,0,0,1-.45-2Z"/><path class="cls-38" d="M58,75l-1,3a16.18,16.18,0,0,1-.88-6.9c1.17-.41,1.79.24,2.25,1.18C58.46,73.16,58.75,74.14,58,75Z"/><path class="cls-39" d="M45.94,87.72C46,88.8,46,89.88,46,91l-4.78,0A6.27,6.27,0,0,1,45.94,87.72Z"/><path class="cls-40" d="M56.76,84l.45,2L57,85.93a5.13,5.13,0,0,1-3.95,2,2.67,2.67,0,0,1-2-1c0-.32,0-.63,0-1Z"/><path class="cls-41" d="M47.05,56.18c-1.31-.23-3,.11-3.1-2a1.62,1.62,0,0,1,.9-2.66c2.57.42,3.44,1.71,2.12,4.12A.6.6,0,0,0,47.05,56.18Z"/><path class="cls-42" d="M45,52,44,54.2a3.7,3.7,0,0,1-.92-.31c-.68-1.35-2.49-2.08-2.19-4A.87.87,0,0,1,42,50h1a1.65,1.65,0,0,1,1.91-.38,2.55,2.55,0,0,1,.68,1.19A1.8,1.8,0,0,1,45,52Z"/><path class="cls-43" d="M82,37.17,82.93,41c.1,1.37-.35,2.3-1.88,2.38-1.34-.51-1.5-1.64-1.49-2.86a4.15,4.15,0,0,1,.22-1.35A2.55,2.55,0,0,1,82,37.17Z"/><path class="cls-17" d="M58,72l-1.8-1c0-1.34,0-2.69-.08-4L58,68A3.87,3.87,0,0,1,58,72Z"/><path class="cls-44" d="M76.9,44c.07-1.31.13-2.62.2-3.92h1.8a3.32,3.32,0,0,1,1,3c-.45,1.56-.63,3.37-3,3.22A1.88,1.88,0,0,1,76.9,44Z"/><path class="cls-45" d="M64,16c-.32-.63-.63-1.26-.94-1.89,2.38-.25,4.76-.66,7,.45C68.68,16,66.41,14.5,65,16,64.66,16.52,64.34,16.49,64,16Z"/><path class="cls-46" d="M78.83,43.21c0-1.06,0-2.12.07-3.18l.88-.87c.14.3.27.6.4.9-.19,2.07,2.19,4.49-.82,6.19C78,45.45,78.52,44.31,78.83,43.21Z"/><path class="cls-47" d="M73,21c0-1.87,0-3.74,0-5.61l1.25.75c.41,1.3,1.19,2.5,1.06,3.94-.21,1.19-.72,2.09-2.08,2.18C72.58,22,72.51,21.54,73,21Z"/><path class="cls-48" d="M41,50c.67,1.3,1.33,2.6,2,3.89-1.47-.32-2.18-1.55-3.09-2.56.05-.48.11-1,.16-1.43A.62.62,0,0,1,41,50Z"/><path class="cls-49" d="M78.13,21c-.18,1,.16,2.27-1,3a2.27,2.27,0,0,1-1.71-2.87,2,2,0,0,1,1.71-1.25Z"/><path class="cls-50" d="M77.9,31c0,1.64,0,3.29,0,4.94h-.8C77.05,34.29,76.79,32.55,77.9,31Z"/><path class="cls-12" d="M43.87,35l-5.07-.18C40.52,34,42.24,33.26,43.87,35Z"/><path class="cls-51" d="M77.12,19.88l-1,1.11a2.15,2.15,0,0,1-1-.93c-.37-1.09-1-2.17-.18-3.33A5.52,5.52,0,0,1,77.12,19.88Z"/><path class="cls-52" d="M74.9,16.73l.85,3.37a1.17,1.17,0,0,1-.9.49,1,1,0,0,1-.73-.69c0-1.25.07-2.5.1-3.75A.72.72,0,0,1,74.9,16.73Z"/><path class="cls-53" d="M53.1,28.08l.9,0c0,1.69.16,3.41-.82,4.93C53.15,31.34,53.13,29.71,53.1,28.08Z"/><path class="cls-54" d="M82,56c.78-2.72,1.34-5.51,3-7.91.15,5.76-2.2,11-3.31,16.54-.46,2.3-2.19,3-3.66.33a1.9,1.9,0,0,1-.52-1.27C78.34,60.77,79.46,58,82,56Z"/><path class="cls-55" d="M76.81,67.88,75.2,69.05l-.38-.19c-.06-3-1.58-6.22.76-9.07,3.15,1.46.87,4.08,1.32,6.12Z"/><path class="cls-56" d="M76.9,65.91c-1.3-1.76-.81-3.83-1-5.79a1,1,0,0,1,0-1.28,1.81,1.81,0,0,1,2,.53,7.11,7.11,0,0,1,1,2.69,2.62,2.62,0,0,1-.71,2A3.5,3.5,0,0,0,78,65Z"/><path class="cls-57" d="M66,107l-4,3a5.27,5.27,0,0,1-5,0c0-5-4.79-3.18-7.07-4.93l.07-.71c.87-2.09,2.25-3.54,4.64-3.73,1.13,0,2.26.09,3.39.06a4.31,4.31,0,0,1,1.32.31c.55.27,1,.66,1.61.9.2,0,.39,0,.58,0a20.92,20.92,0,0,1,2.58-.4,5.72,5.72,0,0,1,1.42.31c1.09.61,2.42.88,3,2.17C69.11,106.08,67.69,106.63,66,107Z"/><path class="cls-58" d="M44,98a2.06,2.06,0,0,1,0-3c1.25.46,2.68.06,3.89.77a4.26,4.26,0,0,1,1.72,1.11c3.9,2.5,2.62,5.27.4,8.07L50,105C46.94,103.53,46.75,99.68,44,98Z"/><path class="cls-59" d="M57,109.9l5,0c-1.5,1.17-3.27,1-5,1Z"/><path class="cls-60" d="M84,102c-1.64,2.67-4.5,3.61-7.06,5l-2,0c-.22-.25-.6-.63-.51-.8,2.27-4.08,1.48-8.26.5-12.46C79.48,94.08,82.67,97,84,102Z"/><path class="cls-61" d="M75,93.93c4.59,4.35,2.82,8.67-.06,13l-1,0c-1.12.43-1.81-.18-2.41-1a2.88,2.88,0,0,1-.2-1.39c.74-2,2.36-4,.73-6.27a7.44,7.44,0,0,1-.53-1.19,17.75,17.75,0,0,0-.93-2.42,3.69,3.69,0,0,1-.43-1.9c.19-1,1-1.43,1.86-1.69a1.87,1.87,0,0,1,.91-.05C73.93,91.82,75.82,91.91,75,93.93Z"/><path class="cls-62" d="M72,105l2,2c-3.28,1.36-6.33,3.34-9.92,3.9L67,108C68.7,107,69,103.78,72,105Z"/><path class="cls-63" d="M78.15,64l-.22-2c.25-1.81-.33-3.56-.37-5.35.38-1.79.36-3.63.63-5.44A2.19,2.19,0,0,1,80,50c1.09,1.86-.85,4.7,1.94,6C80.86,58.75,81.38,62.28,78.15,64Z"/><path class="cls-64" d="M81,43.07,82.93,41l2,0c-.84,2.33-.71,5.3-4,6.07A3.65,3.65,0,0,1,81,43.07Z"/><path class="cls-65" d="M81,43.07c0,1.32,0,2.63,0,4l-1,3-.85,1A2,2,0,0,1,78,50.41,2.81,2.81,0,0,1,77.22,48a3.39,3.39,0,0,1,1.91-1.75l1.05-6.16C80.45,41.06,80.73,42.06,81,43.07Z"/><path class="cls-66" d="M72,105c-1.69.94-2.89,2.71-5,3l-1-1,2-3a5.81,5.81,0,0,1-.26-3.25c.43-1,1.16-1.87,1.63-2.86a5.22,5.22,0,0,1,.7-1.13,2.72,2.72,0,0,1,1.2-.57A2.08,2.08,0,0,1,73,97l0,0c.24,2.72,1.8,5.61-1,8Z"/><path class="cls-67" d="M75,93.93l-2-2.86c2.2-.74,3.33,1.22,5,2,1.09.59,2.44.6,3.4,1.5.93.56,1.78,1.17,1.65,2.45.67.67,1.34,1.33,2,2l2,4L84,102C81.35,98.94,79,95.48,75,93.93Z"/><path class="cls-68" d="M83,97l-2-2c.24-1.07,2.8.14,2-2l-1-2L83,91c1.6,1.36,3.45,2.76,3,5.08C85.74,97.25,84.05,96.85,83,97Z"/><path class="cls-69" d="M64,16l1,0c-1.1,2.23-1,4.63-.95,7a2.89,2.89,0,0,1,1,1.18,12.29,12.29,0,0,1-1.49,6.87c-1.2,1.09-2.49.64-3.78.24a12.57,12.57,0,0,1-3.51-2.94,9.65,9.65,0,0,1-.21-3.67,2.77,2.77,0,0,1,.61-1.28c2.9-1.34,3.54-4.91,6.29-6.4Z"/><path class="cls-70" d="M64.08,24c0-.32,0-.65,0-1,1.63-3.12,3.28-3,4.95,0,.34-.49.67-.47,1,0l3-2c0,.35,0,.7,0,1.06,2,2.33.52,4.75-.11,7a2.21,2.21,0,0,1-3.67,1,12.4,12.4,0,0,0-3.84-2.13C63.77,27,65,25.17,64.08,24Z"/><path class="cls-69" d="M70,23H69c.13-1.22.25-2.43.43-4.22C71.33,20.5,70.43,21.78,70,23Z"/><path class="cls-71" d="M75,34l-.22,2c-1.3,4.83-.21,9.87-1.35,14.71A1.42,1.42,0,0,1,72,51.2c-2.62-1.29-1.54-4-2.23-6a22.67,22.67,0,0,0,.73-6.45c.07-2.75,1-5.36,1.25-8.08,1.53-1.59-.44-5.5,3.61-5.4C75.47,28.22,75.9,31.15,75,34Z"/><path class="cls-72" d="M73,51c.15-5-.56-10.17,1.83-14.93l.09,11.54c-.8,2.5-.27,5.06-.38,7.6a6.7,6.7,0,0,1-.68,6.53c-.22.15-.46.29-.69.42-1.3-.67-1.5-1.9-1.6-3.17C71.78,56.26,70.61,53.3,73,51Z"/><path class="cls-73" d="M75,34c0-3-.1-6-.14-9-1.39-1.66-.52-3.31,0-5l.84,0c.12.29.23.59.33.89.35,1,.69,2,1,3-.07.76-.14,1.51-.2,2.26C75,28.54,76.77,31.72,75,34Z"/><path class="cls-26" d="M73.84,61.72,74.13,55c.29-.73.57-.73.84,0L76,56a2,2,0,0,1,0,3l0,1.13c-1.71,2.74-.54,5.85-1.13,8.74C73.52,66.61,74.28,64.09,73.84,61.72Z"/><path class="cls-74" d="M76,59c0-1,0-2,0-3a9.5,9.5,0,0,0,.94-5.14,3.06,3.06,0,0,1-.1-2.92,1.27,1.27,0,0,1,1.42.15l.6,2c-.71,2.32-.16,4.71-.34,7.06-.29,1.1.79,2.84-1.42,3.06Z"/><path class="cls-75" d="M75,55h-.84a16.78,16.78,0,0,1,.77-7.44C74.92,50.07,74.94,52.56,75,55Z"/><path class="cls-76" d="M77.15,48.07c-.09.92-.17,1.84-.25,2.76a6.88,6.88,0,0,1,0-6.88c0,.7.11,1.4.17,2.1A1.59,1.59,0,0,1,77.15,48.07Z"/><path class="cls-77" d="M72.06,91.12l-.92,1.94c-.72,2.26-1.73.78-2.67.21a3,3,0,0,1-.5-1.46c.19-1.31.51-2.6.76-3.89,1.56-4.17-.4-8.82,1.8-12.89a1.56,1.56,0,0,1,1.61-.15,5.37,5.37,0,0,1,.35,2.57C72.24,81,73,84.56,72,88.07c-.05.58-.11,1.16-.16,1.75C70.94,90.41,71.55,90.76,72.06,91.12Z"/><path class="cls-78" d="M82.9,93c.92,2.2-1,1.65-2,2l-3-2L81,93A1.25,1.25,0,0,0,82.9,93Z"/><path class="cls-79" d="M41,50l-.93-.1a19.41,19.41,0,0,1-1.18-7.77c-.23-1,.17-1.31,1.11-1.13,3.53,2.36,1.41,6,2,9Z"/><path class="cls-80" d="M40,41l-1.11,1.13L36,42c-1.35-2.48.87-3.52,2-5l3,0C40.68,38.33,40.35,39.67,40,41Z"/><path class="cls-81" d="M45,50H43c.23-2.15-.76-4.71,2-6v0A8.13,8.13,0,0,1,45,50Z"/><path class="cls-82" d="M63,17.06c-1.65,2.61-2.45,6-6,7a1.39,1.39,0,0,1,0-2C58.82,20.15,60,17.56,63,17.06Z"/><path class="cls-83" d="M57,22.06c0,.66,0,1.31,0,2H57a1.54,1.54,0,0,1-1,.58A1.57,1.57,0,0,1,55,24l1-3.94Z"/><path class="cls-84" d="M47,97l-2.93-2a4.64,4.64,0,0,0,3.12-3.85L51,91a1.73,1.73,0,0,1,.45,1.24C50,93.8,49.56,96.41,47,97Z"/><path class="cls-85" d="M58.05,57l1.12-1.85c.3-.35.58-.72.85-1.09a12.51,12.51,0,0,0,1.46-6.17c.06-1.6-.3-3.38,1.49-4.42a3.06,3.06,0,0,1,1.56-.1A2.86,2.86,0,0,1,66.22,45c.49,2.47.2,5,.27,7.43a21.49,21.49,0,0,1-.13,2.41,5.92,5.92,0,0,1-.52,1.48c-1.43,2.31-.89,5.16-2,7.55C63,65.62,62.15,67.43,60,68l-.94,0Q59,63,59,58C58.53,57.78,58,57.59,58.05,57Z"/><path class="cls-86" d="M58,72l0-4,1,0c-.11,2.35.5,4.79-.95,7C58,74,58,73,58,72Z"/><path class="cls-87" d="M58.05,57,59,58,57,62.44V57.51Z"/><path class="cls-88" d="M60,68c2.75-3.87,2.64-8.63,4-12.93a3.23,3.23,0,0,1,1.25,2.09c-.13,10.92,1.3,21.88-.82,32.75a4.3,4.3,0,0,1-.8,1.8c-3.58.77-3.19-1.78-2.84-3.75A53.89,53.89,0,0,0,61,75.26c-.09-1.48-.07-3-1-4.24Z"/><path class="cls-38" d="M60,71c3,4,2.83,8.57,2.4,13.14-.25,2.64-.89,5.24.47,7.75C64,92.3,64.47,93,64,94.16a2.64,2.64,0,0,1-2,1A6.18,6.18,0,0,1,59.11,94,3,3,0,0,1,58,92c.29-1.8.53-3.62,1.93-5Z"/><path class="cls-89" d="M59.93,87c.06,1.71.2,3.44-.65,5A2.72,2.72,0,0,1,58,91.6,4.12,4.12,0,0,1,56.45,88a1.49,1.49,0,0,1,.84-1Z"/><path class="cls-90" d="M57.29,87l-.12,1.12-.61.53C55,89,53.32,89.36,53,87l4-1C57.08,86.28,57.18,86.64,57.29,87Z"/><path class="cls-91" d="M51.18,43l.82.05a6.19,6.19,0,0,0,1.82.81c1.51.5,3.3.42,4.29,2a5.75,5.75,0,0,1,.26,2.85,4.8,4.8,0,0,1-.89,1.93A8.44,8.44,0,0,1,54.06,54h0c-2.63,1.09-3.11-.56-3.31-2.57.07-.75.45-1.44.48-2.18a2.59,2.59,0,0,1-.2-.82S51,48,51,48Z"/><path class="cls-92" d="M49.08,47.07,51,48l.1-.05c1,1.54.58,3.27.31,4.81-.41,2.35-1.77,1.88-3.09.57C47.53,51.14,48.44,49.12,49.08,47.07Z"/><path class="cls-93" d="M49.08,47.07l-.15,6a1,1,0,0,1-1.33-.21A2.25,2.25,0,0,1,48,50c-.33-2-.65-4-1-6A4.28,4.28,0,0,1,49.08,47.07Z"/><path class="cls-94" d="M56,41c-.25-4-1.41-7.95-1-12a1.44,1.44,0,0,1,1.37-.29,3.54,3.54,0,0,1,1.76,1.36c.65,2.53.17,5.11.32,7.66-.24,1.55,0,3.47-2.48,3.28Z"/><path class="cls-95" d="M56,29H55c0-.66,0-1.33,0-2,0-1,0-2,0-3l1,0A5.85,5.85,0,0,1,56,29Z"/><path class="cls-96" d="M48,50,48,53c.69.94.87,1.86-.07,2.75l-1-.08A6.72,6.72,0,0,0,45,52c0-.33,0-.66,0-1,.36-.32.39-1,1-1Z"/><path class="cls-97" d="M46.07,50l-1,1c0-.33,0-.67,0-1,0-2,0-4,0-6C46.35,45.85,46,48,46.07,50Z"/><path class="cls-98" d="M48,55.75c0-.91.05-1.83.07-2.75l.89,0c3.81-.37,1.25-3.44,2.14-5L52,48a1.37,1.37,0,0,1,.08,2c0,1.68,0,3.33,2,4C52.66,56.9,50.13,55.69,48,55.75Z"/><path class="cls-99" d="M54.06,54l2.13-4c2,0,1.89,1.32,1.71,2.69A5.9,5.9,0,0,1,57,54Z"/><path class="cls-100" d="M60,55l-.82.13c-.07-.37-.13-.73-.2-1.1-1-1.1-.95-2.47-.95-3.83A2.81,2.81,0,0,1,59,48a1.36,1.36,0,0,1,1.54.15c1.26,1.43,1,3.12.81,4.79A3.07,3.07,0,0,1,60,55Z"/><path class="cls-101" d="M58.91,50.09,59,54H57c0-.33,0-.66,0-1C58.29,52.44,56.33,49.81,58.91,50.09Z"/><path class="cls-102" d="M72,88.07l.06-11c.1-.52.35-.61.75-.26C72.89,80.6,73.74,84.43,72,88.07Z"/><path class="cls-103" d="M72.82,76.83c-.24.1-.5.18-.75.26-.09-.71-.19-1.41-.28-2.12-1.33-3.21-3.16-6.48,1.15-9,.07,1.34.15,2.68.22,4Q73,73.43,72.82,76.83Z"/><path class="cls-104" d="M72.94,66c-1.58,2.84-.61,6-1.15,9L71,75a2.71,2.71,0,0,1-1.14-1.18,32,32,0,0,1,.59-13.18,4.46,4.46,0,0,1,.85-1.44A1.29,1.29,0,0,1,72.83,59c.1,1,.21,2.1.32,3.15Z"/><path class="cls-23" d="M56,41a6.35,6.35,0,0,0,1-4,1.2,1.2,0,0,1,1.54.14c1.2,2.17,1.58,4.23-.73,6L57,43Z"/><path class="cls-105" d="M53,44l-1-1L57,43h0a1.5,1.5,0,0,1,.44,1.3C55.85,46.16,54.49,44.31,53,44Z"/><path class="cls-106" d="M57.17,88.11,58.76,91c-1.81,1.77-2,5.52-5.87,4.75A3.63,3.63,0,0,1,51,91.94V91c0-.29.1-.58.16-.86l3-1c.59-1.12,1.94-.16,2.65-1Z"/><path class="cls-107" d="M56.81,88.1l-2.65,1c-1.27-.37-3.49.66-3.14-2.12l2,0C54.09,88,55.47,88,56.81,88.1Z"/><path class="cls-108" d="M77.15,48.07c0-.67-.05-1.35-.07-2l1.75-2.85.3,3c0,.77,0,1.52-.91,1.84Z"/><path class="cls-109" d="M65,45.05l-1-1c-2.52-4.17.12-8.44-.25-12.65.33-1.64.07-3.57,2.13-4.38,3.13-3.42,2.87,2.19,5.4,1.64.52-2,1.12-4.25,1.72-6.54.37-.73.73-1.45,1.09-2.18a5.32,5.32,0,0,0,.79.18c0,1.65,0,3.3,0,5-1.61,1.7-1.88,3.84-2,6,.13,3.19-2.08,3.73-4.52,4.06-.93,2.54-.82,5.16-1,7.76a3.25,3.25,0,0,1-.91,2.1A1.22,1.22,0,0,1,65,45.05Z"/><path class="cls-110" d="M77.06,60.16c1.27-.61,1.1-1.76,1.06-2.86a.65.65,0,0,1,.68-.65c.24,1.89.4,3.76-.87,5.41C77,61.7,77.07,60.93,77.06,60.16Z"/><path class="cls-84" d="M62.12,93.78l1.69-.2a2.43,2.43,0,0,1,1.37.71A7,7,0,0,1,67,102.21c-.52.64-1.1,1.11-2,.74H64c-1.17-1.2-2.81.61-4-.63a3.41,3.41,0,0,1-.64-1.24c.33-1.94,2.16-3.53,1.09-5.85C60.09,94.48,60.74,93.33,62.12,93.78Z"/><path class="cls-84" d="M50.06,104.92c-.5-2.36,1.74-5.55-2.08-6.92.76-1.53,2.16-1.55,3.58-1.52a6,6,0,0,1,3.19.5c1.68,1.58,1.5,3.25.26,5C52.92,102.23,51.73,104,50.06,104.92Z"/><path class="cls-111" d="M60,102a5.93,5.93,0,0,1,4,1c-1.55-.17-.84,3-3,2-.92.25-1.26-.09-1-1l-1-2A.6.6,0,0,1,60,102Z"/><path class="cls-112" d="M55,102a4,4,0,0,1,0-4l.55-.43c1.95-.35,2.35,1,2.59,2.44a5.05,5.05,0,0,1-.12,2A2.1,2.1,0,0,1,55,102Z"/><path class="cls-113" d="M65,103l1-1c.55-.62.88-1.52,1.91-1.56A1.78,1.78,0,0,1,69,101c-.35,1-.69,2-1,3Z"/><path class="cls-111" d="M60,104l1,1c-.38.91-.94,1.92-1.93.93S59.09,104.33,60,104Z"/><path class="cls-114" d="M58,102l-1-1c-.32-1.62.8-1.62,1.87-1.68.8.28,1.39.7,1.14,1.68l0,1-1,0Z"/><path class="cls-115" d="M52,98l-4,0c-.33-.34-.66-.67-1-1,.55-2.31,1.31-4.46,4-5.06a4.12,4.12,0,0,1,2,3A3.68,3.68,0,0,1,52,98Z"/><path class="cls-116" d="M72,105c.5-2.63-.17-5.41,1-8C75.26,100,76.12,102.78,72,105Z"/><path class="cls-117" d="M69,92.76c.72.19,1.34,1,2.19.3L72,94c.67,1.31-.15,2.14-1,3h0a1.63,1.63,0,0,1-2-.33c-.84-1-1.32-2.09-.59-3.38Z"/><path class="cls-118" d="M71,97c.32-1,.65-2,1-3a2,2,0,0,1,1,3Z"/><path class="cls-75" d="M78.8,56.65l-.68.65c-.15-2.46-.62-4.95.7-7.26l.36,1C79.05,52.88,78.93,54.77,78.8,56.65Z"/><path class="cls-119" d="M69,101l-1,0a5.35,5.35,0,0,1-1.49-4.73,1.75,1.75,0,0,1,1.75-.92c1.43.36,1.17,2.46,2.75,2.67A4.06,4.06,0,0,1,69,101Z"/><path class="cls-120" d="M71,98Q67.91,99,69,96c.32-.45.64-.48,1,0l1,1Z"/><path class="cls-121" d="M58,37.05l-1,0c-.92-2.33-.26-4.66,0-7a1.31,1.31,0,0,1,.06-2,4,4,0,0,1,3,2,3.89,3.89,0,0,1,1.27,3.67A5.74,5.74,0,0,1,58,37.05Z"/><path class="cls-122" d="M60,34v-4l2.93,1,.59.53a3.19,3.19,0,0,1,.18,2.33,30.1,30.1,0,0,0-.26,3.42c-.1,1.16-.27,2.41-1.58,2.75-1.67.44-2.25-.84-2.72-2.12A4.55,4.55,0,0,1,60,34Z"/><path class="cls-123" d="M65.91,27,65,31a1.3,1.3,0,0,1-2,0l-.1,0a21.22,21.22,0,0,1,1.15-7Z"/><path class="cls-23" d="M57.05,28.05,57,30l-1-1c0-1.66,0-3.31,0-5L57,24C57,25.37,57,26.71,57.05,28.05Z"/><path class="cls-124" d="M71.05,45a13.75,13.75,0,0,1,1,6l0,.68c-.67,2.9.26,5.89-.51,8.78.2,2.27-.91,4.29-1.22,6.46a1.85,1.85,0,0,1-1.41.55A2.86,2.86,0,0,1,67,66.17,7.76,7.76,0,0,1,66.51,63c0-1.54,0-3.08,0-4.61.45-2.36.86-4.73.07-7.1a20.88,20.88,0,0,1-.09-2.85,11.18,11.18,0,0,1,.13-1.42,14.3,14.3,0,0,1,1.54-3.23,2.9,2.9,0,0,1,1.32-.57C70.51,43.42,71.47,43.63,71.05,45Z"/><path class="cls-125" d="M67,34l.18-4.09c2,1.92,3.59,5.57,5.75,1.14A22.9,22.9,0,0,1,72,39c-2,1.53-3.51,1.06-4.6-1.12C66.73,36.66,67.43,35.28,67,34Z"/><path class="cls-126" d="M68,37a5.3,5.3,0,0,0,4,2c-.07,2.05.31,4.17-1,6L69,44C66.88,41.93,66.27,39.65,68,37Z"/><path class="cls-127" d="M72.83,59,72,59c-.88-2.67-1.35-5.33,0-8l0,0L73,51Z"/><path class="cls-128" d="M71,74c0,.35,0,.7,0,1-.41,4.65.85,9.41-.93,14-2.72-2.46-1.13-5.72-1.57-8.6.15-2-.42-4.21.85-6.12A1.29,1.29,0,0,1,71,74Z"/><path class="cls-129" d="M70,80l.09,9-1,3c-2.51-2.11-1.14-5-1.52-7.55.07-1.45-.12-3,.9-4.22A1.22,1.22,0,0,1,70,80Z"/><path class="cls-130" d="M69,84c0,2.66,0,5.32,0,8,0,.26,0,.53-.07.8l.07.36a1.46,1.46,0,0,1-1.63-.34,9.93,9.93,0,0,1,0-8.55A1.23,1.23,0,0,1,69,84Z"/><path class="cls-131" d="M63.81,93.58l-.91-1.67C65,79.68,63.09,67.33,64,55.06c.3-.06.61-.1.92-.14,2.6,2.24,1.18,5.29,1.58,8V86.73c-.21,2.35.54,4.81-.9,7A1.28,1.28,0,0,1,64,94Z"/><path class="cls-132" d="M60,55,60.15,53c.42-1.67.82-3.35-.23-5q-.47,0-.93,0l-.54-.42A5.08,5.08,0,0,1,58,45a10.33,10.33,0,0,1,.18-1.36c.32-.87.48-1.83,1.38-2.34,1.3,0,2.63-1.36,3.89.08,0,.92.36,1.91-.43,2.71,0,2.57.1,5.16-.17,7.71C62.68,53.27,62.88,55.63,60,55Z"/><path class="cls-133" d="M63,44l0-3a14,14,0,0,1,0-8c0-.68,0-1.35.05-2h2a54.76,54.76,0,0,1-1,13Z"/><path class="cls-134" d="M68,47c0,.34,0,.67,0,1-1.24,1.08-.91,2.56-1,3.93a2.82,2.82,0,0,1-.71,1.2A1.09,1.09,0,0,1,65,53c0-2.66,0-5.32,0-8L66,45C67.82,44.49,67.8,45.87,68,47Z"/><path class="cls-135" d="M65,53l1,0c2.67,2.24.54,5.08.95,7.61-.16,1.19-.21,2.47-1.91,2.46Q65,59,64.92,54.92C65,54.29,65,53.66,65,53Z"/><path class="cls-136" d="M52,98c-.56-1.3-.79-2.49,1-3,2.41-.6,3.14-3.65,5.76-3.94l.52,1c.21.34.41.68.61,1a3.8,3.8,0,0,1-1.69,4.6c-1,.4-2.23-.71-3.19.34H52Z"/><path class="cls-137" d="M58,97c-.93-2.06.91-2.79,1.9-3.93l2.23.76c1,2.88,1.06,5.51-2.11,7.17l-1-1C58.4,99.05,57.33,98.3,58,97Z"/><path class="cls-138" d="M52.07,50c0-.66,0-1.31-.08-2,1.7-.77,2,.41,1.91,1.58C53.76,51.41,52.83,50.55,52.07,50Z"/><path class="cls-139" d="M59,44l-.1,1.15c-.47.59-.8,1.46-1.84.88a7.43,7.43,0,0,1-4-2l4,0A1.33,1.33,0,0,1,59,44Z"/><path class="cls-25" d="M58.91,50.09C58.28,51.06,57.66,52,57,53c-.29-1-.57-2-.85-3l.75-1.1c.6-.49.93-1.6,2.05-.92h0C59,48.72,58.93,49.41,58.91,50.09Z"/><path class="cls-100" d="M59,48,56.94,49l.12-2.88,1.84-.88Z"/><path class="cls-140" d="M59.92,48.06a3.9,3.9,0,0,1,.23,5C60.07,51.37,60,49.72,59.92,48.06Z"/><path class="cls-141" d="M71,74,70,74c-2.13-2.33-1.89-4.67,0-7,.33-2.34.67-4.67,1-7,.31-.68.62-.68.91,0Q71.44,67,71,74Z"/><path class="cls-134" d="M71.9,60H71c.23-3-2.08-6.3,1-9,0,2.66,0,5.32,0,8C72,59.34,71.93,59.68,71.9,60Z"/><path class="cls-142" d="M59,44l-2,0V43c1.32-1.83.89-3.94,1-6,.06-1.41.51-2.56,2-3v4c.67,1.34,1.09,2.67,0,4Z"/><path class="cls-143" d="M68,37l1,7v0c-1.51,1.14-2.24,0-3-1,.1-3-.36-6.11,1-9Z"/><path class="cls-144" d="M66,43l3,1c-.33,1-.65,2-1,3l-2-2C66,44.33,66,43.67,66,43Z"/><path class="cls-145" d="M64,94c.28-.13.56-.28.83-.43a2.68,2.68,0,0,1,1.3-.28c1.5.5,1.46,1.5.87,2.67l1,5-2,1C66.62,99,64.35,96.73,64,94Z"/><path class="cls-84" d="M58,97c.78.85,1.63,1.68,1,3l-2,1c-1-.78-.25-2.72-2-3Z"/><path class="cls-146" d="M67,96l-1.25-2.15a1.29,1.29,0,0,1,1-1.39,2,2,0,0,1,1.2.36l1,.34L70,96l-1,0Z"/><path class="cls-147" d="M60,42c0-1.33,0-2.66,0-4,.82.59,1.73,1.24,1.92-.47.18-1.55,0-3.16,1-4.5,0,2.65,0,5.3,0,8-1.23.91-.22,3.33-2,3.52C60,44.63,60.13,43,60,42Z"/><path class="cls-148" d="M65.05,63.08,66,61c1.37-1.07-.79-3.71,1.87-4.21.33.21.47.46.41.74s-.13.45-.22.45l-.21,5.2c-.89,3-.13,6.08-.37,9.11-.1,1.56.27,3.21-.9,4.56a1.15,1.15,0,0,1-1.46.15Q65.08,70,65.05,63.08Z"/><path class="cls-149" d="M70,67l0,7c0,2,0,4,0,6H69c-2.29-1.36-1.07-3.86-1.86-5.71a5.82,5.82,0,0,1,0-1.56c.79-1.85-.43-4.34,1.85-5.71Z"/><path class="cls-150" d="M66.07,72c-.15-3.1-.07-6.16,1.79-8.85L68.07,66a1.1,1.1,0,0,1,.32.77c0,.28,0,.43-.09.43-.45,1.26-.21,2.6-.4,3.9a2.34,2.34,0,0,1-.66,1.11A1,1,0,0,1,66.07,72Z"/><path class="cls-151" d="M66,52.07c0-1.67,0-3.34,2-4,0,1,0,2,0,3a.81.81,0,0,1,.32.82c-.07.29-.15.44-.24.44A1.78,1.78,0,0,1,66,52.07Z"/><path class="cls-141" d="M67.9,67c.06-.33.11-.66.17-1L69,67c-.07,2,.29,4.13-.9,6a1.41,1.41,0,0,1-.59-1.36C67.65,70.1,67.13,68.5,67.9,67Z"/><path class="cls-134" d="M68,52l0-1A6.64,6.64,0,0,1,68.07,58c0-.3-.09-.6-.11-.9A3.93,3.93,0,0,1,68,52Z"/><path class="cls-152" d="M68,74c1.27,1.85.88,4,1,6,0,1.33,0,2.66,0,4H68c-2.07-1.58-1.39-3.79-1.33-5.85C67.19,76.76,66.67,75.06,68,74Z"/><path class="cls-153" d="M68,78l0,6,0,8.79-.46,0-.45-.07c-1.69-1.68-.84-3.84-1.07-5.8.2-2.88-.47-5.81.49-8.64A1,1,0,0,1,68,78Z"/><path class="cls-154" d="M66.92,87c0,1.93.09,3.85.14,5.77l-1.32,1.06c-.31-.07-.61-.15-.92-.24.06-2.2.13-4.39.19-6.59a1.55,1.55,0,0,1,1-.57A1.42,1.42,0,0,1,66.92,87Z"/><path class="cls-155" d="M66,87l-1,0,.12-10H66A20.23,20.23,0,0,1,66,87Z"/><path class="cls-127" d="M68,52c0,1.68,0,3.36,0,5L66,61V53c0-.32,0-.63,0-.94Z"/><path class="cls-156" d="M66,87q0-5,0-10c0-1.66.05-3.31.08-5L67,72a8.36,8.36,0,0,1,.11,6l-.15,9Z"/><path class="cls-157" d="M67.07,78q0-3-.11-6l.09,0c.26-.69.56-.71.89,0l.15,1A7.73,7.73,0,0,0,68,74c0,1.34,0,2.68,0,4Z"/><path class="cls-148" d="M67.94,72l-.89,0c0-1.72-.18-3.46.85-5C67.91,68.66,67.92,70.31,67.94,72Z"/></svg>