<svg id="Layer_1" data-name="Layer 1" xmlns="http://www.w3.org/2000/svg" viewBox="0 0 128 128"><defs><style>.cls-1{fill:#303640;}.cls-2{fill:#5cbbf3;}.cls-3{fill:#333b43;}.cls-4{fill:#9eed7d;}.cls-5{fill:#97dcfd;}.cls-6{fill:#63c002;}.cls-7{fill:#56b7f1;}.cls-8{fill:#57a705;}.cls-9{fill:#025f02;}.cls-10{fill:#59b101;}.cls-11{fill:#9bddfc;}.cls-12{fill:#8ad4fe;}.cls-13{fill:#86d700;}.cls-14{fill:#72b0c8;}.cls-15{fill:#9ddefb;}.cls-16{fill:#499c01;}.cls-17{fill:#1a8800;}.cls-18{fill:#65bef1;}.cls-19{fill:#93d8fc;}.cls-20{fill:#117000;}.cls-21{fill:#51b4ef;}.cls-22{fill:#61c745;}.cls-23{fill:#6bc207;}.cls-24{fill:#6ab305;}.cls-25{fill:#0c1819;}.cls-26{fill:#93d8fa;}.cls-27{fill:#429703;}.cls-28{fill:#82cffd;}.cls-29{fill:#8fd6fd;}.cls-30{fill:#0f1d1a;}.cls-31{fill:#014802;}.cls-32{fill:#5da2bf;}.cls-33{fill:#6fb207;}.cls-34{fill:#a1e966;}.cls-35{fill:#5db301;}.cls-36{fill:#118601;}.cls-37{fill:#1f9600;}.cls-38{fill:#2f9f04;}.cls-39{fill:#2b9a05;}.cls-40{fill:#7ecd23;}.cls-41{fill:#5d6145;}.cls-42{fill:#a6f659;}.cls-43{fill:#6cc40b;}.cls-44{fill:#94e347;}.cls-45{fill:#098100;}.cls-46{fill:#acf667;}.cls-47{fill:#71c312;}.cls-48{fill:#366a8d;}.cls-49{fill:#62ba10;}.cls-50{fill:#148b02;}.cls-51{fill:#66b824;}.cls-52{fill:#5cbb01;}.cls-53{fill:#4c98c9;}.cls-54{fill:#5ab400;}.cls-55{fill:#96e75b;}.cls-56{fill:#9e9d78;}.cls-57{fill:#04250e;}.cls-58{fill:#005100;}.cls-59{fill:#87db1d;}.cls-60{fill:#88cef3;}.cls-61{fill:#778069;}.cls-62{fill:#57b502;}.cls-63{fill:#6dcf17;}.cls-64{fill:#011501;}.cls-65{fill:#868a6d;}.cls-66{fill:#013401;}.cls-67{fill:#1d9800;}.cls-68{fill:#68735f;}.cls-69{fill:#4b5940;}.cls-70{fill:#077701;}.cls-71{fill:#e3feab;}.cls-72{fill:#0b5e08;}.cls-73{fill:#6dcb00;}.cls-74{fill:#a0a48e;}.cls-75{fill:#384134;}.cls-76{fill:#208701;}.cls-77{fill:#838f7e;}.cls-78{fill:#002300;}.cls-79{fill:#077500;}.cls-80{fill:#7abcd4;}.cls-81{fill:#98b2ad;}.cls-82{fill:#bdd5cb;}.cls-83{fill:#74989d;}.cls-84{fill:#10313c;}.cls-85{fill:#349a02;}.cls-86{fill:#333e36;}.cls-87{fill:#464e3d;}.cls-88{fill:#65725c;}.cls-89{fill:#768272;}.cls-90{fill:#081616;}.cls-91{fill:#6f7f71;}.cls-92{fill:#697267;}.cls-93{fill:#43ac03;}.cls-94{fill:#46b001;}.cls-95{fill:#3da600;}.cls-96{fill:#525e50;}.cls-97{fill:#828f7e;}.cls-98{fill:#459e02;}.cls-99{fill:#f6fafa;}.cls-100{fill:#e9f4e5;}.cls-101{fill:#b4fc75;}.cls-102{fill:#313840;}.cls-103{fill:#a3f56e;}.cls-104{fill:#aefe75;}.cls-105{fill:#a7e963;}.cls-106{fill:#65c402;}.cls-107{fill:#63a8c4;}.cls-108{fill:#248501;}.cls-109{fill:#147600;}.cls-110{fill:#dbf6ed;}.cls-111{fill:#2d9103;}.cls-112{fill:#044b06;}.cls-113{fill:#52bc2d;}.cls-114{fill:#64cc3f;}.cls-115{fill:#2e9401;}.cls-116{fill:#000807;}.cls-117{fill:#010c0b;}.cls-118{fill:#141f20;}.cls-119{fill:#d7e4d2;}.cls-120{fill:#c0cdbd;}.cls-121{fill:#879b99;}.cls-122{fill:#9aaea9;}.cls-123{fill:#022704;}.cls-124{fill:#2b3844;}.cls-125{fill:#b7fa76;}.cls-126{fill:#edfeb5;}.cls-127{fill:#7b846c;}.cls-128{fill:#4e5b49;}.cls-129{fill:#0e211b;}.cls-130{fill:#7fda30;}.cls-131{fill:#8a8a63;}.cls-132{fill:#848a6c;}.cls-133{fill:#6a6c49;}.cls-134{fill:#7c8574;}.cls-135{fill:#7d8261;}.cls-136{fill:#788067;}.cls-137{fill:#24393a;}.cls-138{fill:#899c91;}.cls-139{fill:#5abb2c;}.cls-140{fill:#79d952;}.cls-141{fill:#2b392f;}.cls-142{fill:#318f01;}.cls-143{fill:#4d4d4d;}.cls-144{fill:#7d8670;}.cls-145{fill:#87896b;}.cls-146{fill:#999c81;}.cls-147{fill:#a1a993;}.cls-148{fill:#77806b;}.cls-149{fill:#767f62;}.cls-150{fill:#75754e;}.cls-151{fill:#9fa78b;}.cls-152{fill:#687057;}.cls-153{fill:#28362b;}.cls-154{fill:#8b9480;}.cls-155{fill:#909882;}.cls-156{fill:#dce4d0;}</style></defs><path class="cls-1" d="M53.46,60.88c-1.41,6-2,11.15-4.72,15.69-2.51,4.23-4.56,4.29-8.05.71-8.8-9.06-8.24-19.38-4.2-30.07C38.84,41,39.06,41,32.26,41a47.12,47.12,0,0,0-8.94.61c-3.05.6-4.4-1-3.93-4C21.06,27,24.37,22,38.12,23.85c4.15.56,6.44.16,7-4.77,1-9,6.14-12.82,15-12.15s9,.69,5,8.85c-4.76,9.68-4.77,9.6,6,9.32C77,25,83,24.3,88.19,28.66A19.26,19.26,0,0,1,94,36c1,2.43,2.2,3.73,5.29,2.64,4.19-1.48,7.53-.36,8.8,4.51a14.84,14.84,0,0,0,1.88,3.47c1.49,2.55,1.09,4.67-1.85,5.47-4.32,1.17-3,3.13-1.33,5.7A20.3,20.3,0,0,1,106,81c-1.25,1.66-2.51,3.32-4.88,2.52-2.21-.73-2-2.8-2.13-4.61a51,51,0,0,0-5.28-18.59c-1.38-2.74-2.62-2.87-4.8-.76-4.66,4.53-7.59,10-9.8,16-.94,2.54-.28,4.27,2,5.89,5.46,3.81,10.7,7.92,14.45,13.59,3.17,4.78,2.88,7.81-1.12,12-3.35,3.51-7.77,5-12.09,6.73-8.06,3.15-16.08,6.21-25,6.28-7.57.05-13-3-17.13-9.21A49.05,49.05,0,0,1,33.84,98c-1.54-5,.1-8.72,4.19-11.67,4.32-3.12,9.46-4,14.41-5.35,2.63-.71,3.91-1.72,3.7-4.77C55.79,71.34,55.44,66.57,53.46,60.88Z"/><path class="cls-2" d="M81.94,86a18,18,0,0,1,5.15,4.65c2.68,6.51.12,12.43-2.09,18.38-1.49,1.13-3,2.12-5,1.81-2.67-1.34-2.64-4.07-3.33-6.43a4.29,4.29,0,0,1,.85-2.74,32.1,32.1,0,0,0,2-2.88c2.4-3.58-2.32-3.88-2.82-6.13a8.3,8.3,0,0,1-.14-3.14C77.34,86.82,78.49,84.64,81.94,86Z"/><path class="cls-3" d="M81.93,62.78c-1.51,3.15-2.59,6.54-5,9.17a5.2,5.2,0,0,1-1-.86,6.7,6.7,0,0,0-.83-1.2c0,.07-.35,0-.34,0a13.24,13.24,0,0,0-.93,1.1,7.53,7.53,0,0,0-2.54,3.62,13.92,13.92,0,0,1-1.74,2.23,2.74,2.74,0,0,1-2.76.69c-1.29-.56-1.42-2-2.11-3a10.38,10.38,0,0,1-1-2.71,10,10,0,0,0-.16-5c.16-1.55-1-2.92-.58-4.51a2.86,2.86,0,0,1,.93-1.27c1.73-.91,3.61-.48,5.43-.63.76,0,1.52-.07,2.27-.14a18.3,18.3,0,0,0,4.32-1,4.34,4.34,0,0,1,3.44,1A6.53,6.53,0,0,1,81.93,62.78Z"/><path class="cls-4" d="M61.9,29.13c4.12.08,8.21-1.95,12.35-.14A7,7,0,0,1,75,36.11c-4.59,2.07-9.28,2.72-14.13.9a3.43,3.43,0,0,1-1-1.47A6.09,6.09,0,0,1,61.9,29.13Z"/><path class="cls-5" d="M44.29,110.9l-2.11-3c-.71-7.1-.44-14.12,1.84-21,1.54-1,3-2.06,5-1.84,3.72,1.48,1.08,4.33,1.41,6.54a14.18,14.18,0,0,1-.85,2.78,6.34,6.34,0,0,0-.08,4.91C49.45,103,47,106,46.58,109.59A1.8,1.8,0,0,1,44.29,110.9Z"/><path class="cls-6" d="M50.89,54a84.3,84.3,0,0,1-3.1,16.89c-2.41.74-3.52-.62-4.22-2.63a6.46,6.46,0,0,1-.1-2.36c.06-1.28,0-2.58.19-3.86,1-1.87.81-3.92.93-5.92.24-1.51.73-3,.91-4.49a5,5,0,0,1,1.68-3.45,3.61,3.61,0,0,1,1.49-.5,3.29,3.29,0,0,1,2.17.61,2.51,2.51,0,0,1,.59,1.29C51.18,51.05,49.28,52.31,50.89,54Z"/><path class="cls-7" d="M85,109c-1.19-6.34,1.87-12.2,2.09-18.38a12.36,12.36,0,0,1,4.07,4.22c1.22,4.42,1.29,8.63-2.13,12.24A6.44,6.44,0,0,1,85,109Z"/><path class="cls-8" d="M42.16,42c.52-2.44,3.43-1.58,4.69-3.52-3.46-2-7.24-.88-10.77-1.39,1.23-4.59,5.12-3.1,8.15-3.57a20.34,20.34,0,0,1,4,.67c.8.16,1.62.26,2.42.47,1.2.72,2.71,1,3.41,2.4a5.1,5.1,0,0,1-.18,4.27C48,45.23,45.75,45.36,42.16,42Z"/><path class="cls-9" d="M96,50.89l-2,1.19c-2.44-1.81-2.38-2.1.93-5.19a3.36,3.36,0,0,1,1-2.9c2.68-.36,5.75-3.69,7.77,1,.44.81.81,1.68,1.79,2,.84.72,2.31,1.39.27,2.41a9.44,9.44,0,0,1-4.83.49C99,49,97.58,50.31,96,50.89Z"/><path class="cls-10" d="M48,22.75c0-2.32-.2-4.68,1.12-6.79,3.45-3.46,5.29-.92,7.06,1.89a5,5,0,0,1,.15,1.71c-1,2.71-.91,5.93-3.85,7.64C49,27.71,46.67,27.05,48,22.75Z"/><path class="cls-11" d="M44,87c.14,7.05-.06,14.08-1.84,21L39.87,104c-.26-5-1.81-10.08,0-15.13A5.25,5.25,0,0,1,44,87Z"/><path class="cls-12" d="M57,116.88c-1.74.06-3.54.63-5.07-.71-2.25-3.87-2-7.85-.58-11.89,2.29-1.27,4.18-.66,5.79,1.23C59.05,109.32,59.63,113.12,57,116.88Z"/><path class="cls-13" d="M24,33.09C23.72,28.24,27.6,28,30.78,27c4.14-.12,2.37,3.9,3.94,5.59a2.82,2.82,0,0,1-.29,1.59c-1.91,2-4.67,1.55-7,2.33C25.27,36.37,23.13,36.25,24,33.09Z"/><path class="cls-14" d="M68.27,115.13c-2.71.87-5.29,2.32-8.3,1.73-2.11-3.53-2.43-7,.59-10.19,2.67-1.25,5-1.11,7,1.41,1.13,1.29.27,2.94.8,4.34A8.8,8.8,0,0,1,68.27,115.13Z"/><path class="cls-15" d="M39.86,88.9a21.81,21.81,0,0,1,0,15.13C35,96,35,92.85,39.86,88.9Z"/><path class="cls-16" d="M55,18.06c-2-.63-3.45-2.82-5.92-2.1.11-1.9,1.38-3,2.79-4,5.35-2.2,8.54-1.22,10,3.08a5.65,5.65,0,0,1-1.77,3.12C58.41,18.32,56.68,19.27,55,18.06Z"/><path class="cls-17" d="M89.1,33.81C91.23,36.89,93,40.12,92.89,44a3.65,3.65,0,0,1-2,1.05A13.11,13.11,0,0,1,83,41.67a4,4,0,0,1-.43-2.22C83.11,35.65,85.76,34.33,89.1,33.81Z"/><path class="cls-18" d="M78,103.91c2.13,1.89,2.08,4.4,2,6.93-1.54.92-2.88,2.29-4.87,2.24-3.45.08-3.38-3-4.42-5a3.3,3.3,0,0,1,1.71-3.45c1.43-.52,2.64-1.7,4.33-1.54A2.4,2.4,0,0,1,78,103.91Z"/><path class="cls-19" d="M44.29,110.9c1.13-3.92,2.5-7.79,2.63-11.93,3.46.33,4,2.76,4,5.57-1.34,3.34,1.2,7.38-1.87,10.42A6.88,6.88,0,0,1,44.29,110.9Z"/><path class="cls-20" d="M90.1,54.13,85.34,58a1.65,1.65,0,0,1-1.44.5,3,3,0,0,1-1.34-.88c-1.88-3-6.44-5.18-3.32-9.9,2.25-1.83,4.08-.42,5.79.89a34.36,34.36,0,0,1,4.37,3.31A3.73,3.73,0,0,1,90.1,54.13Z"/><path class="cls-21" d="M89,107.11c.34-4.15-.09-8.42,2.13-12.24C96.17,100.13,95.55,103.73,89,107.11Z"/><path class="cls-22" d="M74,36.1l.3-7.11,2.18-.24a3.6,3.6,0,0,1,3.21.87,3.36,3.36,0,0,1,.64,1.21c-.11,2,1.84,3.08,2.06,4.93a3.61,3.61,0,0,1-.9,2.91c-1.19.94-2.59.8-4,.78a4.85,4.85,0,0,1-3.55-1.82A1.41,1.41,0,0,1,74,36.1Z"/><path class="cls-23" d="M45,67.88c.95,1,1.89,2,2.84,3-.81,2-1.4,4.06-3.22,5.79A28.45,28.45,0,0,1,39,69.27C40.43,66.51,42.76,67.46,45,67.88Z"/><path class="cls-24" d="M28,35c1.73-1.51,4.2-.55,6-1.79A2.26,2.26,0,0,1,35,32c2.71-1.08,5.26.16,7.87.54a3.53,3.53,0,0,1,2.14,1A1.3,1.3,0,0,1,45.09,35c-3.15.08-6.27.3-9,2.12l-.38.08-.39-.1C32.6,37.4,29.56,38.83,28,35Z"/><path class="cls-25" d="M56.14,55,52.69,48.1a4.55,4.55,0,0,1-.8-4.61A3.05,3.05,0,0,1,53,42.29c2.63-.79,4.14.51,5.17,2.74a26.63,26.63,0,0,1,.56,2.74,14.62,14.62,0,0,0,2.1,2.54,5.2,5.2,0,0,1,.6,3.76,3.46,3.46,0,0,1-2.79,2.65A2.5,2.5,0,0,1,56.14,55Z"/><path class="cls-26" d="M49,91.87c-.23-2.25,1.19-4.49,0-6.75,1.59-.61,3.11-1.51,4.92-1.16,2.75-.83,4.9-.8,4.36,3.05-.56,1.2-1.83,1.57-2.76,2.34a10.42,10.42,0,0,0-2,1.84,3.27,3.27,0,0,1-1,.93,5.39,5.39,0,0,1-2.59.57A1.84,1.84,0,0,1,49,91.87Z"/><path class="cls-27" d="M61.88,15.06c-2.72-3-6.35-3.08-10-3.08,1.91-1.91,9.67-2.93,11.07-1.25S62.37,13.63,61.88,15.06Z"/><path class="cls-28" d="M61.15,108.13c-2,2.7-.33,5.88-1.18,8.73l-3,0a39.4,39.4,0,0,0-.76-10C58.44,105.17,60.1,105.48,61.15,108.13Z"/><path class="cls-29" d="M49,115c0-3.72-.15-7.45,1-11.07,1.1-.46,2.05-.63,2,1.06l-.09,11.22C50.86,116,49.72,116,49,115Z"/><path class="cls-30" d="M63.83,62.24l-.19,1c-.57,1.63.62,3,.67,4.56a2.35,2.35,0,0,1-3,1.12c-1.86-.69-.83-3.09-2.36-4-1.09-1.83-.78-3.91-1-5.89.14-.21.29-.41.44-.62a4.49,4.49,0,0,1,4.4-.57A3.41,3.41,0,0,1,64.66,61,2.06,2.06,0,0,1,63.83,62.24Z"/><path class="cls-31" d="M90.1,54.13,89,53c-.31-1.1-1.15-2-1.36-3.12a6.73,6.73,0,0,1,.06-1.42,5,5,0,0,1,1.6-2.39A2.3,2.3,0,0,1,92,45.93a3,3,0,0,0,2.86,1c.1,1.8-2.18,3.18-.93,5.19a3.11,3.11,0,0,1,.11.68c-.19.54-.54.65-1,.37Z"/><path class="cls-32" d="M71.93,107.69c2.1,1.18,1.53,3.93,3.17,5.39l-4.2,1.58a3.71,3.71,0,0,1-1.86-1,7.94,7.94,0,0,1-1.6-4.86C68.44,106.32,70.06,106.49,71.93,107.69Z"/><path class="cls-33" d="M28,35c2,2.08,4.69,2,7.29,2.09a22.23,22.23,0,0,1-10.8,1c-3.85-.45-1.09-3.19-.56-5C24.8,34.81,26.34,35.06,28,35Z"/><path class="cls-34" d="M45,62l-.17,3.82c-2.46,2.17-5,2.38-7.53.19-.15-4.39-.75-8.8.67-13.11l.64.29a2.84,2.84,0,0,1,.86,1.85c.2,2.66-.16,5.69,3.93,5.66A2.33,2.33,0,0,1,45,62Z"/><path class="cls-35" d="M42.16,42c3.74,1.68,7.17,0,10.67-1a1.48,1.48,0,0,1,.51,2H53c-1.2,2.08-2.15,4.32-4,6H48c-1.7-2.37-5.93-2.25-6.06-6.17A2,2,0,0,1,42.16,42Z"/><path class="cls-36" d="M101.81,70.05c-.94-.74-.75-1.82-.82-2.82-1-1.42-1-3.17-1.53-4.74a2.2,2.2,0,0,1,.59-1.29c1.6-1.16,3.28-.39,4.93-.2l.86,2a10.77,10.77,0,0,0-.72,1.63c-.33.92.28,1.6.58,2.36a2.56,2.56,0,0,1-.22,1.31C104.69,69.81,104,71.48,101.81,70.05Z"/><path class="cls-37" d="M93.05,53.13l1-.37c2.35.61,5.33-.75,6.9,2.25.17,2.67-.35,4.66-3.76,3.78Z"/><path class="cls-38" d="M79.09,31c0-.31-.11-.61-.18-.92a3.05,3.05,0,0,1,3.26-1.24,16.32,16.32,0,0,1,5.93,4c.43,3.59-3.18,2.16-4.46,3.61-2.19-.34-1.75-3.09-3.51-3.81A2.35,2.35,0,0,1,79.09,31Z"/><path class="cls-39" d="M82.94,36c1.84-.86,4-1.18,5.16-3.18l1,1c-.16,3.26-4.65,2.31-5.12,5.27-2.13,2.35-4.34,3.94-7.07.75A1.72,1.72,0,0,1,77,38.2l4-.24C81.85,37.57,81.06,35.42,82.94,36Z"/><path class="cls-40" d="M47,52.05l-.78,4a5.82,5.82,0,0,1-1.31-.24c-2.3-1.29-5.08-1.75-6.82-4a6.55,6.55,0,0,1,1.71-4c3.33-1.94,4.26,1.13,5.85,2.81C46.08,51.09,46.55,51.56,47,52.05Z"/><path class="cls-41" d="M59.94,78.91c-1.69-3.49-1.15-7.17-.9-10.83,1.41-.83,1.77,1,2.81,1.11a2.66,2.66,0,0,1,1.43,1.39C63.41,72,64.66,73,65,74.35a2.73,2.73,0,0,1-.88,2.54C62.78,77.71,61,77.62,59.94,78.91Z"/><path class="cls-42" d="M35.08,33,34,33.23l.06-.23a5.75,5.75,0,0,1,0-6.84l5.84,1C42.23,32.39,37.2,31.46,35.08,33Z"/><path class="cls-43" d="M47,52.05,45,52a25.31,25.31,0,0,0-4-7c0-.86,0-1.69.93-2.16C43.78,45.1,48.54,44.46,48,49,47.68,50,47.33,51,47,52.05Z"/><path class="cls-44" d="M37.29,66l7.53-.19c0,.68.09,1.36.13,2-1.67,1.85-3.92,1.22-6,1.39C38,68.44,37,67.58,37.29,66Z"/><path class="cls-45" d="M101.81,70.05c1.65-.4,2.48-1.65,3.15-3.06,1.05-.53,1.43.2,1.79,1-1.39,2.54.57,5.77-1.68,8.13-2.68.68-1.73-1.92-2.6-2.87A6,6,0,0,1,102,72Z"/><path class="cls-46" d="M35.08,33c1.24-2.25,4.54-2.77,4.88-5.79a1.84,1.84,0,0,1,2,.58,25.32,25.32,0,0,0,1.29,3.7,4.48,4.48,0,0,1,.39,1.24,2.42,2.42,0,0,1-.46,1.19Z"/><path class="cls-47" d="M41,45c4.17.69,4.06,3.84,4,7-2.46-.5-2.6-3.91-5.25-4.18Z"/><path class="cls-48" d="M74,82a6.33,6.33,0,0,1,5,1.9c-.34,2.16-1.62,3.85-2.85,5.56a3.8,3.8,0,0,1-4.1-1,3.82,3.82,0,0,1-.52-2.17,8.5,8.5,0,0,1,1.76-4Z"/><path class="cls-49" d="M61.32,35.05a.37.37,0,0,1,.43.34c-1.09,3.1-3.68,1.89-5.8,2a3.75,3.75,0,0,1-2.27-1.53c-1-2.33.08-3.35,2.3-3.68l2.94-1.34C60.69,31.69,59.32,34.34,61.32,35.05Z"/><path class="cls-50" d="M97.22,58.79A11.42,11.42,0,0,0,101,55l2.78,4c-.5,1.84-2.46,1.76-3.61,2.76L100,62c-1.92.6-1.66-1.78-2.89-2.11Z"/><path class="cls-51" d="M48,22.75c.21,3.3,2.5,3.36,4.94,3.16l.52.47a4.34,4.34,0,0,1-.37,3.4,2.69,2.69,0,0,1-1.11.86c-2,.18-3-1.23-3.89-2.63C46.51,26.29,46.89,24.53,48,22.75Z"/><path class="cls-52" d="M56,32.18,54,34.9a1.72,1.72,0,0,1-2.11.43c-1.76-1.74-.49-3.28.32-4.85.69-1,.75-2.33,1.42-3.37a1.64,1.64,0,0,1,1.29-.48,2.17,2.17,0,0,1,1.39,1.51C56.48,29.51,55,30.74,56,32.18Z"/><path class="cls-53" d="M76.12,88.75c.38-2,.69-4,2.95-4.86L81.94,86A4.62,4.62,0,0,0,78,89.88C76.78,90.54,76.36,89.8,76.12,88.75Z"/><path class="cls-54" d="M49,49c-.75-3.37,1.48-4.77,4-6l-.3,5.06a1.43,1.43,0,0,0-.54.13c-.64-.14-.67.63-1.13.76Z"/><path class="cls-55" d="M48.06,28l3.82,1.81c1.27,3.44-1.31,4.1-3.6,5a2.88,2.88,0,0,1-2.7-1.51A2.05,2.05,0,0,1,45.85,31C50.46,32.88,47.88,29.42,48.06,28Z"/><path class="cls-34" d="M38.08,51.83c2.93.31,5.75.87,7.8,3.27-.51,1.88-1.22,2.9-3.47,1.69-1.64-.88-3.31-1.5-4.07-3.36l-.38-.5Z"/><path class="cls-56" d="M58.45,82.66l2.39-2.78c2.84-1.09,3.94.17,4,2.92a3.42,3.42,0,0,1-4.24,2.38A2.79,2.79,0,0,1,58.45,82.66Z"/><path class="cls-57" d="M83.94,58h1.4l-3.41,4.77a4,4,0,0,1-3.16-1.13C78.75,58,80.7,57.08,83.94,58Z"/><path class="cls-58" d="M103,46c-1.68-3.05-4.7-1.43-7.08-2a10.66,10.66,0,0,1,6.25-2.88C104,42.48,104.59,44.06,103,46Z"/><path class="cls-59" d="M34.12,26.16c0,2.28,0,4.56,0,6.84-2.94-1-1.34-4.49-3.29-6C31.68,25.79,32.9,26,34.12,26.16Z"/><path class="cls-60" d="M58.45,82.66,59.87,84c1.26,1,1.05,2.19.3,3.4a2.79,2.79,0,0,1-1.92,1.1c-.83-.09-1.41-.43-1.34-1.39.89-2.83-1.14-2.86-3-3.1C55.19,82.64,57,83.09,58.45,82.66Z"/><path class="cls-61" d="M68.86,76l1-2.06c1-.72,1.75-1.84,3.21-1.42A2.1,2.1,0,0,1,74.22,75l-.46,2a2.89,2.89,0,0,1-2.44,1.21,3.13,3.13,0,0,1-2.22-1.58Z"/><path class="cls-62" d="M56.3,28.14,55,27a2.73,2.73,0,0,1-.21-2.72c1-1.7.46-4.71,3.73-4.6l.6.42A20.09,20.09,0,0,1,56.3,28.14Z"/><path class="cls-63" d="M61.32,35.05c-2.22-.59-2.31-2.4-2.4-4.21.67-1.13,1.49-2,3-1.71C61.71,31.11,61.51,33.08,61.32,35.05Z"/><path class="cls-64" d="M103,46l-.84-4.91c3.71.52,2.36,3.86,3.32,5.91Z"/><path class="cls-65" d="M63.91,82.9a3.66,3.66,0,0,0-3.07-3c0-.28.09-.57.13-.85-.32-1.59.77-1.82,1.92-2a4.19,4.19,0,0,1,2.39.37c1.22,1,1.17,2.33,1.11,3.69a3.63,3.63,0,0,1-.5,1.46,1.84,1.84,0,0,1-1.3.73Z"/><path class="cls-66" d="M97.07,59.89c1.29.24,2,1.24,2.89,2.11a10.36,10.36,0,0,1,1,5.23C98.72,65.3,98.32,62.36,97.07,59.89Z"/><path class="cls-67" d="M100.15,61.79c.46-1.9,2-2.37,3.61-2.76L105,61A6,6,0,0,1,100.15,61.79Z"/><path class="cls-68" d="M73.86,79c.06,1,.11,2,.17,3l0,0c-.87,1.59-2,2.6-3.94,1.76a2.68,2.68,0,0,1-1-1.18,2.58,2.58,0,0,1,1-3.24C71.28,78.78,72.53,78.3,73.86,79Z"/><path class="cls-69" d="M74.22,75l-1-2c-1.22-1.35-.3-2.35.56-3.35a1.84,1.84,0,0,1,2.33.41c.29.31.59.62.89.92,0,.32,0,.65-.07,1Z"/><path class="cls-70" d="M102.7,72.13l2.37,4c-.43,1-.6,2.41-2.09,2.39-.76,0-.86-.85-.9-1.51C103.15,75.46,101.56,73.62,102.7,72.13Z"/><path class="cls-71" d="M42,33c-3.14-1.68-.65-3.46-.1-5.2.85.13,1.81.06,2.26,1.06l-.14.67A5.86,5.86,0,0,1,42,33Z"/><path class="cls-71" d="M45.85,31l.1,2c.26,1-.09,1.42-1.13,1.18l-1.66-.31c-.07-.26-.15-.51-.24-.76a7,7,0,0,1,.95-3.85l.33-.46C45.43,29,45.05,30.47,45.85,31Z"/><path class="cls-72" d="M92,45.93l-2.23,1c-1.52.09-1.43-.9-1.3-1.92A2,2,0,0,1,91,44h1.92C92.61,44.65,92.33,45.29,92,45.93Z"/><path class="cls-73" d="M50.89,54c-3.74-1.39-2.24-2.69.07-4a1.38,1.38,0,0,1,.18,2Z"/><path class="cls-74" d="M63.16,78,61,79l-1-.12c.4-1.44-1.24-4.87,2.74-2.82C63.64,76.52,63.56,77.19,63.16,78Z"/><path class="cls-75" d="M61,70.11c-.65-.68-1.29-1.36-1.94-2L59,64.94c2.25-.18,1.81,1.62,2.13,2.87A1.74,1.74,0,0,1,61,70.11Z"/><path class="cls-62" d="M55,18.06c1.71-.36,3.46-2.53,5.1.12l-1,2L58.88,20c-.94-.8-2,.17-2.93-.17a3,3,0,0,1-.94-.76Z"/><path class="cls-76" d="M82.17,28.82l-3.26,1.24-2.49-1.31A5.74,5.74,0,0,1,82.17,28.82Z"/><path class="cls-77" d="M73.86,79c-.76.91-1.58,1.64-2.89,1a2.17,2.17,0,0,1,0-3l2.78.11C73.8,77.69,73.83,78.33,73.86,79Z"/><path class="cls-78" d="M102.7,72.13c.17,1.66.63,3.35-.62,4.83.06-1.66-1.2-3.28-.13-5A5.86,5.86,0,0,0,102.7,72.13Z"/><path class="cls-79" d="M96,50.89c1.34-1.75,2.93-2.27,4.88-1Z"/><path class="cls-70" d="M106.75,68,105,67h0a2.25,2.25,0,0,1,0-3l.91-1C106.15,64.67,106.45,66.31,106.75,68Z"/><path class="cls-80" d="M70,113.83l.87.83-2.63.47-1.22-2.08C68.45,111.77,69.23,112.81,70,113.83Z"/><path class="cls-35" d="M51.14,52,51,50,51,49c.14-.6.38-1,1.13-.76A6.47,6.47,0,0,1,51.14,52Z"/><path class="cls-30" d="M56.14,55,58,56a2,2,0,0,1,.18,2.87l-.24.17A7.66,7.66,0,0,1,56.14,55Z"/><path class="cls-81" d="M80.84,99.85,79.21,102a2.42,2.42,0,0,1-3.74-.94c-1-1.63-2.7-2.35-4.11-3.45a3.37,3.37,0,0,1-.65-2.25,5.4,5.4,0,0,1,.92-2.21,4.42,4.42,0,0,1,3.27-2,2.54,2.54,0,0,1,1.92,1.11C78.35,94.71,81.12,96.47,80.84,99.85Z"/><path class="cls-82" d="M72.11,96.88c4-.49,4.43,3.84,7.1,5.13L78,103.91l-1-.15c-2,.07-2.86-3-5.26-1.92-3.3-.57-5.65-2.11-5.93-5.78C68.25,93.25,70.2,94.91,72.11,96.88Z"/><path class="cls-83" d="M80.84,99.85c-2.36-1.85-3.62-4.43-4.7-7.12a2,2,0,0,1,2.19.11C82.69,93.91,82.38,96.66,80.84,99.85Z"/><path class="cls-84" d="M78.33,92.84l-2.19-.11-1.2-.89A2.17,2.17,0,0,1,72.58,91c-.46-1.34.33-2.09,1.3-2.76l2.24.49L78,89.88Z"/><path class="cls-85" d="M83.94,58c-1.84,1.05-4,1.68-5.17,3.65l-2.85-.79c-1.22-.45-2.43.23-3.65.08a2.68,2.68,0,0,1-2.49-1.46c-.89-2.17-.59-4.6-1.49-6.78.41-2.2,2.08-2.85,4-3.23,4.86,1,7.57,5.36,11.69,7.53Z"/><path class="cls-86" d="M61,70.11l.12-2.3a3.33,3.33,0,0,0,3-.78.55.55,0,0,1,.9-.1A5,5,0,0,1,65,72c-1.31.8-2.07-.17-2.9-.9Z"/><path class="cls-87" d="M63.16,78c-.15-.63-.31-1.25-.47-1.87.45-.66.89-1.33,1.33-2a1.14,1.14,0,0,1,1.77-.16A4.84,4.84,0,0,1,67,77.12a.85.85,0,0,1,.27.69c0,.25-.08.37-.14.37a2,2,0,0,1-1.09.41,1.5,1.5,0,0,1-.94-.65Z"/><path class="cls-88" d="M76.13,70.82,73.83,70c-.37.37-.7.35-1-.13-1-1.68.2-2.72,1.11-3.85a3.33,3.33,0,0,1,3.19.89C77.37,68.36,76.44,69.51,76.13,70.82Z"/><path class="cls-89" d="M72.86,69.87a6.41,6.41,0,0,0,1,.13c-.23,1-.45,2-.67,3l-3.29,1C70.21,72.11,70.86,70.5,72.86,69.87Z"/><path class="cls-90" d="M65,66.93l-.9.1c-2.36-1-2-2.34-.41-3.79C64.83,64.2,65,65.53,65,66.93Z"/><path class="cls-91" d="M76.94,67c-1.13.07-2.42.62-3-1,.9-1.23,1.76-2.81,3.07-.34A.83.83,0,0,1,76.94,67Z"/><path class="cls-92" d="M65.79,73.94,64,74.1a3.64,3.64,0,0,1-1.92-3L65,72Z"/><path class="cls-93" d="M73,60a2.07,2.07,0,0,1,2.93.88,4.83,4.83,0,0,1-3.88,1C71.47,60.78,72.49,60.52,73,60Z"/><path class="cls-94" d="M63.83,62.24l0-1a3,3,0,0,1,.84-1.2c1.39-.51,2.75-1.17,4.31-.69A1.9,1.9,0,0,1,70,61.85Z"/><path class="cls-95" d="M70,61.85,69,60.17a1.54,1.54,0,0,1,.87-1.53A1.06,1.06,0,0,1,71,59l2,1c-.32.62-.64,1.24-.95,1.86Z"/><path class="cls-96" d="M67,78q0-.42,0-.84L68.86,76l.41,0c1.13,1.53,0,3.09.06,4.64a1.68,1.68,0,0,1-1.78,1,2.15,2.15,0,0,1-1.17-.86A2.41,2.41,0,0,1,67,78Z"/><path class="cls-97" d="M76.94,67l.1-1.36c1.61,1.79.31,3.54-.08,5.3l-.83-.16A6.24,6.24,0,0,1,76.94,67Z"/><path class="cls-98" d="M55.11,36.07l6.64-.68L74,36.1q0,.43.12.87a2.41,2.41,0,0,1-.76,2,4,4,0,0,1-1.31.58c-2.47-.15-3.42,2.62-5.65,2.94a34.48,34.48,0,0,0-8.08-1.22c-2.38,0-4.06-1-4.53-3.5A1.51,1.51,0,0,1,55.11,36.07Z"/><path class="cls-99" d="M71.93,107.69c-1.39.7-3.86-.69-4.16,2.13l-.51,0c-1.45-2.76-3.94-1.63-6.12-1.64a9.65,9.65,0,0,0-4.89-1.3L52,105l-2-1.06c-1.84-1.12-1.89-3.39-3.09-4.92.18-1.71-.28-3.56,1-5.07a2.92,2.92,0,0,1,4-.06c2.63,2.2,6,2.37,8.95,3.49a26,26,0,0,1,8.59,3.9c.89,1,2.1.37,3.12.63,2.2.56,2.9,1.81,1.33,3.78C73,106.09,71.88,106.31,71.93,107.69Z"/><path class="cls-100" d="M60,99.93c-4.35-1.4-8.57-3.05-12.14-6l1.11-2a3.59,3.59,0,0,0,.93.1c4.79-1,7.12,3.38,10.72,5C61.57,97.39,60.92,99.05,60,99.93Z"/><path class="cls-101" d="M38.34,53.43c2.62.08,4.49,3.54,7.54,1.67l.33,1c-.41,2,.28,4.2-1.22,6l-1.94,0c-3.58-1-3.15-4.7-4.75-7Z"/><path class="cls-102" d="M53.91,37.27c3.93,2.79,8.78,2.19,13.09,3.58,1.92-1.48,4-.66,6.08-.46,2.55.42,5,1.07,7.58,1.58,2.13.92,4.73.69,6.47,2.59a2,2,0,0,1,.21,1.51,2.88,2.88,0,0,1-2.55,1.45c-1.75.87-4-1-5.54,1-1.52,2.53-4.1,2.11-6.45,2.33a7.37,7.37,0,0,0-3.76,2c1,2.35-.46,4-1.69,5.65a12.45,12.45,0,0,1-2.43,2.38l-1.05.34c-.51-.78-1-1.57-1.52-2.36-2.62-.78-2.09-3-2.3-4.93L59.14,51a6.18,6.18,0,0,1-2.62-3.8A1.43,1.43,0,0,1,57,46a5.68,5.68,0,0,0-3.7-3l-.51-2c.11-1.26.23-2.51.34-3.76C53.41,36.89,53.66,36.86,53.91,37.27Z"/><path class="cls-103" d="M48,34c1.33-1.35,3.69-1.74,3.92-4.14,0-.29.07-.57.12-.85.92-.19,1.38.08,1.12,1.1l-1.17,5c-.43.93-1,1.63-2.15,1.06L48,35.79A1.17,1.17,0,0,1,48,34Z"/><path class="cls-104" d="M49.8,36.13,52,35.07l2-.17,1.12,1.17-1.2,1.2-.37-.06-.37.08C52,36.9,50.67,37.24,49.8,36.13Z"/><path class="cls-105" d="M48,34c0,.61,0,1.22.07,1.83L45.09,35a3.33,3.33,0,0,1-.26-.81L46,33Z"/><path class="cls-106" d="M55,19.06h1c1.4,2-.64,4,0,6-.34.67-.67,1.34-1,2l-.86,0c-.65,0-.95-.42-1.21-.91l0-.25Q54,22.48,55,19.06Z"/><path class="cls-107" d="M67.26,109.77a1,1,0,0,1,.51,0,4.61,4.61,0,0,1,2.26,4l-3-.79C65.28,111.84,65.66,110.76,67.26,109.77Z"/><path class="cls-108" d="M80,43.86l-7-2c-1.27-1-2.38-2.12-1-3.84l1,0c1.71-1.15,2.75.36,4,1,2.32,1.43,4.66.58,7,0,0,.64,0,1.29,0,1.93C83.77,43.51,81.29,42.84,80,43.86Z"/><path class="cls-109" d="M80,43.86A9.59,9.59,0,0,1,84,41c2.61.37,4.69,1.94,7,3l-2.16,1.06a1.38,1.38,0,0,1-1.85.18Z"/><path class="cls-110" d="M73.91,105.64c.16-3.6-4.59-.74-4.9-3.72,1.27-.69,2.64-1.27,3-2.89,2.76.41,3.81,2.6,4.92,4.73Z"/><path class="cls-111" d="M72.8,50.83a10.4,10.4,0,0,1,6.18-3c.43-.31.73-.21.91.28.08,3.56,2.58,6,4.06,8.92C79,57.23,75.34,55,72.8,50.83Z"/><path class="cls-112" d="M79.89,48.09a7.35,7.35,0,0,1-.91-.28l5.11-1.52a8.65,8.65,0,0,1,4.82,3.61A3.78,3.78,0,0,1,89,53C85.69,51.83,83.63,48.41,79.89,48.09Z"/><path class="cls-113" d="M82.94,36l-2,2c0-1,0-2,0-2.93-1.15-1.31-2.36-2.61,0-3.91C84.33,31.61,82.85,34.14,82.94,36Z"/><path class="cls-114" d="M80.91,31.12V35c-1.46-1-5.87-.6-1.82-4.05Z"/><path class="cls-115" d="M77,39l-4-1L74.07,37,77,38.2C77,38.48,77,38.75,77,39Z"/><path class="cls-116" d="M60.05,53.9a10.44,10.44,0,0,1,2.3,4.93,3.78,3.78,0,0,1-4.17.05L58,56Z"/><path class="cls-117" d="M57.08,46.66c.68,1.44,1.37,2.89,2.06,4.33a4,4,0,0,1-3.08-1.93A2.37,2.37,0,0,1,57.08,46.66Z"/><path class="cls-118" d="M57.08,46.66l-1,2.4c-2.73-2,0-2.22,1-3A2.72,2.72,0,0,1,57.08,46.66Z"/><path class="cls-119" d="M72,99a2.78,2.78,0,0,1-3,2.89c-3.32.83-5.66-2.76-9-2-.33-.73-.69-2.12-1-2.11-4.44.16-5.94-4.15-9.11-5.85l1.84-1a4.14,4.14,0,0,1,5.36-.58C60.28,92.31,63.47,94.17,66,97,68.63,95.75,69.17,100.72,72,99Z"/><path class="cls-120" d="M66,97c-2.49-.25-4.78-.64-6.62-2.81A9.11,9.11,0,0,0,51.78,91c.07-.28.14-.56.22-.84.92-1.14,2.48-1,3.58-1.73.76-.49,1.8.24,2.48-.59l.72-.74C60,86.49,61,85,62.64,86.2c1.09,1.22.89,2.94,1.67,4.26,1.09,1.58,2.56.68,3.9.6a3.05,3.05,0,0,1,1.92.85A8.89,8.89,0,0,1,71.92,95c.06.61.13,1.23.19,1.84C70.06,96.72,68,95.4,66,97Z"/><path class="cls-121" d="M58.06,87.8l-2,1.25c-1,.47-1.88.8-1.94-.83a3.74,3.74,0,0,1,2.8-1.16Z"/><path class="cls-122" d="M54.11,88.22l1.94.83c-1.2.94-2.64,1-4,1.07A3.11,3.11,0,0,1,54.11,88.22Z"/><path class="cls-123" d="M88.91,49.9c-2.29-.29-3.57-1.93-4.82-3.61l2.85-.21c1.66.25,1.61,1.67,2,2.83C88.89,49.24,88.9,49.57,88.91,49.9Z"/><path class="cls-124" d="M88.89,48.91l-2-2.83c0-.28,0-.55,0-.83l1.85-.18,1,1.84Z"/><path class="cls-125" d="M38.3,55.05c2.61,1.65,4.86,3.54,4.75,7-.64,1.53-1.81,2.4-3.41,1.93-1.78-.53-1.56-2.25-1.57-3.66C38.06,58.59,38.21,56.82,38.3,55.05Z"/><path class="cls-45" d="M104.93,64l0,3C103.68,66,102.7,65,104.93,64Z"/><path class="cls-126" d="M43.87,29.28a4.8,4.8,0,0,1-.95,3.85A3.27,3.27,0,0,1,42,33C42.09,31.45,42.39,30.08,43.87,29.28Z"/><path class="cls-127" d="M73,86l-.1,1.81a2.22,2.22,0,0,1-2.76.91,3.75,3.75,0,0,1-1.87-2.42,3,3,0,0,1,.11-1.54,2.34,2.34,0,0,1,1.81-1.26C72,83.34,73,84.07,73,86Z"/><path class="cls-128" d="M73,86c-.9-.8-1.53-2-2.91-2.1q-.29-.32-.15-.57c.09-.17.16-.25.24-.25L74,82C73.9,83.38,74,84.86,73,86Z"/><path class="cls-129" d="M70,88l2.83-.18,1,.42c-.31.87-.62,1.74-.94,2.62a1.57,1.57,0,0,1-1.16.55,3,3,0,0,1-2.07-1.58,2.35,2.35,0,0,1-.11-1.31Z"/><path class="cls-130" d="M52.94,26.16l1.21.91c-.34,1-.68,2-1,3L52,29C52.31,28,52.63,27.1,52.94,26.16Z"/><path class="cls-131" d="M62.11,87c-1.13-.63-2.23-.07-3.33.11.36-1,.72-2.08,1.09-3.11a6.29,6.29,0,0,0,4-1l.2.2c1,.78,1.86,1.58,1.5,3a2.38,2.38,0,0,1-2.27,1.51A2.35,2.35,0,0,1,62.11,87Z"/><path class="cls-132" d="M68.78,80.09c-1.1-1.52.15-2.75.48-4.1l1.72,1c0,1,0,2,0,3-.3,0-.61.05-.91.06A.74.74,0,0,1,68.78,80.09Z"/><path class="cls-52" d="M56,25c-1.58-2-.34-4,0-6,1.22-.47,2.41-.87,2.88.94C57.07,21.19,57.21,23.49,56,25Z"/><path class="cls-133" d="M65,86l-.87-2.88c.29-.07.59-.14.89-.19a2.12,2.12,0,0,1,1.28-.3,2.4,2.4,0,0,1,1.55,1.25,6,6,0,0,1,.2,1.39c0,.47.12.94.2,1.41A2.31,2.31,0,0,1,67,89.08C64.66,89.12,65,87.45,65,86Z"/><path class="cls-96" d="M65.1,77.94c.32,0,.64,0,1,0,.76,1.11.4,2.32.3,3.51a.93.93,0,0,1-1.24.23Z"/><path class="cls-134" d="M65.12,81.73A6.69,6.69,0,0,1,66,82l.3.26v.41L66,83l-1-.06Z"/><path class="cls-135" d="M70.13,83.11c0,.27-.07.54-.09.82L69,85a2.39,2.39,0,0,1-.86-1.12,2.29,2.29,0,0,1,.57-2A1,1,0,0,1,70,82Z"/><path class="cls-136" d="M70,82H69a.82.82,0,0,1-1.13.13A.84.84,0,0,1,68,81l.81-.89,1.28,0Z"/><path class="cls-137" d="M72.12,90.91c.27,0,.55,0,.82,0l2,1-2.06,1.91c-.36.62-.78.67-1.27.15A2.18,2.18,0,0,1,72.12,90.91Z"/><path class="cls-138" d="M72.26,93.76a1.84,1.84,0,0,1,.62,0l-1,1.29c-1.46,0-2.52-.45-2.76-2.05C70.45,92.2,71.26,93.37,72.26,93.76Z"/><path class="cls-139" d="M65.9,57.89A12,12,0,0,1,69,52.82c2.49,1.48,1.9,3.94,1.95,6.2H69.58C68,60,66.61,60,65.9,57.89Z"/><path class="cls-3" d="M66,82c0-1.35.06-2.69.08-4L67,78c0,1,0,2,0,3.05a.56.56,0,0,1,.35.56c0,.23-.08.35-.15.35a.87.87,0,0,1-1,0Z"/><path class="cls-140" d="M65.9,57.89,69.59,59c-.2.38-.38.76-.57,1.15l-4.1.68C65.05,59.8,64.8,58.62,65.9,57.89Z"/><path class="cls-141" d="M67,82c0-.34,0-.68,0-1,.33,0,.65,0,1,0,0,.33,0,.65,0,1l-.44.27Z"/><path class="cls-142" d="M72,38.06c.33,1.28.65,2.56,1,3.84l-6-1C67.28,37.41,69.47,37.43,72,38.06Z"/><path class="cls-143" d="M63.88,43.43c2.56,1.26,7.55-.09,7.72,3.07.11,1.94-4.52,5.12-7.49,5.82-1.3.31-2.56-4.77-3.23-7.53C60.41,42.83,62.49,43.37,63.88,43.43Z"/><path class="cls-144" d="M72.26,93.76,69.16,93l-.9-.92a2,2,0,0,1-2,.29c-1-.83-.59-1.67,0-2.5a8.38,8.38,0,0,1,1.81-1,4,4,0,0,1,2,.06,2.13,2.13,0,0,1,2.11,2C72.17,91.86,72.21,92.81,72.26,93.76Z"/><path class="cls-145" d="M65.88,91.88l2.38.19c-.41,1.14-.22,3.12-2.26,2.37-1.52-.55-4.41.76-4.23-2.62A3.48,3.48,0,0,1,64.66,91,2.5,2.5,0,0,1,65.88,91.88Z"/><path class="cls-146" d="M65.31,91.93l-3.54-.11c.11-1.62.22-3.25.34-4.87l1,0A5.26,5.26,0,0,1,65.31,91.93Z"/><path class="cls-147" d="M69,85.63,70,88h0a2.46,2.46,0,0,1-1.12.58,2,2,0,0,1-1.17-.44,1.89,1.89,0,0,1-.12-1.24,3.15,3.15,0,0,1,.71-1.05Z"/><path class="cls-148" d="M69,84c0,.33,0,.66,0,1s0,.44,0,.65v.46l-.6.34-.59-.35c-.24-.39-.46-.79-.67-1.2,0-.28-.08-.55-.14-.83l.41-.46A1.35,1.35,0,0,1,69,84Z"/><path class="cls-149" d="M69.14,88.11a2.59,2.59,0,0,1,.92-.08c0,.3,0,.6,0,.9l-.92,1A1.09,1.09,0,0,1,69.14,88.11Z"/><path class="cls-150" d="M65.31,91.93c-1.31-1.39-2.55-2.82-2.17-5L65,86l2,3,.41.39-.26.51-1.2,2A3.66,3.66,0,0,0,65.31,91.93Z"/><path class="cls-151" d="M68.05,86.84l0,1.21c.32.88,0,1.13-.81.76l-.26.19.21-2.68c.07-.5.34-.68.82-.53l.11.44Z"/><path class="cls-152" d="M68,85.79a6.38,6.38,0,0,1-.82.53c0-.48,0-1,0-1.44Z"/><path class="cls-134" d="M67,84.05,66,83h0a.78.78,0,0,1,1.1-.23A.92.92,0,0,1,67,83.91Z"/><path class="cls-153" d="M67,83l-.5,0H66c0-.34.11-.69.16-1L67,82l.22.17.09.46Z"/><path class="cls-154" d="M67,83a2.83,2.83,0,0,0,.25-.76A1.93,1.93,0,0,0,68,82l1,0c0,.66,0,1.33,0,2l-2-.08C67,83.59,67,83.28,67,83Z"/><path class="cls-155" d="M67.19,88.81l.81-.76,1.14.06c0,.62,0,1.24,0,1.87l-2-.08C67.11,89.54,67.15,89.17,67.19,88.81Z"/><path class="cls-156" d="M68.05,86.84a2.49,2.49,0,0,0,0-.61,1.29,1.29,0,0,1,.88-.14Z"/></svg>