<svg id="Layer_1" data-name="Layer 1" xmlns="http://www.w3.org/2000/svg" viewBox="0 0 128 128"><defs><style>.cls-1{fill:#303740;}.cls-2{fill:#fcfcfc;}.cls-3{fill:#f5fbfb;}.cls-4{fill:#064256;}.cls-5{fill:#f3fefe;}.cls-6{fill:#f4f8f4;}.cls-7{fill:#052e4b;}.cls-8{fill:#c3e5d6;}.cls-9{fill:#406d2b;}.cls-10{fill:#738e82;}.cls-11{fill:#11642e;}.cls-12{fill:#1b5e2c;}.cls-13{fill:#cef0e9;}.cls-14{fill:#2b3625;}.cls-15{fill:#c2ebf2;}.cls-16{fill:#5c812c;}.cls-17{fill:#bee8ee;}.cls-18{fill:#81998b;}.cls-19{fill:#a9b488;}.cls-20{fill:#dbf0e1;}.cls-21{fill:#135f2c;}.cls-22{fill:#245e28;}.cls-23{fill:#1e3c4b;}.cls-24{fill:#8ca393;}.cls-25{fill:#c5f1f5;}.cls-26{fill:#404b4b;}.cls-27{fill:#ede7e0;}.cls-28{fill:#dcfbf4;}.cls-29{fill:#b8c0a1;}.cls-30{fill:#c2f1f7;}.cls-31{fill:#8b9980;}.cls-32{fill:#eefbfb;}.cls-33{fill:#82a335;}.cls-34{fill:#283845;}.cls-35{fill:#52772d;}.cls-36{fill:#b5dde2;}.cls-37{fill:#e5e9e5;}.cls-38{fill:#aaa587;}.cls-39{fill:#f0ede9;}.cls-40{fill:#d5ead9;}.cls-41{fill:#38424c;}.cls-42{fill:#ebe4dd;}.cls-43{fill:#f9f9f8;}.cls-44{fill:#fcfbf9;}.cls-45{fill:#b2b59f;}.cls-46{fill:#539896;}.cls-47{fill:#00243c;}.cls-48{fill:#93975f;}.cls-49{fill:#48514d;}.cls-50{fill:#435d63;}.cls-51{fill:#aeb98f;}.cls-52{fill:#a8a58a;}.cls-53{fill:#808986;}.cls-54{fill:#ccc1af;}.cls-55{fill:#05374d;}.cls-56{fill:#f7d6bc;}.cls-57{fill:#b9f3f6;}.cls-58{fill:#decab4;}.cls-59{fill:#c5eefe;}.cls-60{fill:#c9f0f5;}.cls-61{fill:#d0f3f3;}.cls-62{fill:#c7f0f5;}.cls-63{fill:#caf1f2;}.cls-64{fill:#90cad3;}.cls-65{fill:#e5fefe;}.cls-66{fill:#6697aa;}.cls-67{fill:#0a3e52;}.cls-68{fill:#f6fefe;}.cls-69{fill:#dffcfc;}.cls-70{fill:#fdfefe;}.cls-71{fill:#defdf7;}.cls-72{fill:#eafefe;}.cls-73{fill:#c4ecee;}.cls-74{fill:#bee3e2;}.cls-75{fill:#17291f;}.cls-76{fill:#dcfcf7;}.cls-77{fill:#608231;}.cls-78{fill:#5a7738;}.cls-79{fill:#406b34;}.cls-80{fill:#5c7a71;}.cls-81{fill:#84b1b8;}.cls-82{fill:#1d3b3e;}.cls-83{fill:#aca960;}.cls-84{fill:#85987b;}.cls-85{fill:#001a24;}.cls-86{fill:#002226;}.cls-87{fill:#256e36;}.cls-88{fill:#1d7133;}.cls-89{fill:#366637;}.cls-90{fill:#2d6c37;}.cls-91{fill:#346d37;}.cls-92{fill:#838a8a;}.cls-93{fill:#3c492c;}.cls-94{fill:#829d3a;}.cls-95{fill:#6b8e32;}.cls-96{fill:#69b1b4;}.cls-97{fill:#68a29f;}.cls-98{fill:#3c6b65;}.cls-99{fill:#00222a;}.cls-100{fill:#1c3a4a;}.cls-101{fill:#384045;}.cls-102{fill:#9da15d;}.cls-103{fill:#494e2f;}.cls-104{fill:#29706d;}.cls-105{fill:#000012;}.cls-106{fill:#3c6271;}.cls-107{fill:#68867e;}.cls-108{fill:#f1fcfc;}.cls-109{fill:#dcfbfc;}.cls-110{fill:#b5e2e5;}.cls-111{fill:#7e9c91;}.cls-112{fill:#5b8179;}.cls-113{fill:#89bbb7;}.cls-114{fill:#eefefe;}.cls-115{fill:#d7fefe;}.cls-116{fill:#ecfefe;}.cls-117{fill:#e3fefe;}.cls-118{fill:#b7eef4;}.cls-119{fill:#bff0f2;}.cls-120{fill:#669e94;}.cls-121{fill:#90b8af;}.cls-122{fill:#a1dde1;}.cls-123{fill:#7aa89f;}.cls-124{fill:#8ecac9;}.cls-125{fill:#aacfc7;}.cls-126{fill:#b9e7e7;}.cls-127{fill:#00141a;}.cls-128{fill:#34452b;}.cls-129{fill:#37482f;}.cls-130{fill:#ecfbfa;}.cls-131{fill:#dffaf7;}.cls-132{fill:#e8fefe;}.cls-133{fill:#cefbfc;}.cls-134{fill:#f5fefe;}.cls-135{fill:#183225;}.cls-136{fill:#7c9a39;}.cls-137{fill:#497239;}.cls-138{fill:#123f57;}.cls-139{fill:#779791;}.cls-140{fill:#002235;}.cls-141{fill:#6c7c5d;}.cls-142{fill:#4e634f;}.cls-143{fill:#001820;}.cls-144{fill:#05322a;}.cls-145{fill:#072d27;}.cls-146{fill:#499089;}.cls-147{fill:#012;}.cls-148{fill:#86c3c0;}.cls-149{fill:#9bd6d9;}.cls-150{fill:#94d2d4;}.cls-151{fill:#244743;}.cls-152{fill:#0d2721;}.cls-153{fill:#304b33;}.cls-154{fill:#d8fefe;}.cls-155{fill:#abe5ea;}</style></defs><path class="cls-1" d="M46.27,67.92c-1.76,2.19-3.41,4.48-5.3,6.55-2.09,2.3-4.69,2.91-6.87.35s-6.45-5.18-3-9.23c5.07-5.86,9.56-12.33,15.88-17,1.76-1.3,1-1.85.1-3Q36.78,32.88,26.54,20.05C23.44,16.16,24.72,9.38,29,6.77c2.62-1.59,4.26-.1,5.85,1.92C41,16.49,47.31,24.19,53.43,32c1.64,2.1,3.06,3.51,5.44,1.09a.92.92,0,0,1,.44-.22C71.58,31,76.56,19.84,84.48,12.53c3.07-2.84,5.17-3.35,7.86-.54a70,70,0,0,1,5.55,7c1.59,2.16.81,3.93-1,5.67-4.43,4.28-8.77,8.65-13.09,13-1,1-2.42,1.76-2.16,3.65,1.27,9.11.45,18.37,2.59,27.48a36.46,36.46,0,0,0,7.33,15c4.29,5.48,4.17,13.71,4.8,20.9.24,2.75-2.7,4.78-5.26,6.19a89.72,89.72,0,0,1-27.59,9.84C56.1,122,49.72,119.26,45,113.32a33.44,33.44,0,0,1-7.64-21.61,14.64,14.64,0,0,1,6.13-11c4.68-3.29,3.86-7.46,4.6-11.56Z"/><path class="cls-2" d="M52,42.9c-1.72.7-2.88.76-4.33-1.14q-9.13-12-18.86-23.45c-2.07-2.47-1.9-4.25.29-6.23,2.78-1.61,3.34,1.67,5.1,2.3,1,1.13,1.15,2.86,2.51,3.76.53.69,1.34,1.06,1.91,1.7.74,2.09,2.72,3.26,3.82,5.08.59,1.42,1.65,2.54,2.34,3.9a5.51,5.51,0,0,0,1.65,2.61,16.29,16.29,0,0,1,2.27,2.12,25.38,25.38,0,0,0,2,2.37c1,1.4,2.18,2.77,2.33,4.62a3.32,3.32,0,0,1-.52,1.94Z"/><path class="cls-3" d="M67.84,34.2c6.77-5.31,11.48-12.65,18-18.22,1.59-.55,2.26.42,2.76,1.68.18,1.61-.69,2.76-1.67,3.85a51.39,51.39,0,0,0-5,5.37C80.77,29,79.6,31.17,77.62,32.7s-3.16,3.54-5.05,5c-1.59,1.12-2.61,2.83-4.12,4-1.81,1.28-3.29,3.22-5.87,3a3.32,3.32,0,0,1-1.27-.61c-1.4-1.47-1.16-3-.13-4.55C63.18,37.52,64.67,34.83,67.84,34.2Z"/><path class="cls-4" d="M79,49c-1.42,5,1.23,9.7,1.43,14.6.06,1.47.39,2.93.59,4.4-1,1.12-.14,2.83-1.3,3.88a2.34,2.34,0,0,1-1.31.53,4.25,4.25,0,0,1-2-.8c-1.91-1.88-3.73-3.81-4-6.66a2.53,2.53,0,0,1,.59-1.27c5-2,5.29-5.07.92-10.11-.87-1.76-4.37-1-3.94-4C74.71,45.36,76.68,45.23,79,49Z"/><path class="cls-5" d="M54.83,60,56,58.05A1,1,0,0,1,57.29,58a4.86,4.86,0,0,1,.85,3.74c-.3,4,1.06,7,5.12,8.27a1,1,0,0,1-.45,1.14c-1.37.66-2.72.22-3.55.3,1,0,2.46.55,3.87-.58a1.07,1.07,0,0,1,.9-.25c1.42.41,1.2,1.24.53,2.16-.29.41-1.18.65-1.11.75,1.71,2.4,1.14,2.89-2.76,2.37-.55-.08-1.09-.72-1.67-.06.56-.53,1,0,1.42.22a2.68,2.68,0,0,1,.08,2.76c-1.85,1.78-4.1.93-6.22,1a2.26,2.26,0,0,1-1.61-1.22c-.25-1.58.54-3.07.4-4.64.7-3.64.37-7.28,0-10.92C53.36,61.79,54.53,61.12,54.83,60Z"/><path class="cls-6" d="M52.93,56c.2.86,1.26,1.67,0,2.57-5.11,3.81-9.11,8.78-13.65,13.18-2,1.93-3.21,1.88-4.21-.72.12-2,2-2.89,2.74-4.48s2.15-2.76,3-4.31a9.5,9.5,0,0,1,2-2.62c2-.69,4.37-.5,5.74-2.56C49.85,56,51.12,54.86,52.93,56Z"/><path class="cls-7" d="M79,49c-3.58-4-6.09,1-9.19,1.09-1.48.11-2.13-.72-2.35-2,.31-2.31,2.49-3.13,3.72-4.7,1.35-1.12,2.26-2.72,3.82-3.62a.9.9,0,0,1,1,.59C80.17,42.14,78.79,45.85,79,49Z"/><path class="cls-8" d="M48.18,85c1.5-1.4.21-3.76,1.77-5.13A2,2,0,0,1,51.46,81c.38,1.27.62,2.59,1,3.89.74,2.13,1.14,4.36,2.08,6.45s1.09,4.43-1.37,6a2.19,2.19,0,0,1-1.57-.19C46.21,91.51,45.74,89.83,48.18,85Z"/><path class="cls-9" d="M63,117c-4.12,1.7-7.68.22-11.13-1.94a9,9,0,0,1,.93-2.19,4.51,4.51,0,0,1,2.11-2.26c1.36-.35,2.53.52,3.83.57a9.14,9.14,0,0,1,1.27.23c1.6.59,3.45.2,5,1.21a2,2,0,0,1,.45,1.23C65.3,115.38,63.87,116,63,117Z"/><path class="cls-10" d="M56.9,57.57a3.64,3.64,0,0,0-.86.48c-.68-.74-1.37-1.48-2-2.23-1.55-2,1.61-3.1,1-5A4.85,4.85,0,0,1,56.47,47a2.06,2.06,0,0,1,1.32-.37,3.94,3.94,0,0,1,1.94,1.92c.44.77.8,1.6,1.17,2.41.35,2,2.29,3.31,2.46,5.42a2.46,2.46,0,0,1-.77,1.18A5.53,5.53,0,0,1,56.9,57.57Z"/><path class="cls-11" d="M92,98.84c3.22,4.27,2.51,6.47-3,9.17a3.26,3.26,0,0,1-4.24-.82c-.38-2.34,1.19-2.94,3-3.33,2-.48,0-1.08,0-1.62a2.41,2.41,0,0,1-.21-1.32,3.73,3.73,0,0,1,3.13-2.58A2.77,2.77,0,0,1,92,98.84Z"/><path class="cls-12" d="M80,112.05A24.24,24.24,0,0,1,68,116c.16-2.78,2.86-3.63,4.2-5.52a13.16,13.16,0,0,1,2.69-1.92,18.48,18.48,0,0,1,4.7-.09,2,2,0,0,1,1,.93A2.5,2.5,0,0,1,80,112.05Z"/><path class="cls-13" d="M53.9,62.78c1,3.73,2.18,7.45.12,11.21-1.48,1.17-2.24.19-2.94-1l1-7.92C52.79,64.41,52.17,62.66,53.9,62.78Z"/><path class="cls-14" d="M48.18,85c-1.56,4.91,2.12,8.11,3.92,11.92-5.31,0-6.89-1.59-8.19-8.11A2.93,2.93,0,0,1,46,86Z"/><path class="cls-15" d="M85.84,21,88,18.11c.81-1.16,1.14-2.79,2.91-3L93,19c.39,3.3-1.81,4.53-4.38,5.47C87,24.25,86.43,23,86,21.68Z"/><path class="cls-16" d="M46.91,110a24.89,24.89,0,0,1-4.74-8.07,3.44,3.44,0,0,1,3-1.44,2.64,2.64,0,0,1,2,1.71,6.76,6.76,0,0,1,.39,1.23,6.71,6.71,0,0,0,2.16,3,4.17,4.17,0,0,1,1,1.76,2.71,2.71,0,0,1-1.42,3C48.07,111.59,47.59,110.61,46.91,110Z"/><path class="cls-17" d="M88.05,24A16.47,16.47,0,0,0,93,19c2.94,3,2.71,3.58-2.87,7.15-1.06.55-1.76,0-2.36-.79A1.34,1.34,0,0,1,88.05,24Z"/><path class="cls-5" d="M77,70.91l1.88,1.23c1.74.8,1.76,2.9,3,4-.46,1.49,1.29,2.27,1.18,3.65a2,2,0,0,1-1.78,1A3.86,3.86,0,0,1,80,80.54c-1.53-1.12-2.46-2.81-3.83-4.1a5.14,5.14,0,0,1-1.07-2.68A2.67,2.67,0,0,1,77,70.91Z"/><path class="cls-18" d="M57,47,55.94,51c-.47.73-.91,1.54-2,1.06.49-2.56-2.82-4.31-1.51-7.05,1.79-1.63,3.45-1.58,5,.39A1.61,1.61,0,0,1,57,47Z"/><path class="cls-19" d="M67.84,34.2C65.59,35.84,64.6,38.74,62,40a.8.8,0,0,1-1.15.21A5,5,0,0,1,59.94,37C61.64,33.4,64.85,34.13,67.84,34.2Z"/><path class="cls-20" d="M52.93,56c-1.67,0-2.57,1.32-3.8,2.08L48.47,58c-1.39-.62-3.13.23-4.37-1,2.46-5.41,3-5.54,7.89-2.08.95-.17,1.35.21,1.19,1.17Z"/><path class="cls-21" d="M80,112.05,80,109c.37-1.61,1.65-2,3-2.23a6.55,6.55,0,0,1,2,.22L89.06,108A18.2,18.2,0,0,1,80,112.05Z"/><path class="cls-22" d="M73,111a13.08,13.08,0,0,1-5,5c-1.43,1.5-3.28.81-5,1a3.19,3.19,0,0,1,2-3.08c1.7-1.71,3.9-2.59,6-3.58A2.11,2.11,0,0,1,73,111Z"/><path class="cls-23" d="M92,98.84l-1,0c-1.53-1.1-2-2.75-2.27-4.47A27.82,27.82,0,0,1,89,88.78,2.64,2.64,0,0,1,90,87c1.56-.6,2,.09,2,1.59C92,92,92,95.41,92,98.84Z"/><path class="cls-24" d="M61,40l1,0a3,3,0,0,0-.07,4c-1.78,2-3.7,1.16-5.61.3-1.5-1.46.08-3-.16-4.53a6.19,6.19,0,0,1,.75-1.8l1.18,0A4.81,4.81,0,0,1,61,40Z"/><path class="cls-25" d="M87.88,25l2.27,1.12c-1.77,2-2.89,4.77-6,5.17A2,2,0,0,1,82.56,30a2.89,2.89,0,0,1,.06-1.4,8.53,8.53,0,0,1,3.95-3.9A1.47,1.47,0,0,1,87.88,25Z"/><path class="cls-26" d="M46,86l-1,2.89a6.72,6.72,0,0,1-.86.91,4.54,4.54,0,0,1-3,.86A2.25,2.25,0,0,1,40.06,90a62.15,62.15,0,0,1,3.58-5.25C46,82,45.87,84.34,46,86Z"/><path class="cls-27" d="M34,15.1c-2.42.25-2.67-3-5-3,.66-3.1,1.75-4.2,3.9-.89.88,1.34,1.87,2.6,2.81,3.89A1.15,1.15,0,0,1,34,15.1Z"/><path class="cls-28" d="M51.08,73,54,74a2.94,2.94,0,0,1-1,4c-1,.82-.66,2.52-2.07,3l-1-1.17A17.2,17.2,0,0,1,51.08,73Z"/><path class="cls-29" d="M38.87,67c-.17,2.35-2.38,2.82-3.75,4.07-1.87-2-1.39-3.69.82-5.08A2.13,2.13,0,0,1,38.87,67Z"/><path class="cls-30" d="M83,30l1.14,1.28C84,34,81.65,34.8,80,36.19a2.46,2.46,0,0,1-1.61-3.08C79.3,31.19,80.41,29.5,83,30Z"/><path class="cls-31" d="M56,43.18c1.8,1.46,3.93.61,5.91.88l.29-.11a1.48,1.48,0,0,1,0,1.36,4,4,0,0,1-2.44,1.5A3.36,3.36,0,0,1,57.11,46c-1.35-1.41-3.1-.83-4.7-.94-.14-.71-.28-1.42-.43-2.14l0,.1a3.06,3.06,0,0,1,2.9-.81A2.2,2.2,0,0,1,56,43.18Z"/><path class="cls-32" d="M90.93,15.09c-.71,1.26-1.05,2.87-2.91,3A3.93,3.93,0,0,0,85.82,16C87.3,14.43,88.4,10.67,90.93,15.09Z"/><path class="cls-33" d="M45,101c-.72,1-1.78,1-2.84.92a6.85,6.85,0,0,1-1.34-4,4.45,4.45,0,0,1-.12-2.86c2.78-.79,2.95,1.83,4.14,3.14C45.24,99.14,45.68,100.05,45,101Z"/><path class="cls-34" d="M90,87l0,2c-1.44.77-2.42-.32-3.54-.86a5.4,5.4,0,0,1-1.84-1.81A2.81,2.81,0,0,1,84.37,85c.07-.2.15-.41.23-.61l.51-.41C87.88,83.12,89.09,84.78,90,87Z"/><path class="cls-35" d="M46.91,110,49,111c3.19-1.56,3.46,1.73,5,3L51.9,115A7,7,0,0,1,46.91,110Z"/><path class="cls-36" d="M76,40.35a3.61,3.61,0,0,0-.77-.24c-1,.47-1.38-.13-1.72-.88-.07-2.48,1.37-3.8,3.51-4.59,1.45.2,2.35.89,2.24,2.5Z"/><path class="cls-37" d="M52,40.94,50,35.7c.09-.81.39-1.31,1.31-.94l2.46,2.35C55.11,39.29,55.12,40.86,52,40.94Z"/><path class="cls-38" d="M38.87,67a4.09,4.09,0,0,1-2.93-1L39,62c1.38-.63,2.33.11,3.22,1Z"/><path class="cls-39" d="M44.21,29.11c-1.79-.73-2.26-2.21-2.27-4a1.09,1.09,0,0,1,1.56-.3l3.85,5a1.71,1.71,0,0,1-1.1.75C45.13,30.72,44.59,30,44.21,29.11Z"/><path class="cls-40" d="M49.13,58.07c-1.41,2.67-3.51,3.2-6.16,2-.78,1.19-1.63,2.16-3.12.93,1-1.54,1.7-3.37,4-3.25,1.65.84,3.43-1.22,5,.23Z"/><path class="cls-41" d="M52,40.94c1.32-.94,2.61-1.89,1.82-3.83,1,.32,1.67,2,3.11.92.08.62.15,1.25.22,1.87-.19,1.37-1.18,2.18-2.11,3L51.93,43Z"/><path class="cls-42" d="M43.5,24.85l-1.55.3c-2.13-1.06-3.65-2.6-3.89-5.1A1.11,1.11,0,0,1,39.74,20Z"/><path class="cls-43" d="M46.24,30l1.11-.15C48.24,31,49.14,32,50,33.05c.17,1.76-.74,1.59-1.86,1.05a3.76,3.76,0,0,1-2.15-2A1.25,1.25,0,0,1,46.24,30Z"/><path class="cls-44" d="M34,15.1l1.76,0,2.29,3c.05,1.7-.82,1.6-1.95,1C34.33,18.34,34,16.84,34,15.1Z"/><path class="cls-45" d="M48.91,58c-1.68,0-3.48,2.22-5-.23A.55.55,0,0,1,44.1,57C45.84,56.63,48.16,53.52,48.91,58Z"/><path class="cls-46" d="M83.91,81.93,85.11,84l-.18-.06c-1.66,1.78-3.35,3.17-5.38.44a2.7,2.7,0,0,1,2.08-3.11A2.83,2.83,0,0,1,83.91,81.93Z"/><path class="cls-47" d="M82,76.18c-2.63-.13-3.12-1.88-3-4l.27-.1A2.57,2.57,0,0,1,81,72C82.37,73.14,81.88,74.72,82,76.18Z"/><path class="cls-48" d="M53.18,56.05,52,54.88l1.93-2.79,2-1.06c.58,2.1-1.61,3.07-1.95,4.79C53.72,55.91,53.45,56,53.18,56.05Z"/><path class="cls-49" d="M41.08,95.12c-.09.95-.17,1.9-.25,2.84-1.55-2.53-.51-5.31-.77-8h1a3.61,3.61,0,0,1,1.55,1.91,3.34,3.34,0,0,1,0,1.26C42.4,94.05,41.64,94.51,41.08,95.12Z"/><path class="cls-50" d="M53.9,62.78l-1.83,2.31c-.52-2.48.46-4.15,2.76-5.12Z"/><path class="cls-51" d="M61,40a2.89,2.89,0,0,1-2.94-1.93L59.94,37C61.42,37.57,61.82,38.56,61,40Z"/><path class="cls-52" d="M39.85,61,43,60c.32,1.15-.32,2-.81,3L39,62A.9.9,0,0,1,39.85,61Z"/><path class="cls-53" d="M79.24,37.14A3.45,3.45,0,0,0,77,35a1.71,1.71,0,0,1-.19-2.12,1.68,1.68,0,0,1,2.11.19c.35,1,.69,2.08,1,3.13C79.73,36.5,79.48,36.82,79.24,37.14Z"/><path class="cls-54" d="M48.18,34.1A1.84,1.84,0,0,0,50,33.05l1.3,1.71c-.43.32-.87.63-1.31.94C48.65,36.06,48.12,35.41,48.18,34.1Z"/><path class="cls-55" d="M81,72c-.57,1-1.21.33-1.83.08.59-1.34.55-3,1.8-4Z"/><path class="cls-56" d="M36.13,19.08l1.95-1L39.74,20l-1.69.07C37.28,20,36.5,20,36.13,19.08Z"/><path class="cls-57" d="M83.91,81.93,82,82c-.8-.42-1.56-.85-1.12-2l2.25-.17C84.23,80.22,84.1,81.06,83.91,81.93Z"/><path class="cls-58" d="M46.24,30,46,32.09c-3.48.77-1.42-1.86-1.82-3Z"/><path class="cls-59" d="M87,24.89A10.33,10.33,0,0,1,83,29.05c-2.43.17-1.81-1.62-1.9-3,1.12-2.13,3-3.58,4.75-5.08l.24.15C86.57,22.36,88.09,23.3,87,24.89Z"/><path class="cls-60" d="M81.09,26.09c.63,1,1.26,2,1.9,3,0,.32,0,.64,0,1l-4,3.05L77,33a.63.63,0,0,1-.3-.69c.08-.24.17-.36.25-.36Z"/><path class="cls-61" d="M62,45c.06-.36.13-.72.19-1.08,2.54.22,3.53-2.57,5.75-3A2.76,2.76,0,0,1,69,43.06a4,4,0,0,1-2.52,3.83,5.36,5.36,0,0,1-3.14.24A3.31,3.31,0,0,1,62,46.4,1,1,0,0,1,62,45Z"/><path class="cls-62" d="M76.92,31.91c0,.35,0,.7,0,1.05,0,.68,0,1.35,0,2L74,39a1,1,0,0,1-1.15.22,2.48,2.48,0,0,1-.93-2.3C73.67,35.37,74.38,32.72,76.92,31.91Z"/><path class="cls-63" d="M71.88,36.94A2.39,2.39,0,0,1,73,39c0,2.19-1.27,3.5-3,4.49a1.89,1.89,0,0,1-2-.5l0-2C69.27,39.63,69.62,37.37,71.88,36.94Z"/><path class="cls-64" d="M74.15,52.9C77.21,54.11,80,62.22,78,64.33c-1.72,1.86-3.32-.66-5-.26a2,2,0,0,1-1.25.49A3.33,3.33,0,0,1,70.46,64c-1.33-1.54-3.24-2.8-2.66-5.31,3.32-.59,3.8-3.62,5.07-6A1.21,1.21,0,0,1,74.15,52.9Z"/><path class="cls-65" d="M77,70.91,76,74.08c-1.28.47-2-.49-2.89-1.07A8.81,8.81,0,0,1,71,70.53a10.64,10.64,0,0,0-1.73-2.62,2.53,2.53,0,0,1-.57-1.77,2.37,2.37,0,0,1,.83-.92,4.5,4.5,0,0,1,1.8-.44l.6-.12A.94.94,0,0,1,73,65Z"/><path class="cls-66" d="M74.15,52.9l-1.35.31c-1.94,1.62-4.08,1.36-6.27.67a3.16,3.16,0,0,1-1.23-1.12,4.39,4.39,0,0,1,.36-4.8A1.7,1.7,0,0,1,68,48a3.17,3.17,0,0,0,1.82,2.11C70.44,52.29,74.48,49.14,74.15,52.9Z"/><path class="cls-67" d="M73,65a2.1,2.1,0,0,1-.93-.12.66.66,0,0,1-.35-.57c0-.23,0-.35.1-.35l1.19.09C73,64.39,73,64.71,73,65Z"/><path class="cls-68" d="M54,79c2-1.57,4-.35,6,0a8.32,8.32,0,0,1,1.37-1,5.56,5.56,0,0,1,4.24,0c1.5.7,2.06,1.65.21,2.68-.93.36-1.81-.18-2.73-.19-.58-.32-.21.69,0,0,0-.12.58,0,.84.24a2.9,2.9,0,0,1,.82,1.11c1.61,1.73,1.53,4.17,0,5.1-3.51,2.09,2.06.92.57,2A1.67,1.67,0,0,1,65,90.34c-2,1.76-4.7.48-6.82,1.68-5.77,2.17-4-3.49-5.77-5.53C51.9,83.77,50.76,80.9,54,79Z"/><path class="cls-69" d="M65,89H60c2.57-1.93,5.83-2.66,4-6,1.14-.72.43-2.07,1-3,.42-.2,1.65-.45.37-.88S62.49,79,61,79c0-1.11.76-2.48-1-3a3.9,3.9,0,0,1-1.44-.19c-.59-.34-.38-.75.24-.77,1.63,0,3.27,0,4.72,0,1.7-1.49-3.35-.39-.55-2.12,1.17-.72,2.28-1.23,0-1.92h0c0-.32,0-.65,0-1A2.43,2.43,0,0,1,64.59,69a5.49,5.49,0,0,1,2.58.1,4.1,4.1,0,0,1,1.15.61,5,5,0,0,1,.81,1,6.51,6.51,0,0,1,.69,1.81,3.74,3.74,0,0,1-.17,1.88c-.71,1.82,1.1.66,1.47,1.21a2.3,2.3,0,0,1,1.2,1.55c-1.68,1.69-.61,3.75-.74,5.65a9.61,9.61,0,0,1-.69,2.73c-.79,1.84-1.72,3.55-3.87,4.11A2.4,2.4,0,0,1,65,89Z"/><path class="cls-70" d="M65.21,69.92,63,70c-4.3.52-6.56-.43-6-5.69a19.74,19.74,0,0,0-.15-6.75c1.92-1.21,4.12-.38,6.13-.85.15.17.31.33.46.49a2.68,2.68,0,0,1,0,1.95,8.48,8.48,0,0,1-1.07,1.65c-1.16,2.09.77,3.2,1.49,4.67S65.82,68.15,65.21,69.92Z"/><path class="cls-71" d="M54,79a12.84,12.84,0,0,0-1,7c-2,.65-1.13-1.55-2-2A2.77,2.77,0,0,1,51,81.06c.32-1.26-.58-3.36,2.06-3Z"/><path class="cls-72" d="M60,76c1.71.23,3.65-.64,5.16,1.08-.91,1.75-3.29.22-4.13,1.89H60C60,78,60,77,60,76Z"/><path class="cls-70" d="M63,71c-1.52,1.42-3.17,1.14-4.86,0Z"/><path class="cls-73" d="M70,43c.25-1.89,1.89-2.74,3-4h1l1.25,1.09C75,42.14,73.45,43,72,44,70.83,44.7,70,44.75,70,43Z"/><path class="cls-74" d="M70,43l2,1-4,4-2,.09a1.5,1.5,0,0,1-.27-1.87A3.53,3.53,0,0,0,68,43Z"/><path class="cls-75" d="M44,89a6.38,6.38,0,0,0,1-.09c.5,4.34,3.26,6.68,7.11,8.06a6,6,0,0,0,.81.2,1.45,1.45,0,0,1,.4,1.82c-2.65.94,1.11,2-.07,3a2.66,2.66,0,0,1-1.13.8,4.19,4.19,0,0,1-2.11,0,6.4,6.4,0,0,1-2.46-1.36c-2-3-2.75-6.68-4.95-9.6C42,90.35,43.05,89.68,44,89Z"/><path class="cls-76" d="M53.08,99c-.06-.6-.11-1.2-.17-1.81,1.75-2.45.69-4.52-.51-6.89C51.47,88.4,51.45,86.09,51,84l2,2c.48,1.32,1.88,2.11,1.68,3.89s.73,2.41,2.3,1.1a1.11,1.11,0,0,1,1.18-.27c.84.28,1.74.47,2.08,1.46a1.87,1.87,0,0,1-.51,1.18c-.64.76-2.1.11-2.43,1.43a15.42,15.42,0,0,1-2,3.44,4.06,4.06,0,0,1-1,.9A1.28,1.28,0,0,1,53.08,99Z"/><path class="cls-77" d="M54,113.93c-2.42.27-2.75-2.92-5-3l1-3c-.52-.89.09-1.12.76-1.34,1.9.9,3.87.13,5.81.22a5.18,5.18,0,0,1,3.79,2A2.24,2.24,0,0,1,59,112h0c-1.65.92-2.22-2.41-4-1Z"/><path class="cls-78" d="M59,112l1-3c.89-1.28,2.23-1.4,3.61-1.44a5.53,5.53,0,0,1,3,.69,1.75,1.75,0,0,1,.77,1.23A4.51,4.51,0,0,1,65,112.9C62.94,112.85,60.63,114.62,59,112Z"/><path class="cls-79" d="M65,112.9c0-1.42.14-2.8,2-3,1.4-.42,2.79-1.36,4.23-.09A.9.9,0,0,1,71,111c-1.39,2.24-3.52,3-6,2.91Z"/><path class="cls-78" d="M55,111c1.34-2,1.34-2,4,1C57.11,113.88,56.39,111.12,55,111Z"/><path class="cls-80" d="M62.82,55.93c-1.76-1.09-3-2.49-2.84-4.74.09-.21.19-.42.28-.64a2.94,2.94,0,0,1,1.81-1A2.32,2.32,0,0,1,63.4,50a4.08,4.08,0,0,1,.86,2,8.13,8.13,0,0,1,0,1.48A2.86,2.86,0,0,1,62.82,55.93Z"/><path class="cls-81" d="M62.82,55.93,63,53.06a2.08,2.08,0,0,1,2.85-.32c.09.18.18.36.25.54a2.75,2.75,0,0,1,.53,3.28c-1,1.36-2.35,1.1-3.71.62l.08-.46Z"/><path class="cls-82" d="M60,51.19c-1-.41-1-1.4-1.19-2.27l.5-.37a2.11,2.11,0,0,1,1.22,0,1.72,1.72,0,0,1,.76.94,3.28,3.28,0,0,1-1,1.52Z"/><path class="cls-83" d="M58.79,48.92l-.65-1.87a1.64,1.64,0,0,1,1.29-.48l.68.25c.09.22.18.45.26.67s-.1.48-.16.71a6,6,0,0,1-1.29.66Z"/><path class="cls-84" d="M60,47H58.14L57,47a6.64,6.64,0,0,1,.1-1L60,46a.72.72,0,0,1,.21.68C60.1,46.93,60,47,60,47Z"/><path class="cls-85" d="M89.93,94c.34,1.62.69,3.24,1,4.86l-3,2.06c-1.9.6-2.64-.61-3.23-2.06C85.3,96,86.93,94.29,89.93,94Z"/><path class="cls-86" d="M85,99l3,2c0,.32-.05.64-.07,1a2.1,2.1,0,0,1-.83,1.7c-1,.47-1.91,1.12-2.89,1.64a4.41,4.41,0,0,1-3.39.4,2.07,2.07,0,0,1-1.28-1.6c.54-2.68,2.74-3.77,4.79-5Z"/><path class="cls-87" d="M84,104l2.93-1.12c1.72-.36,2.34.39,2.07,2-1.7-.06-3.22.24-4,2l-1,1A2.85,2.85,0,0,1,84,104Z"/><path class="cls-88" d="M89,105l-2.07-2c.32-.33.63-.67,1-1,1.42.11,3,0,3,2.1C90.93,105.62,89.91,105.24,89,105Z"/><path class="cls-89" d="M71,111l0-1c-1.14-1.13-2.94.46-4-1l-3.05-.11a1.19,1.19,0,0,1,.37-1.49c2.33-1.4,4.91-.73,7.4-.89a5,5,0,0,1,3.15,1A1.16,1.16,0,0,1,75,109a1.94,1.94,0,0,1-2,2Z"/><path class="cls-90" d="M84,104c0,1.3,0,2.59,0,3.88l-4,1H79a1.56,1.56,0,0,1-.37-1.16c.29-1.37,1.38-2.07,2.42-2.81Z"/><path class="cls-91" d="M79,107.91c0,.35,0,.71,0,1.06-1.31,1.63-2.64.57-4,0,0-.37,0-.73,0-1.1a3,3,0,0,1,2-1.58,3.17,3.17,0,0,1,1.3.06C78.88,106.73,79.37,107.12,79,107.91Z"/><path class="cls-92" d="M87,24.89l-1-3.73a4,4,0,0,1,2,2.88,4,4,0,0,0-.17,1A1.72,1.72,0,0,1,87,24.89Z"/><path class="cls-14" d="M43,92c4,1.71,3.88,5.7,5,9,.31,1.62-.31,2.29-2,1.94L45,101l-.93-2.09c-.24-2.14-1.42-4-2.09-6,0-.33,0-.66,0-1A.62.62,0,0,1,43,92Z"/><path class="cls-93" d="M46.07,102.92,48,101l2,1c.5,1.23-.15,2-1.11,2.59a2.74,2.74,0,0,1-2.9-.64C46,103.57,46,103.25,46.07,102.92Z"/><path class="cls-94" d="M51,107l-1,1-1-1c-1.06-.9-2-1.79.11-2.56a2.64,2.64,0,0,1,2.84.22C52.65,105.83,52,106.5,51,107Z"/><path class="cls-95" d="M49.25,104.78c-1.11.62-.46,1.43-.26,2.2-1.89-.16-2.3-1.74-3-3.08l3,.1.36.31Z"/><path class="cls-96" d="M77.07,75.85c1.42,1,3,2,3,4,.33,1.59-.79,1.69-1.87,1.83-2.29-.54-2.77-2.25-2.74-4.28A2.09,2.09,0,0,1,77.07,75.85Z"/><path class="cls-97" d="M77.07,75.85,75.9,77a1.37,1.37,0,0,1-1.25.26,3.76,3.76,0,0,1-2.3-3.15,2.06,2.06,0,0,1,1.55-2L76,74.08C76.34,74.67,76.71,75.26,77.07,75.85Z"/><path class="cls-98" d="M78,81.07c.84-.14,1.69-.24,2.06-1.19a4.53,4.53,0,0,0,.81.12L82,82l-2,2a1.49,1.49,0,0,1-1.46.38C77.07,83.47,77,82.36,78,81.07Z"/><path class="cls-99" d="M89.93,94l-5,5h0c-5.09,3.43-5.58,3.35-7.28-1.18,1.62-3.19,4-6,4.12-9.91.05-1.53.88-3.28,3.18-2.79,0,.29,0,.59,0,.88a4.81,4.81,0,0,1,.85,1.82s.31.1.31.1l.18-.3a2.36,2.36,0,0,1,.59-.55L90,89C90.79,90.66,89.6,92.33,89.93,94Z"/><path class="cls-100" d="M55,42.93a3.27,3.27,0,0,1,2.11-3c1.56,1.75-.27,2.34-1.11,3.28Z"/><path class="cls-101" d="M43,92H42l-1-2,3-1C43.68,90,43.36,91,43,92Z"/><path class="cls-102" d="M60,47l0-1L62,45a1.13,1.13,0,0,1,.13.7,1.17,1.17,0,0,1,0,1.43A1.66,1.66,0,0,1,60,47Z"/><path class="cls-103" d="M42,93c2.22,1.45,3.46,3.24,2.09,6l-3-3.8A2.31,2.31,0,0,1,42,93Z"/><path class="cls-104" d="M85,85.09a2.77,2.77,0,0,0-1.92,3c.76,4.67-2,7.56-5,10.3a2.93,2.93,0,0,1-1.2-.65c-4-5.26.32-9.31,2-13.74L80,84c1.67,2.06,3.3-.07,4.94,0C85,84.33,85,84.71,85,85.09Z"/><path class="cls-105" d="M85,89.89,85,86,86.94,87c0,.31,0,.62,0,.93C86.06,88.35,87,90.58,85,89.89Z"/><path class="cls-106" d="M65.88,52.74,63,53.06,63.09,52c1.77-1.77.11-3.22-.45-4.78A1.08,1.08,0,0,1,63,46l2.66.22L66,48.1Z"/><path class="cls-107" d="M63,46l0,1.06A2,2,0,0,1,62.93,50l-.83.08a2,2,0,0,1-.72-1.22,2.33,2.33,0,0,1,.58-2c.06-.37.13-.73.2-1.1A2.52,2.52,0,0,1,63,46Z"/><path class="cls-108" d="M63,57.18a2.17,2.17,0,0,1,3-.22c1.64-.43,2.16.33,2,1.86C68.12,61,71.09,61.58,71,64l-.35.55a10.16,10.16,0,0,1-2.41,1.06c-2.09,0-2.92-2-4.52-2.87a3.44,3.44,0,0,1-1.18-2.46A1.87,1.87,0,0,1,63,59Z"/><path class="cls-109" d="M67.88,58.82l-2-1.86c.07-1.23.15-2.45.22-3.68l6.67-.07C73.32,57,73.83,60.73,67.88,58.82Z"/><path class="cls-110" d="M71.8,64a2.47,2.47,0,0,1,.25.92.6.6,0,0,1-.21.46A1.14,1.14,0,0,1,70.71,64L71,64A2.63,2.63,0,0,0,71.8,64Z"/><path class="cls-111" d="M64,62c2.62-.6,2.57,3.18,4.93,3l.44.47-.28.58.81,1c.36,1.67-.52,2.3-2,2.38-2.52-.58-3.48-2.73-4.64-4.67A2.5,2.5,0,0,1,64,62Z"/><path class="cls-112" d="M73.9,72.14l-1,1.8a2.65,2.65,0,0,1-2,1.43c-1.09.09-1.5-.65-1.84-1.49L69,72c0-.19,0-.39.07-.59a2.88,2.88,0,0,1,.63-1c.65-.43,1.3-1,2.1-.25Z"/><path class="cls-113" d="M71.81,70.18,70.1,71l-.47.32-.58,0c-.49-.29-.66-.94-1.23-1.14h0c-.31-.26-.39-.49-.25-.68a.57.57,0,0,1,.4-.26c.65-.71,1.29-1.42,1.93-2.14C71.62,67.47,71.91,68.71,71.81,70.18Z"/><path class="cls-114" d="M70.71,64l1.13,1.37-1.9.63a6.83,6.83,0,0,0-1.07-.86L69,65Z"/><path class="cls-110" d="M68.87,65.12l1.07.86a5.56,5.56,0,0,0-.82.09A4.43,4.43,0,0,1,68.87,65.12Z"/><path class="cls-115" d="M58,91H57c2.46-1.93,5.32-.61,8-1,1.49,0,1.39.64.65,1.56C63,93.2,60.49,91.82,58,91Z"/><path class="cls-116" d="M65,80c.55,1.3,1.43,2.71-1,3,0-1.88-1.8-1.88-2.84-3Z"/><path class="cls-117" d="M66,91l-1-1c0-.32,0-.65,0-1l2.07,0c1.18-.69,2.3-.94,3.17.48a1.51,1.51,0,0,1-.68,1.27C68.4,91.35,67.24,91.75,66,91Z"/><path class="cls-118" d="M70,90c-.73-1-1.83-1-2.91-1l3.22-4.1c1.08-1.82,2.45-2.2,4.18-.84q2.05,4.29-2.1,6.6A2.42,2.42,0,0,1,70,90Z"/><path class="cls-119" d="M71,83c-1.57-2.2-3.42-4.45,1-5.65,1.57-1.23,1.83.39,2.5,1.15a4.67,4.67,0,0,1,.31,1.34c-.24,1.26.41,2.82-1.2,3.63C72.67,83.41,71.72,83.74,71,83Z"/><path class="cls-120" d="M73.92,79.11l-2-1.79L70.79,76.1a.67.67,0,0,1,.19-1l2-1.12c.69,1.06,1.38,2.11,2.06,3.17C75.38,78.18,74.86,78.76,73.92,79.11Z"/><path class="cls-121" d="M68,69.23a5,5,0,0,1-.15.94l-2.64-.25q-1.15-2-2.32-3.9A1.25,1.25,0,0,1,64,65Z"/><path class="cls-119" d="M71,75.06l-.19,1c-1.22.72-2.77,1.07-3.51-.16-.86-1.44,1.7-.87,1.78-2.06Z"/><path class="cls-122" d="M71,83l2.89-.09a.83.83,0,0,1,.26.78c-.07.27-.14.4-.22.4a5.08,5.08,0,0,0-3.64.8A1.73,1.73,0,0,1,71,83Z"/><path class="cls-123" d="M69,72,68,71a.66.66,0,0,1,1,0h0a.63.63,0,0,1,.29.66c-.07.24-.15.36-.22.36Z"/><path class="cls-124" d="M69,71l-1,0a3.12,3.12,0,0,1-.14-.8Z"/><path class="cls-125" d="M64,65,62.9,66a31.56,31.56,0,0,0-2.37-3.09c-2.22-2.31-.37-2.61,1.39-3a.63.63,0,0,1,1,.13c.35.65.71,1.3,1.07,1.95Z"/><path class="cls-126" d="M63,60.06l-1-.13L63,59C63,59.36,63,59.71,63,60.06Z"/><path class="cls-127" d="M53.08,99a2.48,2.48,0,0,1,.89.14,4.38,4.38,0,0,1,2,.14A7.22,7.22,0,0,0,58,99.5c3.11,0,6.2,0,9.3,0,2.79.24,5.65-.55,8.39.56a3.22,3.22,0,0,1,1.8,3.46c-3.3,2.84-7.29,3.26-11.41,3.28-1.66-.46-3.42-.33-5.07-.87-1.81-.68-3.53-1.66-5.55-1.62-1.22-.35-2.64-.49-2.48-2.31C53.43,101,49.75,99.87,53.08,99Z"/><path class="cls-128" d="M49.25,104.78c-.09-.26-.18-.52-.25-.78.35-.69.69-1.38,1-2.06l2,.07a9.8,9.8,0,0,1,1.3,2,1.56,1.56,0,0,1-.25,1.15,1.09,1.09,0,0,1-1.13,0Z"/><path class="cls-129" d="M53.08,105c-.35-1-.7-2-1.06-3,.33,0,.65,0,1,0,.73,1,1.86.93,2.93,1a1.63,1.63,0,0,1,.61,1.25,1.9,1.9,0,0,1-.76,1.19A2.19,2.19,0,0,1,53.08,105Z"/><path class="cls-130" d="M55,100l-1-.86L54,98c1.5-1,3-1.82,4.92-1.57,2.86.37,5.82-.44,8.6.76a2.1,2.1,0,0,1,.94,1.36,1.76,1.76,0,0,1-1.29,1.86c-1.58.1-3.16.07-4.74,0C60,99.66,57.49,100.09,55,100Z"/><path class="cls-131" d="M59,97.94l-5,0a10.26,10.26,0,0,1,3-4,3.19,3.19,0,0,1,3.16-.23C61.41,95.61,60.79,96.93,59,97.94Z"/><path class="cls-132" d="M66,91l3-1a1.65,1.65,0,0,1,.38,1.46A3.15,3.15,0,0,1,67,93.27a7.57,7.57,0,0,1-2.42.17c-1.64-.06-3.31,0-4.51-1.45l-2-1Z"/><path class="cls-133" d="M60,92h5c-.62,2.89-2.49,2.2-4.35,1.51L60,93C60,92.65,60,92.32,60,92Z"/><path class="cls-134" d="M60,94l-3,0c-.39-.22-1.7-.31-.41-.9.95-.43,2.26-.11,3.4-.12h0c.25.23.34.45.25.67S60.09,94,60,94Z"/><path class="cls-135" d="M53.08,105l2.93-.11c1.22-.93,2.57,0,3.83-.27a1.19,1.19,0,0,1,1.18.3c1.7.21,3.58-.56,5,1,.82,2.08-1.79,1-2,2.12a8.6,8.6,0,0,1-.15.86L60,109l-3.82-1.08c-1.2-.83-3.75-.2-3.2-2.94Z"/><path class="cls-136" d="M53,105c.45,1.65,2.32,1.76,3.2,2.94-1.71-.38-4.06,2.79-5.17-.93l.94-1.8Z"/><path class="cls-137" d="M67,109c1.4,0,2.92-.4,4,1-1.33-.23-2.66,1.65-4,0C67,109.63,67,109.32,67,109Z"/><path class="cls-138" d="M62.93,50c0-1,.09-1.94.13-2.92,2.9,1.62,3.11,3.24,0,4.89C63,51.3,63,50.65,62.93,50Z"/><path class="cls-139" d="M62,49c0,.36.06.72.1,1.08l-1.87,1c.22-.7.43-1.4.64-2.09l.58-.32Z"/><path class="cls-140" d="M60.87,49,59.8,49a1,1,0,0,1,.14-1L60,48c1-.35,1.3,0,1,1Z"/><path class="cls-141" d="M59.94,48c0,.33-.09.66-.14,1a8.81,8.81,0,0,0-.88-.11Z"/><path class="cls-142" d="M61,49l-1-1c0-.33,0-.66,0-1L62,46.83c0,.72,0,1.44,0,2.16Z"/><path class="cls-143" d="M77,104l-1.12-3.27a1.68,1.68,0,0,1-.18-1.22c.49-.91.82-2.07,2.28-1.48l.07.44c2,3.68,4.61.65,6.94.54-1,2.27-3.34,3.32-5,5a2.09,2.09,0,0,1-1.86.73A2.23,2.23,0,0,1,77,104Z"/><path class="cls-144" d="M78,104h2l1,1a3.18,3.18,0,0,1-2,2.91L78,107A2.76,2.76,0,0,1,78,104Z"/><path class="cls-145" d="M78,104a2.82,2.82,0,0,1,0,3l-.43,0-.43,0c-1.57,1-3.49-.12-5.07.82l-8,.19c-.52-1.79,1.85-.91,2-2.12,3.76,0,7.08-2.49,10.94-2Z"/><path class="cls-144" d="M72.05,107.84c1.5-1.41,3.35-.72,5.07-.82l-2.13.9Z"/><path class="cls-146" d="M78,98l-2,2c-3.32-2.73-2.65-6.47-2.06-9.88A29.21,29.21,0,0,0,74,80a4.22,4.22,0,0,0,0-.87l1.09-2L75.9,77q1.06,2,2.12,4c-.1,1.1-.14,2.18.85,3-.43,2.58.26,5.2-2.12,7.61C75.27,93.15,76.91,96,78,98Z"/><path class="cls-147" d="M85,89.89,87,88c0,1.12.29,2.5-1,3.09C85.12,91.47,85.12,90.5,85,89.89Z"/><path class="cls-68" d="M70.41,55.68a11.08,11.08,0,0,1-1.73.27c-.5,0-1.12-.2-.83-.84.13-.28.84-.47,1.23-.4S69.82,55.22,70.41,55.68Z"/><path class="cls-148" d="M69,72c0-.34-.05-.68-.07-1H70.1Z"/><path class="cls-149" d="M69.07,90.89c0-.3,0-.6,0-.9L70,90,72,90c2.41,1.24,3.61,2.81,1.41,5.28C70.38,95.41,69.93,93,69.07,90.89Z"/><path class="cls-150" d="M72.81,94.91c2.66-2.09-.35-3.28-.79-4.88,1.77-1.63,2.09-3.72,1.89-6,0-.39,0-.79,0-1.18-.21-1-1.24-2,.08-2.9,2.22,3.74.61,7.8,1,11.69.28,2.78.7,5.55,1,8.32a1,1,0,0,0-.13.7l-8.65.13c-.34,0-.51-.13-.5-.33s.07-.36.16-.36L68,99c1.43-.84,3-1.58,3.56-3.31C71.81,95.09,72.08,94.62,72.81,94.91Z"/><path class="cls-151" d="M66.88,100.13c.12.23.23.46.34.69H55.8c1.72-2.57,4.06-1.07,6.19-1Z"/><path class="cls-65" d="M62,99.86c-2,.8-4.39-1-6.19,1L55,100A6.14,6.14,0,0,1,62,99.86Z"/><path class="cls-152" d="M61,104.94,60,105c-1.69,1.12-2.7-.39-4-1,0-.32,0-.63-.09-.94A5.82,5.82,0,0,1,61,104.94Z"/><path class="cls-153" d="M56,104l4,1c-1.35,1.71-2.64.48-4-.07Z"/><path class="cls-154" d="M60,94V93c1.68-.19,3.56.58,5-1h2c.77,1,2.72,1.28,2.13,3.21A2.73,2.73,0,0,1,68,96a10.28,10.28,0,0,1-4.6.47c1.42.35,3-.35,4.52.28A1.12,1.12,0,0,1,68,98l-9,0A7.06,7.06,0,0,0,60,94Z"/><path class="cls-155" d="M68.09,95q.45,0,.9,0c1.45-1.15,2.22-.24,2.88,1,.68,2.7-.73,3.82-3.83,3a5.46,5.46,0,0,0,0-1c0-.32,0-.64.07-1C68,96.34,67.38,95.67,68.09,95Z"/><path class="cls-133" d="M71.87,95.93,69,95c-.66-1-2.06-1.51-2-3a2.42,2.42,0,0,0,2.07-1.09c2.3.36,2.09,3.06,3.74,4Z"/><path class="cls-131" d="M68.09,95c.09.67.93,1.33,0,2H62.22C64,95.58,66.34,96.25,68.09,95Z"/></svg>