<svg id="Layer_1" data-name="Layer 1" xmlns="http://www.w3.org/2000/svg" viewBox="0 0 128 128"><defs><style>.cls-1{fill:#303640;}.cls-2{fill:#353a40;}.cls-3{fill:#fcfdfd;}.cls-4{fill:#c9fafd;}.cls-5{fill:#b7e6f7;}.cls-6{fill:#42aedd;}.cls-7{fill:#def9f8;}.cls-8{fill:#022a2a;}.cls-9{fill:#75cbf3;}.cls-10{fill:#8eb59d;}.cls-11{fill:#bde1d7;}.cls-12{fill:#90d6f6;}.cls-13{fill:#e6ebe7;}.cls-14{fill:#54bdec;}.cls-15{fill:#65c7f4;}.cls-16{fill:#a0dbf5;}.cls-17{fill:#1c77a0;}.cls-18{fill:#4c7050;}.cls-19{fill:#6b7f58;}.cls-20{fill:#677a54;}.cls-21{fill:#637651;}.cls-22{fill:#326869;}.cls-23{fill:#022939;}.cls-24{fill:#395637;}.cls-25{fill:#d3e5ce;}.cls-26{fill:#5b7952;}.cls-27{fill:#48632c;}.cls-28{fill:#677f4f;}.cls-29{fill:#003961;}.cls-30{fill:#c2eaee;}.cls-31{fill:#144056;}.cls-32{fill:#556a41;}.cls-33{fill:#47582e;}.cls-34{fill:#00010a;}.cls-35{fill:#001623;}.cls-36{fill:#7d9769;}.cls-37{fill:#03303c;}.cls-38{fill:#afdee2;}.cls-39{fill:#0e201c;}.cls-40{fill:#284f60;}.cls-41{fill:#f4fefe;}.cls-42{fill:#9ae9fe;}.cls-43{fill:#b7f8fe;}.cls-44{fill:#003728;}.cls-45{fill:#5c744c;}.cls-46{fill:#dff6f4;}.cls-47{fill:#88d6f2;}.cls-48{fill:#11424f;}.cls-49{fill:#d6f5f9;}.cls-50{fill:#92c4c0;}.cls-51{fill:#fefefe;}.cls-52{fill:#8fbeb5;}.cls-53{fill:#467d67;}.cls-54{fill:#114944;}.cls-55{fill:#002127;}.cls-56{fill:#8ebfce;}.cls-57{fill:#0f4b31;}.cls-58{fill:#044331;}.cls-59{fill:#b4debf;}.cls-60{fill:#628e67;}.cls-61{fill:#70a583;}.cls-62{fill:#5e8e6d;}.cls-63{fill:#90a988;}.cls-64{fill:#002631;}.cls-65{fill:#106892;}.cls-66{fill:#4d6e42;}.cls-67{fill:#25422e;}.cls-68{fill:#396231;}.cls-69{fill:#3e683f;}.cls-70{fill:#5e7c4f;}.cls-71{fill:#aac29d;}.cls-72{fill:#869f70;}.cls-73{fill:#8ca281;}.cls-74{fill:#364e1e;}.cls-75{fill:#94a785;}.cls-76{fill:#748f5b;}.cls-77{fill:#b0dde9;}.cls-78{fill:#497b80;}.cls-79{fill:#5f938f;}.cls-80{fill:#00091d;}.cls-81{fill:#003331;}.cls-82{fill:#002824;}.cls-83{fill:#749065;}.cls-84{fill:#476939;}.cls-85{fill:#aec5a2;}.cls-86{fill:#dceadd;}.cls-87{fill:#093549;}.cls-88{fill:#f9fcfd;}.cls-89{fill:#607961;}.cls-90{fill:#00271f;}.cls-91{fill:#00352f;}.cls-92{fill:#003026;}.cls-93{fill:#3e5c3a;}.cls-94{fill:#4d603b;}.cls-95{fill:#053f3d;}.cls-96{fill:#6ea39b;}.cls-97{fill:#72a38d;}.cls-98{fill:#a9cfcc;}.cls-99{fill:#2a6447;}.cls-100{fill:#357453;}.cls-101{fill:#205936;}.cls-102{fill:#37694e;}.cls-103{fill:#114c26;}.cls-104{fill:#1d5935;}.cls-105{fill:#083e2e;}.cls-106{fill:#1c5141;}.cls-107{fill:#064040;}.cls-108{fill:#4e7852;}.cls-109{fill:#6e9e7a;}.cls-110{fill:#022e46;}.cls-111{fill:#000b15;}.cls-112{fill:#002027;}.cls-113{fill:#001425;}.cls-114{fill:#6d887a;}.cls-115{fill:#dceae9;}.cls-116{fill:#325037;}.cls-117{fill:#728d67;}.cls-118{fill:#a5b59e;}.cls-119{fill:#d9ecd2;}.cls-120{fill:#94ae8c;}.cls-121{fill:#315e49;}.cls-122{fill:#2e5233;}.cls-123{fill:#5b8787;}.cls-124{fill:#3f6649;}.cls-125{fill:#3b593a;}.cls-126{fill:#4c6c53;}.cls-127{fill:#457473;}.cls-128{fill:#426045;}.cls-129{fill:#064033;}.cls-130{fill:#245b4b;}.cls-131{fill:#1b4f48;}.cls-132{fill:#5c7b61;}.cls-133{fill:#396f79;}.cls-134{fill:#487450;}.cls-135{fill:#326140;}.cls-136{fill:#497c63;}.cls-137{fill:#608073;}.cls-138{fill:#496e4d;}.cls-139{fill:#22512c;}.cls-140{fill:#53765b;}.cls-141{fill:#719686;}.cls-142{fill:#3f7151;}.cls-143{fill:#3e6e54;}.cls-144{fill:#2f5b39;}.cls-145{fill:#275628;}.cls-146{fill:#779c85;}.cls-147{fill:#c9e6e3;}</style></defs><path class="cls-1" d="M50,120.94C35,116.45,30.71,103.45,26.19,90.67c-.38-1.07-.22-2.58-.92-3.26-3.25-3.16-1.82-5.85.33-8.77,2.66-3.6,1.75-8.3,3.81-12.31,4.13-8.07,4.51-17.3,6.55-26,.52-2.21,1-4.16,3.9-4.29,3.09-.15,3.36,2.13,4,4.15,1.14,3.63,2.21,7.29,3.38,10.91.28.87.42,2.27,1.73,2a2,2,0,0,0,1.58-2.65c-2.13-4.27.64-7.14,2.4-10.5,3.36-6.4,2.43-13.91,5-20.58,1-2.62,1.46-5.45,2.22-8.16C60.67,9.26,61.73,8.08,64,8c2.57,0,3,1.61,3.3,3.49A94.92,94.92,0,0,0,72.78,34c3,7.42,3.16,15.92,8.23,22.5,1.54,2,2.45,4,.3,6.2-.54.54-.5,1-.17,1.72,3.38,7.43,8.42,13.6,14.11,19.35a68.79,68.79,0,0,1,5.45,6.45c4.74,6.19,3.87,12.31-2.67,16.6-10,6.57-21.38,9.76-32.72,13-1.11.33-2.21.7-3.31,1A29.13,29.13,0,0,0,50,120.94Z"/><path class="cls-2" d="M50,120.94a15.73,15.73,0,0,1,12,0Z"/><path class="cls-3" d="M56.86,47.81c.65-3.46-1.65-2.09-3.51-1.8,7.43-10,5.17-22.53,10.39-33.12,2.94,7.67,3.28,15.87,4.33,23.92,1.4,1.94,1.18,4,.34,6-1,2.5-2.75,4.81-1.14,7.8.57,1.06-.24,2.28-1.43,2.75-2.19.85-3.75-.32-5.16-1.8-.88-1.5-2.85-1.32-3.93-2.52A1.45,1.45,0,0,1,56.86,47.81Z"/><path class="cls-4" d="M32.94,98c-1.18-1.45-2.36-2.9-2.07-5a2.79,2.79,0,0,1,1.38-1.86,4.49,4.49,0,0,1,3.84.07c3.27,2.6,2.8,7.37,5.85,10.12,5,9.64,12.38,11.31,22.16,7.3,4.29-1.75,8.57-3.69,11.25-7.85A8.47,8.47,0,0,1,77.6,99c1.56-.64,2.86-2,4.77-1.71,3.22,1.47,2.71,3.53.87,5.76-1.55,1.89-3.9,2.88-5.46,4.76a27.17,27.17,0,0,1-6.72,3.54c-3.3,1.08-6.58,2.25-9.9,3.25-10.27,3.08-16.61.85-22.77-7.79C36.37,104,35,100.79,32.94,98Z"/><path class="cls-5" d="M32.94,98c3,2.27,4.22,5.8,6.42,8.64,6,7.71,11.19,9.54,20.75,6.77,3.65-1,7.26-2.27,10.88-3.41a1.42,1.42,0,0,1,.17,1.48C65.92,116,59.44,116.39,53,117c-6.89.13-11.43-3.73-15-9C35.93,104.86,33.47,101.89,32.94,98Z"/><path class="cls-6" d="M90.8,85.18a22.86,22.86,0,0,1,8,8.89c-1.19,4.77-2.23,5.14-9.33,3.3-1.82-.21-3.09-1.82-5-1.93a4,4,0,0,1-2.72-1.21,2.25,2.25,0,0,1-.09-2.11c2-2.43,4.55-.75,6.9-.61C90.17,89.64,86.65,86,90.8,85.18Z"/><path class="cls-7" d="M61,50c1.11.92,1.9,2.31,3.46,2.58,1.12.2,2.39-.51,1.7-1.47-2.93-4.08.71-7,1.42-10.46.27-1.27.33-2.57.49-3.86l.86.47c2.65,4.2.57,8.67.76,13,.31,2.5-.92,4.34-2.57,6a6.86,6.86,0,0,1-1.13.88c-1,.48-1.86,1.36-2.91,1.86-4.83,1.12-3.94-4.21-6.45-5.73a2.46,2.46,0,0,1,.07-1.37c.87-1.27,2.28-1.49,3.61-1.86Z"/><path class="cls-8" d="M74.14,62A3.38,3.38,0,0,1,76,65c1,1.55,2.44,2.91,2,5q0,.47-.09.93c-1.78,1.77-1.5,3.91-1.06,6.08a5.68,5.68,0,0,1-.12,1.43c-.56,1.72-1.28,3.28-3.48,3.24a2.16,2.16,0,0,1-1.66-1.2c-.32-2,.93-3.93.12-5.92-.54-3.36.32-6.78-.46-10.13a3.17,3.17,0,0,1,.37-1.35C72.23,62.22,73.38,62.53,74.14,62Z"/><path class="cls-9" d="M85,94c1.67,0,2.63,1.39,4,2,1,.74,2.32,1.07,3.16,2.08,2.45,3.79,1,6.43-2.41,8.66-1.49,1-3.37,1.21-4.66,2.52a24.7,24.7,0,0,1-8,3.09c-.28-4.33,4.2-4,6.08-6.21,2.22-1.51,5.59-2.14,4.62-6.06-1.37-1.47-3.26-2.58-3.38-4.9A2.27,2.27,0,0,1,85,94Z"/><path class="cls-10" d="M51,59c1-3.4,3.21-6.14,4.85-9.19.56,3.85,3.22,7,3.6,10.91-1,1.91-2.66,2.43-4.66,2.24a4.29,4.29,0,0,1-2-1C51.8,61.28,51.86,59.89,51,59Z"/><path class="cls-11" d="M58.94,60.87a16.62,16.62,0,0,1-3.09-11c.14-.77.14-1.62,1-2L57.13,49a2.44,2.44,0,0,1,.62,1.84A3.59,3.59,0,0,1,57.12,52l0,1.07c.78,1.5,2.64,2.09,2.76,4.32S61.46,60.05,63,58a3.22,3.22,0,0,1,2.09-1.87,3.06,3.06,0,0,1,.76,2.71,8.19,8.19,0,0,1-2.12,3.71c-1.29,1-2.21,2.44-3.65,3.3-1.16.53-2.33.93-3.44-.12C55.22,63.08,57.65,62.24,58.94,60.87Z"/><path class="cls-12" d="M84,107c-1.87,2.39-5.28,2.77-7,5.39a47.46,47.46,0,0,1-13,3.78c-.41-2.56,2-2,3.17-2.67,1.78-1,3.86-1.57,5.38-3.11,2.08-1.29,4.41-2.11,6.32-3.72,1.38-1.17,3.06-2,5-1A.91.91,0,0,1,84,107Z"/><path class="cls-13" d="M38.91,44.78l.25-3.85c2.3,3.41,4,6.87,2.08,11,2.09,1.77,3.14,3.59.31,5.63a2.54,2.54,0,0,1-1.6-.34C38.25,53.16,38.35,49,38.91,44.78Z"/><path class="cls-14" d="M91,98l-2-2c3.34-.25,7.46,3.5,9.79-1.92,1.41,4.36,1.26,8.17-3.65,10.3C93.16,102.6,94,99.07,91,98Z"/><path class="cls-15" d="M91,98c4,.44,5.32,2.62,4.13,6.41a30.66,30.66,0,0,1-10,4.88c.55-1.35,1.89-1.69,3-2.35C91.59,104.77,93.15,102,91,98Z"/><path class="cls-16" d="M73,111c-2.51,2.57-6.32,2.85-9,5.16-3.6,1.2-7.23,2-11,.89A78.42,78.42,0,0,0,71,111,1.34,1.34,0,0,1,73,111Z"/><path class="cls-17" d="M90.8,85.18c-1.38,1.68-1.07,3.37,0,5,.55.85,1.21,1.71.41,2.7-1,1.16-2.11.57-3.21.2-1.89-.63-3.76-1.36-5.82-1.15l-.35-.61a2.58,2.58,0,0,1,2.09-1.62c1.9.05,3.18-.5,2.64-2.78.24-1.67-.31-3.78,2.33-4C89.74,83.49,90.71,84,90.8,85.18Z"/><path class="cls-18" d="M51,59a2.75,2.75,0,0,1,2.12,1.87,1.83,1.83,0,0,1,.29,1.23,41.75,41.75,0,0,0-1.27,4.4,7.29,7.29,0,0,1-1.82,3,5.4,5.4,0,0,1-4.17,1A2.55,2.55,0,0,1,44.67,69c0-3.69,3.75-4.49,5.29-7Z"/><path class="cls-19" d="M31,79.11C30.9,77,32.68,76.17,33.94,75c1.11-1.69-1-4.55,2-5.55a2.56,2.56,0,0,1,1.42.39,4,4,0,0,1,1,2A29.86,29.86,0,0,1,38.46,75a8.63,8.63,0,0,1-.34,2.42,4.31,4.31,0,0,1-.89,1.42C35.24,80.55,33.18,80.8,31,79.11Z"/><path class="cls-20" d="M29.92,81,31,79.84a3.06,3.06,0,0,1,4.07,1A5.94,5.94,0,0,1,35.54,86a9.26,9.26,0,0,1-.48,1.37,14.88,14.88,0,0,1-2.35,3.53,2.16,2.16,0,0,1-1.28.4c-1.25-.72-.82-1.91-.85-3,.79-1.73.05-3.25-.65-4.78A2.81,2.81,0,0,1,29.92,81Z"/><path class="cls-21" d="M36,70c-1.87,1.18,1.79,4.64-2.06,5-4.78-3.09,0-6,.19-9,1.11-.52,1.52.32,2,1a4.42,4.42,0,0,1,.48,1.86A1.77,1.77,0,0,1,36,70Z"/><path class="cls-22" d="M74.14,62c-.21.9-.91,1.17-1.71,1.28a1.34,1.34,0,0,1-1.2-.58,5.32,5.32,0,0,1-.66-2.76c0-.47,0-.94,0-1.41.31-2.53,1.05-5,.76-7.6.34-.69.75-1.24,1.65-.9l2,4.88c.69,1.36,1.16,2.73.12,4.15C74.73,60,72.16,60.31,74.14,62Z"/><path class="cls-23" d="M78,72c4.09,1.21,5.84,4.77,8,8a3.13,3.13,0,0,1-2.55,1.72,2.56,2.56,0,0,1-1.2-.43c-.47-.61-.3-1.55-1.05-2a8.59,8.59,0,0,1-1.71-2.55c-.91-1.23-2-2.4-1.77-4.09Z"/><path class="cls-24" d="M50,62c-.7,3-3,4.9-5,6.92a1,1,0,0,1-1.35-.13,3.57,3.57,0,0,1-.68-1.38A7.16,7.16,0,0,1,44.8,61.7a2.07,2.07,0,0,1,2.19.24C48,63.35,49,62.41,50,62Z"/><path class="cls-25" d="M38.91,44.78c.32,4.19.34,8.43,2.27,12.32.91,1.91,0,2.85-1.79,3.3a2.44,2.44,0,0,1-1.77-1.23c-.6-2.11.53-4.13.32-6.22C38.51,50.25,37.22,47.34,38.91,44.78Z"/><path class="cls-26" d="M42.05,57.05c1.69-2,0-3.53-.81-5.17,2,0,2.93.92,2.91,2.91,0,1.75.06,3.5.09,5.25a1.75,1.75,0,0,1,.06,2,2.07,2.07,0,0,1-1.29.55,2.2,2.2,0,0,1-1.92-2A7.2,7.2,0,0,1,42.05,57.05Z"/><path class="cls-27" d="M34,81.88c-.15-1.94-1.68-1.84-3-2a4.54,4.54,0,0,1,0-.74c2.05-.11,4.14,0,6-1.12,1.32-.81,2.24-.3,2.59,1,.5,1.89-.49,3.09-2.2,3.8A3.82,3.82,0,0,1,34,81.88Z"/><path class="cls-28" d="M35.06,68l-.93-2a5.74,5.74,0,0,0,1.68-6.22c-.69-2-.05-3.45,1.12-4.9,1.46,1.13.78,2.65.74,4.05a13.15,13.15,0,0,1,.81,4.35C38.07,65.41,39.26,68.68,35.06,68Z"/><path class="cls-29" d="M83,81l2.9-1,3,3c-1.37,1.44-.63,3.31-1,4.94a1.25,1.25,0,0,1-1.28,0C85.64,85.42,82.13,84.35,83,81Z"/><path class="cls-30" d="M68.7,51.05c-1.48-4.62,1.22-9.16.23-13.77l1.27,1.77c.23,2.45,2.54,4.76.49,7.36a6.09,6.09,0,0,1-.82,4A1.85,1.85,0,0,1,68.7,51.05Z"/><path class="cls-31" d="M70.11,47c1.15-2.65-.23-5.32.09-8a17.53,17.53,0,0,0,2,3.31C74.53,44.74,73,45.88,71,47l-.42.34Z"/><path class="cls-32" d="M31,83c1.93,1.79,1.6,3.48-.22,5.11l-.68,0-1.26-3.07C28.67,83.39,29.38,82.69,31,83Z"/><path class="cls-33" d="M31,83l-2.16,2.06c-3.66-2.37-1.19-3.18,1-4Z"/><path class="cls-34" d="M78,70.06c-1.33-1.42-1.62-3.25-2-5C77,66.57,81.32,66.8,78,70.06Z"/><path class="cls-35" d="M76,77c-1.29-2.63-2.69-5.3,2-6,0,.33,0,.65,0,1l-.07,0C77.5,73.76,78.06,75.88,76,77Z"/><path class="cls-36" d="M37.2,59.18l-.27-4.27,1-2a5.55,5.55,0,0,1,.2,6.07A.73.73,0,0,1,37.2,59.18Z"/><path class="cls-37" d="M75.05,59.06a4.51,4.51,0,0,1-.12-4.15C76.55,56.24,78.64,57.57,75.05,59.06Z"/><path class="cls-38" d="M30.14,88.12a3.87,3.87,0,0,0,.68,0c.4,1,.81,1.91,1.22,2.87a.54.54,0,0,1,.24.58q-.11.3-.21.3L30.87,93C29.38,91.57,30,89.81,30.14,88.12Z"/><path class="cls-39" d="M44.48,61.79,44.24,60A3,3,0,0,1,47,61.94l-2,0C44.69,62.36,44.52,62.28,44.48,61.79Z"/><path class="cls-40" d="M73,50l-1,1a1,1,0,0,1-1.41-.19c-.82-1.34-.36-2.57.32-3.78L71,47Z"/><path class="cls-7" d="M57.13,51V49c1.4,0,3.08-1.13,3.87,1.06h0A5,5,0,0,1,57.13,51Z"/><path class="cls-41" d="M76,101.14c0,.8.39,2.11,0,2.34-7.32,4.9-14.7,10-24.19,8.34C46.33,110.86,43,107,41,102c-2.06-3.11-3.57-6.38-3.1-10.25A3.59,3.59,0,0,1,40,90.63a5.08,5.08,0,0,1,3.82.71c1.17,1,.94,2.37.69,3.69-1,5.39,1.38,9.52,5.42,12.51s8.44,1.73,12.73-.21c4-1.8,6.43-5.79,10.6-7.28A2.57,2.57,0,0,1,76,101.14Z"/><path class="cls-42" d="M73,111H71c0-.33,0-.66,0-1l6-3c1-.63,1.9-1.32,2.89-1.91,6-3.59,6-3.59,2.78-9.52.57-1,1.28-1.38,2.26-.49A12.08,12.08,0,0,0,89,99c1.56,4.65-2.17,5.48-5,7C79.9,106.72,76.92,109.86,73,111Z"/><path class="cls-43" d="M83,96c5.14,4.41,5,6-1,9-1.6.8-3.32,1.34-5,2,1-2.27,3.41-2.93,5-4.5s2.66-3.08-.11-4.52C81.39,96.79,81.3,95.88,83,96Z"/><path class="cls-44" d="M76,101.14l-3-.07a1.93,1.93,0,0,1-2.34-1.16C70.48,97.6,72,96.4,73.7,95.37a3.25,3.25,0,0,1,2.09,0,4.91,4.91,0,0,1,2.41,3.89c0,.23,0,.45,0,.67C78,101.38,76.9,101.05,76,101.14Z"/><path class="cls-45" d="M40,91.8l-2,.16a1.33,1.33,0,0,1-2,0l-4-.11L32,91l.25-.15c1.25-.95,2.06-2.56,3.88-2.7,2.22,1.58,2.59-2.66,4.69-1.49a2.12,2.12,0,0,1,.78,1.18A4.36,4.36,0,0,1,40,91.8Z"/><path class="cls-46" d="M36.05,92h2q1.47,5,3,10C37.45,99.57,37.54,95.37,36.05,92Z"/><path class="cls-47" d="M83,96l-1.09,2c-1.23.7-2.13,2-3.73,2l-.35.06a3.29,3.29,0,0,1,.85-3.81c1-.85,1.8-2.11,3.32-2.23l3,0c0,.35,0,.7-.07,1Z"/><path class="cls-48" d="M82,93.94c-.91.79-.7,2.39-2.07,2.84-.73-1.06-2-1.64-2.66-2.75a3,3,0,0,1,.06-2,2.91,2.91,0,0,1,1.47-1.42A2.41,2.41,0,0,1,81.66,92a1.57,1.57,0,0,0,.53,0Z"/><path class="cls-49" d="M63,58c-1,2.67-2.43,3.72-3.58.37-.65-1.89-2-3.41-2.37-5.35,1.77.87,3.38,1.74,3.47,4.15C60.62,59,62,58.42,63,58Z"/><path class="cls-50" d="M65.86,56c.9-1.66,2.63-2.84,2.84-4.9a.59.59,0,0,1,.52-.14,1,1,0,0,1,1.21.38,3.31,3.31,0,0,1,.49,1.39,4.23,4.23,0,0,1-3,4A2.11,2.11,0,0,1,65.86,56Z"/><path class="cls-51" d="M57.13,51A6.48,6.48,0,0,1,61,50,3.44,3.44,0,0,1,57.12,52,3.16,3.16,0,0,1,57.13,51Z"/><path class="cls-52" d="M65.86,56,68,56c.62,2.23-.65,3-2.54,3.29l-.59-.39.27-2.77A2.42,2.42,0,0,1,65.86,56Z"/><path class="cls-53" d="M72.43,63.28c-.12.27-.23.55-.33.83-.55.42-.44,1.1-.65,1.66-.64,1.66-2.37,2.28-3.41,3.57s-.35,3.08-.94,4.54a3.68,3.68,0,0,1-3.64,2.35,3.57,3.57,0,0,1-2.12-.79,1.41,1.41,0,0,1,0-2c1.87-.89,2.33-2.5,2.22-4.41,0-3.78,2.66-5.34,5.47-6.81A3,3,0,0,1,72,63Z"/><path class="cls-54" d="M71,65l1.11-.9c2.75,3.37-.09,7.22.93,10.75-1.16.69-1.94,0-2.69-.76a4.55,4.55,0,0,1-.74-2.23c0-.53-.06-1.05,0-1.58A13.9,13.9,0,0,1,71,65Z"/><path class="cls-55" d="M76,77a6.2,6.2,0,0,1,1.93-5L81,76c-1,.89-1.56,2.35-3.1,2.64A2,2,0,0,1,76,78C76,77.62,76,77.29,76,77Z"/><path class="cls-56" d="M71.12,74.29l1.91.57c2,2.09,0,3.4-1,4.9a3.37,3.37,0,0,1-2.93-2.87C69.15,75.52,69.52,74.44,71.12,74.29Z"/><path class="cls-57" d="M69.81,77c.31,1.29,2.49,1,2.27,2.75L73,81a1.26,1.26,0,0,1,.3,1.28,2.47,2.47,0,0,1-1.62,1.32c-2.51.13-3.11-1.88-4-3.57C67.61,78.48,67.73,77.05,69.81,77Z"/><path class="cls-58" d="M73,82V81c2,0,1.83-2.21,3-3.06l2,0a2.45,2.45,0,0,1,.84,1.12,3.6,3.6,0,0,1-.1,2.13c-.82,1.78-2.13,2.59-4.11,2A2.65,2.65,0,0,1,73,82Z"/><path class="cls-47" d="M84,105.94c2.06-2,5.34-3.2,5-7,1.89,1,2.27,2.26.66,3.75S86.71,106.68,84,107Z"/><path class="cls-59" d="M58.94,60.87c-.6,1.55-2.12,2.71-1.95,4.59a.86.86,0,0,1-.61,1.2,2.81,2.81,0,0,1-2.31-.32c-1.42-1.42-1.33-2.86,0-4.31Z"/><path class="cls-60" d="M54.05,62c-.07,1.42-.31,2.87,1,4-.74,2.65-1.74,1.29-2.72.18a5.15,5.15,0,0,1,.58-4.05c.08-.4.16-.81.25-1.21Z"/><path class="cls-61" d="M69,63.2c-1.4,2.24-5.16,3-4.13,6.76-1.42.46-2.12-.6-2.95-1.38-.6-1.34-3.05-1.7-2.06-3.88.79-1.22,1.32-2.71,3.1-2.82,1.58,0,3.11-1.25,4.72-.14A2.23,2.23,0,0,1,69,63.2Z"/><path class="cls-62" d="M59.9,64.7C60.56,66.17,63,65.94,63,68a2.36,2.36,0,0,1-2.81,1.7,6.07,6.07,0,0,1-3.47-2.41A1.2,1.2,0,0,1,57,66a.8.8,0,0,1,0-.55Z"/><path class="cls-52" d="M67,63c-.75-.08-1.37-1.08-2.22-.43-1.22.94-1.2,1-1.79-.67l1.84-3,.28.16c1.1.37,2.13.82,2.49,2.08A2,2,0,0,1,67,63Z"/><path class="cls-63" d="M42.05,57.05l-.08,4a2.47,2.47,0,0,1-2.49,1.17A1.44,1.44,0,0,1,39,59.85c1.51-.3,1.87-1.5,2.16-2.75A1.71,1.71,0,0,1,42.05,57.05Z"/><path class="cls-64" d="M81.66,92,79,91.06a2.28,2.28,0,0,1-.61-1.23A14,14,0,0,1,79,85.66,3.16,3.16,0,0,1,80,84.6a2,2,0,0,1,2.48.67c.45,1.68,1.79,3,2.07,4.73a.94.94,0,0,1-.85.81Z"/><path class="cls-65" d="M83.66,90.81A8.64,8.64,0,0,0,84,90c.68-.77,1.13-1.79,2.27-2.07l.63,0h1C90.62,94.76,85.06,89.81,83.66,90.81Z"/><path class="cls-66" d="M44.27,68.91q.33,0,.66,0L46,70.08a3.17,3.17,0,0,1,1.1,1.59c-.08,1.23-.08,2.41,1.39,2.92.12,1.85-1.06,2.67-2.53,3.28a4.33,4.33,0,0,1-1.64.13,3,3,0,0,1-2.12-1.34C41.35,73.67,40.88,70.78,44.27,68.91Z"/><path class="cls-67" d="M46,72V70.07A7,7,0,0,1,50,68.9c2.13.1,1.19,1.31.84,2.3a3.36,3.36,0,0,1-1.59,1.22A3.85,3.85,0,0,1,46,72Z"/><path class="cls-68" d="M50,71c.24-.7.83-1.4-.07-2.07L51,66a.93.93,0,0,1,1.44.43C53,68.63,54.6,71.46,50,71Z"/><path class="cls-69" d="M52.05,66H51c0-1.61.16-3.1,1.86-3.87,0,1.29.07,2.57.1,3.86C52.67,66.48,52.37,66.49,52.05,66Z"/><path class="cls-70" d="M42.89,77l2.26.11c.26,1.16-.53,1.78-1.22,2.42-.58.93.51.7.79,1.06a2.31,2.31,0,0,1,.76,1c-.16,3-2.35,3.39-4.65,3.66a5.33,5.33,0,0,1-1.48-.2,4.81,4.81,0,0,1-2.43-1.63,1.35,1.35,0,0,1,0-1.36c1.84-1.31,3.39-2.64.09-4.07,0-.36,0-.72,0-1.08A4.2,4.2,0,0,1,41.59,76,6,6,0,0,1,42.89,77Z"/><path class="cls-71" d="M36,70c.06-.31.11-.63.15-.94,1.68-.91,1.17-2.7,1.66-4.1,2-.37,2.67,1.3,3.69,2.44.27,1.82-.78,2.71-2.3,3.29a2.68,2.68,0,0,1-2.14-.46Z"/><path class="cls-21" d="M37.06,70.22l1.86-.36c2.95.19,3,1.51,1.34,3.48-1.54.71-2.49,0-3.23-1.31Z"/><path class="cls-72" d="M37,72,40,73a.73.73,0,0,1,1.24.09A2.28,2.28,0,0,1,40,75.61,2.64,2.64,0,0,1,37.1,75Z"/><path class="cls-73" d="M37.1,75,40,75a2.43,2.43,0,0,1,2.28.9.64.64,0,0,1-.38,1l-4.84.08C37.07,76.29,37.09,75.66,37.1,75Z"/><path class="cls-32" d="M36.06,88.93c-1.12.92-1.94,2.42-3.77,1.89A4.37,4.37,0,0,1,34,87a2.3,2.3,0,0,1,2.28.84A1,1,0,0,1,36.06,88.93Z"/><path class="cls-74" d="M36,88l-2-1a2.82,2.82,0,0,0,0-.82A4.65,4.65,0,0,1,35.78,85a2.58,2.58,0,0,1,2.11-.33,2,2,0,0,1,.83,1.21C38.51,87.45,38.4,89.16,36,88Z"/><path class="cls-75" d="M36.3,85.56,34,86.15a4.14,4.14,0,0,0,0-4.27l2.92.18c.08.25.17.49.25.74A2.58,2.58,0,0,1,37,84.25C36.78,84.69,36.55,85.13,36.3,85.56Z"/><path class="cls-76" d="M38.19,64.93c-.44,1.49.59,3.71-2,4.12l-1.09-1c3-.79,1.63-3.3,2-5.12.77-.2,1.18.21,1.45.86A1.55,1.55,0,0,1,38.19,64.93Z"/><path class="cls-77" d="M67,63l0-1.9a3,3,0,0,1,2.17-1.94A2.9,2.9,0,0,1,72,60l0,3-3,.17Z"/><path class="cls-78" d="M70,52a1.73,1.73,0,0,1-.11-.9.7.7,0,0,1,1-.23L72,51c2,2.65,0,5.32,0,8-2.55.09-2.18-1.75-2.21-3.32C69.92,54.46,71.06,53.3,70,52Z"/><path class="cls-79" d="M71,55c.1,1.39-.39,2.92,1,4,0,.34,0,.68,0,1H69C66.69,57.15,68.67,56,71,55Z"/><path class="cls-80" d="M83,81c1,2.44,4.55,3.47,3.84,6.87h-.09c-1.72,1.48-2.62.18-3.55-1,0-2-2.42-3.1-1.71-5.28L82,81Z"/><path class="cls-81" d="M78,81V79a3,3,0,0,1,4,0c.9.66.2,1.33,0,2l0,0c-.5.42-.6,1.06-.92,1.58a2,2,0,0,1-2.26.62A2.53,2.53,0,0,1,78,81Z"/><path class="cls-82" d="M82,79H78c0-.33,0-.66,0-1a3.2,3.2,0,0,1,3-2C81.31,77,81.64,78,82,79Z"/><path class="cls-83" d="M41.89,76.83a4.41,4.41,0,0,0,0-.89c-1-.76-.37-2-.83-2.88L40,73c.91-1.48.3-2.43-1.08-3.11C39.79,69,41.22,68.6,41,67c-.27-.81.18-1.12.88-1.25,1.16.29,1.25,1.65,2.19,2.17l.21,1a19.59,19.59,0,0,0-1.38,8Z"/><path class="cls-84" d="M44.06,67.89c-1.41,0-1.92-.88-2.18-2.06a1.78,1.78,0,0,1-.43-1.77c.38-1.18,1.6-1.32,2.42-2a2.92,2.92,0,0,0,.61-.31A1.72,1.72,0,0,1,45,62Z"/><path class="cls-85" d="M38.17,64.06,37.09,62.9c0-1.24.07-2.48.11-3.72a3.7,3.7,0,0,1,.93-.16l.89.83L40,62l.27.66C39.9,63.66,39.34,64.31,38.17,64.06Z"/><path class="cls-86" d="M43.87,62.1A2.36,2.36,0,0,1,42.07,64c-2,.55-1.51-1-1.77-2L40,62a1.94,1.94,0,0,1,2-.93Z"/><path class="cls-87" d="M70.92,50.9l-1,.23a1.37,1.37,0,0,0-.68-.22A6.36,6.36,0,0,1,70.11,47h.79C70.9,48.32,70.91,49.61,70.92,50.9Z"/><path class="cls-88" d="M71,99.91,73,101.07a27.15,27.15,0,0,1-13.72,9.48c-4.87,1.42-9.71.65-13-3.92-3.14-4.41-5.7-9-2.26-14.52a1.23,1.23,0,0,1,1.17-.42,3.91,3.91,0,0,1,1.12.68A36.18,36.18,0,0,1,49,95.13a4.43,4.43,0,0,0,3.87,1.31c1.35-.32,2.69.1,4,0a23.88,23.88,0,0,1,3.49-.22c1.59.21,3.26-.17,4.81.52a13.2,13.2,0,0,0,2.51,1A7.29,7.29,0,0,1,71,99.91Z"/><path class="cls-89" d="M45.08,91.81l-1.06.3-4-.31c.06-1.43-.19-3,1.17-4a2.91,2.91,0,0,1,2.44-1.31,3,3,0,0,1,2.24,1.81A3.06,3.06,0,0,1,45.08,91.81Z"/><path class="cls-90" d="M77.92,94c1.36.43,2.32,1.15,2,2.79-.91.93-1.93,1.78-2.1,3.2A6.88,6.88,0,0,1,76,96c-.67-.45-1.46-1-.92-1.86C75.83,93,76.92,93.18,77.92,94Z"/><path class="cls-91" d="M71,99.91a4.4,4.4,0,0,1-3.94-1.08.81.81,0,0,1-.36-.7c0-.28.05-.42.11-.42a3.75,3.75,0,0,1,.94-.88A9.81,9.81,0,0,0,70,95.55a7.08,7.08,0,0,1,1.14-.64c1-.38,2.08-.75,3.15-.06A.85.85,0,0,1,74,96Z"/><path class="cls-92" d="M74,96V95a2.82,2.82,0,0,1-.71-3.34C75,89.47,76.5,90.47,78,92c0,.67,0,1.34,0,2-1.32,0-2.84-.18-1.94,2Z"/><path class="cls-93" d="M43,87l-1.86.77A2.59,2.59,0,0,1,41,87c-.72-.9-1.77-1.68-.95-3.06,2.11-.27,4.49-.14,4.86-3.12l.72-.28c3.23.52,3.78,2.22,2.16,4.89C46.59,87.17,44.63,86.55,43,87Z"/><path class="cls-94" d="M40,84c.32,1,.64,2,.95,3-1.91-.06-2,4.62-4.92,1.9,0-.31,0-.62,0-.93,1.71-.17,2.08-1.3,1.95-2.77A1.16,1.16,0,0,1,39.11,84Z"/><path class="cls-95" d="M78,92c-1.7,1.16-2.5-1.23-4-1l-.5-.47a2.36,2.36,0,0,1,0-2,1.71,1.71,0,0,1,1.69-.89c1.32.71,3,.88,3.81,2.38l0,1Z"/><path class="cls-96" d="M71,55c-1.19,1.46-2.74,2.77-2,5l-1.94,1.07a3.38,3.38,0,0,1-2-2A7.4,7.4,0,0,0,68,56c.68-1.32,2.07-2.28,2-4C71.09,52.77,71,53.89,71,55Z"/><path class="cls-97" d="M60,68.88,63,68,64.92,70c0,2.1.25,4.39-3.06,3.89C60.48,73,59,72.28,58.48,70.59,58.51,69.58,58.63,68.63,60,68.88Z"/><path class="cls-98" d="M59,71c2.14-.26,3.18.58,2.83,2.82l-1,1.05-.4.53a2.63,2.63,0,0,1-1.9.33,3.22,3.22,0,0,1-2.25-2.2,3.07,3.07,0,0,1,.06-1.28,2.48,2.48,0,0,1,.79-1A3,3,0,0,1,59,71Z"/><path class="cls-99" d="M66,73c.16-1.71-.44-3.55,1-5,2.44-1,3.18.39,3.46,2.43-.35,1.71-1.89,2.15-3.12,2.93A1.48,1.48,0,0,1,66,73Z"/><path class="cls-100" d="M70,71a3,3,0,0,0-3-3l4-3c0,2,0,4,0,6A.58.58,0,0,1,70,71Z"/><path class="cls-101" d="M66,73l1,0a2.45,2.45,0,0,1,.78,2.74,4.64,4.64,0,0,1-2.59,2.69,2.32,2.32,0,0,1-1.49-.14c-1.1-.89-1.75-1.87-.6-3.18C64.52,75,65.84,74.83,66,73Z"/><path class="cls-102" d="M63.06,75.06,64,78c-.93,1.23-2,2-3.47.82A3,3,0,0,1,61,75l-.09-.07Z"/><path class="cls-103" d="M65,78a2,2,0,0,1,2-2c1.22-1.42-.75-6,4-4l.15,2.28c-.44.91-.87,1.82-1.31,2.72L68,80l-.48.45a2.17,2.17,0,0,1-1.89-.12C65,79.69,64.42,79,65,78Z"/><path class="cls-104" d="M71,72c-3.24-.6-2.58,2.72-4,4,0-1,0-2,0-3,.25-1.83,1.59-2,3-2,.33,0,.66,0,1,0C71,71.32,71,71.66,71,72Z"/><path class="cls-105" d="M68,80c2.15-.09,1.83,3.07,4,3a1.85,1.85,0,0,1,.38,2c-2,2.44-3.29,6.12-7.68,4.29-2.14-.89-3.19-2.41-1.06-4,2-1.46,2.56-3.84,4.39-5.27Z"/><path class="cls-106" d="M71.92,84.9c0-.64,0-1.28,0-1.92l1-1,2,0a1.4,1.4,0,0,1,.47,1.22c-.42,1.51-1.21,2.52-3,2.16Z"/><path class="cls-107" d="M75,83V82c1.45.94,2.16-.32,3-1l1,2c.35,2.36-.09,4.18-3,4.28C74.49,86.12,74.76,84.56,75,83Z"/><path class="cls-108" d="M57.25,72.11a6.86,6.86,0,0,1-.32.9,2.55,2.55,0,0,1-2.43,1.86,16.83,16.83,0,0,1-3.16-.3,4.16,4.16,0,0,1-1.65-.9A2.29,2.29,0,0,1,49,72L50,71c3-.71,1.65-3.19,2-5L53,66c.67.89,1.35,1,2,0l2,0c0,.33,0,.65,0,1a4.37,4.37,0,0,1,.83,1.09C58.3,69.52,57.4,70.76,57.25,72.11Z"/><path class="cls-109" d="M57,68c0-.34,0-.68,0-1a3.43,3.43,0,0,1,3,1.89c-.34.71-.67,1.43-1,2.15l-1,1C56.5,71,58.19,69.13,57,68Z"/><path class="cls-110" d="M84,86a2.76,2.76,0,0,0,2.81,1.85A2.69,2.69,0,0,1,84,90c-1.14-1.11-3.85-1.44-2-4A1.35,1.35,0,0,1,84,86Z"/><path class="cls-111" d="M76.08,87.05c1.62-.9,2-2.64,2.9-4.08l2-1c1.14,1.49.18,2.28-1,3,0,.32,0,.64,0,1-1.09,1.46-.86,5.3-4.36,2.42A1.2,1.2,0,0,1,76.08,87.05Z"/><path class="cls-112" d="M75.89,87.79C78.55,90.05,78.58,86.52,80,86c0,1.42.34,3-1,4.06-1.49-.22-3.43.46-3.89-1.89A.56.56,0,0,1,75.89,87.79Z"/><path class="cls-113" d="M80,85l1-3,1-1c.65,1.66,1.31,3.31,2,5l-2-.06Z"/><path class="cls-114" d="M50.07,73,51,74c0,.23.08.45.11.68a3.48,3.48,0,0,1-3.18,3.83,1.92,1.92,0,0,1-2-1.61C46.75,76,48,75.49,48,74,48,72.26,48.85,72.26,50.07,73Z"/><path class="cls-115" d="M46,76.89l2,1.17a1.17,1.17,0,0,1,.23,1.16c-.72,1.29-2.12,1.21-3.28,1.61l0,0-.31-.07-.32,0c-1-.23-1.75-.58-1.17-1.81l2.06-1.93A3.88,3.88,0,0,0,46,76.89Z"/><path class="cls-116" d="M50.07,73l-2,1c-2.26.87-1.93-.78-2-2A2.74,2.74,0,0,1,49,72Z"/><path class="cls-117" d="M43.09,79l1.17,1.81c-1.33.37-3.07,2.28-3.83-.17C39.89,78.86,41.94,79.19,43.09,79Z"/><path class="cls-118" d="M39.11,84,38,85.23,37.81,85l.19-.19a9.48,9.48,0,0,1-1.8-.59l1-1.43Z"/><path class="cls-119" d="M40.3,62l1.77,2c-.06.61-.13,1.21-.19,1.81L41,67c-2.47,1.44-1.7-1.59-2.81-2a1.52,1.52,0,0,1,0-.87Z"/><path class="cls-120" d="M41.06,73.06c1,.74.94,1.81.84,2.88L40,75Z"/><path class="cls-51" d="M36.2,84.23c.7-.12,1.42-.28,1.8.59l-1.7.74Z"/><path class="cls-121" d="M61,97.77H57c-1.35-1-2.17-2.21-1.41-4,2.25-1.89,3.63-4.84,6.8-5.63,2.61.69,6.06,0,6.68,4a3.91,3.91,0,0,1-.4,1.39C65.5,93.82,63.58,96.44,61,97.77Z"/><path class="cls-122" d="M52,97.93c-1.84.47-3.81,1.24-4.09-1.81a7.14,7.14,0,0,1,1.85-6.29,2.33,2.33,0,0,1,2.08-.29c.71,1.57,2.76,1.68,3.51,3.21A9.18,9.18,0,0,1,52,97.93Z"/><path class="cls-123" d="M61,97.77c.6-.94,1.52-1.81,1.75-2.83,1.1-4.78,2.93-3.89,5.16-.81.59,1,.16,1.73-.43,2.48a4.77,4.77,0,0,1-2.38,1.22C63.71,96.66,62.32,98.32,61,97.77Z"/><path class="cls-124" d="M52,97.93a4.85,4.85,0,0,1,3-5c.9-.26,1.23.07,1,1l1,3.82Z"/><path class="cls-125" d="M45.08,91.81,45,88a2.16,2.16,0,0,1,1.39-1.46,3,3,0,0,1,1.42.1c1.46.75,2.34,1.77,1.68,3.53-.81,1.7-1.2,4-4,2.74Z"/><path class="cls-126" d="M45.43,92.9c1.94-.08,2.36-2,3.56-3l.55-.34L50,90c.17,2.35-1.2,4.15-2.12,6.11Z"/><path class="cls-127" d="M65.06,97.83,67,96a1.68,1.68,0,0,1,.16,2.13,6,6,0,0,0-.08.74A1.65,1.65,0,0,1,65.06,97.83Z"/><path class="cls-128" d="M47,87l-2,1L43,87,47,85A1.45,1.45,0,0,1,47,87Z"/><path class="cls-129" d="M74,91c0,1.33,0,2.66,0,4L71,96a3,3,0,0,1-1.92-2.72c.33-3.42,2.08-3.9,4.83-2.35Z"/><path class="cls-130" d="M70,94l1,2L71,96c-.89.82-2.22,1-3,2l-.85.11C67.1,97.38,67,96.67,67,96l.89-1.83c.05-.4.11-.79.16-1.19C69.16,92.38,69.46,93.42,70,94Z"/><path class="cls-131" d="M68,98c.18-1.86,1.52-2,3-2A3.16,3.16,0,0,1,68,98Z"/><path class="cls-132" d="M47,87c0-.67,0-1.34,0-2,1.68-2.58-.49-3.22-2.08-4.14.46-1.49,1.59-1.91,3-1.88,2.59-1.21,3.58.33,4.25,2.45a4.88,4.88,0,0,1-.31,2.42C50.64,85.48,49.6,87.42,47,87Z"/><path class="cls-106" d="M70,94l-2-1c-.18-4.11-3.23-3.85-6-4-.62-.29-1.26-.57-1.51-1.29a7.18,7.18,0,0,1,.55-4,4.86,4.86,0,0,1,1.8-1.91c1.11-.54,2-1.6,3.27-1.79L68,80a7.37,7.37,0,0,1-4.82,7.21c2.8,1.26,5.07,2.37,6.49-1.44.18-.5,1.47-.59,2.25-.86l.2.19c1.43,1,1.25,2.67,1.91,4,0,.61,0,1.21-.08,1.82C71.88,90.94,69.75,90.9,70,94Z"/><path class="cls-133" d="M74,89.09a3.57,3.57,0,0,1-1.91-4L75,83a5.87,5.87,0,0,1,1.13,4,1.6,1.6,0,0,0-.19.74,4.22,4.22,0,0,0-.83.33Z"/><path class="cls-134" d="M54.07,74l2.86-1L59,75.1a1.74,1.74,0,0,1,.28,2A5.24,5.24,0,0,1,56,78.85a3.75,3.75,0,0,1-1.56-.19,2.44,2.44,0,0,1-1.16-1.06C52.76,76.23,52.79,75,54.07,74Z"/><path class="cls-135" d="M59,77,59,75.1,61,75c0,1.34,0,2.68,0,4a1.6,1.6,0,0,1,.55,1.19,1.72,1.72,0,0,1-.75,1.09,1.62,1.62,0,0,1-1.27-.37C58.51,79.7,58.63,78.34,59,77Z"/><path class="cls-60" d="M57,68c1.36,1.09.94,2.63,1,4l-.38.08-.39,0C55.33,70.86,57.16,69.37,57,68Z"/><path class="cls-136" d="M61,80c0-.33,0-.67,0-1l3-1L65,78,66.12,80a3.23,3.23,0,0,1-2.11,3A5.37,5.37,0,0,1,61,80Z"/><path class="cls-137" d="M54.07,74l-.13,3.91a1.39,1.39,0,0,1-1.3.27A3.53,3.53,0,0,1,51,74l0,0C52,73.63,53.05,72.58,54.07,74Z"/><path class="cls-138" d="M51,74l2.09,3.91c.33,1.55,1.67,3.18-.35,4.56A1.44,1.44,0,0,1,51,81.82c-.17-1.88-1.34-2.69-3.1-2.87a1.19,1.19,0,0,0,.05-.89Z"/><path class="cls-139" d="M61,88l1,1c-1.7,2-2.45,5.18-6,5l-1-1c-.72-1.23-3.71-.09-3-2.84a2.89,2.89,0,0,1,1.66-1.93c1.13-.61,2.48-.55,3.59-1.23a4.9,4.9,0,0,1,1.83-.5A2.17,2.17,0,0,1,61,88Z"/><path class="cls-140" d="M54.16,89.18l-2.12,1L50,90v0c-1.33-2.39-.44-4.08,1.68-5.4a2,2,0,0,1,2.63.74C55.09,86.63,53,87.84,54.16,89.18Z"/><path class="cls-128" d="M52,85.06C51.06,86.59,49.65,87.93,50,90l-1,0c0-1.46-1.3-2-2-3,1.68-.44,1.83-2.93,3.86-2.92A1,1,0,0,1,52,85.06Z"/><path class="cls-141" d="M52,85.06l-1.09-1c0-.75.09-1.49.13-2.25l2.09,0c2.13-.47,4.28-1.38,6.37.14a3.43,3.43,0,0,1,.32,3.53c-1.24,1.43-2.86,1.58-4.59,1.36A3.2,3.2,0,0,1,54.06,86,2.18,2.18,0,0,0,52,85.06Z"/><path class="cls-142" d="M58.84,86.13l.14-4a.79.79,0,0,1-.37-1l.4-.44a.78.78,0,0,1,1,.3c.33,0,.65,0,1,0,1.25.71.42,2.1,1,3-.32,1.34-.65,2.67-1,4L59.1,87a.59.59,0,0,1-.35-.53C58.75,86.25,58.78,86.13,58.84,86.13Z"/><path class="cls-143" d="M62,84c-1-.78-1-1.92-1-3,0-.32,0-.63,0-1a7.17,7.17,0,0,1,3,2.93Z"/><path class="cls-144" d="M59,81c0,.36,0,.73-.05,1.09-2,.21-4,1.91-5.88-.32,1.23-1.3-2.66-2.6,0-3.9a5.9,5.9,0,0,0,.84,0l1.11.18C56.11,79.43,58.3,79.23,59,81Z"/><path class="cls-145" d="M59,81c-2,0-3.79-.4-4-2.92.31,0,.63-.1.94-.13,3.11-1.07,4.1,0,3,3.05Z"/><path class="cls-144" d="M59,81c.11-2.14-.87-3.18-3-3.05.76-1,1.89-1,3-1,1.33,1.09,1,2.62,1,4Z"/><path class="cls-146" d="M54.06,86l1.32.16c.72.93,2.31.64,2.74,2-1.12,1.1-2.62.77-4,1.05-.76-.35-2.3.3-2.21-.93C52,87.45,53.31,86.74,54.06,86Z"/><path class="cls-147" d="M58.12,88.13c-1.22-.24-2.86.11-2.74-2,1.15-.47,2.3-1,3.46,0a1.42,1.42,0,0,0,.26.87Z"/></svg>