<svg id="Layer_1" data-name="Layer 1" xmlns="http://www.w3.org/2000/svg" viewBox="0 0 128 128"><defs><style>.cls-1{fill:#303640;}.cls-2{fill:#fdfefe;}.cls-3{fill:#6f7274;}.cls-4{fill:#f8fafb;}.cls-5{fill:#c7cace;}.cls-6{fill:#9db9ca;}.cls-7{fill:#a6e0fe;}.cls-8{fill:#9ed9fd;}.cls-9{fill:#020827;}.cls-10{fill:#e7faf7;}.cls-11{fill:#93d1f7;}.cls-12{fill:#ade9fd;}.cls-13{fill:#cef0f7;}.cls-14{fill:#b8cfde;}.cls-15{fill:#6297b9;}.cls-16{fill:#2e678c;}.cls-17{fill:#bdf5fd;}.cls-18{fill:#83bee4;}.cls-19{fill:#bbf3fe;}.cls-20{fill:#d1e7f5;}.cls-21{fill:#dbecf6;}.cls-22{fill:#c1ecf6;}.cls-23{fill:#344e62;}.cls-24{fill:#8fc4e5;}.cls-25{fill:#abd9ee;}.cls-26{fill:#0ad520;}.cls-27{fill:#0d7ed2;}.cls-28{fill:#3c444f;}.cls-29{fill:#354559;}.cls-30{fill:#b5c02b;}.cls-31{fill:#6a737c;}.cls-32{fill:#e3fdfe;}.cls-33{fill:#43738d;}.cls-34{fill:#4b7e9a;}.cls-35{fill:#41677f;}.cls-36{fill:#5fb900;}.cls-37{fill:#288004;}.cls-38{fill:#48a200;}.cls-39{fill:#389300;}.cls-40{fill:#003f02;}.cls-41{fill:#294a5e;}.cls-42{fill:#419805;}.cls-43{fill:#1d7605;}.cls-44{fill:#024903;}.cls-45{fill:#e7fbf7;}.cls-46{fill:#007000;}.cls-47{fill:#355e64;}.cls-48{fill:#48687a;}.cls-49{fill:#2d4758;}.cls-50{fill:#363c3f;}.cls-51{fill:#93b7c2;}.cls-52{fill:#0a5a0a;}.cls-53{fill:#34fe46;}.cls-54{fill:#404346;}.cls-55{fill:#fefe8b;}.cls-56{fill:#dcfcfe;}.cls-57{fill:#f9fefe;}.cls-58{fill:#4d9d00;}.cls-59{fill:#2b5710;}.cls-60{fill:#26530b;}.cls-61{fill:#d6dbe0;}.cls-62{fill:#74828c;}.cls-63{fill:#788289;}.cls-64{fill:#90989c;}.cls-65{fill:#758189;}.cls-66{fill:#bec0c2;}.cls-67{fill:#60bc00;}.cls-68{fill:#50a100;}.cls-69{fill:#f4fefe;}.cls-70{fill:#b1d0e4;}.cls-71{fill:#869eae;}.cls-72{fill:#ebfbfe;}.cls-73{fill:#c0e1f6;}.cls-74{fill:#cfebf1;}.cls-75{fill:#c6f9fe;}.cls-76{fill:#a7d8d5;}.cls-77{fill:#a6e1fe;}.cls-78{fill:#108500;}.cls-79{fill:#015102;}.cls-80{fill:#9bcff3;}.cls-81{fill:#25a204;}.cls-82{fill:#d2fefe;}.cls-83{fill:#18aefe;}.cls-84{fill:#8b9eaa;}.cls-85{fill:#8c9ca9;}.cls-86{fill:#5a6c78;}.cls-87{fill:#417698;}.cls-88{fill:#043c0a;}.cls-89{fill:#8dc7e6;}.cls-90{fill:#d9fcfc;}.cls-91{fill:#489d00;}.cls-92{fill:#53aa04;}.cls-93{fill:#39a800;}.cls-94{fill:#4db400;}.cls-95{fill:#44b000;}.cls-96{fill:#54b600;}.cls-97{fill:#0d7800;}.cls-98{fill:#5bba00;}.cls-99{fill:#228c01;}.cls-100{fill:#65bf00;}.cls-101{fill:#4ba004;}.cls-102{fill:#d3dbe2;}.cls-103{fill:#b4c7c2;}.cls-104{fill:#b8d6cf;}.cls-105{fill:#57b80b;}.cls-106{fill:#4b9f00;}.cls-107{fill:#5ab900;}.cls-108{fill:#5fbb00;}.cls-109{fill:#2f9d03;}.cls-110{fill:#d0e3f9;}.cls-111{fill:#49b205;}.cls-112{fill:#30a700;}.cls-113{fill:#39ac00;}.cls-114{fill:#159600;}.cls-115{fill:#178900;}.cls-116{fill:#0c8200;}.cls-117{fill:#349500;}.cls-118{fill:#419b00;}.cls-119{fill:#40ae00;}.cls-120{fill:#3d9900;}.cls-121{fill:#51b500;}.cls-122{fill:#339600;}.cls-123{fill:#47b100;}</style></defs><path class="cls-1" d="M125.93,59c-4.87,1.89-8.1,4.89-9.16,10.46-.68,3.54-3.87,3.34-6.23,1.29-2-1.72-3.35-1-4.6.46C90.36,89.74,69.45,95.41,46.42,96c-4.88.12-9.4.35-11.24,6.32-1,3.09-3.86,2.69-5.54.59-2.48-3.1-5.68-3.7-9.2-3.92-4.17-.27-6.79-2.2-7.35-6.55-.39-3.05-1.95-5.42-3.81-7.9C4.84,78.58,3.35,72,6.61,64.84c.4-.88,1-2.17.71-2.77C4.73,57.56,6.89,55,10.66,52.8c3.05-1.76,2.07-4.49,1.34-7-.63-2.27-1.66-4.79,1.25-6.06,2.61-1.13,5.8-1.68,8,.5s.57,4.49-1.59,6.86c5.66-.67,10.06-3,14.66-4.74,1.75-.64,1.2-2,.95-3.34-.38-2-.47-4.53,2.21-4.68,2.86-.16,6.62-2,8.34,2,.77,1.82,1.26,3.07,3.43,2.11,2.38-1,6.15.07,6.69-3.83.37-2.65-.17-5.69,3.89-5.54,3.08.11,7-1.32,7.37,4.1.16,2.4,2.41,1.74,4,1.82,2.21.12,2.81-1.16,2.86-3.14.06-2.37-.7-5.45,3.06-5.7,2.19-.15,5-1.11,6.37,1.43,1.27,2.34.88,4.85-1.53,6.84,10.27,3.23,19.81,7.27,26.57,16.12a5.84,5.84,0,0,0,6.9,2.08c3.43-1.16,7.11.34,10.57,1.39Z"/><path class="cls-2" d="M30.93,97.24A45.84,45.84,0,0,0,24.67,96c-5.34-.33-9-2.22-8.63-8.32.1-1.69-1.12-2.17-2.11-3-1.16-1-3.23-1.31-2.77-3.56,1.88-1.81,3.5-.39,5.18.38,1.2.83,2.34,1.88,3.95.84a8.4,8.4,0,0,1,1.19-.52,16.55,16.55,0,0,0,5.25-2.65A6.13,6.13,0,0,1,28,78.64a93.65,93.65,0,0,0,13.22-6.5,6.25,6.25,0,0,1,1.24-.55c1.46-.56,2.86-1.29,4.33-1.84a36.56,36.56,0,0,0,7.36-3.58,12.51,12.51,0,0,1,1.75-1c1.81-.73,3.73-1.19,5.49-2.08a7.21,7.21,0,0,1,1.25-.53c2.78-1.26,5.82-1.74,8.66-2.82,3-.56,5.92-2.27,9.19-1.48,2.83,2.35-.85,3.6-.9,5.48.9,3.17,3.45,5.33,5,8.11A3.34,3.34,0,0,1,84.58,74a3.92,3.92,0,0,1-1.37,1.67,14.68,14.68,0,0,1-3.94,1.54c-3.09.59-5.71,2.3-8.47,3.65A12.77,12.77,0,0,1,68.41,82a10.42,10.42,0,0,1-1.91.46c-.82.22-1.6.58-2.42.82a33,33,0,0,0-5.77,2.64,39.1,39.1,0,0,0-3.75,1.78,10.35,10.35,0,0,1,3.72-1.13,15.36,15.36,0,0,0,5.54-.88,13.13,13.13,0,0,0,4.33-.94c2.06-.47,4.09-1.2,6.27-.83,1.33.57,2.7,1.14,1.49,3-9.17,4.46-19.11,5.54-29,5.82A27.23,27.23,0,0,0,32.06,97,.71.71,0,0,1,30.93,97.24Z"/><path class="cls-3" d="M16.18,83a10.7,10.7,0,0,0-5-1.9C7.78,77.18,6.64,72.87,9.05,68c3.11-.91,5.9.36,8.74,1.26,1.53.9,1.55,2.88,2.86,4a12.62,12.62,0,0,1,1.76,2.9c.44,1.51,1.95,2.49,2.07,4.16-.24,2.07-2.33,1.86-3.46,2.83l.15-.06A4.88,4.88,0,0,1,16.18,83Z"/><path class="cls-4" d="M13,60.07c-1-.33-2.41.75-2.87-1-.4-1.54.51-2.36,1.62-3.24a37.41,37.41,0,0,1,16-7,33.67,33.67,0,0,1,7-.93,3.47,3.47,0,0,1,1.29.64,1.78,1.78,0,0,1,.4,1.33,5.3,5.3,0,0,1-2.61,2.31c-1.42.66-2.81,1.41-4.28,2a15.38,15.38,0,0,0-5.09,2.65,16.67,16.67,0,0,1-4.8,2c-1.95.19-3.55,1.48-5.46,1.77A1.73,1.73,0,0,1,13,60.07Z"/><path class="cls-5" d="M13,60.07a1.1,1.1,0,0,1,.79-.15,33,33,0,0,0,3.86-1.3c2.29.72,5.68-1.8,6.82,2.32.21,1.48-.62,2.55-1.45,3.62-1.47,1.31-2.1,3.16-3.07,4.79a1.85,1.85,0,0,1-1.66.84C15,70,11.82,69.94,9.05,68,8.66,64.52,12.63,63.19,13,60.07Z"/><path class="cls-6" d="M42.32,43.17c10.6-2.38,21.43-3.12,32.13-4.76,3.73-.57,7.2.57,10.78.88,1.69.15,1.32,1.5.89,2.64-.86,1.12-2,1-3.14.63-1.53-.85-3.09-1.44-4.82-.53l-.66.17a7.3,7.3,0,0,1-1.39.21c-1.45.07-2.89.06-4.34.07H67.38c-1.15,0-2.31,0-3.46,0-1.7-.21-2,1.29-2.8,2.27a5.05,5.05,0,0,1-3.83,1.54A6.72,6.72,0,0,1,55.21,46a10.52,10.52,0,0,1-1.84-.84c-1.86-1.11-3.73-.63-5.6,0a8.86,8.86,0,0,1-2.12.27,4.91,4.91,0,0,1-3.57-1A.69.69,0,0,1,42.32,43.17Z"/><path class="cls-7" d="M110.94,65c-.91.62-1.77,1.38-3,1-3.71,1-6.37-2.71-10-2.24a12.18,12.18,0,0,1-4.3-.1c-3.23-3-1.62-5.22,1-7.34,1.73-.88,3.59-.72,5.44-.68,3.07,3.52,7.49,5.34,10.87,8.47C111.23,64.28,111.1,64.69,110.94,65Z"/><path class="cls-8" d="M110.94,65c-2.51-2.55-6-3.1-9.08-4.51-1.84-.84-3.71-2,.08-2.79,0,0,0-.37-.09-.41a7.07,7.07,0,0,0-.92-.3,1,1,0,0,1,.15-1.41,4.8,4.8,0,0,1,3.7-.87,4.3,4.3,0,0,1,2,.87c.68,1.58,1.83,2.14,3.58,2.57,2.72.67,4.85,2.32,2.64,5.64Z"/><path class="cls-9" d="M90.16,46c4.67-3.27,5.66-3.06,9.88,2.13a2.7,2.7,0,0,1,.56,2.79c-1,1.81-2.54,2.13-4.38,1.69a7.78,7.78,0,0,1-1.9-.66,6.89,6.89,0,0,1-1.06-.69c-.5-.36-1-.72-1.53-1A5.19,5.19,0,0,1,90.28,49C89.75,48,89.15,47,90.16,46Z"/><path class="cls-10" d="M90.16,46c-.07,1.14,1.82,1.52,1.15,2.9-1.61,1.75-3.31.6-5,.18a5.72,5.72,0,0,1-1.75-1.33,8.19,8.19,0,0,0-4.1-2.55c-1.81-.61-3.29-1.69-2.44-4L78,40.94c1.68-.49,3.35-.9,5,.22a2.88,2.88,0,0,0,3.2.77C87.31,43.43,92.58,40.89,90.16,46Z"/><path class="cls-11" d="M113,63.79c.08-3.41-.84-5.46-4.93-4.22-1,.28-2.79,0-3.17-1.43-.11-.43,1.29-1.25,2-1.89,1-1.18,2.15-.75,3.32-.36L113.92,59c.38,1.9,1.92,4-1,5.29A.4.4,0,0,1,113,63.79Z"/><path class="cls-12" d="M98,63c.6-1.2,1.25-1.74,2.68-.88,2.35,1.42,4.84,2.59,7.27,3.87l-3,1c-2.88-.85-5.36,1.28-8.15,1.1a2.38,2.38,0,0,1-2.05-1.51c.11-1.64,1.69-1.76,2.63-2.54A3.2,3.2,0,0,0,98,63Z"/><path class="cls-13" d="M75.91,86.9c0-1.34-.93-1.73-2-1.94,0-2.5,2.45-2.13,3.63-3.24a6.25,6.25,0,0,1,5.25-.49,2.47,2.47,0,0,1,1.34,1.82C81.67,85,79.09,86.58,75.91,86.9Z"/><path class="cls-14" d="M42,44l4.07.07A1.8,1.8,0,0,1,46.45,46a4.21,4.21,0,0,1-2.12,1.78,6.61,6.61,0,0,1-1.36.4,7.92,7.92,0,0,1-2.12,0,7.19,7.19,0,0,1-1.38-.28c-1.23-.59-2.83-.51-3.58-2,.83-1,1.57-2.15,3.12-2.06A2.68,2.68,0,0,1,42,44Z"/><path class="cls-15" d="M104.25,67.33c-1.69,3-2.68,6.68-7.14,6.68l-.52-.49a2.18,2.18,0,0,1,1.68-3c1.41-.28.17-1,.49-1.43C100.17,67.18,101.8,66,104.25,67.33Z"/><path class="cls-16" d="M104.85,55.94l-3.94.39a5,5,0,0,1-3.06-.13,2.24,2.24,0,0,1-.46-1.47,2.07,2.07,0,0,1,.8-1.34c2.56-1.31,5.2-.78,7.84-.37l.92,2C106.41,55.71,105.44,55.39,104.85,55.94Z"/><path class="cls-17" d="M104.25,67.33c-2,.5-3.94,1-5.37,2.59a1,1,0,0,1-1.23.2c-.91-.88-1.39-1.86-.7-3.11,2.65-.47,5.29-2.8,8-.05A.79.79,0,0,1,104.25,67.33Z"/><path class="cls-18" d="M106,53c-2.48,2.22-5.51.15-8.16,1-2.05,0-3-.73-1.74-2.79,1.37,1.26,2.64,1.21,3.82-.27a9.26,9.26,0,0,1,1.28.22,20.27,20.27,0,0,0,3.18.7h.66Z"/><path class="cls-19" d="M100.12,51.69A.77.77,0,0,0,100,51l.09-2.89c2.83-.25,3.74,2,5,3.81l-.22,0C103.23,52.58,101.62,53.16,100.12,51.69Z"/><path class="cls-20" d="M35.89,45.94c1.42.32,3.1-.33,4.19,1.17-.44,2.7-2.39,2.1-4.15,1.91L35,49c-.73-.65-2-.76-2.12-2A3.48,3.48,0,0,1,35.89,45.94Z"/><path class="cls-21" d="M32.91,47,35,49c-2.45-.06-4.92.92-7.36-.1A8.74,8.74,0,0,1,32.91,47Z"/><path class="cls-22" d="M84.11,83.05,83,82.12c.36-2.11,2.08-2.8,3.71-3.59a2.85,2.85,0,0,1,1.36.06c.83.55,1.34,1.23.88,2.28C87.36,81.7,86,83,84.11,83.05Z"/><path class="cls-23" d="M112.9,64.3c1.12-1.61.91-3.48,1-5.29,2.11,1.76,1.71,4,.72,6C114.2,65.87,113.35,64.93,112.9,64.3Z"/><path class="cls-24" d="M97.11,74c-.24,2.54-1.53,4-4.18,4l-.44-.54a2.43,2.43,0,0,1,.21-2c1.14-1.28,2.36-2.33,4.23-1.36Z"/><path class="cls-25" d="M88.91,80.87l-1-1.72c1.28-2.17,2.95-2.6,5-1.12l0,0C92.37,80,90.46,80.2,88.91,80.87Z"/><path class="cls-26" d="M78.85,30.81c-.71-.21-1.6-.21-1.37-1.06.09-.35,1-.65,1.49-.66s1.48.39,1.49.63C80.49,30.89,79.4,30.55,78.85,30.81Z"/><path class="cls-27" d="M39.13,38.74c-.2-1.7.9-1.85,2.12-1.72.39,0,1.08.45,1.06.58-.24,1.27-1.48.94-2.28,1.33C39.56,39.64,39.26,39.57,39.13,38.74Z"/><path class="cls-28" d="M39.13,38.74a3,3,0,0,1,.89.19c0,1.81-.3,3.82,2.3,4.24-.1.28-.21.56-.33.83l-3-.12Z"/><path class="cls-29" d="M117.3,56.14a2,2,0,0,1-.34,3C115.42,57.93,117.58,57.17,117.3,56.14Z"/><path class="cls-30" d="M60.24,32.65c.69-1,2.34-1.11,2.73-.36.76,1.44-1,1-1.7,1.31C60.82,33.8,60.35,33.52,60.24,32.65Z"/><path class="cls-31" d="M30.93,97.24,32.06,97c-.14,1.14,1.25,2.27,0,3.49C30.54,99.79,31.09,98.39,30.93,97.24Z"/><path class="cls-18" d="M104.85,55.94,107,55c1,.52,2.38-.23,3.25.86l-3.31.36Z"/><path class="cls-32" d="M78,63c-.89-2.74,3.43-1.43,3-3.83a1.65,1.65,0,0,1,1.2-1.53l.7,0a2.76,2.76,0,0,1,1,1c.53,4.16,3,7.2,6,9.79,1,.85,2.17,1.48,2.44,2.93a1.63,1.63,0,0,1-.66,1.21,5.11,5.11,0,0,1-3.58.44,12.83,12.83,0,0,1-4-1.57C81.25,69.21,80,65.82,78,63Z"/><path class="cls-33" d="M87.05,79c-.82,1.74-2.77,2-4.09,3.09A6,6,0,0,0,78,83c-2.58,1-3.7-.47-4.37-2.65.93-2.64,3.8-2.79,5.57-4.37,1-1.32,2.44-.93,3.75-1.1C85,75.6,87.05,76.29,87.05,79Z"/><path class="cls-34" d="M87.05,79c-1-1.77-3.84-1.69-4.11-4.16l1-1.06c.74-1.82,1.75-3.1,4-1.9l4.14.25c2,.88,2,2.21.9,3.81V78c-1.88-.53-3.36.75-5,1.12A3.28,3.28,0,0,0,87.05,79Z"/><path class="cls-35" d="M74,80c1.26,1.07,2.08,2.73,4,3l-4.1,2-5.84,1.25c-1.71-1.68-1.51-3.38-.08-5.11l1.94-1.25C71.3,79.43,72.7,78.85,74,80Z"/><path class="cls-36" d="M28,79.89a.73.73,0,0,1-.73.28c-1,.4-1.88.57-2.64-.39s-2.17-1.39-1.9-3c1.23-2.61,4-2.88,6.17-3.94,1.71-.39,3.34-1.17,5.16-1a2.49,2.49,0,0,1,2.28,1.68C34.88,77.41,30.48,77.39,28,79.89Z"/><path class="cls-37" d="M55.11,67.27c-2.55,1.54-5,3.25-8.09,3.6-2.19-1.75-1.36-3.22.38-4.67s3.54-2.18,5.06-3.62A5.56,5.56,0,0,1,53.78,62a5,5,0,0,1,1.44-.11,3.12,3.12,0,0,1,1.88.88C57.85,64.88,54.76,65.32,55.11,67.27Z"/><path class="cls-38" d="M28,79.89c1.65-3.36,5.31-4,8-5.91.88-1.06,1.45-2.37,2.55-3.27a3.59,3.59,0,0,1,1.37-.53c1.68.18,3.24.44,2.09,2.76A42.46,42.46,0,0,1,28,79.89Z"/><path class="cls-39" d="M53,63c-.26,2.19-2.33,2.4-3.7,3.37-1.54,1.09-3.44,2-2.31,4.47l-4,2.06c-1.19-.85,1.32-3.08-1.39-3.57-.52-.1-.06-1.82.53-2.68a6.26,6.26,0,0,1,2.4-1.83C47.39,64.3,49.83,61.87,53,63Z"/><path class="cls-40" d="M82.08,58.05,81,59.17c-3.41-.41-6.26,1.88-9.56,2-1.09.34-2.16.66-2.69-.83,1.63-3.56,5.16-3.74,8.28-4.64C79.07,55.67,81,56,82.08,58.05Z"/><path class="cls-41" d="M64,87a12,12,0,0,1-6,.9c-1.18-1.11-3,.61-4.11-1A8,8,0,0,1,58,85c2.33,0,4.07-1.82,6.33-2a2.87,2.87,0,0,1,.56,2.82A6,6,0,0,1,64,87Z"/><path class="cls-42" d="M43,67c-1.69,2,2.3,3.95,0,5.92H42c-.2-1.89-1.57-2-3-2-1.81,1-2.43,0-2.57-1.64a3.47,3.47,0,0,1,1.3-2C39.46,66.42,41.17,65.57,43,67Z"/><path class="cls-43" d="M55.11,67.27c-1.57-2.4.9-3,1.89-4.28.76-2.42,2.71-3,4.9-3.14a3.32,3.32,0,0,1,2.08.82c.94,2-1.53,2.23-1.82,3.58h0c-2.26.06-4.41.42-6,2.21Z"/><path class="cls-44" d="M62.16,64.25C61.86,62.64,63.26,62,64,61a3.33,3.33,0,0,1,3-1.93A2.38,2.38,0,0,1,69,60l2.42,1.12Z"/><path class="cls-45" d="M78,63c3.27,1.71,3.76,5.49,6,8,.29.23.39.45.29.67S84.07,72,84,72A13.21,13.21,0,0,1,78,63Z"/><path class="cls-46" d="M74,80l-4.11-.18C72.75,78,75.69,76.3,79.19,76,78.63,78.8,75.6,78.5,74,80Z"/><path class="cls-47" d="M64,87l0-1.13c1.49-1.29.53-3.6,2-4.89L68,81.1c0,1.7.06,3.41.08,5.11C66.86,87.25,65.44,87.18,64,87Z"/><path class="cls-48" d="M63.63,83.06c-.9,3.57-3.3,2.68-5.66,1.9a11.69,11.69,0,0,1,5.79-2.64c.31.22.4.4.25.55A.5.5,0,0,1,63.63,83.06Z"/><path class="cls-49" d="M53.87,86.93c1.41.16,3-.31,4.11,1a14,14,0,0,1-7.87.92C51.28,87.69,52.31,86.81,53.87,86.93Z"/><path class="cls-50" d="M24.73,79l2.53,1.13A8.09,8.09,0,0,1,21,83.09c.74-1.36,2.68-1.63,3-3.35C24,79.24,24.22,79,24.73,79Z"/><path class="cls-51" d="M63.63,83.06a3.7,3.7,0,0,1,.13-.74L66.06,81c-.72,1.61,1.53,4.45-2,4.89C63.9,85,63.77,84,63.63,83.06Z"/><path class="cls-52" d="M56.15,66.46c1.48-2.2,3.22-3.69,6-2.21C60.21,65.06,58.39,66.34,56.15,66.46Z"/><path class="cls-53" d="M35,88.56c-1.43.43-2.6.83-4-.42C32.57,87.16,33.73,86.86,35,88.56Z"/><path class="cls-54" d="M16.18,83h5C19.5,86.31,17.84,84.59,16.18,83Z"/><path class="cls-55" d="M68.74,71.64c.23.46.59.86.61,1.28.05.91-.68,1.06-1.32.87-.34-.1-.8-.71-.73-1S67.93,72.27,68.74,71.64Z"/><path class="cls-56" d="M66.6,78.64c-.39-1.7.25-3,.93-3,1.68-.11.42,1,.3,1.55S67.25,77.91,66.6,78.64Z"/><path class="cls-57" d="M84,72V71c1.36.11,2.86-.34,4,.93-1.61,0-2.69,1.14-4,1.9Z"/><path class="cls-58" d="M29.05,74l-6,3c-.81.57-1.52.67-2-.4L20,74.43A1.18,1.18,0,0,1,19.67,73c2-2.07,4.46-2.33,7.1-2A3.17,3.17,0,0,1,29.05,74Z"/><path class="cls-59" d="M20.12,72.94c-.05.49-.11,1-.16,1.49-2.2-.75-1.51-2.68-1.72-4.24l.85-1.29a1.11,1.11,0,0,1,1.42.33A3,3,0,0,1,20.12,72.94Z"/><path class="cls-60" d="M21,76.59l2,.4c.58.68,1.15,1.37,1.72,2.05-.24.23-.47.47-.7.7C22.4,79.29,21.16,78.47,21,76.59Z"/><path class="cls-61" d="M24.16,61c-1.4-2.53-4.36-.27-6-2A1.27,1.27,0,0,1,19.2,57.9L24.13,56a1.73,1.73,0,0,1,2-.29,3.17,3.17,0,0,1,1,2A4.18,4.18,0,0,1,27,59.18C26.44,60.39,25.72,61.36,24.16,61Z"/><path class="cls-62" d="M35.93,49c.88-1.74,3.38.06,4.15-1.91a1.33,1.33,0,0,1,.89.16,2.06,2.06,0,0,1,1.61,1.43,2.52,2.52,0,0,1-.27,1.47c-1.39,1.39-3.15,1.45-4.94,1.38A2.08,2.08,0,0,1,35.92,50,1.06,1.06,0,0,0,35.93,49Z"/><path class="cls-63" d="M29.07,53.16l4-2a1.59,1.59,0,0,1,1.19,2.16,3.51,3.51,0,0,1-5.07,1.09.94.94,0,0,1-.3-.83C28.93,53.31,29,53.16,29.07,53.16Z"/><path class="cls-64" d="M29.07,53.16a1.78,1.78,0,0,1,0,.61c.49,2.74-1.42,2.25-3,2.24H24.13C24.93,53.58,27,53.34,29.07,53.16Z"/><path class="cls-65" d="M34,52.86l-1-1.67L35.92,50,37,51a2.33,2.33,0,0,1-1.15,2.38A1.46,1.46,0,0,1,34,52.86Z"/><path class="cls-66" d="M19.2,57.9l-1.08,1.17a7.46,7.46,0,0,1-4.37.85C15.3,58.53,17,57.46,19.2,57.9Z"/><path class="cls-67" d="M24.16,61l2.08-1.85c1.71-1,3.56-.68,5.4-.56,1.76.37,3.17,1,2.91,3.23-3.07,3.72-7.36,4.4-11.8,4.7-1.19-.65-1.57-1.52-.75-2.73Z"/><path class="cls-68" d="M22,63.83,23.06,66c1.38.51,3.2-.62,4.26,1.14a1.83,1.83,0,0,1-.42,1.52c-2.22,1.88-4.5,2.24-6.89.33a4.72,4.72,0,0,1-.92-.11A5.52,5.52,0,0,1,22,63.83Z"/><path class="cls-69" d="M78,41.16c.7,1.85,2,2.68,4,3.17,1,.26,3.87-.36,3,2.58-1.4,1.62-3,1.25-4.74.63-5.85-1.76-11.73-1.4-17.62-.25-1.88.31-3.75,1.41-5.63,0a1.65,1.65,0,0,1,0-2.27,5.08,5.08,0,0,0,3.86-1.22c1.28-1.58,3.23-1.29,4.91-1.76,1-.06,2,0,3-.06h2.16c2-.21,4.21.57,6.09-.84Z"/><path class="cls-70" d="M65.92,43a6.69,6.69,0,0,1-5.05.89c-.95-2.45.6-2.61,2.36-2.57C64,42,66.14,40.6,65.92,43Z"/><path class="cls-10" d="M77,41.18c-1.24,3.17-4,1.34-6,1.81-.54-1.13.37-1.42,1.06-1.84Z"/><path class="cls-71" d="M53.91,44l1.19,1.21c0,1.39-1,1.72-2.05,2a3.72,3.72,0,0,1-3-.8,1.65,1.65,0,0,1-.29-1.5A3.07,3.07,0,0,1,53.91,44Z"/><path class="cls-20" d="M50,45a3.23,3.23,0,0,0,.08,1,2.66,2.66,0,0,1-1.44,1.22,3.89,3.89,0,0,1-1.91.23c-.61-.27-1.11-.62-.72-1.41,0-.65,0-1.31.05-2L48,43.93C49.09,43.47,50.13,43.16,50,45Z"/><path class="cls-72" d="M53.06,46.21l2-1.05,1.91-.1c0,.62,0,1.23,0,1.84a2.89,2.89,0,0,1-2.9,1.83,2.68,2.68,0,0,1-1.31-.58A1.45,1.45,0,0,1,53.06,46.21Z"/><path class="cls-73" d="M65.92,43l-2.69-1.69,3.89,0c.53.65,2.46-.17,1.81,1.73Z"/><path class="cls-74" d="M68.93,42.94l-1.81-1.73,4.9-.06L71,43Z"/><path class="cls-14" d="M50,45l-2-1.08c2-1.2,4-1.58,5.93,0Z"/><path class="cls-70" d="M82.92,41.16l-5-.22C79.67,39.87,81.34,39.51,82.92,41.16Z"/><path class="cls-75" d="M94.9,57.36c-1.36,1.89-3.69,3.78,0,5.68a1.18,1.18,0,0,1,.45,1.19A6.29,6.29,0,0,1,94.23,66c-.38.89-1,2.52-1.7,2-2.59-1.7-5-4-5.7-7-.62-2.52,2-2.94,3.86-3.65a10.9,10.9,0,0,1,1.79-.86,3.13,3.13,0,0,1,1.89,0A.86.86,0,0,1,94.9,57.36Z"/><path class="cls-76" d="M97.91,56.14l3,.19a3.64,3.64,0,0,1,0,.66l-6,.37L95,57C95.38,54.74,96.58,55.2,97.91,56.14Z"/><path class="cls-77" d="M94.91,63.74V63A2.86,2.86,0,0,1,98,63l.9,1.14C97.48,64.75,96.09,65.37,94.91,63.74Z"/><path class="cls-78" d="M86,48l5.34.9,1.74.26a6.3,6.3,0,0,1,.77.78L94,51c.24,2.35-1.72,2.78-3.17,3-4.52.84-8.89,2.5-13.55,2.5a11.91,11.91,0,0,1-3-.12c-1.16-2.63,1-2.18,2.52-2.6-2.86-.47-6,3.72-8.3-.65a2.24,2.24,0,0,1,.38-1.44c2.42-1.63,5.33-1.94,8-3C79.86,48.34,82.83,47,86,48Z"/><path class="cls-79" d="M77,56c5.47-2.32,11.71-2.09,17-5.08l2.12.33c-.58,1.65.82,2.07,1.74,2.79,0,.31,0,.61-.05.92C93,56.65,87.82,56.15,83,57.84a2.19,2.19,0,0,1-.94.21L77,57q-.56-.34-.36-.66C76.76,56.13,76.89,56,77,56Z"/><path class="cls-80" d="M93.82,49.93c-.54,0-.81-.24-.77-.79C93.66,49.06,93.93,49.31,93.82,49.93Z"/><path class="cls-81" d="M86,48l-9,2c.9-1.47-.38-1.57-1.23-1.95a1.78,1.78,0,0,1,.08-1.32,5.57,5.57,0,0,1,2.53-1.18c.9.08,2-.41,2.5.8,1.24,1.16,2.72.48,4.1.55Z"/><path class="cls-82" d="M91.94,58.1c-1,1.6-4.44.13-4.11,2.53s3.72,3.57,4.42,6.26L94.06,65c.9-.3,1.11.14,1,.93A2,2,0,0,0,97,67l1,2.86c-1,1.39-2.26,2.26-4.09,1.75a34.23,34.23,0,0,1-8.36-7.43c-1.8-2.06-2.77-4-1.4-6.65a9.27,9.27,0,0,1,4-1C89.55,56.64,91,56.68,91.94,58.1Z"/><path class="cls-83" d="M95,65.9l-1-.93.85-1.23,4,.39C98.18,66,96.54,65.83,95,65.9Z"/><path class="cls-84" d="M46,46l1,1.06c.2,1.46-.76,1.47-1.77,1.43A1.91,1.91,0,0,1,44,46.92Z"/><path class="cls-85" d="M42.11,49.13,41,47.27l2.11-.19c.57.36,1.19.68,1.24,1.47A1.35,1.35,0,0,1,42.11,49.13Z"/><path class="cls-86" d="M44.06,48.09c-.32-.34-.65-.68-1-1a5.31,5.31,0,0,1,.87-.16l1,1A.52.52,0,0,1,44.06,48.09Z"/><path class="cls-87" d="M93.93,70.84c1.55.55,2.55-1.16,4-1a1.32,1.32,0,0,0,.94,0c.33,1.84-2.49,2.21-1.95,4.15L93,76a6.37,6.37,0,0,0-.9-3.81.85.85,0,0,0-.27-.51A1.7,1.7,0,0,1,93.93,70.84Z"/><path class="cls-88" d="M87.74,57.87,84,58.19a.62.62,0,0,1-1,0l.11-.33c1.24-2.87,3.91-2.67,6.31-2.8,2.82-.15,5.66,0,8.48,0l.09,1.15L95,57l-2,.15C91.31,58,89.39,57,87.74,57.87Z"/><path class="cls-89" d="M100.12,51.69l4.73.27C103.19,53.41,101.59,53.66,100.12,51.69Z"/><path class="cls-90" d="M82.92,58.17l1,0c-.06,5.28,5,7,7.43,10.48a13.45,13.45,0,0,0,2.54,2.17c-.72.25-1.12,1.35-2.14.81C87.5,68,82.27,65,82.92,58.17Z"/><path class="cls-91" d="M29.05,74c-1.63,0-1.51-.93-1-2a2.75,2.75,0,0,1,1-1.86,11.44,11.44,0,0,1,5.33-2.24A3,3,0,0,1,37,69a1.94,1.94,0,0,0,2,2v1c-1.41,1.61-3.49-.12-5,1Z"/><path class="cls-92" d="M34,73c1.42-1.54,3.3-.81,5-1a3.16,3.16,0,0,1-3,2Z"/><path class="cls-93" d="M62,61l-5,2-2,0c-.49-1.74.86-2.4,2-3s.92-1,.67-1.82A3,3,0,0,1,58.42,57c1.91-1.64,4.36-1.34,6.58-1.83,1.12-.26,2.5-.18,3,1.12.56,1.6-.81,2.21-1.93,3S63.27,60.27,62,61Z"/><path class="cls-94" d="M53,63a30.67,30.67,0,0,1-8,3,4.29,4.29,0,0,1-1.24-3.77c1.2-1.94,3.46-1.49,5.17-2.31a7,7,0,0,1,2.32-.12c1.62.43,3.12,1,2.71,3.16Z"/><path class="cls-95" d="M54,63a3.19,3.19,0,0,0-3-2c1.51-3.55,4-3.48,7-2,.46.21,1.7.06.81,1A30.67,30.67,0,0,1,55,63Z"/><path class="cls-96" d="M44,63c2.41.3,1.59,1.69,1,3l-2,1-5,1c-1.91-.85-1.65-2.42-1.33-4a3.44,3.44,0,0,1,1-1C39.82,62.43,41.91,61.12,44,63Z"/><path class="cls-97" d="M77,56c0,.32,0,.65,0,1l-8,3-2,0c1-3.62,3.9-4,7-4Z"/><path class="cls-98" d="M37,65l1,3-1,1H34a2.59,2.59,0,0,1-1.51-3.54C33.84,63.64,35.37,63.76,37,65Z"/><path class="cls-99" d="M74,56c-1.79,2.3-5.24,1.65-7,4l-3,1L62,61l5.27-4L67,56.18,58,58c-1.06.65-2.25,1-2.9-.33-.51-1.06.57-1.73,1.28-2.4a26.9,26.9,0,0,1,5.76-2.6c2.29-.27,4.65-1.78,6.84.32,2.85,2.65,5.94-1.53,8.78.45Z"/><path class="cls-100" d="M29,71l-1,1-7.91,1c0-1.31-.07-2.62-.11-3.93a19,19,0,0,0,7-1A3.05,3.05,0,0,1,29,71Z"/><path class="cls-101" d="M31,60a8.65,8.65,0,0,1-4.78-.8,4.78,4.78,0,0,1-.09-.92c1.37-2,3.45-2.91,5.65-3.63,1.16.26,2.39,0,3.53.38,1.32.62,3,.6,3.93,1.94A1.66,1.66,0,0,1,39,58.42C36.79,61.19,33.54,58.71,31,60Z"/><path class="cls-102" d="M32.09,55.11c-2,1-3.4,3.16-5.94,3.16L26,56c.8-1,2.52-.8,3-2.24l3.19.39A.82.82,0,0,1,32.09,55.11Z"/><path class="cls-103" d="M36.13,52.87A1.86,1.86,0,0,1,37,51a9.06,9.06,0,0,1,4.74-1,1,1,0,0,1,1.44,0c-.58,4.13-3.13,4.66-6.56,3.59Z"/><path class="cls-104" d="M43.34,50.2l-1.58-.27a8.08,8.08,0,0,1,.35-.8l2-1a8,8,0,0,1,.85-.19A2.1,2.1,0,0,0,47,47.09c.33-.35.66-.7,1-1.06.79,1.25,3.15.56,3.25,2.65C48.94,51,46.35,51.71,43.34,50.2Z"/><path class="cls-105" d="M32.09,55.11c0-.31.1-.63.12-1L34,52.86h2.11l-.11.21a2.26,2.26,0,0,1,.65,2.05c-.32.73-.72,1.3-1.66.87C34,56,32.84,56.15,32.09,55.11Z"/><path class="cls-106" d="M37,65c-1.39.09-2.9-.3-4,1-1.7,2-3.61,2.88-6,1-1.39-.1-2.91.34-4-1l11-4a1.45,1.45,0,0,1,1.81-.32c.77.57-.52,2.23,1.2,2.33Z"/><path class="cls-107" d="M36,62H34c-.18-1.91-1.56-2-3-2,2.46-1.44,5.29-1.45,8-2,1.89-.93,2.48,0,2.53,1.76C40.38,62.16,38.57,63,36,62Z"/><path class="cls-108" d="M27.05,67c2.1.32,4-.65,6-1l1,3-5,2a3.19,3.19,0,0,1-2-3C27,67.65,27,67.33,27.05,67Z"/><path class="cls-109" d="M54,48.17l3-1.27c1.82.55,3.36-.46,5-.89,2.14-.95,4.37-.33,6.56-.41.87,4.27-3.16,3.24-5,4.61-1.83.16-3.58.92-5.46.76C56.59,50.29,54.27,50.74,54,48.17Z"/><path class="cls-10" d="M69,46.05l-7,0c6.32-1.46,12.63-2,18.87.35l-2.93-.18c-2,.4-3.77,1.45-5.85,1.25A3.47,3.47,0,0,1,69,46.05Z"/><path class="cls-110" d="M51.06,48.05c-1.38-.14-2.89-.07-3.1-2l2.12,0,3,.22c0,.55,0,1.09,0,1.63A1.29,1.29,0,0,1,51.06,48.05Z"/><path class="cls-111" d="M51.06,48.05l2-.21,1,.33L58,50c-2.91,3.36-7.32,2.91-11,4.38C43.29,54,39.85,57.68,36,55c0-.64,0-1.28,0-1.93,2.69-.32,5.45-.47,7.32-2.88A20.81,20.81,0,0,0,51.06,48.05Z"/><path class="cls-76" d="M87.74,57.87A8.06,8.06,0,0,1,93,57.13l-1,1Z"/><path class="cls-112" d="M76,48l2.07.52L77,50a17.79,17.79,0,0,1-8,2.06c-.58-1-1.75-2-.86-3.39C70.66,47.36,73.2,46.4,76,48Z"/><path class="cls-113" d="M68,50c1.67,0,1.48,1,1,2.07L69,53l-7,1c-.88-.75,1.59-1.86-.26-2.52a2.07,2.07,0,0,1,1.4-1.4C64.75,49.87,66.33,48.47,68,50Z"/><path class="cls-114" d="M90,50.06c-3,2.28-5.53,1.93-7.81,2.48C84.06,51,86.2,50.16,90,50.06Z"/><path class="cls-115" d="M68,50,63,51a1.27,1.27,0,0,1,0-2c1.91-1.15,4.45-1.06,6-3l3,0c1.17,1,2.85-.17,4,.94,0,.33,0,.65-.05,1C73.27,48.55,70.44,48.55,68,50Z"/><path class="cls-116" d="M76,47c-1.38-.12-2.89.33-4-.94l5.93.09Z"/><path class="cls-117" d="M57,56c-.36.48-1.1,1.11-1,1.43.3.89,1.28.41,2,.54,0,.33,0,.66,0,1a15.89,15.89,0,0,0-7,2H49a2.88,2.88,0,0,1-2.32.48c-.92-.06-2.2.43-2.61-.72-.49-1.35,1-1.88,1.65-2.7a7.55,7.55,0,0,1,2.78-1.41c2.21-.39,4.24-1.54,6.54-1.62A2.58,2.58,0,0,1,57,56Z"/><path class="cls-118" d="M47,59l-2.6,2H49c-1.24,1.74-3.76.27-5,2l-7,1L35,63.49c.36-.49.71-1,1.06-1.48l5-2C42.75,58.1,44.61,56.91,47,59Z"/><path class="cls-119" d="M57,56l-2,0c-.32-2.43,2.46-2.63,3.13-4.37A2.8,2.8,0,0,1,62,52c2.9.65-.3,1.35,0,2Z"/><path class="cls-120" d="M36,55c3.86.43,7.13-2.42,11-2,1,.56,2.65-.25,3.3,1.32a1.67,1.67,0,0,1-.58,1.4C46.33,57.46,42.84,58.53,39,57c-1.4-.1-2.93.34-4-1Z"/><path class="cls-121" d="M39,57l11-2c1.13,1.48.11,2.25-1,3l-2,1-6,1a2,2,0,0,0-2-2C39,57.67,39,57.34,39,57Z"/><path class="cls-122" d="M50,54c-1.1,0-2.24,0-3-1L58,50,63,49v2l-1,1c-1.39.09-2.9-.3-4,1C55.5,54.67,53,56.44,50,54Z"/><path class="cls-123" d="M50,54a21.08,21.08,0,0,0,8-1c.71,2.69-2.53,1.48-3,3l-6,2,1-3C50,54.66,50,54.34,50,54Z"/></svg>